<?xml version="1.0" standalone="no"?>
<!DOCTYPE svg PUBLIC "-//W3C//DTD SVG 1.1//EN" "../../../www.w3.org/Graphics/SVG/1.1/DTD/svg11.dtd" >
<svg xmlns="http://www.w3.org/2000/svg">
<metadata></metadata>
<defs>
<font id="lobster_tworegular" horiz-adv-x="485" >
<font-face units-per-em="1000" ascent="800" descent="-200" />
<missing-glyph horiz-adv-x="215" />
<glyph unicode="IJ" horiz-adv-x="660" d="M357 748v-694q79 -3 79 -82q0 -2 -0.5 -6.5t-0.5 -7.5q-26 25 -58 25q-24 0 -38.5 -20.5t-14.5 -48.5q0 -32 20 -56t58 -24q42 0 71 33.5t29 98.5v757l112 27v-710q0 -121 -47 -184t-159 -63q-78 0 -119 42.5t-41 100.5q0 36 15 64h-16v691q-68 -19 -106.5 -66 t-38.5 -114q0 -48 12 -73.5t34 -44.5q-130 0 -130 121q0 94 91 165t206 71q16 0 42 -2z" />
<glyph unicode="ij" horiz-adv-x="450" d="M280 500h100v-479q56 18 81.5 48.5t35.5 109.5h37q-15 -99 -47.5 -135.5t-106.5 -58.5v-64q0 -88 -35 -1290CDAF95A21" />
<glyph unicode="ff" horiz-adv-x="484" d="M197 750q85 0 116 -72q38 72 125 72q61 0 99.5 -38.5t38.5 -111.5h-39q-6 43 -22.5 64.5t-50.5 21.5q-44 0 -58.5 -34.5t-14.5 -103.5v-48h81v-35h-81v-545q0 -95 -41 -132.5t-100 -37.5q-74 0 -120 65q-29 -65 -108 -65q-52 0 -79 24.5t-27 64.5q0 85 130 146v591 q0 84 41 129t110 45zM146 21q59 17 145 34v410h-145v-444zM291 22q-76 -14 -145 -34v-68q0 -42 -6 -72q36 -46 83 -46q31 0 49.5 24t18.5 92v104zM146 548v-48h145v76q0 61 -17 85.5t-52 24.5q-46 0 -61 -34t-15 -104zM1 -198q27 0 36 28.5t9 87.5v30q-91 -46 -91 -98 q0 -20 13 -34t33 -14z" />
<glyph unicode="fi" horiz-adv-x="456" d="M227 465h-81v-545q0 -94 -33 -132t-91 -38q-53 0 -79.5 24.5t-26.5 66.5q0 91 130 146v574q0 75 44.5 131.009CE59ADA" />
<glyph unicode="fl" horiz-adv-x="456" d="M146 548v-48h81v-35h-81v-545q0 -102 -23 -136t-76 -34q-57 0 -94 26t-37 77q0 74 130 133v575q0 28 2 50.5t10.5 49.5t23 45t42 30.5t64.5 12.5q22 0 42.5 -2t33.5 -4t32 -8t27.5 -9.5t31.5 -12.5t32 -13v-540q0 -90 45 -90q49 0 72 109h37q-11 -59 -27.5 -98.5t-37 -57 t-37.5 -23.5t-37 -6q-62 0 -88.5 43t-26.5 102v542q-38 5 -61 5q-49 0 -64.5 -33t-15.5 -105zM2 -198q26 0 35 29t9 87v31q-91 -44 -91 -99q0 -20 13 -34t34 -14z" />
<glyph unicode="ffi" horiz-adv-x="696" d="M391 548v-48h81v-35h-81v-545q0 -95 -41 -132.5t-100 -37.5q-74 0 -120 65q-29 -65 -108 -65q-52 0 -79 24.5t-27 64.5q0 85 130 146v591q0 84 41 129t110 45q91 0 120 -83q48 82 156 82q73 0 112 -35.5t39 -87.5q0 -32 -15 -47t-36 -15t-36.5 13t-15.5 33q0 15 8 29.5 t20 16.5q-10 48 -69 48q-89 0 -89 -156zM146 21q59 17 145 34v410h-145v-444zM526 500h100v-340q0 -90 45 -90q49 0 72 109h37q-11 -59 -27.5 -98.5t-37 -57t-37.5 -23.5t-37 -6q-62 0 -88.5 43t-26.5 102v361zM291 22q-76 -14 -145 -34v-68q0 -42 -6 -72q36 -46 83 -46 q31 0 49.5 24t18.5 92v104zM146 548v-48h145v76q0 61 -17 85.5t-52 24.5q-46 0 -61 -34t-15 -104zM1 -198q27 0 36 28.5t9 87.5v30q-91 -46 -91 -98q0 -20 13 -34t33 -14z" />
<glyph unicode="ffl" horiz-adv-x="701" d="M391 548v-48h81v-35h-81v-545q0 -95 -41 -132.5t-100 -37.5q-74 0 -120 65q-29 -65 -108 -65q-52 0 -79 24.5t-27 64.5q0 85 130 146v591q0 84 41 129t110 45q84 0 114 -69q33 68 122 68q22 0 42.5 -2t33.5 -4t32 -8t27.5 -9.5t31.5 -12.5t32 -13v-540q0 -90 45 -90 q49 0 72 109h37q-11 -59 -27.5 -98.5t-37 -57t-37.5 -23.5t-37 -6q-62 0 -88.5 43t-26.5 102v542q-37 5 -61 5q-49 0 -64.5 -33t-15.5 -105zM146 21q59 17 145 34v410h-145v-444zM291 22q-76 -14 -145 -34v-68q0 -42 -6 -72q36 -46 83 -46q31 0 49.5 24t18.5 92v104z M146 548v-48h145v76q0 61 -17 85.5t-52 24.5q-46 0 -61 -34t-15 -104zM1 -198q27 0 36 28.5t9 87.5v30q-91 -46 -91 -98q0 -20 13 -34t33 -14z" />
<glyph unicode="Ex" horiz-adv-x="776" d="M421 462h114l81 -206q90 119 90 186q0 12 -1 17q-9 -4 -21 -4q-23 0 -39 15t-16 38q0 22 15 37t38 15q30 0 49.5 -26.5t19.5 -72.5q0 -53 -28 -108t-90 -139l14 -35q2 -5 7.5 -20t8.5 -22t9 -19.5t11 -19t11.5 -14t14 -11t15.5 -3.5q24 0 44 30t30 79h35 q-11 -59 -27 -98.5t-35.5 -57t-36 -23.5t-35.5 -6q-48 0 -81 32t-66 106q-42 -69 -123 -109.5t-167 -40.5q-58 0 -102.5 20t-69 53.5t-36.5 72t-12 80.5q0 74 35.5 128.5t99.5 80.5q-90 57 -90 151q0 73 52 128.5t145 55.5q64 0 108.5 -30t44.5 -97q0 -38 -15 -60t-40 -22 q-27 0 -53 27q16 7 28.5 26.5t12.5 45.5q0 36 -23.5 54t-56.5 18q-51 0 -81.5 -41.5t-30.5 -95.5q0 -18 4 -37.5t14 -45.5t34.5 -47t59.5 -29q-65 -15 -101 -67t-36 -125q0 -76 40 -120.5t122 -44.5q71 0 131 32t89 79l-2 7z" />
<glyph unicode="Fi" horiz-adv-x="766" d="M628 615q-38 0 -121 25t-101 29v-234h128v-59h-128v-376h-109v682q-72 -3 -108.5 -40t-36.5 -103q0 -37 13 -81.5t29 -61.5q-61 0 -87 31.5t-26 105.5q0 93 69.5 155t206.5 62q45 0 111.5 -10t109.5 -10q72 0 141 19q0 -71 -18.5 -102.5t-72.5 -31.5zM596 500h100v-340 q0 -90 45 -90q49 0 72 109h37q-11 -59 -27.5 -98.5t-37 -57t-37.5 -23.5t-37 -6q-62 0 -88.5 43t-26.5 102v361z" />
<glyph unicode="Th" horiz-adv-x="983" d="M913 156q0 -86 45 -86q49 0 72 109h37q-33 -185 -137 -185q-59 0 -88 43.5t-29 109.5q0 12 1.5 86t1.5 88q0 108 -64 108q-63 0 -90 -109v-320h-100v644q-53 2 -143 18v-662h-110v670q-26 2 -39 2q-88 0 -132.5 -32t-44.5 -109q0 -87 45 -139q-118 0 -118 145 q0 91 72.5 151.5t225.5 60.5q56 0 128 -11.5t111 -11.5q92 0 119 12q-14 -57 -14 -167v-147q43 81 120 81q137 0 137 -179q0 -23 -3 -83t-3 -87z" />
<glyph unicode="Ti" horiz-adv-x="720" d="M246 682q-77 0 -116 -37t-39 -106q0 -37 13 -81.5t29 -61.5q-61 0 -87 31.5t-26 105.5q0 93 69.5 155t206.5 62q45 0 111.5 -10t109.5 -10q92 0 161 19q0 -71 -18.5 -102.5t-72.5 -31.5q-14 0 -29 2t-36 7t-32 7.5t-39.5 11t-36.5 10.5v-653h-108v677q-33 5 -60 5z M550 500h100v-340q0 -90 45 -90q49 0 72 109h37q-11 -59 -27.5 -98.5t-37 -57t-37.5 -23.5t-37 -6q-62 0 -88.5 43t-26.5 102v361z" />
<glyph unicode="ax" horiz-adv-x="857" d="M315 500h100v-340q0 -49 14 -69.5t47 -20.5q38 0 76.5 24t66.5 72q-4 8 -5 13l-127 321h114l96 -244q90 119 90 186q0 12 -1 17q-9 -4 -21 -4q-23 0 -39 15t-16 38q0 22 15 37t38 15q30 0 49.5 -26.5t19.5 -72.5q0 -53 -28 -108t-90 -139l14 -35q1 -4 7.5 -20t9 -22 t9 -19.5t11 -19.5t11 -14t14 -11t15.5 -3q24 0 44 30t30 79h35q-11 -59 -27 -98.5t-35.5 -57t-36 -23.5t-35.5 -6q-46 0 -78.5 30t-64.5 99q-40 -71 -93 -100t-103 -29q-92 0 -108 94q-16 -41 -50.5 -67.5t-80.5 -26.5q-68 0 -119 57t-51 169q0 68 18 130t62.5 108.5 t107.5 46.5q70 0 95 -53v48zM223 70q38 0 65 32.5t27 76.5v228q-18 43 -61 43q-39 0 -67 -37t-39 -86.5t-11 -103.5q0 -77 24 -115t62 -38z" />
<glyph unicode="a&#x7a;" horiz-adv-x="867" d="M315 500h100v-340q0 -90 48 -90q17 0 33 6q2 -12 2 -18q0 -29 -22 -46.5t-53 -17.5q-33 0 -57 23t-33 71q-16 -41 -50.5 -67.5t-80.5 -26.5q-68 0 -119 57t-51 169q0 68 18 130t62.5 108.5t107.5 46.5q70 0 95 -53v48zM821 85q-7 2 -12.5 10t-5.5 16q0 15 12 24t29 9 q23 0 40.5 -15.5t17.5 -43.5q0 -32 -32 -58.5t-82 -26.5h-262l216 446h-86q-57 0 -57 -14q0 -6 8.5 -16t8.5 -16q0 -11 -13 -21t-32 -10q-27 0 -42 21t-15 51q0 59 103 59h248l-214 -430q102 -6 129 -6q38 0 41 21zM223 70q38 0 65 32.5t27 76.5v228q-18 43 -61 43 q-39 0 -67 -37t-39 -86.5t-11 -103.5q0 -77 24 -115t62 -38z" />
<glyph unicode="bs" horiz-adv-x="759" d="M807 179h42q-42 -58 -122 -115q-39 -70 -137 -70q-78 0 -113 44.5t-35 99.5q0 40 18.5 59t41.5 19q19 0 32022D22EA7A" />
<glyph unicode="bsx" horiz-adv-x="1111" d="M741 500h114l96 -244q90 119 90 186q0 12 -1 17q-9 -4 -21 -4q-23 0 -39 15t-16 38q0 22 15 37t38 15q30 0087C261A87" />
<glyph unicode="bs&#x7a;" horiz-adv-x="1114" d="M46 179l1 507l100 14v-237q37 39 95 39q55 0 101.5 -36t60.5 -119q91 11 158 164l101 20q12 -47 29.5 -1160D4D7D1ADD" />
<glyph unicode="cx" horiz-adv-x="751" d="M381 500h114l96 -244q90 119 90 186q0 12 -1 17q-9 -4 -21 -4q-23 0 -39 15t-16 38q0 22 15 37t38 15q30 0 49.5 -26.5t19.5 -72.5q0 -53 -28 -108t-90 -139l14 -35q1 -4 7.5 -20t9 -22t9 -19.5t11 -19.5t11 -14t14 -11t15.5 -3q24 0 44 30t30 79h35q-11 -59 -27 -98.5 t-35.5 -57t-36 -23.5t-35.5 -6q-48 0 -81.5 34t-68.5 113q-56 -67 -131 -107t-155 -40q-91 0 -146.5 56.5t-55.5 181.5q0 45 8 88t27 87t58.5 71t94.5 27q60 0 93 -31t33 -86q0 -62 -39 -62q-22 0 -37 21q17 14 17 50q0 25 -15 40t-39 15q-50 0 -72.5 -63t-22.5 -147 q0 -103 32 -137.5t98 -34.5q155 0 235 111z" />
<glyph unicode="c&#x7a;" horiz-adv-x="731" d="M685 85q-7 2 -12.5 10t-5.5 16q0 15 12 24t29 9q23 0 40.5 -15.5t17.5 -43.5q0 -32 -32 -58.5t-82 -26.5h-262l216 446h-75q-57 0 -57 -14q0 -6 8.5 -16t8.5 -16q0 -11 -13 -21t-32 -10q-27 0 -42 21t-15 51q0 59 103 59h237l-214 -430q102 -6 129 -6q38 0 41 21z M273 347q17 14 17 50q0 25 -14.5 40t-38.5 15q-27 0 -46.5 -19.5t-30 -51.5t-15 -66t-4.5 -71q0 -99 30.5 -136.5t84.5 -37.5q65 0 107 47q-1 -63 -38.5 -93t-94.5 -30q-83 0 -139 56.5t-56 182.5q0 45 8 87.5t27 86.5t58.5 71t94.5 27q60 0 93 -31t33 -86q0 -62 -39 -62 q-22 0 -37 21z" />
<glyph unicode="ex" horiz-adv-x="726" d="M381 500h114l96 -244q90 119 90 186q0 12 -1 17q-9 -4 -21 -4q-23 0 -39 15t-16 38q0 22 15 37t38 15q30 0 49.5 -26.5t19.5 -72.5q0 -53 -28 -108t-90 -139l14 -35q1 -4 7.5 -20t9 -22t9 -19.5t11 -19.5t11 -14t14 -11t15.5 -3q24 0 44 30t30 79h35q-11 -59 -27 -98.5 t-35.5 -57t-36 -23.5t-35.5 -6q-49 0 -83 34.5t-69 115.5q-46 -67 -127.5 -108.5t-164.5 -41.5q-88 0 -141 54t-53 172q0 48 9.5 95t30.5 91t61 71.5t93 27.5q55 0 92.5 -29t37.5 -94q0 -77 -57 -123.5t-160 -58.5q6 -74 37.5 -102t89.5 -28q64 0 128.5 27t109.5 82z M246 456q-49 0 -76 -65t-28 -152q70 12 112 50.5t42 99.5q0 67 -50 67z" />
<glyph unicode="e&#x7a;" horiz-adv-x="754" d="M359 375q0 -70 -58 -117t-159 -58q7 -74 37 -102t78 -28q74 0 108 49q2 -18 2 -25q0 -44 -42 -72t-99 -28q-77 0 -134 57t-57 174q0 46 10 92t31 89.5t60 71t90 27.5q133 0 133 -130zM708 85q-7 2 -12.5 10t-5.5 16q0 15 12 24t29 9q23 0 40.5 -15.5t17.5 -43.5 q0 -32 -32 -58.5t-82 -26.5h-262l216 446h-86q-57 0 -57 -14q0 -6 8.5 -16t8.5 -16q0 -11 -13 -21t-32 -10q-27 0 -42 21t-15 51q0 59 103 59h248l-214 -430q102 -6 129 -6q37 0 41 21zM141 239q71 11 112.5 50.5t41.5 95.5q0 71 -50 71q-33 0 -57.5 -34.5t-35.5 -82.5 t-11 -100z" />
<glyph unicode="&#xe9;x" horiz-adv-x="751" d="M381 500h114l96 -244q90 119 90 186q0 12 -1 17q-9 -4 -21 -4q-23 0 -39 15t-16 38q0 22 15 37t38 15q30 0 49.5 -26.5t19.5 -72.5q0 -53 -28 -108t-90 -139l14 -35q1 -4 7.5 -20t9 -22t9 -19.5t11 -19.5t11 -14t14 -11t15.5 -3q24 0 44 30t30 79h35q-11 -59 -27 -98.5 t-35.5 -57t-36 -23.5t-35.5 -6q-49 0 -83 34.5t-69 115.5q-46 -67 -127.5 -108.5t-164.5 -41.5q-88 0 -141 54t-53 172q0 48 9.5 95t30.5 91t61 71.5t93 27.5q55 0 92.5 -29t37.5 -94q0 -77 -57 -123.5t-160 -58.5q6 -74 37.5 -102t89.5 -28q64 0 128.5 27t109.5 82z M246 456q-49 0 -76 -65t-28 -152q70 12 112 50.5t42 99.5q0 67 -50 67zM196 561l51 189h85l-81 -189h-55z" />
<glyph unicode="fft" horiz-adv-x="721" d="M197 750q84 0 114 -69q33 68 122 68q22 0 42.5 -2t33.5 -4t32 -8t27.5 -9.5t31.5 -12.5t32 -13v-200h77v-35h-77v-305q0 -90 47 -90q28 0 52 28t38 81h37q-16 -59 -36 -98.5t-42 -57t-39.5 -23.5t-38.5 -6q-65 0 -91.5 42.5t-26.5 102.5v326h-141v-545q0 -95 -41 -132.5 t-100 -37.5q-74 0 -120 65q-29 -65 -108 -65q-52 0 -79 24.5t-27 64.5q0 85 130 146v591q0 84 41 129t110 45zM146 21q59 17 145 34v410h-145v-444zM291 22q-76 -14 -145 -34v-68q0 -42 -6 -72q36 -46 83 -46q31 0 49.5 24t18.5 92v104zM391 548v-48h141v181q-37 5 -61 5 q-49 0 -64.5 -33t-15.5 -105zM146 548v-48h145v79q-1 59 -18 83t-51 24q-46 0 -61 -34t-15 -104zM1 -198q27 0 36 28.5t9 87.5v30q-91 -46 -91 -98q0 -20 13 -34t33 -14z" />
<glyph unicode="fix" horiz-adv-x="828" d="M458 500h114l96 -244q90 119 90 186q0 12 -1 17q-9 -4 -21 -4q-23 0 -39 15t-16 38q0 22 15 37t38 15q30 00CA1398A60" />
<glyph unicode="fi&#x7a;" horiz-adv-x="820" d="M227 465h-81v-545q0 -94 -33 -132t-91 -38q-53 0 -79.5 24.5t-26.5 66.5q0 91 130 146v574q0 75 44.5 131.0C2AD64A1A" />
<glyph unicode="flx" horiz-adv-x="829" d="M459 500h114l96 -244q90 119 90 186q0 12 -1 17q-9 -4 -21 -4q-23 0 -39 15t-16 38q0 22 15 37t38 15q30 0 49.5 -26.5t19.5 -72.5q0 -53 -28 -108t-90 -139l14 -35q1 -4 7.5 -20t9 -22t9 -19.5t11 -19.5t11 -14t14 -11t15.5 -3q24 0 44 30t30 79h35q-11 -59 -27 -98.5 t-35.5 -57t-36 -23.5t-35.5 -6q-46 0 -78.5 30.5t-64.5 99.5q-87 -130 -202 -130q-120 0 -120 145v542q-38 5 -61 5q-49 0 -64.5 -33t-15.5 -105v-48h81v-35h-81v-545q0 -102 -23 -136t-76 -34q-57 0 -94 26t-37 77q0 74 130 133v575q0 28 2 50.5t10.5 49.5t23 45t42 30.5 t64.5 12.5q22 0 42.5 -2t33.5 -4t32 -8t27.5 -9.5t31.5 -12.5t32 -13v-540q0 -27 3 -44t16.5 -31.5t39.5 -14.5q76 0 145 94zM2 -198q26 0 35 29t9 87v31q-91 -44 -91 -99q0 -20 13 -34t34 -14z" />
<glyph unicode="fl&#x7a;" horiz-adv-x="817" d="M146 548v-48h81v-35h-81v-545q0 -102 -23 -136t-76 -34q-57 0 -94 26t-37 77q0 74 130 133v575q0 28 2 50.5t10.5 49.5t23 45t42 30.5t64.5 12.5q22 0 42.5 -2t33.5 -4t32 -8t27.5 -9.5t31.5 -12.5t32 -13v-540q0 -90 44 -90q21 0 37 6q2 -12 2 -18q0 -32 -25.5 -48 t-58.5 -16q-99 0 -99 141v546q-38 5 -61 5q-49 0 -64.5 -33t-15.5 -105zM771 85q-7 2 -12.5 10t-5.5 16q0 15 12 24t29 9q23 0 40.5 -15.5t17.5 -43.5q0 -32 -32 -58.5t-82 -26.5h-262l216 446h-86q-57 0 -57 -14q0 -6 8.5 -16t8.5 -16q0 -11 -13 -21t-32 -10q-27 0 -42 21 t-15 51q0 59 103 59h248l-214 -430q102 -6 129 -6q38 0 41 21zM2 -198q26 0 35 29t9 87v31q-91 -44 -91 -99q0 -20 13 -34t34 -14z" />
<glyph unicode="ft" horiz-adv-x="476" d="M188 749q22 0 42.5 -2t33.5 -4t32 -8t27.5 -9.5t31.5 -12.5t32 -13v-200h77v-35h-77v-305q0 -90 47 -90q28 0 52 28t38 81h37q-16 -59 -36 -98.5t-42 -57t-39.5 -23.5t-38.5 -6q-65 0 -91.5 42.5t-26.5 102.5v326h-141v-545q0 -102 -23 -136t-76 -34q-57 0 -94 26t-37 77 q0 74 130 133v575q0 28 2 50.5t10.5 49.5t23 45t42 30.5t64.5 12.5zM146 548v-48h141v181q-38 5 -61 5q-49 0 -64.5 -33t-15.5 -105zM2 -198q26 0 35 29t9 87v31q-91 -44 -91 -99q0 -20 13 -34t34 -14z" />
<glyph unicode="fu" horiz-adv-x="675" d="M505 500h100v-340q0 -90 45 -90q49 0 72 109h37q-11 -59 -27.5 -98.5t-37 -57t-37.5 -23.5t-37 -6q-78 0 -97 94q-18 -47 -48.5 -70.5t-66.5 -23.5q-64 0 -102.5 37t-38.5 118v316h-121v-545q0 -97 -33.5 -133.5t-91.5 -36.5q-105 0 -105 97q0 83 130 139v590 q0 84 40 129t106 45q62 0 100.5 -38.5t38.5 -111.5h-39q-6 43 -22.5 64.5t-50.5 21.5q-44 0 -58.5 -34.5t-14.5 -103.5v-48h221v-340q0 -90 60 -90q31 0 54.5 30t23.5 79v321zM1 -198q27 0 36 28.5t9 87.5v31q-91 -44 -91 -99q0 -20 13 -34t33 -14z" />
<glyph unicode="fx" horiz-adv-x="631" d="M146 548v-48h224l96 -233q96 98 96 175q0 12 -1 17q-9 -4 -21 -4q-23 0 -39 15t-16 38q0 22 15 37t38 15q30 0 49.5 -26.5t19.5 -72.5q0 -117 -124 -233l20 -49q15 -37 23 -54.5t23.5 -36t31.5 -18.5q23 0 43.5 31t29.5 78h35q-11 -59 -27 -98.5t-35.5 -57t-35.5 -23.5 t-35 -6q-54 0 -89 41t-77 140q-94 -63 -94 -118q0 -7 1 -11q5 2 15 2q20 0 36.5 -14t16.5 -35q0 -19 -14 -33t-40 -14q-29 0 -50 19.5t-21 58.5q0 53 39.5 104t93.5 83l-103 248h-124v-545q0 -94 -33 -132t-91 -38q-53 0 -79.5 24.5t-26.5 66.5q0 91 130 146v589 q0 84 40 129t107 45q61 0 99.5 -38.5t38.5 -111.5h-39q-6 43 -22.5 64.5t-50.5 21.5q-44 0 -58.5 -34.5t-14.5 -103.5zM1 -198q27 0 36 28.5t9 87.5v31q-91 -44 -91 -99q0 -20 13 -34t33 -14z" />
<glyph unicode="gp" horiz-adv-x="907" d="M531 537h101v-77q43 45 104 45q74 0 120 -63t46 -186t-47 -192.5t-129 -69.5q-22 0 -94 17v-236l-101 -25v0602A9FAA2" />
<glyph unicode="gx" horiz-adv-x="856" d="M486 500h114l96 -244q90 119 90 186q0 12 -1 17q-9 -4 -21 -4q-23 0 -39 15t-16 38q0 22 15 37t38 15q30 0 49.5 -26.5t19.5 -72.5q0 -53 -28 -108t-90 -139l14 -35q1 -4 7.5 -20t9 -22t9 -19.5t11 -19.5t11 -14t14 -11t15.5 -3q24 0 44 30t30 79h35q-11 -59 -27 -98.5 t-35.5 -57t-36 -23.5t-35.5 -6q-49 0 -82 33.5t-68 112.5q-41 -69 -85.5 -99.5t-129.5 -57.5v-62q0 -88 -35 -129.5t-90 -41.5q-48 0 -77 28.5t-29 70.5q0 86 131 138v86q-42 -59 -111 -59q-70 0 -120.5 54t-50.5 165q0 65 18 124t63 103.5t109 44.5q68 0 92 -51v46h100 v-481q79 24 111.5 51t85.5 112zM228 90q29 0 55.5 28t30.5 67v225q-18 40 -58 40t-68.5 -35t-39.5 -80.5t-11 -94.5q0 -150 91 -150zM270 -198q25 0 34.5 19t9.5 57v70q-46 -19 -69 -40.5t-23 -53.5q0 -24 13 -38t35 -14z" />
<glyph unicode="g&#x7a;" horiz-adv-x="851" d="M315 500h100v-579q0 -88 -35 -129.5t-90 -41.5q-48 0 -77 28t-29 70q0 86 131 140v86q-43 -60 -112 -60q-70365A40A0A" />
<glyph unicode="ix" horiz-adv-x="589" d="M219 500h114l96 -244q90 119 90 186q0 12 -1 17q-9 -4 -21 -4q-23 0 -39 15t-16 38q0 22 15 37t38 15q30 0 49.5 -26.5t19.5 -72.5q0 -53 -28 -108t-90 -139l14 -35q1 -4 7.5 -20t9 -22t9 -19.5t11 -19.5t11 -14t14 -11t15.5 -3q24 0 44 30t30 79h35q-11 -59 -27 -98.5 t-35.5 -57t-36 -23.5t-35.5 -6q-46 0 -78.5 30.5t-64.5 99.5q-87 -130 -202 -130q-120 0 -120 145v361h100v-340q0 -27 3 -44t16.5 -31.5t39.5 -14.5q76 0 145 94l-5 15zM29 644q0 27 19.5 47t46.5 20t47 -20t20 -47t-20 -46.5t-47 -19.5q-28 0 -47 19t-19 47z" />
<glyph unicode="i&#x7a;" horiz-adv-x="593" d="M29 644q0 27 19.5 47t46.5 20t47 -20t20 -47t-20 -46.5t-47 -19.5q-28 0 -47 19t-19 47zM47 500h100v-340q0 -90 44 -90q21 0 37 6q2 -12 2 -18q0 -32 -25.5 -48t-58.5 -16q-99 0 -99 141v365zM547 85q-7 2 -12.5 10t-5.5 16q0 15 12 24t29 9q23 0 40.5 -15.5t17.5 -43.5 q0 -32 -32 -58.5t-82 -26.5h-262l216 446h-86q-57 0 -57 -14q0 -6 8.5 -16t8.5 -16q0 -11 -13 -21t-32 -10q-27 0 -42 21t-15 51q0 59 103 59h248l-214 -430q102 -6 129 -6q38 0 41 21z" />
<glyph unicode="&#xed;x" horiz-adv-x="589" d="M219 500h114l96 -244q90 119 90 186q0 12 -1 17q-9 -4 -21 -4q-23 0 -39 15t-16 38q0 22 15 37t38 15q30 0 49.5 -26.5t19.5 -72.5q0 -53 -28 -108t-90 -139l14 -35q1 -4 7.5 -20t9 -22t9 -19.5t11 -19.5t11 -14t14 -11t15.5 -3q24 0 44 30t30 79h35q-11 -59 -27 -98.5 t-35.5 -57t-36 -23.5t-35.5 -6q-46 0 -78.5 30.5t-64.5 99.5q-88 -130 -202 -130q-120 0 -120 145v361h100v-340q0 -27 3 -44t16.5 -31.5t39.5 -14.5q76 0 145 95zM70 561l51 189h85l-81 -189h-55z" />
<glyph unicode="&#xed;&#x7a;" horiz-adv-x="593" d="M47 500h100v-340q0 -90 44 -90q21 0 37 6q2 -12 2 -18q0 -32 -25.5 -48t-58.5 -16q-99 0 -99 141v365zM547 85q-7 2 -12.5 10t-5.5 16q0 15 12 24t29 9q23 0 40.5 -15.5t17.5 -43.5q0 -32 -32 -58.5t-82 -26.5h-262l216 446h-86q-57 0 -57 -14q0 -6 8.5 -16t8.5 -16 q0 -11 -13 -21t-32 -10q-27 0 -42 21t-15 51q0 59 103 59h248l-214 -430q102 -6 129 -6q38 0 41 21zM68 561l51 189h85l-81 -189h-55z" />
<glyph unicode="jx" horiz-adv-x="560" d="M219 500h114l96 -244q90 119 90 186q0 12 -1 17q-9 -4 -21 -4q-23 0 -39 15t-16 38q0 22 15 37t38 15q30 0 49.5 -26.5t19.5 -72.5q0 -53 -28 -108t-90 -139l14 -35q1 -4 7.5 -20t9 -22t9 -19.5t11 -19.5t11 -14t14 -11t15.5 -3q24 0 44 30t30 79h35q-11 -59 -27 -98.5 t-35.5 -57t-36 -23.5t-35.5 -6q-48 0 -81.5 33.5t-68.5 112.5q-41 -69 -85.5 -99.5t-129.5 -57.5v-62q0 -88 -35 -129.5t-90 -41.5q-48 0 -77 28.5t-29 70.5q0 85 131 138v513h100v-481q79 24 111.5 51t85.5 112zM29 644q0 27 19.5 47t46.5 20t47 -20t20 -47t-20 -46.5 t-47 -19.5q-28 0 -47 19t-19 47zM3 -198q25 0 34.5 19t9.5 57v70q-46 -19 -69 -40.5t-23 -53.5q0 -24 13 -38t35 -14z" />
<glyph unicode="j&#x7a;" horiz-adv-x="571" d="M47 500h100v-579q0 -88 -35 -129.5t-90 -41.5q-48 0 -77 28t-29 70q0 86 131 140v512zM525 85q-7 2 -12.5 0C372F3A27" />
<glyph unicode="lx" horiz-adv-x="589" d="M219 500h114l96 -244q90 119 90 186q0 12 -1 17q-9 -4 -21 -4q-23 0 -39 15t-16 38q0 22 15 37t38 15q30 0 49.5 -26.5t19.5 -72.5q0 -53 -28 -108t-90 -139l14 -35q1 -4 7.5 -20t9 -22t9 -19.5t11 -19.5t11 -14t14 -11t15.5 -3q24 0 44 30t30 79h35q-11 -59 -27 -98.5 t-35.5 -57t-36 -23.5t-35.5 -6q-46 0 -78.5 30.5t-64.5 99.5q-87 -130 -202 -130q-120 0 -120 145v547l100 14v-540q0 -27 3 -44t16.5 -31.5t39.5 -14.5q76 0 145 94l-5 15z" />
<glyph unicode="l&#x7a;" horiz-adv-x="592" d="M47 686l100 14v-540q0 -90 44 -90q21 0 37 6q2 -12 2 -18q0 -32 -25.5 -48t-58.5 -16q-99 0 -99 141v551zM546 85q-7 2 -12.5 10t-5.5 16q0 15 12 24t29 9q23 0 40.5 -15.5t17.5 -43.5q0 -32 -32 -58.5t-82 -26.5h-262l216 446h-86q-57 0 -57 -14q0 -6 8.5 -16t8.5 -16 q0 -11 -13 -21t-32 -10q-27 0 -42 21t-15 51q0 59 103 59h248l-214 -430q102 -6 129 -6q37 0 41 21z" />
<glyph unicode="mx" horiz-adv-x="1055" d="M46 500h100v-69q39 74 110 74q90 0 118 -88q41 88 114 88q138 0 138 -181q0 -21 -3 -80.5t-3 -94.5q0 -79 54 -79q35 0 73.5 29t62.5 84l-125 317h114l96 -244q90 119 90 186q0 12 -1 17q-9 -4 -21 -4q-23 0 -39 15t-16 38q0 22 15 37t38 15q30 0 49.5 -26.5t19.5 -72.5 q0 -53 -28 -108t-90 -139l14 -35q1 -4 7.5 -20t9 -22t9 -19.5t11 -19.5t11 -14t14 -11t15.5 -3q24 0 44 30t30 79h35q-11 -59 -27 -98.5t-35.5 -57t-36 -23.5t-35.5 -6q-48 0 -81 32.5t-67 108.5q-78 -141 -190 -141q-62 0 -91 43t-29 110q0 12 1.5 86t1.5 88q0 108 -64 108 q-63 0 -78 -109v-320h-100v334q0 44 -11 69.5t-45 25.5q-30 0 -47.5 -25.5t-31.5 -83.5v-320h-100v500z" />
<glyph unicode="m&#x7a;" horiz-adv-x="1071" d="M46 500h100v-69q39 74 110 74q90 0 118 -89q41 89 115 89q137 0 137 -179q0 -23 -3 -83t-3 -87q0 -86 45 -86q27 0 42 9v-7q0 -78 -70 -78q-59 0 -88 43.5t-29 109.5q0 12 1.5 86t1.5 88q0 108 -64 108q-63 0 -78 -109v-320h-100v334q0 44 -11 69.5t-45 25.5 q-30 0 -47.5 -25.5t-31.5 -83.5v-320h-100v500zM1025 85q-7 2 -12.5 10t-5.5 16q0 15 12 24t29 9q23 0 40.5 -15.5t17.5 -43.5q0 -32 -32 -58.5t-82 -26.5h-262l216 446h-86q-57 0 -57 -14q0 -6 8.5 -16t8.5 -16q0 -11 -13 -21t-32 -10q-27 0 -42 21t-15 51q0 59 103 59h248 l-214 -430q102 -6 129 -6q38 0 41 21z" />
<glyph unicode="n&#x7a;" horiz-adv-x="838" d="M46 500h100v-76q43 81 120 81q137 0 137 -181q0 -20 -2.5 -80t-2.5 -91q0 -83 51 -83q24 0 32 8v-7q0 -77 -67 -77q-58 0 -87.5 43.5t-29.5 109.5q0 12 1.5 86t1.5 88q0 108 -64 108q-63 0 -90 -109v-320h-100v500zM792 85q-7 2 -12.5 10t-5.5 16q0 15 12 24t29 9 q23 0 40.5 -15.5t17.5 -43.5q0 -32 -32 -58.5t-82 -26.5h-262l216 446h-86q-57 0 -57 -14q0 -6 8.5 -16t8.5 -16q0 -11 -13 -21t-32 -10q-27 0 -42 21t-15 51q0 59 103 59h248l-214 -430q102 -6 129 -6q37 0 41 21z" />
<glyph unicode="o&#xe6;" horiz-adv-x="1048" d="M229 505q125 0 153 -137h5q33 0 58.5 14t43 34t36.5 40.5t49.5 34.5t70.5 14q77 0 147 -46q54 46 117 46q54 0 92 -31t38 -103q0 -68 -55 -109.5t-157 -49.5q10 -78 33.5 -110t80.5 -32q109 0 158 109h32q-25 -78 -85 -131.5t-137 -53.5q-100 0 -151 95 q-14 -45 -40.5 -70t-81.5 -25q-64 0 -111.5 37.5t-47.5 126.5q0 132 193 132q32 0 60 -4q6 24 6 59q0 46 -23.5 79t-83.5 33q-38 0 -67.5 -18t-47.5 -41t-51 -46.5t-74 -31.5q3 -30 3 -63q0 -123 -45 -193t-126 -70q-76 0 -131.5 57t-55.5 176q0 48 10 93.5t31 88.5t61 69.5 t93 26.5zM239 70q103 0 103 201q0 31 -2 45q-30 0 -43.5 10t-13.5 44q0 36 36 39q-22 41 -64 41q-39 0 -65.5 -35.5t-37 -82.5t-10.5 -101q0 -88 28 -124.5t69 -36.5zM925 456q-49 0 -75.5 -52t-26.5 -129q0 -16 1 -24q71 7 111 42.5t40 91.5q0 71 -50 71zM709 239 q-52 0 -89.5 -23.5t-37.5 -65.5q0 -33 21 -56.5t50 -23.5q35 0 56 35.5t21 99.5q0 21 -1 33q-8 1 -20 1z" />
<glyph unicode="os" horiz-adv-x="759" d="M807 179h42q-42 -58 -122 -115q-39 -70 -137 -70q-78 0 -113 44.5t-35 99.5q0 40 18.5 59t41.5 19q19 0 3201E174DA40" />
<glyph unicode="osx" horiz-adv-x="1111" d="M741 500h114l96 -244q90 119 90 186q0 12 -1 17q-9 -4 -21 -4q-23 0 -39 15t-16 38q0 22 15 37t38 15q30 002707D4A4D" />
<glyph unicode="os&#x7a;" horiz-adv-x="1105" d="M231 505q131 0 155 -158h6q98 0 170 164l101 20q12 -47 29.5 -116t24.5 -96t15.5 -65t11 -60t2.5 -43q0 -40E3C5CBA52" />
<glyph unicode="ox" horiz-adv-x="856" d="M487 500h114l91 -232q95 97 95 174q0 12 -1 17q-9 -4 -21 -4q-23 0 -39 15t-16 38q0 22 15 37t38 15q30 0 03B4C63A0D" />
<glyph unicode="&#xf3;s" horiz-adv-x="759" d="M807 179h42q-42 -58 -122 -115q-39 -70 -137 -70q-78 0 -113 44.5t-35 99.5q0 40 18.5 59t41.5 19q19 0 32.5 -12.5t13.5 -35.5q0 -19 -9.5 -29t-23.5 -10q-13 0 -24 14q8 -39 24.5 -56.5t54.5 -17.5q37 0 53.5 18.5t16.5 63.5q0 20 -4.5 46t-10.5 51t-21.5 88.5 t-29.5 122.5q-26 -63 -76 -104.5t-107 -54.5q0 -6 0.5 -17.5t0.5 -16.5q0 -133 -44.5 -202.5t-127.5 -69.5q-35 0 -66.5 12.5t-59 39t-44 73.5t-16.5 109q0 48 10 93t31 88t61.5 69.5t94.5 26.5q131 0 155 -158h6q98 0 170 164l101 20q12 -47 29.5 -116t24.5 -96t15.5 -65 t11 -60t2.5 -43q0 -13 -1 -19q31 21 62 47zM239 70q103 0 103 201q0 16 -1 24q-29 2 -41.5 13.5t-12.5 36.5q0 23 10 32.5t30 10.5q-22 62 -72 62q-39 0 -65.5 -35.5t-37 -82.5t-10.5 -101q0 -88 28 -124.5t69 -36.5zM206 561l51 189h85l-81 -189h-55z" />
<glyph unicode="&#xf3;sx" horiz-adv-x="1112" d="M231 505q131 0 155 -158h6q98 0 170 164l101 20q12 -47 29.5 -116t24.5 -96t15.5 -65t11 -60t2.5 -43q0 -48 -15.5 -81t-41.5 -48.5t-49.5 -21.5t-49.5 -6q-78 0 -113 44.5t-35 99.5q0 40 18.5 59t41.5 19q19 0 32.5 -12.5t13.5 -35.5q0 -19 -9.5 -29t-23.5 -10 q-13 0 -24 14q8 -39 24.5 -56.5t54.5 -17.5q37 0 53.5 18.5t16.5 63.5q0 20 -4.5 46t-10.5 51t-21.5 88.5t-29.5 122.5q-26 -63 -76 -104.5t-107 -54.5q0 -6 0.5 -17.5t0.5 -16.5q0 -133 -44.5 -202.5t-127.5 -69.5q-35 0 -66.5 12.5t-59 39t-44 73.5t-16.5 109q0 48 10 93 t31 88t61.5 69.5t94.5 26.5zM1061 85q-7 2 -12.5 10t-5.5 16q0 15 12 24t29 9q23 0 40.5 -15.5t17.5 -43.5q0 -32 -32 -58.5t-82 -26.5h-262l216 446h-86q-57 0 -57 -14q0 -6 8.5 -16t8.5 -16q0 -11 -13 -21t-32 -10q-27 0 -42 21t-15 51q0 59 103 59h248l-214 -430 q102 -6 129 -6q38 0 41 21zM239 70q103 0 103 201q0 16 -1 24q-29 2 -41.5 13.5t-12.5 36.5q0 23 10 32.5t30 10.5q-22 62 -72 62q-39 0 -65.5 -35.5t-37 -82.5t-10.5 -101q0 -88 28 -124.5t69 -36.5zM202 561l51 189h85l-81 -189h-55z" />
<glyph unicode="&#xf3;s&#x7a;" horiz-adv-x="1107" d="M231 505q131 0 155 -158h6q98 0 170 164l101 20q12 -47 29.5 -116t24.5 -96t15.5 -65t11 -60t2.5 -43q0 -48 -15.5 -81t-41.5 -48.5t-49.5 -21.5t-49.5 -6q-78 0 -113 44.5t-35 99.5q0 40 18.5 59t41.5 19q19 0 32.5 -12.5t13.5 -35.5q0 -19 -9.5 -29t-23.5 -10 q-13 0 -24 14q8 -39 24.5 -56.5t54.5 -17.5q37 0 53.5 18.5t16.5 63.5q0 20 -4.5 46t-10.5 51t-21.5 88.5t-29.5 122.5q-26 -63 -76 -104.5t-107 -54.5q0 -6 0.5 -17.5t0.5 -16.5q0 -133 -44.5 -202.5t-127.5 -69.5q-35 0 -66.5 12.5t-59 39t-44 73.5t-16.5 109q0 48 10 93 t31 88t61.5 69.5t94.5 26.5zM1061 85q-7 2 -12.5 10t-5.5 16q0 15 12 24t29 9q23 0 40.5 -15.5t17.5 -43.5q0 -32 -32 -58.5t-82 -26.5h-262l216 446h-86q-57 0 -57 -14q0 -6 8.5 -16t8.5 -16q0 -11 -13 -21t-32 -10q-27 0 -42 21t-15 51q0 59 103 59h248l-214 -430 q102 -6 129 -6q38 0 41 21zM239 70q103 0 103 201q0 16 -1 24q-29 2 -41.5 13.5t-12.5 36.5q0 23 10 32.5t30 10.5q-22 62 -72 62q-39 0 -65.5 -35.5t-37 -82.5t-10.5 -101q0 -88 28 -124.5t69 -36.5zM208 561l51 189h85l-81 -189h-55z" />
<glyph unicode="&#xf3;x" horiz-adv-x="856" d="M487 500h114l91 -232q95 97 95 174q0 12 -1 17q-9 -4 -21 -4q-23 0 -39 15t-16 38q0 22 15 37t38 15q30 0 49.5 -26.5t19.5 -72.5q0 -117 -124 -233l20 -49q1 -4 7.5 -20t9 -22t9 -19.5t11 -19.5t11 -14t14 -11t15.5 -3q24 0 44 30t30 79h35q-11 -59 -27 -98.5t-35.5 -57 t-36 -23.5t-35.5 -6q-53 0 -89 41t-76 140q-94 -63 -94 -118q0 -7 1 -11q5 2 15 2q20 0 36.5 -14t16.5 -35q0 -19 -14.5 -33t-40.5 -14q-29 0 -49.5 19.5t-20.5 60.5q0 51 39.5 102.5t93.5 83.5l-75 189q-20 -39 -56.5 -67t-76.5 -39q2 -15 2 -44q0 -123 -45 -193t-126 -70 q-76 0 -131.5 57t-55.5 176q0 48 10 93.5t31 88.5t61 69.5t93 26.5q73 0 109 -41.5t48 -114.5q70 9 121 100zM239 70q103 0 103 201q0 16 -1 24q-29 2 -41.5 13.5t-12.5 36.5q0 23 10 32.5t30 10.5q-22 62 -72 62q-39 0 -65.5 -35.5t-37 -82.5t-10.5 -101q0 -88 28 -124.5 t69 -36.5zM213 561l51 189h85l-81 -189h-55z" />
<glyph unicode="rx" horiz-adv-x="736" d="M367 500h114l91 -232q95 97 95 174q0 12 -1 17q-9 -4 -21 -4q-23 0 -39 15t-16 38q0 22 15 37t38 15q30 0 49.5 -26.5t19.5 -72.5q0 -117 -124 -233l20 -49q1 -4 7.5 -20t9 -22t9 -19.5t11 -19.5t11 -14t14 -11t15.5 -3q24 0 44 30t30 79h35q-11 -59 -27 -98.5t-35.5 -57 t-36 -23.5t-35.5 -6q-53 0 -89 41t-76 140q-94 -63 -94 -118q0 -7 1 -11q5 2 15 2q20 0 36.5 -14t16.5 -35q0 -19 -14.5 -33t-40.5 -14q-29 0 -49.5 19.5t-20.5 60.5q0 51 39.5 102.5t93.5 83.5zM46 500h100v-84q19 29 32 45t36 30t50 14q32 0 49 -17t17 -43 q0 -27 -15 -39.5t-31 -12.5q-11 0 -26 12.5t-30 12.5q-34 0 -82 -50v-368h-100v500z" />
<glyph unicode="r&#x7a;" horiz-adv-x="600" d="M554 85q-18 5 -18 27q0 14 12 23t29 9q23 0 40.5 -16t17.5 -41q0 -34 -32 -60.5t-82 -26.5h-262l216 446h-138q6 -8 6 -18q0 -17 -15 -33t-35 -16q-14 0 -23 6t-12.5 13.5t-10.5 13.5t-19 6q-34 0 -82 -50v-368h-100v500h100v-84q41 58 74.5 71t129.5 13h248l-214 -430 q102 -6 126 -6q40 0 44 21z" />
<glyph unicode="sx" horiz-adv-x="692" d="M144 511l101 20q14 -58 32.5 -128.5t25 -96.5t14 -62.5t9.5 -60.5t2 -55q0 -3 -0.5 -8.5t-0.5 -8.5q83 36 119 75l-124 314h114l96 -244q90 119 90 186q0 12 -1 17q-9 -4 -21 -4q-23 0 -39 15t-16 38q0 22 15 37t38 15q30 0 49.5 -26.5t19.5 -72.5q0 -53 -28 -108 t-90 -139l14 -35q1 -4 7.5 -20t9 -22t9 -19.5t11 -19.5t11 -14t14 -11t15.5 -3q24 0 44 30t30 79h35q-11 -59 -27 -98.5t-35.5 -57t-36 -23.5t-35.5 -6q-49 0 -83.5 35t-69.5 118q-46 -46 -162 -98q-24 -28 -59 -41.5t-68 -13.5q-79 0 -114 44.5t-35 103.5q0 53 36 73 q3 7 17.5 47.5t18.5 53t15 46.5t15.5 52.5t10 45.5t7.5 51zM222 139q0 37 -5 65.5t-21.5 93t-29.5 126.5q-4 -33 -13 -68t-23.5 -77.5t-21.5 -66.5q22 -15 22 -44q0 -18 -9.5 -28.5t-22.5 -10.5q-16 0 -27 14q16 -74 81 -74q70 0 70 70z" />
<glyph unicode="s&#x7a;" horiz-adv-x="690" d="M144 511l101 20q14 -58 32.5 -128.5t25 -96.5t14 -62.5t9.5 -60.5t2 -55q0 -46 -28 -78t-61.5 -44t-65.5 -12q-79 0 -114 44.5t-35 103.5q0 53 36 73q3 7 17.5 47.5t18.5 53t15 46.5t15.5 52.5t10 45.5t7.5 51zM222 139q0 37 -5 65.5t-21.5 93t-29.5 126.5 q-4 -33 -13 -68t-23.5 -77.5t-21.5 -66.5q22 -15 22 -44q0 -18 -9.5 -28.5t-22.5 -10.5q-16 0 -27 14q16 -74 81 -74q70 0 70 70zM644 85q-7 2 -12.5 10t-5.5 16q0 15 12 24t29 9q23 0 40.5 -15.5t17.5 -43.5q0 -32 -32 -58.5t-82 -26.5h-262l216 446h-86q-57 0 -57 -14 q0 -6 8.5 -16t8.5 -16q0 -11 -13 -21t-32 -10q-27 0 -42 21t-15 51q0 59 103 59h248l-214 -430q102 -6 129 -6q37 0 41 21z" />
<glyph unicode="tx" horiz-adv-x="589" d="M47 638l100 14v-152h186l96 -244q90 119 90 186q0 12 -1 17q-9 -4 -21 -4q-23 0 -39 15t-16 38q0 22 15 37t38 15q30 0 49.5 -26.5t19.5 -72.5q0 -53 -28 -108t-90 -139l14 -35q1 -4 7.5 -20t9 -22t9 -19.5t11 -19.5t11 -14t14 -11t15.5 -3q24 0 44 30t30 79h35 q-11 -59 -27 -98.5t-35.5 -57t-36 -23.5t-35.5 -6q-46 0 -78.5 30.5t-64.5 99.5q-74 -130 -204 -130q-65 0 -91.5 42.5t-26.5 102.5v326h-34v35h34v138zM194 70q45 0 88 25t69 71q-4 8 -5 13l-113 286h-86v-305q0 -90 47 -90z" />
<glyph unicode="t&#x7a;" horiz-adv-x="640" d="M594 85q-7 2 -12.5 10t-5.5 16q0 15 12 24t29 9q23 0 40.5 -15.5t17.5 -43.5q0 -32 -32 -58.5t-82 -26.5h-262l216 446h-86q-57 0 -57 -14q0 -6 8.5 -16t8.5 -16q0 -11 -13 -21t-32 -10q-27 0 -42 21t-15 51q0 59 103 59h248l-214 -430q102 -6 129 -6q37 0 41 21zM47 638 l100 14v-152h77v-35h-77v-305q0 -90 44 -90q21 0 37 6q2 -12 2 -18q0 -32 -25.5 -48t-58.5 -16q-99 0 -99 141v330h-34v35h34v138z" />
<glyph unicode="uv" horiz-adv-x="851" d="M284 500h100v-500h-86v77q-37 -83 -111 -83q-64 0 -102.5 37t-38.5 118v351h100v-340q0 -90 60 -90q31 0 502E42F7AE4" />
<glyph unicode="ux" horiz-adv-x="826" d="M456 500h114l96 -244q90 119 90 186q0 12 -1 17q-9 -4 -21 -4q-23 0 -39 15t-16 38q0 22 15 37t38 15q30 0 49.5 -26.5t19.5 -72.5q0 -53 -28 -108t-90 -139l14 -35q1 -4 7.5 -20t9 -22t9 -19.5t11 -19.5t11 -14t14 -11t15.5 -3q24 0 44 30t30 79h35q-11 -59 -27 -98.5 t-35.5 -57t-36 -23.5t-35.5 -6q-46 0 -78.5 30t-64.5 99q-40 -71 -93 -100t-103 -29q-92 0 -108 93q-18 -46 -49 -69.5t-66 -23.5q-64 0 -102.5 37t-38.5 118v351h100v-340q0 -90 60 -90q31 0 54.5 30t23.5 79v321h100v-340q0 -49 14 -69.5t47 -20.5q38 0 76.5 24t66.5 72 q-4 8 -5 13z" />
<glyph unicode="yp" horiz-adv-x="876" d="M500 537h101v-77q43 45 104 45q74 0 120 -63t46 -186t-47 -192.5t-129 -69.5q-22 0 -94 17v-236l-101 -25v0A0E7E3AF9" />
<glyph unicode="yx" horiz-adv-x="826" d="M456 500h114l96 -244q90 119 90 186q0 12 -1 17q-9 -4 -21 -4q-23 0 -39 15t-16 38q0 22 15 37t38 15q30 0 49.5 -26.5t19.5 -72.5q0 -53 -28 -108t-90 -139l14 -35q1 -4 7.5 -20t9 -22t9 -19.5t11 -19.5t11 -14t14 -11t15.5 -3q24 0 44 30t30 79h35q-11 -59 -27 -98.5 t-35.5 -57t-36 -23.5t-35.5 -6q-49 0 -82 33.5t-68 112.5q-41 -69 -85.5 -99.5t-129.5 -57.5v-62q0 -88 -35 -129.5t-90 -41.5q-48 0 -77 28.5t-29 70.5q0 86 131 138v64q-38 -57 -97 -57q-64 0 -102.5 37t-38.5 118v351h100v-340q0 -90 60 -90q30 0 54 28.5t24 75.5v326 h100v-481q79 24 111.5 51t85.5 112zM240 -198q25 0 34.5 19t9.5 57v70q-46 -19 -69 -40.5t-23 -53.5q0 -24 13 -38t35 -14z" />
<glyph unicode="y&#x7a;" horiz-adv-x="832" d="M284 500h100v-579q0 -88 -35 -129.5t-90 -41.5q-48 0 -77 28t-29 70q0 86 131 140v63q-38 -57 -97 -57q-6400FFCEDA7F" />
<glyph unicode=" "  horiz-adv-x="215" />
<glyph unicode="&#x09;" horiz-adv-x="215" />
<glyph unicode="&#xa0;" horiz-adv-x="215" />
<glyph unicode="!" horiz-adv-x="239" d="M144 231h-53l-28 469h112zM54 61q0 27 19.5 47t46.5 20t47 -20t20 -47t-20 -46.5t-47 -19.5q-28 0 -47 19t-19 47z" />
<glyph unicode="&#x22;" horiz-adv-x="331" d="M41 561l21 189h85l-51 -189h-55zM200 561l21 189h85l-51 -189h-55z" />
<glyph unicode="#" horiz-adv-x="526" d="M330 -27v168h-141v-168h-32v168h-124v66h123v126h-123v66h120v319h36v-319h141v319h36v-319h127v-66h-127v-126h127v-66h-127v-168h-36zM189 333v-126h141v126h-141z" />
<glyph unicode="$" horiz-adv-x="379" d="M184 -27l-3 134q-68 2 -110.5 36t-42.5 94q0 32 14 50.5t35 18.5q24 0 47 -23q-30 -4 -30 -52q0 -40 25 -63.5t57 -26.5v206l-28.5 19t-31.5 21.5t-24.5 20.5t-24 26.5t-12 28t-6.5 36.5q0 46 34.5 76.5t85.5 35.5v107h41v-107q51 -4 87 -29.5t36 -73.5q0 -22 -7.5 -39.5 t-22.5 -17.5q-18 0 -38 18q15 18 15 45t-19 45.5t-55 22.5v-171q33 -19 50.5 -31t42.5 -34.5t36.5 -50.5t11.5 -62q0 -57 -41.5 -90.5t-107.5 -35.5v-134h-14zM264 222q0 61 -63 105v-185q28 4 45.5 25.5t17.5 54.5zM122 512q0 -42 49 -80v148q-49 -14 -49 -68z" />
<glyph unicode="%" horiz-adv-x="614" d="M461 750l-247 -750h-60l247 750h60zM147 702q112 0 112 -160q0 -67 -30 -117.5t-90 -50.5q-52 0 -82.5 41t0344366A6F" />
<glyph unicode="&#x26;" horiz-adv-x="643" d="M631 413h6q1 -4 1 -13q0 -38 -38 -71t-94 -37q-3 -146 -68.5 -228t-183.5 -82q-111 0 -164.5 67t-53.5 1590E83248AD6" />
<glyph unicode="'" horiz-adv-x="172" d="M41 561l21 189h85l-51 -189h-55z" />
<glyph unicode="(" horiz-adv-x="270" d="M245 750l12 -27q-73 -38 -114.5 -176t-41.5 -296q0 -53 6.5 -107t22.5 -121.5t51 -132.5t86 -116l-22 -24q-102 91 -154.5 221t-52.5 279q0 164 54.5 306t152.5 194z" />
<glyph unicode=")" horiz-adv-x="270" d="M25 -250l-11 27q49 26 85 102.5t53 172t17 197.5q0 53 -6.5 107t-22.5 121.5t-51 132.5t-86 116l23 24q102 -91 154 -221t52 -279q0 -164 -54.5 -306t-152.5 -194z" />
<glyph unicode="*" horiz-adv-x="396" d="M172 752h52v-146l116 67l24 -40l-120 -69l120 -69l-24 -40l-116 67v-146h-52v146l-116 -67l-24 40l119 69l-119 69l24 40l116 -67v146z" />
<glyph unicode="+" horiz-adv-x="430" d="M399 317v-70h-142v-143h-83v143h-143v70h143v122h83v-122h142z" />
<glyph unicode="," horiz-adv-x="216" d="M39 69q0 25 21 42t44 17q71 0 71 -80q0 -49 -27.5 -102.5t-64.5 -71.5q-14 8 -14 24q0 14 11 41t11 39q0 20 -8 28t-18 8.5t-18 13.5t-8 41z" />
<glyph unicode="-" horiz-adv-x="318" d="M259 301v-70h-200v70h200z" />
<glyph unicode="." horiz-adv-x="209" d="M38 61q0 27 19.5 47t46.5 20t47 -20t20 -47t-20 -46.5t-47 -19.5q-28 0 -47 19t-19 47z" />
<glyph unicode="../../default.htm" horiz-adv-x="504" d="M490 750l-425 -1000h-50l425 1000h50z" />
<glyph unicode="0" horiz-adv-x="588" d="M304 750q64 0 111.5 -30t74 -82t39 -113.5t12.5 -134.5q0 -60 -8 -115.5t-27 -107t-47 -89.5t-71.5 -61t-904793D8A76" />
<glyph unicode="1" horiz-adv-x="308" d="M231 748v-748h-108v618h-112l3 52q108 0 217 78z" />
<glyph unicode="2" horiz-adv-x="505" d="M147 96q27 0 92.5 -9t99.5 -9q51 0 75.5 15t47.5 54q15 -38 15 -70q0 -86 -106 -86q-42 0 -122.5 16t-100.5 16q-53 0 -99 -25q-13 19 -13 60q0 39 16 77.5t41.5 70.5t56 64.5t61 66.5t56 69t41.5 79t16 91q0 57 -24 90.5t-73 33.5q-44 0 -69.5 -26t-25.5 -63 q0 -52 34 -75q-21 -25 -51 -25q-33 0 -51.5 30t-18.5 70q0 64 51 101t140 37q59 0 101 -16.5t63.5 -45.5t31 -59.5t9.5 -66.5q0 -50 -17.5 -95t-45 -79t-61.5 -65.5t-69 -59.5t-64 -54t-49.5 -56t-23.5 -60q15 4 36 4z" />
<glyph unicode="3" horiz-adv-x="533" d="M196 257q-73 -4 -73 -83q0 -60 35.5 -85t82.5 -25q68 0 102.5 45.5t34.5 107.5q0 76 -51 134t-145 67q82 19 127.5 68.5t45.5 104.5q0 45 -29 76.5t-79 31.5q-41 0 -64 -21.5t-23 -51.5q0 -45 51 -80q-27 -31 -61 -31q-32 0 -55 27.5t-23 70.5q0 65 52.5 100.5 t128.5 35.5q82 0 142 -40.5t60 -116.5q0 -53 -30.5 -102t-80.5 -73q84 -33 122 -80t38 -113q0 -92 -77 -161t-183 -69q-32 0 -63.5 7t-68 25.5t-59.5 59.5t-23 100q0 57 24 88t67 31q57 0 75 -48z" />
<glyph unicode="4" horiz-adv-x="476" d="M268 735l108 15v-401h83l-2 -59h-81v-290h-108v290h-258q4 32 21.5 74.5t36 78t33.5 85t15 97.5q0 80 -19 123q47 -1 74 -37t27 -95q0 -51 -21 -97.5t-51 -93t-41 -76.5h183v386z" />
<glyph unicode="5" horiz-adv-x="505" d="M420 749q13 -33 13 -56q0 -77 -94 -77q-24 0 -52.5 4.5t-62 11.5t-45.5 9l-41 -207q59 31 122 31q103 0 157 -66.5t54 -163.5q0 -101 -59.5 -171t-172.5 -70q-38 0 -72 9t-65.5 27.5t-50.5 54.5t-19 84q0 54 22.5 83t57.5 29q51 0 74 -51q-67 -6 -67 -68 q0 -47 33.5 -75.5t79.5 -28.5q62 0 94 51t32 119q0 77 -42.5 120t-112.5 43q-81 0 -144 -46l70 387q110 -16 149 -16q73 0 142 33z" />
<glyph unicode="6" horiz-adv-x="544" d="M210 330q-14 17 -14 36q0 34 34 60.5t90 26.5q83 0 137.5 -60t54.5 -152q0 -100 -61 -173.5t-172 -73.5q-108 0 -172 79.5t-64 249.5q0 116 30 210.5t95 155.5t156 61q65 0 106 -28.5t41 -66.5q0 -22 -13.5 -40.5t-38.5 -18.5q-7 0 -25 4q10 13 10 35q0 28 -21.5 48.5 t-54.5 20.5q-52 0 -93.5 -57t-63.5 -145.5t-22 -187.5q0 -244 139 -244q70 0 102 52.5t32 119.5q0 65 -30 105.5t-86 40.5q-59 0 -96 -58z" />
<glyph unicode="7" horiz-adv-x="448" d="M444 732q1 -2 1 -8q0 -26 -23 -69.5t-56 -95.5t-66 -112t-56 -135.5t-23 -148.5q0 -81 35 -156q-31 -16 -59 -16q-53 0 -77.5 49.5t-24.5 110.5q0 58 24 122t59 117.5t69.5 101.5t59 89t24.5 65q-76 19 -132 19q-105 0 -105 -60q0 -11 2 -17q-33 1 -57.5 29.5t-24.5 66.5 q0 65 100 65q40 0 125 -12.5t127 -12.5q41 0 78 8z" />
<glyph unicode="8" horiz-adv-x="529" d="M262 66q52 0 83.5 43.5t31.5 101.5q0 105 -120 166q-50 -17 -83 -64t-33 -100q0 -54 33 -100.5t88 -46.5zM261 -6q-102 0 -162.5 61.5t-60.5 159.5q0 75 37.5 126.5t106.5 75.5q-53 30 -80 74t-27 92q0 68 50 117.5t138 49.5q85 0 136.5 -47t51.5 -116q0 -48 -26 -94.5 t-76 -75.5q73 -24 108 -76.5t35 -120.5q0 -95 -62.5 -160.5t-168.5 -65.5zM262 450q44 26 69.5 70t25.5 86q0 40 -24 69t-66 29q-43 0 -69.5 -32t-26.5 -78q0 -42 22.5 -80t68.5 -64z" />
<glyph unicode="9" horiz-adv-x="543" d="M333 434q14 -17 14 -36q0 -34 -34 -60.5t-90 -26.5q-83 0 -137.5 57t-54.5 145q0 95 61.5 166t170.5 71q108 0 172.5 -80t64.5 -249q0 -116 -30 -210.5t-95.5 -155.5t-156.5 -61q-63 0 -104 41t-41 82q0 22 13.5 40.5t38.5 18.5q7 0 25 -4q-10 -13 -10 -35 q0 -28 21.5 -48.5t54.5 -20.5q79 0 128.5 105.5t49.5 256.5q0 261 -139 261q-46 0 -78 -31.5t-44 -70t-12 -77.5q0 -61 30 -98.5t86 -37.5q59 0 96 58z" />
<glyph unicode=":" horiz-adv-x="251" d="M59 386q0 27 19.5 47t46.5 20t47 -20t20 -47t-20 -46.5t-47 -19.5q-28 0 -47 19t-19 47zM59 145q0 27 19.5 47t46.5 20t47 -20t20 -47t-20 -46.5t-47 -19.5q-28 0 -47 19t-19 47z" />
<glyph unicode=";" horiz-adv-x="247" d="M56 152q0 25 21 42t44 17q71 0 71 -80q0 -49 -27.5 -102.5t-64.5 -71.5q-14 8 -14 24q0 14 11 41t11 39q0 20 -8 28t-18 8.5t-18 13.5t-8 41zM55 386q0 27 19.5 47t46.5 20t47 -20t20 -47t-20 -46.5t-47 -19.5q-28 0 -47 19t-19 47z" />
<glyph unicode="&#x3c;" horiz-adv-x="359" d="M302 429v-55l-219 -120l219 -96v-57l-275 124v54z" />
<glyph unicode="=" horiz-adv-x="466" d="M403 396v-80h-340v80h340zM403 213v-80h-340v80h340z" />
<glyph unicode="&#x3e;" horiz-adv-x="359" d="M57 374v55l275 -150v-54l-275 -124v57l219 96z" />
<glyph unicode="?" horiz-adv-x="415" d="M392 546q0 -40 -18.5 -74.5t-45.5 -60.5t-54 -51t-47 -58t-22 -70h-46q-3 15 -3 28q0 30 14.5 59.5t35.5 54t42 49.5t35.5 57.5t14.5 66.5q0 56 -31 82.5t-75 26.5q-37 0 -64.5 -22.5t-27.5 -57.5q0 -25 22 -49t62 -30q-16 -42 -64 -42q-38 0 -67.5 28.5t-29.5 77.5 q0 55 44 97t135 42q92 0 141 -43t49 -111zM116 61q0 27 19.5 47t46.5 20t47 -20t20 -47t-20 -46.5t-47 -19.5q-28 0 -47 19t-19 47z" />
<glyph unicode="@" horiz-adv-x="565" d="M238 -38q-38 0 -72 10.5t-65 32.5t-49 63t-18 96q0 163 100.5 278t240.5 115q27 0 51 -5.5t50 -20.5t41.5 -48.5t15.5 -82.5q0 -100 -51.5 -182t-122.5 -82q-34 0 -49 25q-25 -41 -65 -41q-28 0 -45.5 22.5t-17.5 65.5q0 71 42 147.5t93 76.5q26 0 39 -17l4 15l55 -6 l-45 -192q-7 -28 -7 -36q0 -20 15 -20q38 0 72.5 73.5t34.5 141.5q0 53 -26.5 88t-86.5 35q-73 0 -134 -53.5t-92.5 -128.5t-31.5 -148q0 -151 153 -151q52 0 93.5 22.5t58.5 58.5q23 -10 23 -43q0 -48 -56 -78.5t-148 -30.5zM302 197q0 10 3 19l43 168q-9 15 -21 15 q-36 0 -64.5 -64t-28.5 -111q0 -19 7 -35.5t23 -16.5q22 0 38 25z" />
<glyph unicode="A" horiz-adv-x="603" d="M557 0h-110v360q-74 36 -185 49q-54 -193 -54 -354q0 -104 35 -169q-27 0 -48.5 5.5t-44.5 21.5t-36 51t-10E23AF1A38" />
<glyph unicode="B" horiz-adv-x="670" d="M102 508q0 -21 3 -38.5t7.5 -30t9 -21t9.5 -16t6 -9.5q-57 0 -88.5 29.5t-31.5 86.5q0 100 94.5 170.5t22606F22D0AE9" />
<glyph unicode="C" horiz-adv-x="505" d="M555 180l25 -10q-25 -89 -95 -137.5t-166 -48.5q-130 0 -201 93t-71 273q0 74 12.5 140.5t41 127t82 96.5t126.5 36q80 0 133.5 -40.5t53.5 -115.5q0 -70 -53 -70q-31 0 -47 18q9 7 16.5 29.5t7.5 49.5q0 46 -22.5 69.5t-61.5 23.5q-58 0 -97.5 -51.5t-56.5 -127.5 t-17 -168q0 -307 212 -307q127 0 178 120z" />
<glyph unicode="D" horiz-adv-x="705" d="M242 641l108 15v-578q34 -26 70 -26q49 0 82 50t46 117.5t13 146.5q0 186 -55.5 267t-185.5 81q-95 0 -160.5 -56.5t-65.5 -150.5q0 -76 55 -114q-131 0 -131 122q0 95 91.5 165t224.5 70q92 0 161 -32t108 -87.5t58 -121.5t19 -142q0 -95 -24.5 -182t-69 -142.5 t-98.5 -55.5q-61 0 -138 58v-45h-108v641z" />
<glyph unicode="E" horiz-adv-x="447" d="M496 180l25 -10q-26 -87 -101.5 -137.5t-165.5 -50.5q-106 0 -159.5 67.5t-53.5 159.5q0 73 35.5 127.5t99.5 80.5q-90 57 -90 151q0 73 52 128.5t145 55.5q64 0 108.5 -30t44.5 -97q0 -38 -15 -60t-40 -22q-27 0 -53 27q16 7 28.5 26.5t12.5 45.5q0 36 -23.5 54 t-56.5 18q-51 0 -81.5 -41.5t-30.5 -95.5q0 -16 3 -34t13 -45.5t34.5 -49t61.5 -30.5q-65 -15 -101 -67t-36 -125q0 -75 40 -120t117 -45q68 0 118 34t69 85z" />
<glyph unicode="F" horiz-adv-x="554" d="M479 646q-43 0 -133 18v-229h148v-59h-148v-376h-108v682q-7 1 -19 1q-124 0 -124 -148q0 -51 13 -88.5t320111C28ABD" />
<glyph unicode="G" horiz-adv-x="593" d="M460 419l97 -1v-376q0 -249 -204 -249q-92 0 -132.5 45.5t-40.5 107.5q0 51 27.5 86.5t88.5 35.5q41 0 66.5 -18t25.5 -52q0 -14 -5 -28q-26 28 -63 28q-33 0 -50 -18.5t-17 -48.5q0 -42 29.5 -70.5t70.5 -28.5q40 0 67.5 31t27.5 103v238q-52 -95 -167 -95 q-111 0 -179.5 86t-68.5 226q0 92 30 164.5t100 119.5t172 47q53 0 96 -11.5t75.5 -45.5t32.5 -88q0 -83 -65 -83q-4 0 -7 0.5t-6 0.5t-6 1t-5.5 2t-6 2.5t-5.5 3t-6.5 3.5t-6.5 3.5t-7 4.5t-8 5q2 0 6.5 1.5t11 6.5t12 12.5t9.5 20.5t4 30q0 46 -29 69.5t-75 23.5 q-63 0 -108.5 -42t-66 -106t-20.5 -139q0 -107 43 -177.5t115 -70.5q65 0 102.5 62t45.5 178z" />
<glyph unicode="H" horiz-adv-x="694" d="M539 717l109 31v-748h-109v376h-216v-376h-109v697q-55 -22 -86.5 -71t-31.5 -115q0 -42 8.5 -69t16.5 -35t21 -14q-56 0 -90 30t-34 94q0 93 80.5 163t183.5 70q15 0 41 -2v-313h216v282z" />
<glyph unicode="I" horiz-adv-x="403" d="M357 748v-748h-110v691q-68 -19 -106.5 -66t-38.5 -114q0 -48 12 -73.5t34 -44.5q-130 0 -130 121q0 94 91 165t206 71q16 0 42 -2z" />
<glyph unicode="J" horiz-adv-x="433" d="M346 750h41v-710q0 -121 -47 -184t-159 -63q-92 0 -136 41t-44 110q0 51 27 87.5t89 36.5q85 0 85 -82q0 -2 -0.5 -6.5t-0.5 -7.5q-26 25 -58 25q-28 0 -46.5 -20.5t-18.5 -55.5q0 -39 29.5 -63t67.5 -24q42 0 71 33.5t29 98.5v726q-69 -16 -106.5 -64.5t-37.5 -120.5 q0 -78 46 -114q-62 0 -96 29t-34 87q0 99 91 170t208 71z" />
<glyph unicode="K" horiz-adv-x="648" d="M356 748v-323l179 320h88l-224 -321q36 2 43 2q49 0 82 -12.5t49 -37t22 -51.5t6 -66q0 -26 -2.5 -81t-2.5 -73q0 -85 57 -105q-57 -17 -86 -17q-43 0 -65.5 28t-22.5 75q0 26 5.5 91.5t5.5 90.5q0 120 -95 120q-17 0 -39 -5v-383h-110v692q-70 -20 -110 -67t-40 -116 q0 -79 42 -116q-53 0 -87 29.5t-34 91.5q0 94 91 165t206 71q16 0 42 -2z" />
<glyph unicode="L" horiz-adv-x="453" d="M357 738l-1 -3v-715q32 -7 78.5 -30.5t94.5 -41t97 -17.5q35 0 77 20q3 -13 3 -27q0 -43 -30.5 -73t-79.5 -30q-35 0 -77.5 24.5t-76.5 54t-81.5 54t-90.5 24.5q-15 0 -23 -1v704q-68 -19 -106.5 -66t-38.5 -114q0 -48 12 -73.5t34 -44.5q-130 0 -130 121q0 94 91 165 t206 71q16 0 42 -2z" />
<glyph unicode="M" horiz-adv-x="752" d="M462 0h-107l-89 514l-81 -514h-60l110 700q-131 -30 -131 -191q0 -91 37 -116q-55 0 -87.5 28.5t-32.5 85.5q0 95 82.5 169t170.5 74q36 0 61 -14l100 -581l117 581h114l56 -736h-114l-40 524z" />
<glyph unicode="N" horiz-adv-x="709" d="M596 748h67v-748h-134l-251 563v-563h-67v689q-117 -40 -117 -169q0 -87 48 -127q-63 0 -92.5 31t-29.5 98q0 86 65.5 157t162.5 71q38 0 70 -14l278 -642v654z" />
<glyph unicode="O" horiz-adv-x="702" d="M393 656q-47 -28 -75 -133t-28 -217q0 -40 4.5 -75.5t15.5 -74.5t36 -62.5t61 -23.5q52 0 86.5 50t48 121t13.5 158q0 76 -11.5 132.5t-30.5 91t-47 55.5t-57.5 28.5t-66.5 7.5q-105 0 -172 -58t-67 -166q0 -76 31 -97q-55 0 -85.5 28t-30.5 83q0 102 99 174t241 72 q71 0 127 -21t91 -56t58 -84t32.5 -102t9.5 -113q0 -71 -13.5 -134.5t-42 -120.5t-83 -91t-127.5 -34q-109 0 -176 79t-67 251q0 61 9 118t28.5 108.5t55 82.5t82.5 31q26 0 51 -8z" />
<glyph unicode="P" horiz-adv-x="601" d="M232 641l108 15v-340q82 1 124 61.5t42 142.5q0 37 -7 67t-26.5 61t-61 48.5t-103.5 17.5q-92 0 -152 -54t-60 -148q0 -81 42 -119q-120 0 -120 121q0 95 91.5 165.5t213.5 70.5q129 0 203 -61t74 -154q0 -94 -64 -172t-174 -78h-22v-285h-108v641z" />
<glyph unicode="Q" horiz-adv-x="727" d="M392 656q-47 -28 -75 -133.5t-28 -219.5q0 -108 27 -167q41 14 82 14q50 0 94 -32q62 87 62 286q0 92 -15 155.5t-44.5 96t-63.5 45.5t-80 13q-106 0 -177.5 -59t-71.5 -167q0 -76 31 -95q-55 0 -85.5 28.5t-30.5 81.5q0 102 103 174.5t246 72.5q71 0 126 -21t89 -55.5 t55.5 -84t30 -100.5t8.5 -110q0 -231 -110 -329q25 -25 43 -39.5t46.5 -27t59.5 -12.5q10 0 24 2q-8 -34 -26 -49t-51 -15q-35 0 -65 17.5t-45.5 36.5t-38.5 52q-47 -21 -104 -21q-108 0 -175 79t-67 251q0 61 9 118t28.5 108.5t55 82.5t82.5 31q26 0 51 -8zM389 120 q-28 0 -55 -14q28 -36 72 -36q29 0 54 17q-31 33 -71 33z" />
<glyph unicode="R" horiz-adv-x="652" d="M231 641l108 15v-233h26q57 0 92 46.5t35 105.5q0 58 -39 98.5t-134 40.5t-156 -55.5t-61 -149.5q0 -19 1.5 -35t4 -27.5t5 -19.5t6.5 -14l6 -9t5.5 -6.5l4.5 -4.5q-48 0 -83 30t-35 91q0 95 90.5 165.5t216.5 70.5q118 0 187 -45.5t69 -119.5q0 -44 -24 -89t-68 -73 q68 -10 90.5 -51.5t22.5 -112.5q0 -26 -2.5 -81t-2.5 -73q0 -85 57 -105q-57 -17 -86 -17q-43 0 -65.5 28t-22.5 75q0 26 5.5 91.5t5.5 90.5q0 120 -95 120q-28 0 -56 -7v-381h-108v641z" />
<glyph unicode="S" horiz-adv-x="493" d="M440 612q0 -39 -16.5 -61.5t-43.5 -22.5q-24 0 -43 21q29 21 29 69q0 38 -24.5 66.5t-71.5 28.5q-51 0 -790812112A36" />
<glyph unicode="T" horiz-adv-x="671" d="M582 630q-55 0 -164 24v-654h-108v670q-14 2 -40 2q-88 0 -130.5 -32t-42.5 -109q0 -92 41 -139q-118 0 -118 145q0 91 72.5 151.5t225.5 60.5q56 0 133 -11.5t116 -11.5q70 0 118 21q3 -18 3 -34q0 -83 -106 -83z" />
<glyph unicode="U" horiz-adv-x="770" d="M615 748h110v-542q0 -34 -9.5 -66t-33 -67.5t-74.5 -57.5t-124 -22q-58 0 -102.5 15t-69.5 37.5t-40 52.5t-20 55.5t-5 51.5v502q-75 -17 -116 -69t-41 -132q0 -22 3 -40t8 -30t9.5 -20t9.5 -14.5t6 -7.5q-44 0 -77 31.5t-33 87.5q0 96 92.5 166.5t214.5 70.5q21 0 47 -5 v-538q0 -82 33 -109.5t89 -27.5t89.5 28t33.5 111v539z" />
<glyph unicode="V" horiz-adv-x="644" d="M320 746l133 -666l139 665h57l-168 -745h-111l-149 693q-74 0 -105.5 -45t-31.5 -114q0 -79 47 -140q-48 0 -80 30t-32 102q0 95 69.5 159.5t188.5 64.5q15 0 43 -4z" />
<glyph unicode="W" horiz-adv-x="996" d="M320 746l143 -666l129 665h74l143 -665l129 665h57l-158 -745h-111l-120 542l-115 -542h-111l-159 693q-70 0 -103.5 -46t-33.5 -113q0 -79 47 -140q-48 0 -80 30t-32 102q0 95 69.5 159.5t188.5 64.5q15 0 43 -4z" />
<glyph unicode="X" horiz-adv-x="615" d="M630 0h-108l-131 301l-122 -301h-47l143 360l-153 354q-54 -15 -88 -70.5t-34 -124.5q0 -79 37 -116q-54 0 -80.5 26t-26.5 97q0 98 73.5 161.5t174.5 63.5q22 0 41 -3l129 -301l118 298h47l-140 -357z" />
<glyph unicode="Y" horiz-adv-x="608" d="M466 0h-108v308l-157 406q-63 -17 -91 -68t-28 -116q0 -79 50 -137q-112 0 -112 131q0 95 66 160.5t173 65.5q15 0 41 -2l145 -384l129 381h52l-160 -437v-308z" />
<glyph unicode="Z" horiz-adv-x="489" d="M399 71q-25 16 -25 42q0 18 13.5 29t33.5 11q24 0 44.5 -16t20.5 -44q0 -36 -30 -64.5t-77 -28.5h-361l329 705q-75 5 -143 5q-82 0 -85 -20q24 -16 24 -41q0 -17 -12 -29.5t-31 -12.5q-25 0 -47 20t-22 50q0 29 30.5 51t79.5 22h340l-328 -697q13 0 58.5 -1.5t72.5 -1.5 q106 0 115 21z" />
<glyph unicode="[" horiz-adv-x="285" d="M265 -188v-62h-194v1000h193v-62h-120v-876h121z" />
<glyph unicode="\" horiz-adv-x="504" d="M439 -250l-425 1000h50l425 -1000h-50z" />
<glyph unicode="]" horiz-adv-x="285" d="M20 -250v62h121v876h-120v62h193v-1000h-194z" />
<glyph unicode="^" horiz-adv-x="421" d="M219 561h-22l-86 101l-141 -101h-34l166 167h21z" />
<glyph unicode="_" horiz-adv-x="438" d="M394 70v-70h-350v70h350z" />
<glyph unicode="`" horiz-adv-x="201" d="M-43 750l71 -189h-55l-101 189h85z" />
<glyph unicode="a" d="M315 500h100v-340q0 -90 45 -90q49 0 72 109h37q-11 -59 -27.5 -98.5t-37 -57t-37.5 -23.5t-37 -6q-78 0 -97 95q-16 -41 -50.5 -68t-79.5 -27q-70 0 -120.5 56.5t-50.5 172.5q0 67 18 128.5t63 107.5t109 46q68 0 93 -53v48zM228 70q32 0 59.5 32.5t27.5 76.5v228 q-18 43 -59 43q-40 0 -68.5 -36.5t-39.5 -84.5t-11 -99q0 -160 91 -160z" />
<glyph unicode="b" horiz-adv-x="418" d="M46 179l1 507l100 14v-237q37 39 95 39q29 0 56.5 -10t53.5 -32.5t41.5 -67t15.5 -106.5q0 -122 -57.5 -20093F7D8A93" />
<glyph unicode="c" horiz-adv-x="364" d="M273 347q17 14 17 52q0 24 -14.5 38.5t-40.5 14.5q-34 0 -56 -34.5t-30 -79.5t-8 -98q0 -97 31 -133.5t87 -36.5q102 0 152 109h34q-25 -76 -86.5 -130.5t-132.5 -54.5q-79 0 -135 56.5t-56 176.5q0 47 8 91t27 88.5t57.5 71.5t92.5 27q63 0 96 -30.5t33 -89.5 q0 -26 -10 -42.5t-29 -16.5q-22 0 -37 21z" />
<glyph unicode="d" d="M315 686l100 14v-540q0 -90 45 -90q49 0 72 109h37q-11 -59 -27.5 -98.5t-37 -57t-37.5 -23.5t-37 -6q-78 0 -97 95q-16 -41 -50.5 -68t-79.5 -27q-70 0 -120.5 56.5t-50.5 172.5q0 67 18 128.5t63 107.5t109 46q68 0 93 -53v234zM228 70q32 0 59.5 32.5t27.5 76.5v228 q-18 43 -59 43q-40 0 -68.5 -36.5t-39.5 -84.5t-11 -99q0 -160 91 -160z" />
<glyph unicode="e" horiz-adv-x="368" d="M359 375q0 -70 -58 -117t-159 -58q7 -74 37 -102t78 -28q109 0 158 109h32q-26 -76 -91.5 -130.5t-139.5 -54.5q-77 0 -129 56t-52 175q0 46 10 92t31 89.5t60 71t90 27.5q133 0 133 -130zM141 239q71 11 112.5 50.5t41.5 95.5q0 71 -50 71q-33 0 -57.5 -34.5 t-35.5 -82.5t-11 -100z" />
<glyph unicode="f" horiz-adv-x="239" d="M146 548v-48h81v-35h-81v-545q0 -97 -33.5 -133.5t-91.5 -36.5q-105 0 -105 97q0 83 130 139v590q0 84 40 129t106 45q62 0 100.5 -38.5t38.5 -111.5h-39q-6 43 -22.5 64.5t-50.5 21.5q-44 0 -58.5 -34.5t-14.5 -103.5zM1 -198q27 0 36 28.5t9 87.5v31q-91 -44 -91 -99 q0 -20 13 -34t33 -14z" />
<glyph unicode="g" d="M315 500h100v-479q56 18 81.5 48.5t35.5 109.5h37q-15 -99 -47.5 -135.5t-106.5 -58.5v-64q0 -88 -35 -1290306F77AA8" />
<glyph unicode="h" horiz-adv-x="467" d="M46 686l100 14v-276q43 81 120 81q137 0 137 -179q0 -23 -3 -83t-3 -87q0 -86 45 -86q49 0 72 109h37q-33 -185 -137 -185q-59 0 -88 43.5t-29 109.5q0 12 1.5 86t1.5 88q0 108 -64 108q-63 0 -90 -109v-320h-100v686z" />
<glyph unicode="i" horiz-adv-x="217" d="M47 500h100v-340q0 -90 45 -90q49 0 72 109h37q-11 -59 -27.5 -98.5t-37 -57t-37.5 -23.5t-37 -6q-62 0 -88.5 43t-26.5 102v361zM29 644q0 27 19.5 47t46.5 20t47 -20t20 -47t-20 -46.5t-47 -19.5q-28 0 -47 19t-19 47z" />
<glyph unicode="j" horiz-adv-x="217" d="M47 500h100v-479q56 18 81.5 48.5t35.5 109.5h37q-15 -99 -47.5 -135.5t-106.5 -58.5v-64q0 -88 -35 -129.084F124AF9" />
<glyph unicode="k" horiz-adv-x="457" d="M46 686l100 14v-363l172 163h97l-167 -135h10q136 0 136 -156q0 -15 -1.5 -47.5t-1.5 -39.5q0 -52 39 -52q52 0 75 109h37q-9 -49 -23 -85t-27.5 -54.5t-31 -29.5t-30 -13.5t-27.5 -2.5q-57 0 -85 32t-28 82q0 5 0.5 45.5t0.5 47.5q0 88 -63 88q-55 0 -82 -77v-212h-100 v686z" />
<glyph unicode="l" horiz-adv-x="216" d="M47 686l100 14v-540q0 -90 45 -90q49 0 72 109h37q-11 -59 -27.5 -98.5t-37 -57t-37.5 -23.5t-37 -6q-62 0 -88.5 43t-26.5 102v547z" />
<glyph unicode="m" horiz-adv-x="693" d="M46 500h100v-69q39 74 110 74q90 0 118 -89q41 89 115 89q137 0 137 -179q0 -23 -3 -83t-3 -87q0 -86 45 -86q49 0 72 109h37q-33 -185 -137 -185q-59 0 -88 43.5t-29 109.5q0 12 1.5 86t1.5 88q0 108 -64 108q-63 0 -78 -109v-320h-100v334q0 44 -11 69.5t-45 25.5 q-30 0 -47.5 -25.5t-31.5 -83.5v-320h-100v500z" />
<glyph unicode="n" horiz-adv-x="467" d="M46 500h100v-76q43 81 120 81q137 0 137 -179q0 -23 -3 -83t-3 -87q0 -86 45 -86q49 0 72 109h37q-33 -185 -137 -185q-59 0 -88 43.5t-29 109.5q0 12 1.5 86t1.5 88q0 108 -64 108q-63 0 -90 -109v-320h-100v500z" />
<glyph unicode="o" horiz-adv-x="419" d="M229 505q134 0 157 -158h6q79 0 137 60l15 -27q-19 -31 -61.5 -52.5t-91.5 -29.5q0 -6 0.5 -20t0.5 -21q0 0CB4664A14" />
<glyph unicode="p" horiz-adv-x="423" d="M46 537h101v-77q43 45 104 45q74 0 120 -63t46 -185t-47 -192.5t-125 -70.5q-60 0 -98 48v-267l-101 -25v70C6ECF4A45" />
<glyph unicode="q" horiz-adv-x="445" d="M314 500h101v-725l-101 -25v303q-42 -59 -111 -59q-70 0 -120.5 56.5t-50.5 172.5q0 67 18 128.5t63 107.5t109 46q68 0 92 -51v46zM228 70q29 0 55.5 28t30.5 67v245q-18 40 -58 40t-68.5 -36.5t-39.5 -84.5t-11 -99q0 -160 91 -160z" />
<glyph unicode="r" horiz-adv-x="336" d="M46 500h100v-84q19 29 32 45t36 30t50 14q32 0 49 -17t17 -43q0 -27 -15 -39.5t-31 -12.5q-11 0 -26 12.5t-30 12.5q-34 0 -82 -50v-368h-100v500z" />
<glyph unicode="s" horiz-adv-x="342" d="M389 179h42q-42 -58 -119 -113q-21 -36 -61 -54t-78 -18q-79 0 -114 44.5t-35 103.5q0 53 36 73q3 7 17.5 47.5t18.5 53t15 46.5t15.5 52.5t10 45.5t7.5 51l101 20q14 -58 32 -127t24.5 -96t14 -62.5t10 -59t2.5 -54.5q25 17 61 47zM222 139q0 37 -5 65.5t-21.5 93 t-29.5 126.5q-4 -33 -13 -68t-23.5 -77.5t-21.5 -66.5q22 -15 22 -44q0 -18 -9.5 -28.5t-22.5 -10.5q-16 0 -27 14q16 -74 81 -74q70 0 70 70z" />
<glyph unicode="t" horiz-adv-x="236" d="M47 638l100 14v-152h77v-35h-77v-305q0 -90 47 -90q28 0 52 28t38 81h37q-16 -59 -36 -98.5t-42 -57t-39.5 -23.5t-38.5 -6q-65 0 -91.5 42.5t-26.5 102.5v326h-34v35h34v138z" />
<glyph unicode="u" horiz-adv-x="454" d="M284 500h100v-340q0 -90 45 -90q49 0 72 109h37q-11 -59 -27.5 -98.5t-37 -57t-37.5 -23.5t-37 -6q-78 0 -97 94q-18 -47 -48.5 -70.5t-66.5 -23.5q-64 0 -102.5 37t-38.5 118v351h100v-340q0 -90 60 -90q31 0 54.5 30t23.5 79v321z" />
<glyph unicode="v" horiz-adv-x="399" d="M368 337q0 -61 -10 -118t-30.5 -109.5t-58 -84t-86.5 -31.5q-55 0 -96 37t-41 100v369h100v-340q0 -90 58 0DDEF90AA4" />
<glyph unicode="w" horiz-adv-x="623" d="M46 500h100v-340q0 -90 60 -90q31 0 54.5 30t23.5 79v321h100v-340q0 -90 58 -90q39 0 65 39t36.5 93t10.5 118q0 62 -9 105q-7 -8 -26 -8q-22 0 -35 16t-13 37t13.5 36t37.5 15q38 0 61 -44.5t23 -139.5q0 -61 -10 -118t-30.5 -109.5t-58 -84t-86.5 -31.5 q-40 0 -74.5 20.5t-51.5 57.5q-38 -78 -108 -78q-64 0 -102.5 37t-38.5 118v351z" />
<glyph unicode="x" horiz-adv-x="498" d="M312 386l40 -111q76 105 76 167q0 12 -1 17q-9 -4 -21 -4q-23 0 -39 15t-16 38q0 22 15 37t38 15q30 0 49.5 -26.5t19.5 -72.5q0 -50 -25.5 -102.5t-79.5 -127.5l20 -53q20 -55 38 -81.5t42 -26.5q28 0 51.5 33.5t26.5 72.5h30q-4 -55 -21.5 -93.5t-41.5 -56.5t-44.5 -25 t-39.5 -7q-44 0 -76.5 39.5t-66.5 131.5l-105 -165h-68l155 216l-44 124q-18 51 -30 70.5t-26 19.5q-56 0 -86 -253h-37q4 19 11.5 64.5t13 74.5t17 68.5t25 63t36 40.5t51.5 17q41 0 66.5 -30t46.5 -89z" />
<glyph unicode="y" horiz-adv-x="454" d="M284 500h100v-479q56 18 81.5 48.5t35.5 109.5h37q-15 -99 -47.5 -135.5t-106.5 -58.5v-64q0 -88 -35 -129065CF02A26" />
<glyph unicode="z" horiz-adv-x="414" d="M368 85q-7 2 -12.5 10t-5.5 16q0 15 12 24t29 9q23 0 40.5 -15.5t17.5 -43.5q0 -32 -32 -58.5t-82 -26.5h-262l216 446h-86q-57 0 -57 -14q0 -6 8.5 -16t8.5 -16q0 -11 -13 -21t-32 -10q-27 0 -42 21t-15 51q0 59 103 59h248l-214 -430q102 -6 129 -6q37 0 41 21z" />
<glyph unicode="{" horiz-adv-x="257" d="M231 -189v-47q-21 -6 -44 -6q-64 0 -93.5 44t-29.5 101q0 44 27 133t27 126q0 67 -52 67q-13 0 -31 -3v56q18 -3 31 -3q52 0 52 67q0 37 -27 126t-27 133q0 57 29.5 101t93.5 44q23 0 44 -6v-47q-5 0 -15 2t-15 2q-80 0 -80 -99q0 -49 27 -144t27 -134q0 -42 -20 -70 q20 -28 20 -70q0 -39 -27 -134t-27 -144q0 -99 80 -99q5 0 15 2t15 2z" />
<glyph unicode="|" horiz-adv-x="195" d="M124 751v-1001h-53v1001h53z" />
<glyph unicode="}" horiz-adv-x="257" d="M27 -236v47q5 0 14.5 -2t14.5 -2q80 0 80 99q0 49 -27 144t-27 134q0 42 20 70q-20 28 -20 70q0 39 27 134t27 144q0 99 -80 99q-5 0 -15 -2t-15 -2v47q21 6 44 6q64 0 93.5 -44t29.5 -101q0 -44 -27 -133t-27 -126q0 -67 52 -67q13 0 31 3v-56q-18 3 -31 3 q-52 0 -52 -67q0 -37 27 -126t27 -133q0 -57 -29.5 -101t-93.5 -44q-22 0 -43 6z" />
<glyph unicode="~" horiz-adv-x="401" d="M370 671h5q-1 -33 -38.5 -61.5t-87.5 -28.5q-31 0 -83 16.5t-75 16.5q-34 0 -55 -24l-5 2q26 88 131 88q35 0 83 -14.5t72 -14.5q38 0 53 20z" />
<glyph unicode="&#xa1;" horiz-adv-x="226" d="M88 221h53l28 -469h-112zM178 391q0 -27 -19.5 -47t-46.5 -20t-47 20t-20 47t20 46.5t47 19.5q28 0 47 -19t19 -47z" />
<glyph unicode="&#xa2;" horiz-adv-x="373" d="M341 255q0 -52 -32.5 -78.5t-79.5 -32.5l-4 -171h-27l-3 170q-70 4 -118.5 55t-48.5 154q0 53 12.5 102.5t09EF631A6D" />
<glyph unicode="&#xa3;" horiz-adv-x="472" d="M391 0h-295l10 362q-12 3 -25 3q-34 0 -55 -24l-5 2q20 68 87 83l9 293l97 22l-10 -316q11 -3 32.5 -9.5t308FCD2EAEE" />
<glyph unicode="&#xa4;" horiz-adv-x="457" d="M45 492l38 36l56 -56q41 30 91 30q49 0 89 -29l56 56l36 -36l-55 -55q30 -41 30 -92q0 -50 -30 -91l55 -55l-36 -36l-55 55q-40 -29 -90 -29q-51 0 -92 30l-56 -56l-36 36l56 56q-29 40 -29 89q0 50 29 90zM230 462q-48 0 -82 -34t-34 -82t34 -82t82 -34t82 34t34 82 t-34 82t-82 34z" />
<glyph unicode="&#xa5;" horiz-adv-x="501" d="M68 192h124v80h-124v35h124l-171 438h112l146 -383l134 383h52l-165 -438h155v-35h-155v-80h154v-35h-154v-157h-108v157h-124v35z" />
<glyph unicode="&#xa6;" horiz-adv-x="195" d="M71 222h53v-472h-53v472zM124 301h-53v450h53v-450z" />
<glyph unicode="&#xa7;" horiz-adv-x="519" d="M436 640q0 -60 -43 -60q-21 0 -39 16q23 15 23 55q0 30 -21.5 51t-60.5 21q-46 0 -73.5 -29t-27.5 -71q0 -41 31 -73.5t75 -56.5t88 -51t75 -70.5t31 -100.5q0 -49 -21.5 -86t-62.5 -48q4 -22 4 -36q0 -73 -50 -114t-138 -41q-20 0 -39.5 2t-48.5 10.5t-50 23t-36 42.5 t-15 65q0 52 25.5 82.5t58.5 30.5q20 0 35.5 -12t21.5 -36q-32 -3 -44 -17.5t-12 -43.5q0 -54 29.5 -81.5t74.5 -27.5q39 0 68 22.5t29 74.5q0 47 -29 85t-70 64t-82 51t-70 60t-29 78q0 38 20.5 68t54.5 46q-15 31 -15 70q0 73 53 110t138 37q18 0 35.5 -2.5t45 -12 t44.5 -34t17 -61.5zM430 235q0 36 -21.5 66t-56.5 53t-72.5 43.5t-77 47.5t-62.5 55q-24 -21 -24 -61q0 -24 36.5 -52.5t83 -54t95.5 -69t69 -91.5q30 18 30 63z" />
<glyph unicode="&#xa8;" horiz-adv-x="392" d="M-65 645q0 22 15.5 38t37.5 16t38 -16t16 -38t-16 -37.5t-38 -15.5t-37.5 15t-15.5 38zM94 645q0 22 15.5 38t37.5 16t38 -16t16 -38t-16 -37.5t-38 -15.5q-23 0 -38 15t-15 38z" />
<glyph unicode="&#xa9;" horiz-adv-x="554" d="M136 336q0 65 45.5 106.5t103.5 41.5q41 0 75 -24t48 -71l-37 -14q-6 31 -31 48t-57 17q-48 0 -75.5 -31t-27.5 -72q0 -45 27.5 -79t74.5 -34q57 0 89 49l34 -23q-21 -31 -56.5 -49.5t-72.5 -18.5q-60 0 -100 45.5t-40 108.5zM277 76q-99 0 -170.5 74.5t-71.5 180.5 q0 107 71 181.5t171 74.5t171 -74t71 -181t-71 -181.5t-171 -74.5zM61 331q0 -98 64 -166t154 -68q89 0 153 68t64 166t-64 166t-153 68q-90 0 -154 -68t-64 -166z" />
<glyph unicode="&#xaa;" horiz-adv-x="326" d="M198 740h55v-181q0 -49 24 -49q10 0 16 2q-1 -46 -39 -46q-44 0 -50 46q-23 -46 -69 -46q-38 0 -66.5 32t-28.5 96q0 58 26.5 104.5t81.5 46.5q35 0 50 -27v22zM152 509q18 0 32 18t14 43v123q-11 21 -32 21q-35 0 -51 -35t-16 -79q0 -91 53 -91z" />
<glyph unicode="&#xab;" horiz-adv-x="514" d="M196 449l51 -45l-143 -151l167 -140l-31 -44l-219 185zM404 449l51 -45l-143 -151l167 -140l-31 -44l-219 185z" />
<glyph unicode="&#xac;" horiz-adv-x="453" d="M391 301l2 -250h-81v180h-271v70h350z" />
<glyph unicode="&#xad;" horiz-adv-x="319" d="M260 301v-70h-201v70h201z" />
<glyph unicode="&#xae;" horiz-adv-x="554" d="M277 79q-99 0 -170.5 74.5t-71.5 180.5q0 107 71 181.5t171 74.5t171 -74t71 -181t-71 -181.5t-171 -74.5zM61 334q0 -98 64 -166t154 -68q89 0 153 68t64 166t-64 166t-153 68q-90 0 -154 -68t-64 -166zM185 192l1 291h98q100 0 100 -84q0 -61 -57 -77l63 -125l-37 -6 l-62 124h-70v-123h-36zM221 445v-95h66q25 0 43 11.5t18 37.5q0 46 -63 46h-64z" />
<glyph unicode="&#xb0;" horiz-adv-x="317" d="M161 702q61 0 87.5 -45.5t26.5 -114.5q0 -68 -29 -118t-89 -50q-53 0 -84 41.5t-31 123.5q0 72 31.5 117.500E4BE0A76" />
<glyph unicode="&#xb1;" horiz-adv-x="477" d="M423 421v-70h-144v-143h-81v143h-142v70h142v122h82v-122h143zM421 147v-70h-368v70h368z" />
<glyph unicode="&#xb2;" horiz-adv-x="344" d="M107 406q22 0 60.5 -6t54.5 -6q48 0 78 40q1 -2 3.5 -8.5t4 -14.5t1.5 -18q0 -53 -59 -53q-22 0 -69.5 9t-63.5 9q-29 0 -54 -15q-9 20 -9 33q0 28 16.5 56t39.5 52.5t46 49.5t39.5 56t16.5 63q0 34 -17 52t-43 18q-24 0 -39 -13t-15 -32q0 -26 26 -43q-20 -16 -39 -16 t-31.5 16t-12.5 38q0 31 28 53.5t87 22.5q118 0 118 -101q0 -43 -22 -80.5t-49.5 -59.5t-56.5 -50t-39 -52z" />
<glyph unicode="&#xb3;" horiz-adv-x="344" d="M135 488q-39 -10 -39 -50q0 -31 19 -48t46 -17q32 0 55.5 24t23.5 68q0 25 -9 44.5t-25.5 31.5t-28 18t-29.5 12q38 10 55.5 36.5t17.5 55.5q0 30 -18.5 46t-43.5 16q-23 0 -39.5 -12.5t-16.5 -33.5q0 -27 25 -39q-16 -18 -36 -18q-18 0 -29.5 15.5t-11.5 37.5 q0 35 33 55t78 20q46 0 79 -22t33 -64q0 -62 -55 -89q48 -13 69 -43t21 -63q0 -61 -41.5 -94t-98.5 -33q-52 0 -90 27t-38 75q0 33 15 50.5t38 17.5q26 0 41 -24z" />
<glyph unicode="&#xb4;" horiz-adv-x="287" d="M-8 561l51 189h85l-81 -189h-55z" />
<glyph unicode="&#xb5;" horiz-adv-x="454" d="M284 500h100v-340q0 -90 45 -90q49 0 72 109h37q-11 -59 -27.5 -98.5t-37 -57t-37.5 -23.5t-37 -6q-78 0 -97 94q-18 -47 -48.5 -70.5t-66.5 -23.5q-19 0 -41 5v-141l-100 -24v666h100v-340q0 -90 60 -90q31 0 54.5 30t23.5 79v321z" />
<glyph unicode="&#xb6;" horiz-adv-x="517" d="M309 -81h-73v367q-97 12 -155.5 86t-58.5 167q0 86 51.5 148t149.5 62q97 0 162 -57t65 -178v-595h-73v385q-31 -11 -68 -16v-369z" />
<glyph unicode="&#xb7;" horiz-adv-x="253" d="M44 267q0 35 24 59t58 24t58.5 -24t24.5 -59q0 -34 -24 -58t-59 -24q-34 0 -58 23.5t-24 58.5z" />
<glyph unicode="&#xb8;" horiz-adv-x="227" d="M252 -128q0 -42 -29 -66t-70 -24q-53 0 -113 28q12 32 33 32q13 0 40 -15t41 -15q18 0 29.5 12t11.5 27q0 19 -16 35.5t-44 16.5q-30 0 -57 -22l21 148l40 -23l-13 -72q30 8 51 8q75 0 75 -70z" />
<glyph unicode="&#xb9;" horiz-adv-x="195" d="M133 749v-404h-53v337h-55l2 25q23 0 54.5 11t51.5 31z" />
<glyph unicode="&#xba;" horiz-adv-x="301" d="M151 746q63 0 82 -73q11 0 20 9t13 19l10 -12q-9 -42 -36 -55q1 -10 1 -31q0 -61 -23.5 -99.5t-65.5 -38.5q-48 0 -80.5 30.5t-32.5 97.5q0 58 26.5 105.5t85.5 47.5zM165 507q21 0 34 28.5t13 75.5q0 3 -0.5 9t-0.5 9q-27 0 -27 30q0 21 18 26q-13 31 -42 31 q-30 0 -46 -38t-16 -83q0 -88 67 -88z" />
<glyph unicode="&#xbb;" horiz-adv-x="517" d="M319 69l-51 45l143 151l-167 140l31 44l219 -185zM111 69l-51 45l143 151l-167 140l31 44l219 -185z" />
<glyph unicode="&#xbc;" horiz-adv-x="660" d="M453 750l-247 -750h-60l247 750h60zM130 707v-404h-53v337h-55l2 25q23 0 54.5 11t51.5 31zM540 397l59 8v-225h37l-3 -31h-34v-149h-59v149h-154q2 17 25 85t23 106q0 32 -15 65q21 0 42 -20t21 -52t-26 -85t-30 -68h114v217z" />
<glyph unicode="&#xbd;" horiz-adv-x="670" d="M441 750l-247 -750h-60l247 750h60zM446 66q22 0 60.5 -6t54.5 -6q48 0 78 40q1 -2 3.5 -8.5t4 -14.5t1.5 088C7C6ABA" />
<glyph unicode="&#xbe;" horiz-adv-x="796" d="M570 750l-247 -750h-60l247 750h60zM123 445q-39 -10 -39 -50q0 -31 19 -48t46 -17q32 0 55.5 24t23.5 68q0 25 -9 44.5t-25.5 31.5t-28 18t-29.5 12q38 10 55.5 36.5t17.5 55.5q0 30 -18.5 46t-43.5 16q-23 0 -39.5 -12.5t-16.5 -33.5q0 -27 25 -39q-17 -18 -36 -18 q-18 0 -29.5 15.5t-11.5 37.5q0 35 33 55t78 20q46 0 79 -22t33 -64q0 -61 -55 -89q48 -13 69 -43t21 -63q0 -61 -41.5 -94t-98.5 -33q-52 0 -90 27t-38 75q0 33 15 50.5t38 17.5q26 0 41 -24zM678 397l59 8v-225h37l-3 -31h-34v-149h-59v149h-154q2 17 25 85t23 106 q0 32 -15 65q21 0 42 -20t21 -52t-26 -85t-30 -68h114v217z" />
<glyph unicode="&#xbf;" horiz-adv-x="413" d="M30 -93q0 40 18.5 74.5t45.5 60.5t54 51t47 58t22 70h46q3 -15 3 -28q0 -30 -14.5 -59.5t-35.5 -54t-42 -49.5t-35.5 -57.5t-14.5 -66.5q0 -56 31 -82.5t75 -26.5q37 0 64.5 22.5t27.5 57.5q0 25 -22 49t-62 30q16 42 64 42q38 0 67.5 -28.5t29.5 -77.5q0 -55 -44 -97 t-135 -42q-92 0 -141 43t-49 111zM306 392q0 -27 -19.5 -47t-46.5 -20t-47 20t-20 47t20 46.5t47 19.5q28 0 47 -19t19 -47z" />
<glyph unicode="&#xc0;" horiz-adv-x="603" d="M557 0h-110v360q-74 36 -185 49q-54 -193 -54 -354q0 -104 35 -169q-27 0 -48.5 5.5t-44.5 21.5t-36 51t-13 87q0 159 77 362q-60 -2 -99.5 -17t-39.5 -39q0 -4 1 -6q26 -8 26 -33q0 -32 -41 -32q-28 0 -48 16t-20 49q0 47 53.5 75t136.5 28q15 0 47 -2q55 132 128 215 t155 83q44 0 80 -14v-736zM272 442q107 -19 175 -52v312q-47 -3 -93 -74.5t-82 -185.5zM388 1000l71 -189h-55l-101 189h85z" />
<glyph unicode="&#xc1;" horiz-adv-x="603" d="M557 0h-110v360q-74 36 -185 49q-54 -193 -54 -354q0 -104 35 -169q-27 0 -48.5 5.5t-44.5 21.5t-36 51t-13 87q0 159 77 362q-60 -2 -99.5 -17t-39.5 -39q0 -4 1 -6q26 -8 26 -33q0 -32 -41 -32q-28 0 -48 16t-20 49q0 47 53.5 75t136.5 28q15 0 47 -2q55 132 128 215 t155 83q44 0 80 -14v-736zM272 442q107 -19 175 -52v312q-47 -3 -93 -74.5t-82 -185.5zM398 811l51 189h85l-81 -189h-55z" />
<glyph unicode="&#xc2;" horiz-adv-x="603" d="M557 0h-110v360q-74 36 -185 49q-54 -193 -54 -354q0 -104 35 -169q-27 0 -48.5 5.5t-44.5 21.5t-36 51t-13 87q0 159 77 362q-60 -2 -99.5 -17t-39.5 -39q0 -4 1 -6q26 -8 26 -33q0 -32 -41 -32q-28 0 -48 16t-20 49q0 47 53.5 75t136.5 28q15 0 47 -2q55 132 128 215 t155 83q44 0 80 -14v-736zM272 442q107 -19 175 -52v312q-47 -3 -93 -74.5t-82 -185.5zM555 811h-22l-86 101l-141 -101h-34l166 167h21z" />
<glyph unicode="&#xc3;" horiz-adv-x="603" d="M557 0h-110v360q-74 36 -185 49q-54 -193 -54 -354q0 -104 35 -169q-27 0 -48.5 5.5t-44.5 21.5t-36 51t-13 87q0 159 77 362q-60 -2 -99.5 -17t-39.5 -39q0 -4 1 -6q26 -8 26 -33q0 -32 -41 -32q-28 0 -48 16t-20 49q0 47 53.5 75t136.5 28q15 0 47 -2q55 132 128 215 t155 83q44 0 80 -14v-736zM272 442q107 -19 175 -52v312q-47 -3 -93 -74.5t-82 -185.5zM597 915h5q-1 -33 -38.5 -61.5t-87.5 -28.5q-31 0 -83 16.5t-75 16.5q-34 0 -55 -24l-5 2q26 88 131 88q35 0 83 -14.5t72 -14.5q38 0 53 20z" />
<glyph unicode="&#xc4;" horiz-adv-x="603" d="M557 0h-110v360q-74 36 -185 49q-54 -193 -54 -354q0 -104 35 -169q-27 0 -48.5 5.5t-44.5 21.5t-36 51t-13 87q0 159 77 362q-60 -2 -99.5 -17t-39.5 -39q0 -4 1 -6q26 -8 26 -33q0 -32 -41 -32q-28 0 -48 16t-20 49q0 47 53.5 75t136.5 28q15 0 47 -2q55 132 128 215 t155 83q44 0 80 -14v-736zM272 442q107 -19 175 -52v312q-47 -3 -93 -74.5t-82 -185.5zM457 895q0 22 15.5 38t37.5 16t38 -16t16 -38t-16 -37.5t-38 -15.5t-37.5 15t-15.5 38zM298 895q0 22 15.5 38t37.5 16t38 -16t16 -38t-16 -37.5t-38 -15.5q-23 0 -38 15t-15 38z" />
<glyph unicode="&#xc5;" horiz-adv-x="603" d="M557 0h-110v360q-74 36 -185 49q-54 -193 -54 -354q0 -104 35 -169q-27 0 -48.5 5.5t-44.5 21.5t-36 51t-13 87q0 159 77 362q-60 -2 -99.5 -17t-39.5 -39q0 -4 1 -6q26 -8 26 -33q0 -32 -41 -32q-28 0 -48 16t-20 49q0 47 53.5 75t136.5 28q15 0 47 -2q55 132 128 215 t155 83q44 0 80 -14v-736zM272 442q107 -19 175 -52v312q-47 -3 -93 -74.5t-82 -185.5zM421 805q-39 0 -61 24t-22 57q0 32 21 54.5t57 22.5q37 0 57.5 -24.5t20.5 -58.5q0 -32 -18.5 -53.5t-54.5 -21.5zM420 839q18 0 28 12.5t10 30.5q0 19 -10 33.5t-29 14.5t-30 -13.5 t-11 -31.5t11 -32t31 -14z" />
<glyph unicode="&#xc6;" horiz-adv-x="833" d="M734 657q-44 0 -124 22v-266h147v-59h-147v-284h220v-70h-330v360q-73 35 -185 49q-54 -186 -54 -354q0 -10D52402AE6" />
<glyph unicode="&#xc7;" horiz-adv-x="507" d="M461 -128q0 -42 -29 -66t-70 -24q-53 0 -113 28q12 32 33 32q13 0 40 -15t41 -15q18 0 29.5 12t11.5 27q0 19 -16 35.5t-44 16.5q-30 0 -57 -22l14 104q-121 6 -187 98.5t-66 266.5q0 74 12.5 140.5t41 127t82 96.5t126.5 36q80 0 133.5 -40.5t53.5 -115.5q0 -70 -53 -70 q-30 0 -47 18q9 7 16.5 29.5t7.5 49.5q0 46 -22.5 69.5t-61.5 23.5q-58 0 -97.5 -51.5t-56.5 -127.5t-17 -168q0 -307 212 -307q127 0 178 120l25 -10q-24 -83 -87 -131t-150 -54l-9 -51q30 8 51 8q75 0 75 -70z" />
<glyph unicode="&#xc8;" horiz-adv-x="447" d="M496 180l25 -10q-26 -87 -101.5 -137.5t-165.5 -50.5q-106 0 -159.5 67.5t-53.5 159.5q0 73 35.5 127.5t99.5 80.5q-90 57 -90 151q0 73 52 128.5t145 55.5q64 0 108.5 -30t44.5 -97q0 -38 -15 -60t-40 -22q-27 0 -53 27q16 7 28.5 26.5t12.5 45.5q0 36 -23.5 54 t-56.5 18q-51 0 -81.5 -41.5t-30.5 -95.5q0 -16 3 -34t13 -45.5t34.5 -49t61.5 -30.5q-65 -15 -101 -67t-36 -125q0 -75 40 -120t117 -45q68 0 118 34t69 85zM237 1000l71 -189h-55l-101 189h85z" />
<glyph unicode="&#xc9;" horiz-adv-x="447" d="M496 180l25 -10q-26 -87 -101.5 -137.5t-165.5 -50.5q-106 0 -159.5 67.5t-53.5 159.5q0 73 35.5 127.5t99.5 80.5q-90 57 -90 151q0 73 52 128.5t145 55.5q64 0 108.5 -30t44.5 -97q0 -38 -15 -60t-40 -22q-27 0 -53 27q16 7 28.5 26.5t12.5 45.5q0 36 -23.5 54 t-56.5 18q-51 0 -81.5 -41.5t-30.5 -95.5q0 -16 3 -34t13 -45.5t34.5 -49t61.5 -30.5q-65 -15 -101 -67t-36 -125q0 -75 40 -120t117 -45q68 0 118 34t69 85zM251 811l51 189h85l-81 -189h-55z" />
<glyph unicode="&#xca;" horiz-adv-x="447" d="M496 180l25 -10q-26 -87 -101.5 -137.5t-165.5 -50.5q-106 0 -159.5 67.5t-53.5 159.5q0 73 35.5 127.5t99.5 80.5q-90 57 -90 151q0 73 52 128.5t145 55.5q64 0 108.5 -30t44.5 -97q0 -38 -15 -60t-40 -22q-27 0 -53 27q16 7 28.5 26.5t12.5 45.5q0 36 -23.5 54 t-56.5 18q-51 0 -81.5 -41.5t-30.5 -95.5q0 -16 3 -34t13 -45.5t34.5 -49t61.5 -30.5q-65 -15 -101 -67t-36 -125q0 -75 40 -120t117 -45q68 0 118 34t69 85zM419 811h-22l-86 101l-141 -101h-34l166 167h21z" />
<glyph unicode="&#xcb;" horiz-adv-x="447" d="M496 180l25 -10q-26 -87 -101.5 -137.5t-165.5 -50.5q-106 0 -159.5 67.5t-53.5 159.5q0 73 35.5 127.5t9900F374BA37" />
<glyph unicode="&#xcc;" horiz-adv-x="403" d="M357 748v-748h-110v691q-68 -19 -106.5 -66t-38.5 -114q0 -48 12 -73.5t34 -44.5q-130 0 -130 121q0 94 91 165t206 71q16 0 42 -2zM255 1000l71 -189h-55l-101 189h85z" />
<glyph unicode="&#xcd;" horiz-adv-x="403" d="M357 748v-748h-110v691q-68 -19 -106.5 -66t-38.5 -114q0 -48 12 -73.5t34 -44.5q-130 0 -130 121q0 94 91 165t206 71q16 0 42 -2zM272 811l51 189h85l-81 -189h-55z" />
<glyph unicode="&#xce;" horiz-adv-x="403" d="M357 748v-748h-110v691q-68 -19 -106.5 -66t-38.5 -114q0 -48 12 -73.5t34 -44.5q-130 0 -130 121q0 94 91 165t206 71q16 0 42 -2zM439 811h-22l-86 101l-141 -101h-34l166 167h21z" />
<glyph unicode="&#xcf;" horiz-adv-x="403" d="M357 748v-748h-110v691q-68 -19 -106.5 -66t-38.5 -114q0 -48 12 -73.5t34 -44.5q-130 0 -130 121q0 94 91 165t206 71q16 0 42 -2zM327 895q0 22 15.5 38t37.5 16t38 -16t16 -38t-16 -37.5t-38 -15.5t-37.5 15t-15.5 38zM168 895q0 22 15.5 38t37.5 16t38 -16t16 -38 t-16 -37.5t-38 -15.5q-23 0 -38 15t-15 38z" />
<glyph unicode="&#xd0;" horiz-adv-x="705" d="M94 507q0 -76 55 -114q-131 0 -131 122q0 95 91.5 165t224.5 70q92 0 161 -32t108 -87.5t58 -121.5t19 -14076E6AAA90" />
<glyph unicode="&#xd1;" horiz-adv-x="709" d="M596 748h67v-748h-134l-251 563v-563h-67v689q-117 -40 -117 -169q0 -87 48 -127q-63 0 -92.5 31t-29.5 98q0 86 65.5 157t162.5 71q38 0 70 -14l278 -642v654zM598 915h5q-1 -33 -38.5 -61.5t-87.5 -28.5q-31 0 -83 16.5t-75 16.5q-34 0 -55 -24l-5 2q26 88 131 88 q35 0 83 -14.5t72 -14.5q38 0 53 20z" />
<glyph unicode="&#xd2;" horiz-adv-x="702" d="M393 656q-47 -28 -75 -133t-28 -217q0 -40 4.5 -75.5t15.5 -74.5t36 -62.5t61 -23.5q52 0 86.5 50t48 121t13.5 158q0 76 -11.5 132.5t-30.5 91t-47 55.5t-57.5 28.5t-66.5 7.5q-105 0 -172 -58t-67 -166q0 -79 31 -97q-55 0 -85.5 28t-30.5 83q0 102 99 174t241 72 q71 0 127 -21t91 -56t58 -84t32.5 -102t9.5 -113q0 -71 -13.5 -134.5t-42 -120.5t-83 -91t-127.5 -34q-109 0 -176 79t-67 251q0 61 9 118t28.5 108.5t55 82.5t82.5 31q26 0 51 -8zM380 1000l71 -189h-55l-101 189h85z" />
<glyph unicode="&#xd3;" horiz-adv-x="702" d="M393 656q-47 -28 -75 -133t-28 -217q0 -40 4.5 -75.5t15.5 -74.5t36 -62.5t61 -23.5q52 0 86.5 50t48 121t13.5 158q0 76 -11.5 132.5t-30.5 91t-47 55.5t-57.5 28.5t-66.5 7.5q-105 0 -172 -58t-67 -166q0 -79 31 -97q-55 0 -85.5 28t-30.5 83q0 102 99 174t241 72 q71 0 127 -21t91 -56t58 -84t32.5 -102t9.5 -113q0 -71 -13.5 -134.5t-42 -120.5t-83 -91t-127.5 -34q-109 0 -176 79t-67 251q0 61 9 118t28.5 108.5t55 82.5t82.5 31q26 0 51 -8zM384 811l51 189h85l-81 -189h-55z" />
<glyph unicode="&#xd4;" horiz-adv-x="702" d="M393 656q-47 -28 -75 -133t-28 -217q0 -40 4.5 -75.5t15.5 -74.5t36 -62.5t61 -23.5q52 0 86.5 50t48 121t13.5 158q0 76 -11.5 132.5t-30.5 91t-47 55.5t-57.5 28.5t-66.5 7.5q-105 0 -172 -58t-67 -166q0 -84 31 -97q-55 0 -85.5 28t-30.5 83q0 102 99 174t241 72 q71 0 127 -21t91 -56t58 -84t32.5 -102t9.5 -113q0 -71 -13.5 -134.5t-42 -120.5t-83 -91t-127.5 -34q-109 0 -176 79t-67 251q0 61 9 118t28.5 108.5t55 82.5t82.5 31q26 0 51 -8zM552 811h-22l-86 101l-141 -101h-34l166 167h21z" />
<glyph unicode="&#xd5;" horiz-adv-x="702" d="M393 656q-47 -28 -75 -133t-28 -217q0 -40 4.5 -75.5t15.5 -74.5t36 -62.5t61 -23.5q52 0 86.5 50t48 121t13.5 158q0 76 -11.5 132.5t-30.5 91t-47 55.5t-57.5 28.5t-66.5 7.5q-105 0 -172 -58t-67 -166q0 -76 31 -97q-55 0 -85.5 28t-30.5 83q0 102 99 174t241 72 q71 0 127 -21t91 -56t58 -84t32.5 -102t9.5 -113q0 -71 -13.5 -134.5t-42 -120.5t-83 -91t-127.5 -34q-109 0 -176 79t-67 251q0 61 9 118t28.5 108.5t55 82.5t82.5 31q26 0 51 -8zM574 915h5q-1 -33 -38.5 -61.5t-87.5 -28.5q-31 0 -83 16.5t-75 16.5q-34 0 -55 -24l-5 2 q26 88 131 88q35 0 83 -14.5t72 -14.5q38 0 53 20z" />
<glyph unicode="&#xd6;" horiz-adv-x="702" d="M393 656q-47 -28 -75 -133t-28 -217q0 -40 4.5 -75.5t15.5 -74.5t36 -62.5t61 -23.5q52 0 86.5 50t48 121t0A7068EA21" />
<glyph unicode="&#xd7;" horiz-adv-x="387" d="M344 166l-50 -52l-95 94l-106 -106l-48 48l106 106l-109 110l51 52l109 -111l96 96l48 -48l-96 -96z" />
<glyph unicode="&#xd8;" horiz-adv-x="690" d="M391 656q-47 -28 -75 -133t-28 -217q0 -230 111 -236v637q-27 7 -59 7q-105 0 -172 -58t-67 -166q0 -75 31 -97q-55 0 -85.5 28t-30.5 83q0 102 99 174t241 72q15 0 43 -2v5h32v-10q67 -13 115.5 -48t75.5 -86.5t39.5 -109t12.5 -125.5t-12.5 -129.5t-39 -117t-76 -91.5 t-115.5 -41v-66h-32v65q-106 3 -170 82t-64 248q0 61 9 118t28.5 108.5t55 82.5t82.5 31q26 0 51 -8zM553 399q0 245 -122 298v-624q62 18 92 110t30 216z" />
<glyph unicode="&#xd9;" horiz-adv-x="770" d="M615 748h110v-542q0 -34 -9.5 -66t-33 -67.5t-74.5 -57.5t-124 -22q-58 0 -102.5 15t-69.5 37.5t-40 52.5t-20 55.5t-5 51.5v502q-75 -17 -116 -69t-41 -132q0 -22 3 -40t8 -30t9.5 -20t9.5 -14.5t6 -7.5q-44 0 -77 31.5t-33 87.5q0 96 92.5 166.5t214.5 70.5q21 0 47 -5 v-538q0 -82 33 -109.5t89 -27.5t89.5 28t33.5 111v539zM445 1000l71 -189h-55l-101 189h85z" />
<glyph unicode="&#xda;" horiz-adv-x="770" d="M615 748h110v-542q0 -34 -9.5 -66t-33 -67.5t-74.5 -57.5t-124 -22q-58 0 -102.5 15t-69.5 37.5t-40 52.5t-20 55.5t-5 51.5v502q-75 -17 -116 -69t-41 -132q0 -22 3 -40t8 -30t9.5 -20t9.5 -14.5t6 -7.5q-44 0 -77 31.5t-33 87.5q0 96 92.5 166.5t214.5 70.5q21 0 47 -5 v-538q0 -82 33 -109.5t89 -27.5t89.5 28t33.5 111v539zM454 811l51 189h85l-81 -189h-55z" />
<glyph unicode="&#xdb;" horiz-adv-x="770" d="M615 748h110v-542q0 -34 -9.5 -66t-33 -67.5t-74.5 -57.5t-124 -22q-58 0 -102.5 15t-69.5 37.5t-40 52.5t-20 55.5t-5 51.5v502q-75 -17 -116 -69t-41 -132q0 -22 3 -40t8 -30t9.5 -20t9.5 -14.5t6 -7.5q-44 0 -77 31.5t-33 87.5q0 96 92.5 166.5t214.5 70.5q21 0 47 -5 v-538q0 -82 33 -109.5t89 -27.5t89.5 28t33.5 111v539zM633 811h-22l-86 101l-141 -101h-34l166 167h21z" />
<glyph unicode="&#xdc;" horiz-adv-x="770" d="M615 748h110v-542q0 -34 -9.5 -66t-33 -67.5t-74.5 -57.5t-124 -22q-58 0 -102.5 15t-69.5 37.5t-40 52.5t-20 55.5t-5 51.5v502q-75 -17 -116 -69t-41 -132q0 -22 3 -40t8 -30t9.5 -20t9.5 -14.5t6 -7.5q-44 0 -77 31.5t-33 87.5q0 96 92.5 166.5t214.5 70.5q21 0 47 -5 v-538q0 -82 33 -109.5t89 -27.5t89.5 28t33.5 111v539zM517 895q0 22 15.5 38t37.5 16t38 -16t16 -38t-16 -37.5t-38 -15.5t-37.5 15t-15.5 38zM358 895q0 22 15.5 38t37.5 16t38 -16t16 -38t-16 -37.5t-38 -15.5q-23 0 -38 15t-15 38z" />
<glyph unicode="&#xdd;" horiz-adv-x="608" d="M466 0h-108v308l-157 406q-63 -17 -91 -68t-28 -116q0 -79 50 -137q-112 0 -112 131q0 95 66 160.5t173 65.5q15 0 41 -2l145 -384l129 381h52l-160 -437v-308zM409 811l51 189h85l-81 -189h-55z" />
<glyph unicode="&#xde;" horiz-adv-x="600" d="M216 734l109 15v-109h4q122 0 195.5 -64t73.5 -159q0 -91 -64 -166.5t-174 -75.5q-22 0 -35 1v-176h-109v50A6AB86A3C" />
<glyph unicode="&#xdf;" horiz-adv-x="450" d="M163 530v-744l-110 -36v780q0 170 146 170q81 0 124.5 -40.5t43.5 -113.5q0 -37 -16.5 -69.5t-48.5 -49.5q04D7D89AB8" />
<glyph unicode="&#xe0;" d="M315 500h100v-340q0 -90 45 -90q49 0 72 109h37q-11 -59 -27.5 -98.5t-37 -57t-37.5 -23.5t-37 -6q-78 0 -97 95q-16 -41 -50.5 -68t-79.5 -27q-70 0 -120.5 56.5t-50.5 172.5q0 67 18 128.5t63 107.5t109 46q68 0 93 -53v48zM228 70q32 0 59.5 32.5t27.5 76.5v228 q-18 43 -59 43q-40 0 -68.5 -36.5t-39.5 -84.5t-11 -99q0 -160 91 -160zM206 750l71 -189h-55l-101 189h85z" />
<glyph unicode="&#xe1;" d="M315 500h100v-340q0 -90 45 -90q49 0 72 109h37q-11 -59 -27.5 -98.5t-37 -57t-37.5 -23.5t-37 -6q-78 0 -97 95q-16 -41 -50.5 -68t-79.5 -27q-70 0 -120.5 56.5t-50.5 172.5q0 67 18 128.5t63 107.5t109 46q68 0 93 -53v48zM228 70q32 0 59.5 32.5t27.5 76.5v228 q-18 43 -59 43q-40 0 -68.5 -36.5t-39.5 -84.5t-11 -99q0 -160 91 -160zM205 561l51 189h85l-81 -189h-55z" />
<glyph unicode="&#xe2;" d="M315 500h100v-340q0 -90 45 -90q49 0 72 109h37q-11 -59 -27.5 -98.5t-37 -57t-37.5 -23.5t-37 -6q-78 0 -97 95q-16 -41 -50.5 -68t-79.5 -27q-70 0 -120.5 56.5t-50.5 172.5q0 67 18 128.5t63 107.5t109 46q68 0 93 -53v48zM228 70q32 0 59.5 32.5t27.5 76.5v228 q-18 43 -59 43q-40 0 -68.5 -36.5t-39.5 -84.5t-11 -99q0 -160 91 -160zM381 561h-22l-86 101l-141 -101h-34l166 167h21z" />
<glyph unicode="&#xe3;" d="M315 500h100v-340q0 -90 45 -90q49 0 72 109h37q-11 -59 -27.5 -98.5t-37 -57t-37.5 -23.5t-37 -6q-78 0 -97 95q-16 -41 -50.5 -68t-79.5 -27q-70 0 -120.5 56.5t-50.5 172.5q0 67 18 128.5t63 107.5t109 46q68 0 93 -53v48zM228 70q32 0 59.5 32.5t27.5 76.5v228 q-18 43 -59 43q-40 0 -68.5 -36.5t-39.5 -84.5t-11 -99q0 -160 91 -160zM406 665h5q-1 -33 -38.5 -61.5t-87.5 -28.5q-31 0 -83 16.5t-75 16.5q-34 0 -55 -24l-5 2q26 88 131 88q35 0 83 -14.5t72 -14.5q38 0 53 20z" />
<glyph unicode="&#xe4;" d="M315 500h100v-340q0 -90 45 -90q49 0 72 109h37q-11 -59 -27.5 -98.5t-37 -57t-37.5 -23.5t-37 -6q-78 0 -04A6DF3A17" />
<glyph unicode="&#xe5;" d="M315 500h100v-340q0 -90 45 -90q49 0 72 109h37q-11 -59 -27.5 -98.5t-37 -57t-37.5 -23.5t-37 -6q-78 0 -97 95q-16 -41 -50.5 -68t-79.5 -27q-70 0 -120.5 56.5t-50.5 172.5q0 67 18 128.5t63 107.5t109 46q68 0 93 -53v48zM228 70q32 0 59.5 32.5t27.5 76.5v228 q-18 43 -59 43q-40 0 -68.5 -36.5t-39.5 -84.5t-11 -99q0 -160 91 -160zM265 555q-39 0 -61 24t-22 57q0 32 21 54.5t57 22.5q37 0 57.5 -24.5t20.5 -58.5q0 -32 -18.5 -53.5t-54.5 -21.5zM264 589q18 0 28 12.5t10 30.5q0 19 -10 33.5t-29 14.5t-30 -13.5t-11 -31.5t11 -32 t31 -14z" />
<glyph unicode="&#xe6;" horiz-adv-x="617" d="M71 427q59 78 152 78q68 0 138 -46q52 46 114 46q58 0 95.5 -30.5t37.5 -103.5q0 -69 -55 -110t-157 -49q7 -75 32.5 -108.5t81.5 -33.5q109 0 158 109h32q-25 -78 -85 -131.5t-137 -53.5q-101 0 -151 95q-14 -45 -40.5 -70t-81.5 -25q-64 0 -111.5 37.5t-47.5 126.5 q0 132 191 132q34 0 62 -4q6 24 6 59q0 48 -23.5 80t-67.5 32q-70 0 -109 -59zM494 456q-35 0 -58.5 -30.5t-33 -75t-9.5 -99.5q71 8 111 43.5t40 90.5q0 71 -50 71zM303 238q-14 2 -40 2q-112 0 -112 -87q0 -38 20.5 -60.5t52.5 -22.5q76 0 79 168z" />
<glyph unicode="&#xe7;" horiz-adv-x="364" d="M386 -128q0 -42 -29 -66t-70 -24q-53 0 -113 28q12 32 33 32q13 0 40 -15t41 -15q18 0 29.5 12t11.5 27q0 19 -16 35.5t-44 16.5q-30 0 -57 -22l16 113q-80 0 -136.5 56.5t-56.5 176.5q0 47 8 91t27 88.5t57.5 71.5t92.5 27q63 0 96 -30.5t33 -89.5q0 -26 -10 -42.5 t-29 -16.5q-22 0 -37 21q17 14 17 52q0 24 -14.5 38.5t-40.5 14.5q-34 0 -56 -34.5t-30 -79.5t-8 -98q0 -97 31 -133.5t87 -36.5q102 0 152 109h34q-21 -64 -68 -114t-105 -65l-12 -66q30 8 51 8q75 0 75 -70z" />
<glyph unicode="&#xe8;" horiz-adv-x="368" d="M359 375q0 -70 -58 -117t-159 -58q7 -74 37 -102t78 -28q109 0 158 109h32q-26 -76 -91.5 -130.5t-139.5 -54.5q-77 0 -129 56t-52 175q0 46 10 92t31 89.5t60 71t90 27.5q133 0 133 -130zM141 239q71 11 112.5 50.5t41.5 95.5q0 71 -50 71q-33 0 -57.5 -34.5 t-35.5 -82.5t-11 -100zM177 750l71 -189h-55l-101 189h85z" />
<glyph unicode="&#xe9;" horiz-adv-x="368" d="M359 375q0 -70 -58 -117t-159 -58q7 -74 37 -102t78 -28q109 0 158 109h32q-26 -76 -91.5 -130.5t-139.5 -54.5q-77 0 -129 56t-52 175q0 46 10 92t31 89.5t60 71t90 27.5q133 0 133 -130zM141 239q71 11 112.5 50.5t41.5 95.5q0 71 -50 71q-33 0 -57.5 -34.5 t-35.5 -82.5t-11 -100zM201 561l51 189h85l-81 -189h-55z" />
<glyph unicode="&#xea;" horiz-adv-x="368" d="M359 375q0 -70 -58 -117t-159 -58q7 -74 37 -102t78 -28q109 0 158 109h32q-26 -76 -91.5 -130.5t-139.5 -54.5q-77 0 -129 56t-52 175q0 46 10 92t31 89.5t60 71t90 27.5q133 0 133 -130zM141 239q71 11 112.5 50.5t41.5 95.5q0 71 -50 71q-33 0 -57.5 -34.5 t-35.5 -82.5t-11 -100zM361 561h-22l-86 101l-141 -101h-34l166 167h21z" />
<glyph unicode="&#xeb;" horiz-adv-x="368" d="M359 375q0 -70 -58 -117t-159 -58q7 -74 37 -102t78 -28q109 0 158 109h32q-26 -76 -91.5 -130.5t-139.5 -54.5q-77 0 -129 56t-52 175q0 46 10 92t31 89.5t60 71t90 27.5q133 0 133 -130zM141 239q71 11 112.5 50.5t41.5 95.5q0 71 -50 71q-33 0 -57.5 -34.5 t-35.5 -82.5t-11 -100zM89 645q0 22 15.5 38t37.5 16t38 -16t16 -38t-16 -37.5t-38 -15.5t-37.5 15t-15.5 38zM248 645q0 22 15.5 38t37.5 16t38 -16t16 -38t-16 -37.5t-38 -15.5q-23 0 -38 15t-15 38z" />
<glyph unicode="&#xec;" horiz-adv-x="217" d="M47 500h100v-340q0 -90 45 -90q49 0 72 109h37q-11 -59 -27.5 -98.5t-37 -57t-37.5 -23.5t-37 -6q-62 0 -88.5 43t-26.5 102v361zM50 750l71 -189h-55l-101 189h85z" />
<glyph unicode="&#xed;" horiz-adv-x="217" d="M47 500h100v-340q0 -90 45 -90q49 0 72 109h37q-11 -59 -27.5 -98.5t-37 -57t-37.5 -23.5t-37 -6q-62 0 -88.5 43t-26.5 102v361zM69 561l51 189h85l-81 -189h-55z" />
<glyph unicode="&#xee;" horiz-adv-x="217" d="M47 500h100v-340q0 -90 45 -90q49 0 72 109h37q-11 -59 -27.5 -98.5t-37 -57t-37.5 -23.5t-37 -6q-62 0 -88.5 43t-26.5 102v361zM245 561h-22l-86 101l-141 -101h-34l166 167h21z" />
<glyph unicode="&#xef;" horiz-adv-x="217" d="M47 500h100v-340q0 -90 45 -90q49 0 72 109h37q-11 -59 -27.5 -98.5t-37 -57t-37.5 -23.5t-37 -6q-62 0 -80766366A05" />
<glyph unicode="&#xf0;" d="M232 595l67 18q-16 41 -61 87h35q69 -39 95 -68l72 20l6 -30l-58 -16q27 -48 27 -129v-317q0 -90 45 -90q406404B2A2C" />
<glyph unicode="&#xf1;" horiz-adv-x="467" d="M46 500h100v-76q43 81 120 81q137 0 137 -179q0 -23 -3 -83t-3 -87q0 -86 45 -86q49 0 72 109h37q-33 -185 -137 -185q-59 0 -88 43.5t-29 109.5q0 12 1.5 86t1.5 88q0 108 -64 108q-63 0 -90 -109v-320h-100v500zM403 665h5q-1 -33 -38.5 -61.5t-87.5 -28.5 q-31 0 -83 16.5t-75 16.5q-34 0 -55 -24l-5 2q26 88 131 88q35 0 83 -14.5t72 -14.5q38 0 53 20z" />
<glyph unicode="&#xf2;" horiz-adv-x="419" d="M229 505q134 0 157 -158h6q79 0 137 60l15 -27q-19 -31 -61.5 -52.5t-91.5 -29.5q0 -6 0.5 -20t0.5 -21q0 -123 -45 -193t-126 -70q-76 0 -131.5 57t-55.5 176q0 48 10 93.5t31 88.5t61 69.5t93 26.5zM239 70q103 0 103 201q0 16 -1 24q-29 2 -41.5 13.5t-12.5 36.5 q0 23 10 32.5t30 10.5q-22 62 -72 62q-39 0 -65.5 -35.5t-37 -82.5t-10.5 -101q0 -88 28 -124.5t69 -36.5zM199 750l71 -189h-55l-101 189h85z" />
<glyph unicode="&#xf3;" horiz-adv-x="419" d="M229 505q134 0 157 -158h6q79 0 137 60l15 -27q-19 -31 -61.5 -52.5t-91.5 -29.5q0 -6 0.5 -20t0.5 -21q0 -123 -45 -193t-126 -70q-76 0 -131.5 57t-55.5 176q0 48 10 93.5t31 88.5t61 69.5t93 26.5zM239 70q103 0 103 201q0 16 -1 24q-29 2 -41.5 13.5t-12.5 36.5 q0 23 10 32.5t30 10.5q-22 62 -72 62q-39 0 -65.5 -35.5t-37 -82.5t-10.5 -101q0 -88 28 -124.5t69 -36.5zM209 561l51 189h85l-81 -189h-55z" />
<glyph unicode="&#xf4;" horiz-adv-x="419" d="M229 505q134 0 157 -158h6q79 0 137 60l15 -27q-19 -31 -61.5 -52.5t-91.5 -29.5q0 -6 0.5 -20t0.5 -21q0 -123 -45 -193t-126 -70q-76 0 -131.5 57t-55.5 176q0 48 10 93.5t31 88.5t61 69.5t93 26.5zM239 70q103 0 103 201q0 16 -1 24q-29 2 -41.5 13.5t-12.5 36.5 q0 23 10 32.5t30 10.5q-22 62 -72 62q-39 0 -65.5 -35.5t-37 -82.5t-10.5 -101q0 -88 28 -124.5t69 -36.5zM379 561h-22l-86 101l-141 -101h-34l166 167h21z" />
<glyph unicode="&#xf5;" horiz-adv-x="419" d="M229 505q134 0 157 -158h6q79 0 137 60l15 -27q-19 -31 -61.5 -52.5t-91.5 -29.5q0 -6 0.5 -20t0.5 -21q0 -123 -45 -193t-126 -70q-76 0 -131.5 57t-55.5 176q0 48 10 93.5t31 88.5t61 69.5t93 26.5zM239 70q103 0 103 201q0 16 -1 24q-29 2 -41.5 13.5t-12.5 36.5 q0 23 10 32.5t30 10.5q-22 62 -72 62q-39 0 -65.5 -35.5t-37 -82.5t-10.5 -101q0 -88 28 -124.5t69 -36.5zM408 665h5q-1 -33 -38.5 -61.5t-87.5 -28.5q-31 0 -83 16.5t-75 16.5q-34 0 -55 -24l-5 2q26 88 131 88q35 0 83 -14.5t72 -14.5q38 0 53 20z" />
<glyph unicode="&#xf6;" horiz-adv-x="419" d="M229 505q134 0 157 -158h6q79 0 137 60l15 -27q-19 -31 -61.5 -52.5t-91.5 -29.5q0 -6 0.5 -20t0.5 -21q0 092585BA5A" />
<glyph unicode="&#xf7;" horiz-adv-x="418" d="M143 431q0 27 19.5 47t46.5 20t47 -20t20 -47t-20 -46.5t-47 -19.5q-28 0 -47 19t-19 47zM144 66q0 27 19.5 47t46.5 20t47 -20t20 -47t-20 -46.5t-47 -19.5q-28 0 -47 19t-19 47zM384 285v-70h-350v70h350z" />
<glyph unicode="&#xf8;" horiz-adv-x="419" d="M252 -103h-52v98q-70 8 -118 64.5t-48 167.5q0 46 9 90t28.5 86t56 69.5t85.5 31.5v101h52v-103q102 -20 104A63F5ACA" />
<glyph unicode="&#xf9;" horiz-adv-x="454" d="M284 500h100v-340q0 -90 45 -90q49 0 72 109h37q-11 -59 -27.5 -98.5t-37 -57t-37.5 -23.5t-37 -6q-78 0 -97 94q-18 -47 -48.5 -70.5t-66.5 -23.5q-64 0 -102.5 37t-38.5 118v351h100v-340q0 -90 60 -90q31 0 54.5 30t23.5 79v321zM158 750l71 -189h-55l-101 189h85z " />
<glyph unicode="&#xfa;" horiz-adv-x="454" d="M284 500h100v-340q0 -90 45 -90q49 0 72 109h37q-11 -59 -27.5 -98.5t-37 -57t-37.5 -23.5t-37 -6q-78 0 -97 94q-18 -47 -48.5 -70.5t-66.5 -23.5q-64 0 -102.5 37t-38.5 118v351h100v-340q0 -90 60 -90q31 0 54.5 30t23.5 79v321zM179 561l51 189h85l-81 -189h-55z" />
<glyph unicode="&#xfb;" horiz-adv-x="454" d="M284 500h100v-340q0 -90 45 -90q49 0 72 109h37q-11 -59 -27.5 -98.5t-37 -57t-37.5 -23.5t-37 -6q-78 0 -97 94q-18 -47 -48.5 -70.5t-66.5 -23.5q-64 0 -102.5 37t-38.5 118v351h100v-340q0 -90 60 -90q31 0 54.5 30t23.5 79v321zM362 561h-22l-86 101l-141 -101h-34 l166 167h21z" />
<glyph unicode="&#xfc;" horiz-adv-x="454" d="M284 500h100v-340q0 -90 45 -90q49 0 72 109h37q-11 -59 -27.5 -98.5t-37 -57t-37.5 -23.5t-37 -6q-78 0 -97 94q-18 -47 -48.5 -70.5t-66.5 -23.5q-64 0 -102.5 37t-38.5 118v351h100v-340q0 -90 60 -90q31 0 54.5 30t23.5 79v321zM237 645q0 22 15.5 38t37.5 16t38 -16 t16 -38t-16 -37.5t-38 -15.5t-37.5 15t-15.5 38zM78 645q0 22 15.5 38t37.5 16t38 -16t16 -38t-16 -37.5t-38 -15.5q-23 0 -38 15t-15 38z" />
<glyph unicode="&#xfd;" horiz-adv-x="454" d="M284 500h100v-479q56 18 81.5 48.5t35.5 109.5h37q-15 -99 -47.5 -135.5t-106.5 -58.5v-64q0 -88 -35 -1290950BCEABD" />
<glyph unicode="&#xfe;" horiz-adv-x="473" d="M46 -250v735q0 75 -16 122t-61 93h23q32 -19 52 -35t44.5 -44t38.5 -68.5t18 -94.5q42 47 104 47q75 0 121 -63t46 -194q0 -45 -9 -87t-28 -81t-55.5 -62.5t-86.5 -23.5q-49 0 -90 48v-266zM215 440q-42 0 -68 -48v-300q27 -34 60 -34q40 0 65.5 33.5t34.5 75.5t9 89 q0 100 -30 142t-71 42z" />
<glyph unicode="&#xff;" horiz-adv-x="454" d="M284 500h100v-479q56 18 81.5 48.5t35.5 109.5h37q-15 -99 -47.5 -135.5t-106.5 -58.5v-64q0 -88 -35 -12905AAAB8A0D" />
<glyph unicode="&#x104;" horiz-adv-x="603" d="M557 0h-54q-38 -24 -38 -76q0 -28 16 -48t46 -20q29 0 62 44l4 -31q-2 -2 -10 -12t-12.5 -14.5t-13.5 -12.008E363A98" />
<glyph unicode="&#x105;" d="M315 500h100v-340q0 -90 45 -90q49 0 72 109h37q-29 -159 -107 -181q-29 -29 -29 -73q0 -30 16.5 -49.5t48.5 -19.5q29 0 62 44l4 -31q-2 -2 -10 -12t-12.5 -14.5t-13.5 -12.5t-16.5 -12t-19.5 -7.5t-24 -3.5q-47 0 -72 27.5t-25 67.5q0 59 43 94q-64 8 -81 93 q-16 -41 -50.5 -68t-79.5 -27q-70 0 -120.5 56.5t-50.5 172.5q0 67 18 128.5t63 107.5t109 46q68 0 93 -53v48zM228 70q32 0 59.5 32.5t27.5 76.5v228q-18 43 -59 43q-40 0 -68.5 -36.5t-39.5 -84.5t-11 -99q0 -160 91 -160z" />
<glyph unicode="&#x106;" horiz-adv-x="505" d="M555 180l25 -10q-25 -89 -95 -137.5t-166 -48.5q-130 0 -201 93t-71 273q0 74 12.5 140.5t41 127t82 96.5t126.5 36q80 0 133.5 -40.5t53.5 -115.5q0 -70 -53 -70q-31 0 -47 18q9 7 16.5 29.5t7.5 49.5q0 46 -22.5 69.5t-61.5 23.5q-58 0 -97.5 -51.5t-56.5 -127.5 t-17 -168q0 -307 212 -307q127 0 178 120zM304 811l51 189h85l-81 -189h-55z" />
<glyph unicode="&#x107;" horiz-adv-x="364" d="M273 347q17 14 17 52q0 24 -14.5 38.5t-40.5 14.5q-34 0 -56 -34.5t-30 -79.5t-8 -98q0 -97 31 -133.5t87 -36.5q102 0 152 109h34q-25 -76 -86.5 -130.5t-132.5 -54.5q-79 0 -135 56.5t-56 176.5q0 47 8 91t27 88.5t57.5 71.5t92.5 27q63 0 96 -30.5t33 -89.5 q0 -26 -10 -42.5t-29 -16.5q-22 0 -37 21zM207 561l51 189h85l-81 -189h-55z" />
<glyph unicode="&#x108;" horiz-adv-x="505" d="M555 180l25 -10q-25 -89 -95 -137.5t-166 -48.5q-130 0 -201 93t-71 273q0 74 12.5 140.5t41 127t82 96.5t126.5 36q80 0 133.5 -40.5t53.5 -115.5q0 -70 -53 -70q-31 0 -47 18q9 7 16.5 29.5t7.5 49.5q0 46 -22.5 69.5t-61.5 23.5q-58 0 -97.5 -51.5t-56.5 -127.5 t-17 -168q0 -307 212 -307q127 0 178 120zM451 811h-22l-86 101l-141 -101h-34l166 167h21z" />
<glyph unicode="&#x109;" horiz-adv-x="364" d="M273 347q17 14 17 52q0 24 -14.5 38.5t-40.5 14.5q-34 0 -56 -34.5t-30 -79.5t-8 -98q0 -97 31 -133.5t87 -36.5q102 0 152 109h34q-25 -76 -86.5 -130.5t-132.5 -54.5q-79 0 -135 56.5t-56 176.5q0 47 8 91t27 88.5t57.5 71.5t92.5 27q63 0 96 -30.5t33 -89.5 q0 -26 -10 -42.5t-29 -16.5q-22 0 -37 21zM347 561h-22l-86 101l-141 -101h-34l166 167h21z" />
<glyph unicode="&#x10c;" horiz-adv-x="505" d="M555 180l25 -10q-25 -89 -95 -137.5t-166 -48.5q-130 0 -201 93t-71 273q0 74 12.5 140.5t41 127t82 96.5t126.5 36q80 0 133.5 -40.5t53.5 -115.5q0 -70 -53 -70q-31 0 -47 18q9 7 16.5 29.5t7.5 49.5q0 46 -22.5 69.5t-61.5 23.5q-58 0 -97.5 -51.5t-56.5 -127.5 t-17 -168q0 -307 212 -307q127 0 178 120zM217 992h22l86 -101l141 101h34l-166 -167h-21z" />
<glyph unicode="&#x10d;" horiz-adv-x="364" d="M273 347q17 14 17 52q0 24 -14.5 38.5t-40.5 14.5q-34 0 -56 -34.5t-30 -79.5t-8 -98q0 -97 31 -133.5t87 -36.5q102 0 152 109h34q-25 -76 -86.5 -130.5t-132.5 -54.5q-79 0 -135 56.5t-56 176.5q0 47 8 91t27 88.5t57.5 71.5t92.5 27q63 0 96 -30.5t33 -89.5 q0 -26 -10 -42.5t-29 -16.5q-22 0 -37 21zM99 742h22l86 -101l141 101h34l-166 -167h-21z" />
<glyph unicode="&#x111;" d="M315 686l100 14v-90h77v-35h-77v-415q0 -90 45 -90q49 0 72 109h37q-11 -59 -27.5 -98.5t-37 -57t-37.5 -23.5t-37 -6q-78 0 -97 95q-16 -41 -50.5 -68t-79.5 -27q-70 0 -120.5 56.5t-50.5 172.5q0 67 18 128.5t63 107.5t109 46q68 0 93 -53v123h-34v35h34v76zM228 70 q32 0 59.5 32.5t27.5 76.5v228q-18 43 -59 43q-40 0 -68.5 -36.5t-39.5 -84.5t-11 -99q0 -160 91 -160z" />
<glyph unicode="&#x118;" horiz-adv-x="447" d="M496 180l25 -10q-8 -26 -24.5 -52t-29.5 -40t-38 -39q-41 -42 -41 -113q0 -31 14 -50.5t37 -19.5q29 0 62 44l4 -31q-2 -2 -10 -12t-12.5 -14.5t-13.5 -12.5t-16.5 -12t-19.5 -7.5t-24 -3.5q-43 0 -70 29.5t-27 62.5q0 55 50 103q-52 -20 -108 -20q-106 0 -159.5 67.5 t-53.5 159.5q0 73 35.5 127.5t99.5 80.5q-90 57 -90 151q0 73 52 128.5t145 55.5q64 0 108.5 -30t44.5 -97q0 -38 -15 -60t-40 -22q-27 0 -53 27q16 7 28.5 26.5t12.5 45.5q0 36 -23.5 54t-56.5 18q-51 0 -81.5 -42t-30.5 -97q0 -17 3.5 -36t13.5 -45t34.5 -47t60.5 -29 q-65 -15 -101 -67t-36 -125q0 -75 40 -120t117 -45q68 0 118 34t69 85z" />
<glyph unicode="&#x119;" horiz-adv-x="369" d="M360 382q0 -77 -57 -123.5t-160 -58.5q7 -74 36.5 -102t77.5 -28q110 0 159 109h32q-9 -29 -22 -53.5t-30.5 -42.5t-28 -27.5t-30 -23t-20.5 -14.5q-43 -32 -43 -81q0 -81 66 -81q37 0 63 35l4 -31q-45 -53 -96 -53q-45 0 -71.5 29.5t-26.5 64.5q0 49 47 98 q-23 -5 -44 -5q-76 0 -128 56t-52 171q0 48 9.5 94t30.5 90.5t61 72t93 27.5q55 0 92.5 -29t37.5 -94zM142 239q73 12 113.5 51t40.5 99q0 67 -49 67q-34 0 -58.5 -34.5t-35.5 -82.5t-11 -100z" />
<glyph unicode="&#x11e;" horiz-adv-x="593" d="M460 419l97 -1v-376q0 -249 -204 -249q-92 0 -132.5 45.5t-40.5 107.5q0 51 27.5 86.5t88.5 35.5q41 0 66.5 -18t25.5 -52q0 -14 -5 -28q-26 28 -63 28q-33 0 -50 -18.5t-17 -48.5q0 -42 29.5 -70.5t70.5 -28.5q40 0 67.5 31t27.5 103v238q-52 -95 -167 -95 q-111 0 -179.5 86t-68.5 226q0 92 30 164.5t100 119.5t172 47q53 0 96 -11.5t75.5 -45.5t32.5 -88q0 -83 -65 -83q-4 0 -7 0.5t-6 0.5t-6 1t-5.5 2t-6 2.5t-5.5 3t-6.5 3.5t-6.5 3.5t-7 4.5t-8 5q2 0 6.5 1.5t11 6.5t12 12.5t9.5 20.5t4 30q0 46 -29 69.5t-75 23.5 q-63 0 -108.5 -42t-66 -106t-20.5 -139q0 -107 43 -177.5t115 -70.5q65 0 102.5 62t45.5 178zM450 953h66q0 -67 -51 -105t-121 -38t-121 38t-51 105h69q0 -50 31 -78t73 -28t73 28t32 78z" />
<glyph unicode="&#x11f;" d="M315 500h100v-479q56 18 81.5 48.5t35.5 109.5h37q-15 -99 -47.5 -135.5t-106.5 -58.5v-64q0 -88 -35 -1290145B98AD4" />
<glyph unicode="&#x131;" horiz-adv-x="217" d="M47 500h100v-340q0 -90 45 -90q49 0 72 109h37q-11 -59 -27.5 -98.5t-37 -57t-37.5 -23.5t-37 -6q-62 0 -88.5 43t-26.5 102v361z" />
<glyph unicode="&#x141;" horiz-adv-x="489" d="M247 -23v358l-92 -69l-7 43l99 75v297q-68 -19 -106.5 -66t-38.5 -114q0 -48 12 -73.5t34 -44.5q-130 0 -130 121q0 94 91 165t206 71q17 0 41 -2v-272l103 78l6 -44l-109 -83v-397q32 -7 78.5 -30.5t94.5 -41t97 -17.5q35 0 77 20q3 -13 3 -27q0 -43 -30.5 -73 t-79.5 -30q-35 0 -77.5 24.5t-76.5 54t-81.5 54t-90.5 24.5q-15 0 -23 -1z" />
<glyph unicode="&#x142;" horiz-adv-x="216" d="M47 686l100 14v-275l123 92l7 -44l-130 -97v-216q0 -90 45 -90q49 0 72 109h37q-11 -59 -27.5 -98.5t-37 -57t-37.5 -23.5t-37 -6q-62 0 -88.5 43t-26.5 102v162l-52 -38l-9 43l61 45v335z" />
<glyph unicode="&#x143;" horiz-adv-x="709" d="M596 748h67v-748h-134l-251 563v-563h-67v689q-117 -40 -117 -169q0 -87 48 -127q-63 0 -92.5 31t-29.5 98q0 86 65.5 157t162.5 71q38 0 70 -14l278 -642v654zM404 811l51 189h85l-81 -189h-55z" />
<glyph unicode="&#x144;" horiz-adv-x="467" d="M46 500h100v-76q43 81 120 81q137 0 137 -179q0 -23 -3 -83t-3 -87q0 -86 45 -86q49 0 72 109h37q-33 -185 -137 -185q-59 0 -88 43.5t-29 109.5q0 12 1.5 86t1.5 88q0 108 -64 108q-63 0 -90 -109v-320h-100v500zM207 561l51 189h85l-81 -189h-55z" />
<glyph unicode="&#x150;" horiz-adv-x="702" d="M393 656q-47 -28 -75 -133t-28 -217q0 -40 4.5 -75.5t15.5 -74.5t36 -62.5t61 -23.5q52 0 86.5 50t48 121t13.5 158q0 76 -11.5 132.5t-30.5 91t-47 55.5t-57.5 28.5t-66.5 7.5q-105 0 -172 -58t-67 -166q0 -74 31 -97q-55 0 -85.5 28t-30.5 83q0 102 99 174t241 72 q71 0 127 -21t91 -56t58 -84t32.5 -102t9.5 -113q0 -71 -13.5 -134.5t-42 -120.5t-83 -91t-127.5 -34q-109 0 -176 79t-67 251q0 61 9 118t28.5 108.5t55 82.5t82.5 31q26 0 51 -8zM319 811l51 189h85l-81 -189h-55zM449 811l51 189h85l-81 -189h-55z" />
<glyph unicode="&#x151;" horiz-adv-x="419" d="M229 505q134 0 157 -158h6q79 0 137 60l15 -27q-19 -31 -61.5 -52.5t-91.5 -29.5q0 -6 0.5 -20t0.5 -21q0 -123 -45 -193t-126 -70q-76 0 -131.5 57t-55.5 176q0 48 10 93.5t31 88.5t61 69.5t93 26.5zM239 70q103 0 103 201q0 16 -1 24q-29 2 -41.5 13.5t-12.5 36.5 q0 23 10 32.5t30 10.5q-22 62 -72 62q-39 0 -65.5 -35.5t-37 -82.5t-10.5 -101q0 -88 28 -124.5t69 -36.5zM143 561l51 189h85l-81 -189h-55zM273 561l51 189h85l-81 -189h-55z" />
<glyph unicode="&#x152;" horiz-adv-x="883" d="M393 656q-47 -28 -75 -133t-28 -217q0 -40 4.5 -75.5t15.5 -74.5t36 -62.5t61 -23.5q52 0 86.5 50t48 121t13.5 158q0 76 -11.5 132.5t-30.5 91t-47 55.5t-57.5 28.5t-66.5 7.5q-105 0 -172 -58t-67 -166q0 -76 31 -97q-55 0 -85.5 28t-30.5 83q0 102 99 174t241 72 q74 0 131 -23q58 23 118 23q35 0 92 -6t90 -6q53 0 88 12q-2 -63 -24.5 -83.5t-63.5 -20.5q-42 0 -124 16t-97 18q97 -86 107 -267h140v-59h-140q-5 -190 -89 -284h285v-70h-404q-25 -6 -57 -6q-109 0 -176 79t-67 251q0 61 9 118t28.5 108.5t55 82.5t82.5 31q26 0 51 -8z " />
<glyph unicode="&#x153;" horiz-adv-x="677" d="M229 505q115 0 148 -115q52 115 158 115q133 0 133 -130q0 -70 -58 -117t-159 -58q7 -74 37 -102t78 -28q109 0 158 109h32q-26 -76 -91.5 -130.5t-139.5 -54.5q-116 0 -160 105q-44 -105 -144 -105q-76 0 -131.5 57t-55.5 176q0 48 10 93.5t31 88.5t61 69.5t93 26.5z M239 70q103 0 103 201q0 16 -1 24q-54 0 -54 54q0 37 40 39q-22 62 -72 62q-39 0 -65.5 -35.5t-37 -82.5t-10.5 -101q0 -88 28 -124.5t69 -36.5zM450 239q71 11 112.5 50.5t41.5 95.5q0 71 -50 71q-33 0 -57.5 -34.5t-35.5 -82.5t-11 -100z" />
<glyph unicode="&#x15a;" horiz-adv-x="493" d="M440 612q0 -39 -16.5 -61.5t-43.5 -22.5q-24 0 -43 21q29 21 29 69q0 38 -24.5 66.5t-71.5 28.5q-51 0 -79.5 -34.5t-28.5 -86.5q0 -39 17.5 -68t45.5 -46.5t61.5 -33t67.5 -34t62 -42.5t45.5 -64.5t17.5 -94.5q0 -112 -67.5 -166.5t-165.5 -54.5q-86 0 -149 40.5 t-63 120.5q0 55 29.5 100.5t79.5 45.5q23 0 38 -12.5t27 -44.5q-43 -2 -61.5 -29t-18.5 -59q0 -50 39.5 -78.5t84.5 -28.5q47 0 76.5 36t29.5 100q0 45 -16 78t-42 52.5t-57 35t-62.5 31t-57.5 35.5t-42 54.5t-16 81.5q0 96 59 149t142 53q18 0 36.5 -2t44.5 -10.5 t45.5 -22.5t33.5 -40.5t14 -61.5zM233 811l51 189h85l-81 -189h-55z" />
<glyph unicode="&#x15b;" horiz-adv-x="342" d="M389 179h42q-42 -58 -119 -113q-21 -36 -61 -54t-78 -18q-79 0 -114 44.5t-35 103.5q0 53 36 73q3 7 17.5 47.5t18.5 53t15 46.5t15.5 52.5t10 45.5t7.5 51l101 20q14 -58 32 -127t24.5 -96t14 -62.5t10 -59t2.5 -54.5q25 17 61 47zM222 139q0 37 -5 65.5t-21.5 93 t-29.5 126.5q-4 -33 -13 -68t-23.5 -77.5t-21.5 -66.5q22 -15 22 -44q0 -18 -9.5 -28.5t-22.5 -10.5q-16 0 -27 14q16 -74 81 -74q70 0 70 70zM164 561l51 189h85l-81 -189h-55z" />
<glyph unicode="&#x160;" horiz-adv-x="493" d="M440 612q0 -39 -16.5 -61.5t-43.5 -22.5q-24 0 -43 21q29 21 29 69q0 38 -24.5 66.5t-71.5 28.5q-51 0 -79.5 -34.5t-28.5 -86.5q0 -39 17.5 -68t45.5 -46.5t61.5 -33t67.5 -34t62 -42.5t45.5 -64.5t17.5 -94.5q0 -112 -67.5 -166.5t-165.5 -54.5q-86 0 -149 40.5 t-63 120.5q0 55 29.5 100.5t79.5 45.5q23 0 38 -12.5t27 -44.5q-43 -2 -61.5 -29t-18.5 -59q0 -50 39.5 -78.5t84.5 -28.5q47 0 76.5 36t29.5 100q0 45 -16 78t-42 52.5t-57 35t-62.5 31t-57.5 35.5t-42 54.5t-16 81.5q0 96 59 149t142 53q18 0 36.5 -2t44.5 -10.5 t45.5 -22.5t33.5 -40.5t14 -61.5zM151 992h22l86 -101l141 101h34l-166 -167h-21z" />
<glyph unicode="&#x161;" horiz-adv-x="342" d="M389 179h42q-42 -58 -119 -113q-21 -36 -61 -54t-78 -18q-79 0 -114 44.5t-35 103.5q0 53 36 73q3 7 17.5 47.5t18.5 53t15 46.5t15.5 52.5t10 45.5t7.5 51l101 20q14 -58 32 -127t24.5 -96t14 -62.5t10 -59t2.5 -54.5q25 17 61 47zM222 139q0 37 -5 65.5t-21.5 93 t-29.5 126.5q-4 -33 -13 -68t-23.5 -77.5t-21.5 -66.5q22 -15 22 -44q0 -18 -9.5 -28.5t-22.5 -10.5q-16 0 -27 14q16 -74 81 -74q70 0 70 70zM72 742h22l86 -101l141 101h34l-166 -167h-21z" />
<glyph unicode="&#x170;" horiz-adv-x="770" d="M615 748h110v-542q0 -34 -9.5 -66t-33 -67.5t-74.5 -57.5t-124 -22q-58 0 -102.5 15t-69.5 37.5t-40 52.5t-20 55.5t-5 51.5v502q-75 -17 -116 -69t-41 -132q0 -22 3 -40t8 -30t9.5 -20t9.5 -14.5t6 -7.5q-44 0 -77 31.5t-33 87.5q0 96 92.5 166.5t214.5 70.5q21 0 47 -5 v-538q0 -82 33 -109.5t89 -27.5t89.5 28t33.5 111v539zM526 811l51 189h85l-81 -189h-55zM396 811l51 189h85l-81 -189h-55z" />
<glyph unicode="&#x171;" horiz-adv-x="454" d="M284 500h100v-340q0 -90 45 -90q49 0 72 109h37q-11 -59 -27.5 -98.5t-37 -57t-37.5 -23.5t-37 -6q-78 0 -97 94q-18 -47 -48.5 -70.5t-66.5 -23.5q-64 0 -102.5 37t-38.5 118v351h100v-340q0 -90 60 -90q31 0 54.5 30t23.5 79v321zM248 561l51 189h85l-81 -189h-55z M118 561l51 189h85l-81 -189h-55z" />
<glyph unicode="&#x178;" horiz-adv-x="608" d="M466 0h-108v308l-157 406q-63 -17 -91 -68t-28 -116q0 -79 50 -137q-112 0 -112 131q0 95 66 160.5t173 65.5q15 0 41 -2l145 -384l129 381h52l-160 -437v-308zM445 895q0 22 15.5 38t37.5 16t38 -16t16 -38t-16 -37.5t-38 -15.5t-37.5 15t-15.5 38zM286 895 q0 22 15.5 38t37.5 16t38 -16t16 -38t-16 -37.5t-38 -15.5q-23 0 -38 15t-15 38z" />
<glyph unicode="&#x179;" horiz-adv-x="489" d="M399 71q-25 16 -25 42q0 18 13.5 29t33.5 11q24 0 44.5 -16t20.5 -44q0 -36 -30 -64.5t-77 -28.5h-361l329 705q-75 5 -143 5q-82 0 -85 -20q24 -16 24 -41q0 -17 -12 -29.5t-31 -12.5q-25 0 -47 20t-22 50q0 29 30.5 51t79.5 22h340l-328 -697q13 0 58.5 -1.5t72.5 -1.5 q106 0 115 21zM241 811l51 189h85l-81 -189h-55z" />
<glyph unicode="&#x17a;" horiz-adv-x="414" d="M368 85q-7 2 -12.5 10t-5.5 16q0 15 12 24t29 9q23 0 40.5 -15.5t17.5 -43.5q0 -32 -32 -58.5t-82 -26.5h-262l216 446h-86q-57 0 -57 -14q0 -6 8.5 -16t8.5 -16q0 -11 -13 -21t-32 -10q-27 0 -42 21t-15 51q0 59 103 59h248l-214 -430q102 -6 129 -6q37 0 41 21z M213 561l51 189h85l-81 -189h-55z" />
<glyph unicode="&#x17b;" horiz-adv-x="489" d="M215 887q0 24 16.5 41t40.5 17t41 -17t17 -41t-17 -40.5t-41 -16.5t-40.5 16.5t-16.5 40.5zM399 71q-25 16 -25 42q0 18 13.5 29t33.5 11q24 0 44.5 -16t20.5 -44q0 -36 -30 -64.5t-77 -28.5h-361l329 705q-75 5 -143 5q-82 0 -85 -20q24 -16 24 -41q0 -17 -12 -29.5 t-31 -12.5q-25 0 -47 20t-22 50q0 29 30.5 51t79.5 22h340l-328 -697q13 0 58.5 -1.5t72.5 -1.5q106 0 115 21z" />
<glyph unicode="&#x17c;" horiz-adv-x="414" d="M185 634q0 24 16.5 41t40.5 17t41 -17t17 -41t-17 -40.5t-41 -16.5t-40.5 16.5t-16.5 40.5zM368 85q-7 2 -12.5 10t-5.5 16q0 15 12 24t29 9q23 0 40.5 -15.5t17.5 -43.5q0 -32 -32 -58.5t-82 -26.5h-262l216 446h-86q-57 0 -57 -14q0 -6 8.5 -16t8.5 -16q0 -11 -13 -21 t-32 -10q-27 0 -42 21t-15 51q0 59 103 59h248l-214 -430q102 -6 129 -6q37 0 41 21z" />
<glyph unicode="&#x17d;" horiz-adv-x="489" d="M399 71q-25 16 -25 42q0 18 13.5 29t33.5 11q24 0 44.5 -16t20.5 -44q0 -36 -30 -64.5t-77 -28.5h-361l329 705q-75 5 -143 5q-82 0 -85 -20q24 -16 24 -41q0 -17 -12 -29.5t-31 -12.5q-25 0 -47 20t-22 50q0 29 30.5 51t79.5 22h340l-328 -697q13 0 58.5 -1.5t72.5 -1.5 q106 0 115 21zM163 992h22l86 -101l141 101h34l-166 -167h-21z" />
<glyph unicode="&#x17e;" horiz-adv-x="414" d="M368 85q-7 2 -12.5 10t-5.5 16q0 15 12 24t29 9q23 0 40.5 -15.5t17.5 -43.5q0 -32 -32 -58.5t-82 -26.5h-262l216 446h-86q-57 0 -57 -14q0 -6 8.5 -16t8.5 -16q0 -11 -13 -21t-32 -10q-27 0 -42 21t-15 51q0 59 103 59h248l-214 -430q102 -6 129 -6q37 0 41 21z M143 742h22l86 -101l141 101h34l-166 -167h-21z" />
<glyph unicode="&#x192;" horiz-adv-x="271" d="M10 465v35h44v76q0 84 40 129t106 45q62 0 100.5 -38.5t38.5 -111.5h-39q-6 43 -22.5 64.5t-50.5 21.5q-44 0 -58.5 -34.5t-14.5 -103.5v-48h81v-35h-81v-545q0 -97 -33.5 -133.5t-91.5 -36.5q-105 0 -105 97q0 83 130 139v479h-44zM9 -198q27 0 36 28.5t9 87.5v31 q-91 -44 -91 -99q0 -20 13 -34t33 -14z" />
<glyph unicode="&#x2c6;" horiz-adv-x="293" d="M169 561h-22l-86 101l-141 -101h-34l166 167h21z" />
<glyph unicode="&#x2c7;" horiz-adv-x="294" d="M-55 742h22l86 -101l141 101h34l-166 -167h-21z" />
<glyph unicode="&#x2d8;" horiz-adv-x="431" d="M206 703h66q0 -67 -51 -105t-121 -38t-121 38t-51 105h69q0 -50 31 -78t73 -28t73 28t32 78z" />
<glyph unicode="&#x2da;" horiz-adv-x="156" d="M-50 555q-39 0 -61 24t-22 57q0 32 21 54.5t57 22.5q37 0 57.5 -24.5t20.5 -58.5q0 -32 -18.5 -53.5t-54.5 -21.5zM-51 589q18 0 28 12.5t10 30.5q0 19 -10 33.5t-29 14.5t-30 -13.5t-11 -31.5t11 -32t31 -14z" />
<glyph unicode="&#x2db;" horiz-adv-x="291" d="M121 5h60q-23 -10 -35.5 -32.5t-12.5 -48.5q0 -28 16 -48t46 -20q29 0 62 44l4 -31q-2 -2 -10 -12t-12.5 -14.5t-13.5 -12.5t-16.5 -12t-19.5 -7.5t-24 -3.5q-43 0 -70 29.5t-27 62.5q0 56 53 106z" />
<glyph unicode="&#x2dc;" horiz-adv-x="403" d="M258 665h5q-1 -33 -38.5 -61.5t-87.5 -28.5q-31 0 -83 16.5t-75 16.5q-34 0 -55 -24l-5 2q26 88 131 88q35 0 83 -14.5t72 -14.5q38 0 53 20z" />
<glyph unicode="&#x2dd;" horiz-adv-x="436" d="M1 561l51 189h85l-81 -189h-55zM131 561l51 189h85l-81 -189h-55z" />
<glyph unicode="&#x2013;" horiz-adv-x="379" d="M320 301v-70h-261v70h261z" />
<glyph unicode="&#x2014;" horiz-adv-x="469" d="M410 301v-70h-351v70h351z" />
<glyph unicode="&#x2018;" horiz-adv-x="208" d="M173 553q0 -25 -21 -42t-44 -17q-71 0 -71 80q0 49 27.5 102.5t64.5 71.5q14 -8 14 -24q0 -14 -11 -41t-11 -39q0 -20 8 -28t18 -8.5t18 -13.5t8 -41z" />
<glyph unicode="&#x2019;" horiz-adv-x="205" d="M35 689q0 25 21 42t44 17q71 0 71 -80q0 -49 -27.5 -102.5t-64.5 -71.5q-14 8 -14 24q0 14 11 41t11 39q0 20 -8 28t-18 8.5t-18 13.5t-8 41z" />
<glyph unicode="&#x201a;" horiz-adv-x="216" d="M39 69q0 25 21 42t44 17q71 0 71 -80q0 -49 -27.5 -102.5t-64.5 -71.5q-14 8 -14 24q0 14 11 41t11 39q0 20 -8 28t-18 8.5t-18 13.5t-8 41z" />
<glyph unicode="&#x201c;" horiz-adv-x="425" d="M173 553q0 -25 -21 -42t-44 -17q-71 0 -71 80q0 49 27.5 102.5t64.5 71.5q14 -8 14 -24q0 -14 -11 -41t-11 -39q0 -20 8 -28t18 -8.5t18 -13.5t8 -41zM390 553q0 -25 -21 -42t-44 -17q-71 0 -71 80q0 49 27.5 102.5t64.5 71.5q14 -8 14 -24q0 -14 -11 -41t-11 -39 q0 -20 8 -28t18 -8.5t18 -13.5t8 -41z" />
<glyph unicode="&#x201d;" horiz-adv-x="422" d="M252 689q0 25 21 42t44 17q71 0 71 -80q0 -49 -27.5 -102.5t-64.5 -71.5q-14 8 -14 24q0 14 11 41t11 39q0 20 -8 28t-18 8.5t-18 13.5t-8 41zM35 689q0 25 21 42t44 17q71 0 71 -80q0 -49 -27.5 -102.5t-64.5 -71.5q-14 8 -14 24q0 14 11 41t11 39q0 20 -8 28t-18 8.5 t-18 13.5t-8 41z" />
<glyph unicode="&#x201e;" horiz-adv-x="435" d="M39 69q0 25 21 42t44 17q71 0 71 -80q0 -49 -27.5 -102.5t-64.5 -71.5q-14 8 -14 24q0 14 11 41t11 39q0 20 -8 28t-18 8.5t-18 13.5t-8 41zM258 69q0 25 21 42t44 17q71 0 71 -80q0 -49 -27.5 -102.5t-64.5 -71.5q-14 8 -14 24q0 14 11 41t11 39q0 20 -8 28t-18 8.5 t-18 13.5t-8 41z" />
<glyph unicode="&#x2020;" horiz-adv-x="410" d="M240 750v-322h150v-92h-150v-586h-73v586h-146v92h146v322h73z" />
<glyph unicode="&#x2021;" horiz-adv-x="427" d="M248 750v-322h150v-92h-150v-143h150v-92h-150v-351h-73v351h-146v92h146v143h-146v92h146v322h73z" />
<glyph unicode="&#x2022;" horiz-adv-x="253" d="M44 267q0 35 24 59t58 24t58.5 -24t24.5 -59q0 -34 -24 -58t-59 -24q-34 0 -58 23.5t-24 58.5z" />
<glyph unicode="&#x2026;" horiz-adv-x="691" d="M38 61q0 27 19.5 47t46.5 20t47 -20t20 -47t-20 -46.5t-47 -19.5q-28 0 -47 19t-19 47zM275 61q0 27 19.5 47t46.5 20t47 -20t20 -47t-20 -46.5t-47 -19.5q-28 0 -47 19t-19 47zM520 61q0 27 19.5 47t46.5 20t47 -20t20 -47t-20 -46.5t-47 -19.5q-28 0 -47 19t-19 47z " />
<glyph unicode="&#x2030;" horiz-adv-x="893" d="M462 750l-247 -750h-60l247 750h60zM148 702q112 0 112 -160q0 -67 -30 -117.5t-90 -50.5q-52 0 -82.5 41t048489BAA6" />
<glyph unicode="&#x2039;" horiz-adv-x="306" d="M196 449l51 -45l-143 -151l167 -140l-31 -44l-219 185z" />
<glyph unicode="&#x203a;" horiz-adv-x="309" d="M111 69l-51 45l143 151l-167 140l31 44l219 -185z" />
<glyph unicode="&#x20ac;" horiz-adv-x="616" d="M28 334h71v16q0 39 2 59h-73v40h76q8 61 25 112.5t46.5 95t77 68.5t108.5 25q80 0 133.5 -40.5t53.5 -115.5q0 -70 -53 -70q-31 0 -47 18q9 7 16.5 29.5t7.5 49.5q0 46 -22.5 69.5t-61.5 23.5q-72 0 -114 -74.5t-53 -190.5h209v-40h-212q-1 -14 -1 -42v-33h213v-40h-210 q23 -234 209 -234q92 0 141 58l26 -25q-74 -109 -225 -109q-120 0 -190 78.5t-80 231.5h-73v40z" />
<glyph unicode="&#x2122;" horiz-adv-x="484" d="M273 433h-18l32 221h29l32 -175l33 175h34l22 -221h-35l-17 156l-30 -156h-32l-27 154zM218 622q-9 0 -49 7v-196h-32v201q-5 1 -13 1q-51 0 -51 -42q0 -28 12 -42q-35 0 -35 44q0 27 22 45t67 18q17 0 40 -3.5t35 -3.5q19 0 35 6q1 -4 1 -11q0 -24 -32 -24z" />
<glyph unicode="&#x2212;" horiz-adv-x="468" d="M409 301v-70h-350v70h350z" />
<glyph unicode="&#xe000;" horiz-adv-x="560" d="M0 560h560v-560h-560v560z" />
<glyph horiz-adv-x="529" d="M483 0h-110v380h-193q-46 -174 -46 -325q0 -104 35 -169q-26 0 -47.5 5.5t-45 21.5t-36.5 51t-13 87q0 86 29 203.5t77 229t120.5 189t149.5 77.5q44 0 80 -14v-736zM373 702q-50 -4 -98 -83t-84 -201h182v284z" />
<glyph horiz-adv-x="672" d="M102 508q0 -21 3 -38.5t7.5 -30t9 -21t9.5 -16t6 -9.5q-57 0 -88.5 29.5t-31.5 86.5q0 100 94.5 170.5t2260D60507AD8" />
<glyph horiz-adv-x="582" d="M480 646q-44 0 -134 18v-251h160v-59h-160v-284h232v-70h-340v682q-7 1 -20 1q-123 0 -123 -145q0 -108 45076B153A1F" />
<glyph horiz-adv-x="701" d="M356 748v-83q40 85 130 85q69 0 111 -59t42 -174q0 -25 -3.5 -148.5t-3.5 -157.5q0 -59 4.5 -90t13 -41t25.5 -10q24 0 46.5 34.5t27.5 74.5h24q-14 -108 -51 -146.5t-87 -38.5q-60 0 -87 48t-27 168q0 35 3 150.5t3 140.5q0 176 -85 176q-44 0 -65 -40t-21 -95v-542 h-110v692q-68 -19 -106.5 -67t-38.5 -119q0 -74 46 -113q-62 0 -96 29t-34 87q0 99 90.5 170t206.5 71q16 0 42 -2z" />
<glyph horiz-adv-x="499" d="M315 500h100v-340q0 -90 48 -90q17 0 33 6q2 -12 2 -18q0 -29 -22 -46.5t-53 -17.5q-33 0 -57 23t-33 71q-16 -41 -50.5 -67.5t-80.5 -26.5q-68 0 -119 57t-51 169q0 68 18 130t62.5 108.5t107.5 46.5q70 0 95 -53v48zM223 70q38 0 65 32.5t27 76.5v228q-18 43 -61 43 q-39 0 -67 -37t-39 -86.5t-11 -103.5q0 -77 24 -115t62 -38z" />
<glyph horiz-adv-x="858" d="M315 500h100v-340q0 -49 14 -69.5t47 -20.5q38 0 76.5 24t66.5 72l-132 334h114l96 -244q90 119 90 186q0 12 -1 17q-9 -4 -21 -4q-23 0 -39 15t-16 38q0 22 15 37t38 15q30 0 49.5 -26.5t19.5 -72.5q0 -53 -28 -108t-90 -139l14 -35q15 -39 23.5 -57.5t23.5 -35 t32 -16.5q27 0 40 11q1 -7 1 -19q0 -68 -70 -68q-44 0 -76.5 30t-64.5 99q-40 -71 -93 -100t-103 -29q-92 0 -108 94q-16 -41 -50.5 -67.5t-80.5 -26.5q-68 0 -119 57t-51 169q0 68 18 130t62.5 108.5t107.5 46.5q70 0 95 -53v48zM223 70q38 0 65 32.5t27 76.5v228 q-18 43 -61 43q-39 0 -67 -37t-39 -86.5t-11 -103.5q0 -77 24 -115t62 -38z" />
<glyph horiz-adv-x="499" d="M315 500h100v-340q0 -90 48 -90q17 0 33 6q2 -12 2 -18q0 -29 -22 -46.5t-53 -17.5q-33 0 -57 23t-33 71q-16 -41 -50.5 -67.5t-80.5 -26.5q-68 0 -119 57t-51 169q0 68 18 130t62.5 108.5t107.5 46.5q70 0 95 -53v48zM223 70q38 0 65 32.5t27 76.5v228q-18 43 -61 43 q-39 0 -67 -37t-39 -86.5t-11 -103.5q0 -77 24 -115t62 -38zM211 561l51 189h85l-81 -189h-55z" />
<glyph horiz-adv-x="771" d="M46 179l1 507l100 14v-237q37 39 95 39q55 0 101.5 -36t60.5 -119q91 11 158 164l101 20q12 -47 29.5 -1160C2A2E5AC6" />
<glyph horiz-adv-x="380" d="M273 347q17 14 17 50q0 25 -14.5 40t-38.5 15q-27 0 -46.5 -19.5t-30 -51.5t-15 -66t-4.5 -71q0 -99 30.5 -136.5t84.5 -37.5q65 0 107 47q0 -66 -37.5 -94.5t-95.5 -28.5q-83 0 -139 56.5t-56 182.5q0 45 8 87.5t27 86.5t58.5 71t94.5 27q60 0 93 -31t33 -86 q0 -62 -39 -62q-22 0 -37 21z" />
<glyph horiz-adv-x="293" d="M169 561h-22l-86 101l-141 -101h-34l166 167h21z" />
<glyph horiz-adv-x="497" d="M315 686l100 14v-540q0 -90 48 -90q17 0 33 6q2 -12 2 -18q0 -29 -22 -46.5t-53 -17.5q-33 0 -57 23t-33 71q-16 -41 -50.5 -67.5t-80.5 -26.5q-68 0 -119 57t-51 169q0 68 18 130t62.5 108.5t107.5 46.5q70 0 95 -53v234zM223 70q38 0 65 32.5t27 76.5v228 q-18 43 -61 43q-39 0 -67 -37t-39 -86.5t-11 -103.5q0 -77 24 -115t62 -38z" />
<glyph horiz-adv-x="231" d="M47 500h100v-340q0 -90 44 -90q21 0 37 6q2 -12 2 -18q0 -32 -25.5 -48t-58.5 -16q-99 0 -99 141v365z" />
<glyph horiz-adv-x="390" d="M359 375q0 -70 -58 -117t-159 -58q7 -74 37 -102t78 -28q74 0 108 49q2 -18 2 -25q0 -44 -42 -72t-99 -28q-77 0 -134 57t-57 174q0 46 10 92t31 89.5t60 71t90 27.5q133 0 133 -130zM141 239q71 11 112.5 50.5t41.5 95.5q0 71 -50 71q-33 0 -57.5 -34.5t-35.5 -82.5 t-11 -100z" />
<glyph horiz-adv-x="752" d="M380 500h114l97 -245q90 122 90 187q0 12 -1 17q-9 -4 -21 -4q-23 0 -39 15t-16 38q0 22 15 37t38 15q30 0 49.5 -26.5t19.5 -72.5q0 -54 -28.5 -109.5t-90.5 -138.5l14 -34q9 -22 12 -30t10.5 -24.5t12.5 -23.5t12.5 -16t15 -12t16.5 -3q27 0 40 11q1 -7 1 -19 q0 -68 -70 -68q-47 0 -81 34.5t-69 114.5q-46 -66 -127.5 -107.5t-163.5 -41.5q-88 0 -141 54t-53 172q0 48 9.5 95t30.5 91t61 71.5t93 27.5q55 0 92.5 -29t37.5 -94q0 -77 -57 -123.5t-160 -58.5q6 -74 37.5 -102t89.5 -28q64 0 128 27t109 81zM246 456q-49 0 -76 -65 t-28 -152q70 12 112 50.5t42 99.5q0 67 -50 67z" />
<glyph horiz-adv-x="390" d="M359 375q0 -70 -58 -117t-159 -58q7 -74 37 -102t78 -28q74 0 108 49q2 -18 2 -25q0 -44 -42 -72t-99 -28q-77 0 -134 57t-57 174q0 46 10 92t31 89.5t60 71t90 27.5q133 0 133 -130zM141 239q71 11 112.5 50.5t41.5 95.5q0 71 -50 71q-33 0 -57.5 -34.5t-35.5 -82.5 t-11 -100zM208 561l51 189h85l-81 -189h-55z" />
<glyph horiz-adv-x="689" d="M505 500h100v-340q0 -90 48 -90q17 0 33 6q2 -12 2 -18q0 -29 -22 -46.5t-53 -17.5q-73 0 -90 94q-18 -47 -48.5 -70.5t-66.5 -23.5q-64 0 -102.5 37t-38.5 118v316h-121v-545q0 -97 -33.5 -133.5t-91.5 -36.5q-105 0 -105 97q0 83 130 139v590q0 84 40 129t106 45 q62 0 100.5 -38.5t38.5 -111.5h-39q-6 43 -22.5 64.5t-50.5 21.5q-44 0 -58.5 -34.5t-14.5 -103.5v-48h221v-340q0 -90 60 -90q31 0 54.5 30t23.5 79v321zM1 -198q27 0 36 28.5t9 87.5v31q-91 -44 -91 -99q0 -20 13 -34t33 -14z" />
<glyph horiz-adv-x="470" d="M227 465h-81v-545q0 -94 -33 -132t-91 -38q-53 0 -79.5 24.5t-26.5 66.5q0 91 130 146v574q0 75 44.5 131.000A352A30" />
<glyph horiz-adv-x="469" d="M146 548v-48h81v-35h-81v-545q0 -102 -23 -136t-76 -34q-57 0 -94 26t-37 77q0 74 130 133v575q0 28 2 50.5t10.5 49.5t23 45t42 30.5t64.5 12.5q22 0 42.5 -2t33.5 -4t32 -8t27.5 -9.5t31.5 -12.5t32 -13v-540q0 -90 44 -90q21 0 37 6q2 -12 2 -18q0 -32 -25.5 -48 t-58.5 -16q-99 0 -99 141v546q-38 5 -61 5q-49 0 -64.5 -33t-15.5 -105zM2 -198q26 0 35 29t9 87v31q-91 -44 -91 -99q0 -20 13 -34t34 -14z" />
<glyph horiz-adv-x="459" d="M315 500h100v-579q0 -88 -35 -129.5t-90 -41.5q-48 0 -77 28t-29 70q0 86 131 140v86q-43 -60 -112 -60q-70505B83A56" />
<glyph horiz-adv-x="481" d="M46 686l100 14v-276q43 81 120 81q137 0 137 -181q0 -20 -2.5 -80t-2.5 -91q0 -83 51 -83q24 0 32 8v-7q0 -77 -67 -77q-58 0 -87.5 43.5t-29.5 109.5q0 12 1.5 86t1.5 88q0 108 -64 108q-63 0 -90 -109v-320h-100v686z" />
<glyph horiz-adv-x="231" d="M29 644q0 27 19.5 47t46.5 20t47 -20t20 -47t-20 -46.5t-47 -19.5q-28 0 -47 19t-19 47zM47 500h100v-340q0 -90 44 -90q21 0 37 6q2 -12 2 -18q0 -32 -25.5 -48t-58.5 -16q-99 0 -99 141v365z" />
<glyph horiz-adv-x="590" d="M219 500h114l96 -244q90 119 90 186q0 12 -1 17q-9 -4 -21 -4q-23 0 -39 15t-16 38q0 22 15 37t38 15q30 0 49.5 -26.5t19.5 -72.5q0 -53 -28 -108t-90 -139l14 -35q15 -39 23.5 -57.5t23.5 -35t32 -16.5q27 0 40 11q1 -7 1 -19q0 -68 -70 -68q-44 0 -76.5 30.5 t-64.5 99.5q-87 -130 -202 -130q-120 0 -120 145v361h100v-340q0 -27 3 -44t16.5 -31.5t39.5 -14.5q76 0 145 94l-5 15zM29 644q0 27 19.5 47t46.5 20t47 -20t20 -47t-20 -46.5t-47 -19.5q-28 0 -47 19t-19 47z" />
<glyph horiz-adv-x="231" d="M47 500h100v-340q0 -90 44 -90q21 0 37 6q2 -12 2 -18q0 -32 -25.5 -48t-58.5 -16q-99 0 -99 141v365zM68 561l51 189h85l-81 -189h-55z" />
<glyph horiz-adv-x="432" d="M288 500h100v-579q0 -88 -35 -129.5t-90 -41.5q-48 0 -77 28t-29 70q0 86 131 140v512zM47 500h100v-340q00F5B84BAE9" />
<glyph horiz-adv-x="191" d="M47 500h100v-579q0 -88 -35 -129.5t-90 -41.5q-48 0 -77 28t-29 70q0 86 131 140v512zM29 644q0 27 19.5 40765B56A31" />
<glyph horiz-adv-x="480" d="M46 686l100 14v-363l172 163h97l-167 -135h10q136 0 136 -156q0 -15 -1.5 -47.5t-1.5 -40.5q0 -51 47 -51q27 0 42 8q0 -3 0.5 -7.5t0.5 -6.5q0 -70 -80 -70q-56 0 -83.5 31.5t-27.5 82.5q0 5 0.5 45.5t0.5 47.5q0 88 -63 88q-55 0 -82 -77v-212h-100v686z" />
<glyph horiz-adv-x="457" d="M46 686l100 14v-373q89 104 137 141.5t88 37.5q26 0 42.5 -17t16.5 -36q0 -18 -12 -28t-26 -10q-11 0 -29 5t-25 5q-51 0 -112 -64q16 4 32 4q136 0 136 -156q0 -15 -1.5 -47.5t-1.5 -39.5q0 -52 39 -52q52 0 75 109h37q-9 -49 -23 -85t-27.5 -54.5t-31 -29.5t-30 -13.5 t-27.5 -2.5q-57 0 -85 32t-28 82q0 5 0.5 45.5t0.5 47.5q0 88 -63 88q-55 0 -82 -77v-212h-100v686z" />
<glyph horiz-adv-x="229" d="M47 686l100 14v-540q0 -90 44 -90q21 0 37 6q2 -12 2 -18q0 -32 -25.5 -48t-58.5 -16q-99 0 -99 141v551z" />
<glyph horiz-adv-x="706" d="M46 500h100v-69q39 74 110 74q90 0 118 -89q41 89 115 89q137 0 137 -179q0 -23 -3 -83t-3 -87q0 -86 45 -86q27 0 42 9v-7q0 -78 -70 -78q-59 0 -88 43.5t-29 109.5q0 12 1.5 86t1.5 88q0 108 -64 108q-63 0 -78 -109v-320h-100v334q0 44 -11 69.5t-45 25.5 q-30 0 -47.5 -25.5t-31.5 -83.5v-320h-100v500z" />
<glyph horiz-adv-x="481" d="M46 500h100v-76q43 81 120 81q137 0 137 -181q0 -20 -2.5 -80t-2.5 -91q0 -83 51 -83q24 0 32 8v-7q0 -77 -67 -77q-58 0 -87.5 43.5t-29.5 109.5q0 12 1.5 86t1.5 88q0 108 -64 108q-63 0 -90 -109v-320h-100v500z" />
<glyph horiz-adv-x="465" d="M229 505q123 0 153 -132q18 0 30.5 9.5t17 18t9.5 22.5h29q-23 -91 -78 -119q2 -16 2 -47q0 -123 -45 -19300F3F4FA6D" />
<glyph horiz-adv-x="771" d="M231 505q131 0 155 -158h6q98 0 170 164l101 20q12 -47 29.5 -116t24.5 -96t15.5 -65t11 -60t2.5 -43q0 -40B765C2A3A" />
<glyph horiz-adv-x="465" d="M229 505q123 0 153 -132q18 0 30.5 9.5t17 18t9.5 22.5h29q-22 -90 -78 -119q2 -16 2 -47q0 -123 -45 -193t-126 -70q-76 0 -131.5 57t-55.5 176q0 48 10 93.5t31 88.5t61 69.5t93 26.5zM239 70q103 0 103 201q0 3 -0.5 10t-0.5 11q-54 0 -54 60q0 40 37 45 q-22 53 -69 53q-39 0 -65.5 -35.5t-37 -82.5t-10.5 -101q0 -88 28 -124.5t69 -36.5zM226 561l51 189h85l-81 -189h-55z" />
<glyph horiz-adv-x="771" d="M231 505q131 0 155 -158h6q98 0 170 164l101 20q12 -47 29.5 -116t24.5 -96t15.5 -65t11 -60t2.5 -43q0 -48 -15.5 -81t-41.5 -48.5t-49.5 -21.5t-49.5 -6q-78 0 -113 44.5t-35 99.5q0 40 18.5 59t41.5 19q19 0 32.5 -12.5t13.5 -35.5q0 -19 -9.5 -29t-23.5 -10 q-13 0 -24 14q8 -39 24.5 -56.5t54.5 -17.5q37 0 53.5 18.5t16.5 63.5q0 20 -4.5 46t-10.5 51t-21.5 88.5t-29.5 122.5q-26 -63 -76 -104.5t-107 -54.5q0 -6 0.5 -17.5t0.5 -16.5q0 -133 -44.5 -202.5t-127.5 -69.5q-35 0 -66.5 12.5t-59 39t-44 73.5t-16.5 109q0 48 10 93 t31 88t61.5 69.5t94.5 26.5zM239 70q103 0 103 201q0 16 -1 24q-29 2 -41.5 13.5t-12.5 36.5q0 23 10 32.5t30 10.5q-22 62 -72 62q-39 0 -65.5 -35.5t-37 -82.5t-10.5 -101q0 -88 28 -124.5t69 -36.5zM209 561l51 189h85l-81 -189h-55z" />
<glyph horiz-adv-x="468" d="M397 156q0 -86 45 -86q49 0 72 109h37q-33 -185 -137 -185q-59 0 -88 43.5t-29 109.5q0 12 1.5 86t1.5 88q0 108 -64 108q-62 0 -89 -105v-549l-101 -25v787h101v-112q43 80 119 80q137 0 137 -179q0 -23 -3 -83t-3 -87z" />
<glyph horiz-adv-x="438" d="M46 537h101v-88q37 55 109 55q69 0 112.5 -69t44.5 -175q41 11 102 22v-35q-49 -3 -103 -20q-6 -97 -44 -165t-94 -68q-51 0 -75 25.5t-24 67.5q0 86 139 141q1 9 1 26q0 83 -26 134.5t-73 51.5q-62 0 -69 -119v-546l-101 -25v787zM253 65q43 0 58 120q-82 -46 -82 -89 q0 -9 8.5 -20t15.5 -11z" />
<glyph horiz-adv-x="354" d="M144 511l101 20q14 -58 32.5 -128.5t25 -96.5t14 -62.5t9.5 -60.5t2 -55q0 -46 -28 -78t-61.5 -44t-65.5 -12q-79 0 -114 44.5t-35 103.5q0 53 36 73q3 7 17.5 47.5t18.5 53t15 46.5t15.5 52.5t10 45.5t7.5 51zM222 139q0 37 -5 65.5t-21.5 93t-29.5 126.5 q-4 -33 -13 -68t-23.5 -77.5t-21.5 -66.5q22 -15 22 -44q0 -18 -9.5 -28.5t-22.5 -10.5q-16 0 -27 14q16 -74 81 -74q70 0 70 70z" />
<glyph horiz-adv-x="238" d="M47 638l100 14v-152h77v-35h-77v-305q0 -90 44 -90q21 0 37 6q2 -12 2 -18q0 -32 -25.5 -48t-58.5 -16q-99 0 -99 141v330h-34v35h34v138z" />
<glyph horiz-adv-x="468" d="M284 500h100v-340q0 -90 48 -90q17 0 33 6q2 -12 2 -18q0 -29 -22 -46.5t-53 -17.5q-73 0 -90 94q-18 -47 -48.5 -70.5t-66.5 -23.5q-64 0 -102.5 37t-38.5 118v351h100v-340q0 -90 60 -90q31 0 54.5 30t23.5 79v321z" />
<glyph horiz-adv-x="829" d="M456 500h114l96 -244q90 119 90 186q0 12 -1 17q-9 -4 -21 -4q-23 0 -39 15t-16 38q0 22 15 37t38 15q30 00942E35AC8" />
<glyph horiz-adv-x="468" d="M284 500h100v-340q0 -90 48 -90q17 0 33 6q2 -12 2 -18q0 -29 -22 -46.5t-53 -17.5q-73 0 -90 94q-18 -47 -48.5 -70.5t-66.5 -23.5q-64 0 -102.5 37t-38.5 118v351h100v-340q0 -90 60 -90q31 0 54.5 30t23.5 79v321zM186 561l51 189h85l-81 -189h-55z" />
<glyph horiz-adv-x="509" d="M312 386l40 -111q76 105 76 167q0 12 -1 17q-9 -4 -21 -4q-23 0 -39 15t-16 38q0 22 15 37t38 15q30 0 49.5 -26.5t19.5 -72.5q0 -50 -25.5 -102.5t-79.5 -127.5l20 -53q21 -56 38.5 -82t45.5 -26q20 0 33 8q2 -12 2 -20q0 -36 -26 -50t-54 -14q-42 0 -74.5 39.5 t-66.5 131.5l-105 -165h-68l155 216l-44 124q-18 51 -30 70.5t-26 19.5q-56 0 -86 -253h-37q4 19 11.5 64.5t13 74.5t17 68.5t25 63t36 40.5t51.5 17q41 0 66.5 -30t46.5 -89z" />
<glyph horiz-adv-x="428" d="M284 500h100v-579q0 -88 -35 -129.5t-90 -41.5q-48 0 -77 28t-29 70q0 86 131 140v63q-38 -57 -97 -57q-640B9B2ECA92" />
</font>
</defs>
</svg>
