<?xml version="1.0" standalone="no"?>
<!DOCTYPE svg PUBLIC "-//W3C//DTD SVG 1.1//EN" "../../../www.w3.org/Graphics/SVG/1.1/DTD/svg11.dtd" >
<svg xmlns="http://www.w3.org/2000/svg">
<metadata></metadata>
<defs>
<font id="lobster_twoitalic" horiz-adv-x="485" >
<font-face units-per-em="1000" ascent="800" descent="-200" />
<missing-glyph horiz-adv-x="215" />
<glyph unicode="IJ" horiz-adv-x="674" d="M447 748l-147 -691q33 -3 49.5 -19t16.5 -35q0 -12 -7 -33q-19 28 -55 28q-32 0 -51.5 -27.5t-19.5 -58.5q0 -33 23.5 -56t55.5 -23q37 0 75 31.5t53 101.5l160 758l117 26l-150 -710q-52 -247 -249 -247q-81 0 -118.5 36.5t-37.5 96.5q0 43 16 74l147 692 q-85 -22 -135.5 -80t-50.5 -143q0 -50 24 -76q-107 0 -107 92q0 68 53 130t134 98.5t163 36.5q15 0 41 -2z" />
<glyph unicode="ij" horiz-adv-x="454" d="M322 500h100l-102 -480q58 18 92.5 52.5t58.5 106.5h37q-33 -98 -76.5 -137.5t-119.5 -57.5l-13 -64q-21 -101 -52 -135.5t-84 -34.5q-49 0 -79.5 22t-30.5 68q0 45 46.5 82.5t113.5 64.5zM85 500h101l-73 -340q-4 -20 -4 -43q0 -47 35 -47q16 0 32 6 q-11 -45 -30.5 -63.5t-48.5 -18.5q-35 0 -61.5 28t-26.5 89q0 33 8 68zM93 644q0 27 19.5 47t46.5 20t47 -20t20 -47t-20 -46.5t-47 -19.5q-28 0 -47 19t-19 47zM330 644q0 27 19.5 47t46.5 20t47 -20t20 -47t-20 -46.5t-47 -19.5q-28 0 -47 19t-19 47zM129 -198q26 0 41 29 t28 87l7 32q-54 -24 -83.5 -52.5t-29.5 -56.5q0 -17 10 -28t27 -11z" />
<glyph unicode="ff" horiz-adv-x="479" d="M435 548l-10 -48h78l-7 -35h-79l-115 -545q-18 -88 -58 -129t-91 -41q-69 0 -125 61q-18 -35 -41.5 -48t-59.5 -13q-49 0 -79.5 22t-30.5 68q0 78 159 145l123 576q8 36 18 63.5t30 59t54 48.5t80 17q80 0 105 -64q47 64 134 64q55 0 85 -32.5t30 -82.5q0 -18 -3 -34h-40 q3 10 3 24q0 26 -13 44t-38 18q-49 0 -71.5 -33t-37.5 -105zM85 23q73 21 145 33l87 409h-139zM114 -198q62 0 87 116l22 103q-76 -14 -146 -35l-14 -66q-11 -49 -22 -80q36 -38 73 -38zM196 548l-10 -48h139l13 61q7 34 18 65q-1 25 -13.5 42.5t-37.5 17.5q-49 0 -71.5 -33 t-37.5 -105zM-107 -198q26 0 41 29t28 87l6 29q-112 -52 -112 -106q0 -17 10 -28t27 -11z" />
<glyph unicode="fi" horiz-adv-x="456" d="M386 564q-23 0 -35.5 13t-12.5 31q0 17 11 31t27 17q-1 48 -59 48q-89 0 -122 -156l-10 -48h80l-7 -35h-810123A68A9C " />
<glyph unicode="fl" horiz-adv-x="455" d="M195 548l-10 -48h80l-7 -35h-81l-115 -545q-21 -101 -52 -135.5t-84 -34.5q-49 0 -79.5 22t-30.5 68q0 82 160 147l122 574q8 36 18 63.5t30 59t54 48.5t80 17q22 0 42 -2t32.5 -4t30 -8t25.5 -9.5t28.5 -12.5t29.5 -13l-117 -540q-5 -20 -5 -45q0 -45 31 -45 q49 0 95 109h37q-23 -59 -47.5 -98.5t-48 -57t-41 -23.5t-37.5 -6q-89 0 -89 111q0 31 9 74l107 502q-38 5 -58 5q-49 0 -71.5 -33t-37.5 -105zM-108 -198q26 0 41 29t28 87l7 32q-54 -24 -83.5 -53t-29.5 -56q0 -17 10 -28t27 -11z" />
<glyph unicode="ffi" horiz-adv-x="697" d="M626 564q-23 0 -35.5 13t-12.5 31q0 17 11 31t27 17q-1 48 -59 48q-89 0 -122 -156l-10 -48h81l-7 -35h-82l-115 -545q-18 -88 -58 -129t-91 -41q-69 0 -125 61q-18 -35 -41.5 -48t-59.5 -13q-49 0 -79.5 22t-30.5 68q0 78 159 145l123 576q8 36 18 63.5t30 59t54 48.5 t80 17q88 0 110 -77q63 77 166 77q64 0 95.5 -29.5t31.5 -79.5q0 -35 -15 -55.5t-43 -20.5zM196 548l-10 -48h80l-7 -35h-81l-93 -442q73 21 145 33l108 505q7 32 18 54v9q0 26 -13 44t-38 18q-49 0 -71.5 -33t-37.5 -105zM565 500h101l-73 -340q-5 -20 -5 -45q0 -45 31 -45 q49 0 95 109h37q-23 -59 -47.5 -98.5t-48 -57t-41 -23.5t-37.5 -6q-89 0 -89 111q0 31 9 74zM114 -198q62 0 87 116l22 103q-76 -14 -146 -35l-14 -66q-11 -49 -22 -80q36 -38 73 -38zM-107 -198q26 0 41 29t28 87l6 29q-112 -52 -112 -106q0 -17 10 -28t27 -11z" />
<glyph unicode="ffl" horiz-adv-x="693" d="M600 681q-38 5 -58 5q-49 0 -71.5 -33t-37.5 -105l-10 -48h80l-7 -35h-81l-115 -545q-18 -88 -58 -129t-91 -41q-69 0 -124 60q-31 -60 -100 -60q-49 0 -79.5 22t-30.5 68q0 78 159 145l123 576q8 36 18 63.5t30 59t54 48.5t80 17q78 0 105 -63q47 63 132 63q22 0 42 -2 t32.5 -4t30 -8t25.5 -9.5t28.5 -12.5t29.5 -13l-117 -540q-5 -20 -5 -45q0 -45 31 -45q49 0 95 109h37q-23 -59 -47.5 -98.5t-48 -57t-41 -23.5t-37.5 -6q-89 0 -89 111q0 31 9 74zM196 548l-10 -48h80l-7 -35h-81l-93 -442q70 20 143 33l108 505q10 42 20 70q-2 23 -15 39 t-36 16q-49 0 -71.5 -33t-37.5 -105zM112 -198q62 0 87 116l22 103q-90 -18 -144 -35l-14 -66q-10 -47 -23 -81q36 -37 72 -37zM-107 -198q26 0 41 29t28 87l6 29q-112 -52 -112 -106q0 -17 10 -28t27 -11z" />
<glyph unicode="Ex" horiz-adv-x="768" d="M461 462h114l35 -190q114 128 117 187q-12 -2 -18 -2q-44 0 -44 51q0 49 49 49q60 0 60 -75q0 -52 -34.5 -0DFA5F0A6F" />
<glyph unicode="Fi" horiz-adv-x="768" d="M686 615q-28 0 -61.5 8.5t-77.5 23.5t-71 22l-50 -234h149l-14 -59h-148l-80 -376h-110l146 682q-89 -3 -134 -52t-45 -139q0 -73 15 -95q-45 0 -66 21t-21 73q0 108 84 184t242 76q45 0 109 -10t107 -10q72 0 145 19q-14 -70 -39.5 -102t-79.5 -32zM636 500h101 l-73 -340q-5 -20 -5 -45q0 -45 31 -45q49 0 95 109h37q-23 -59 -47.5 -98.5t-48 -57t-41 -23.5t-37.5 -6q-89 0 -89 111q0 31 9 74z" />
<glyph unicode="Th" horiz-adv-x="982" d="M875 119q0 -49 30 -49q47 0 94 109h37q-23 -60 -47.5 -99.5t-47.5 -56.5t-40 -23t-36 -6q-49 0 -72.5 31t-23.5 82q0 46 24 140t24 127q0 55 -44 55q-64 0 -111 -107l-69 -322h-100l139 644q-55 3 -141 18l-142 -662h-110l144 670q-26 2 -39 2q-107 0 -159 -43.5 t-52 -152.5q0 -55 20 -84q-91 0 -91 103q0 50 19 93.5t58.5 80.5t108.5 58.5t160 21.5q56 0 126 -11.5t109 -11.5q90 0 119 12q-20 -43 -34.5 -103.5t-43.5 -209.5q59 80 136 80q103 0 103 -113q0 -46 -24 -140t-24 -133z" />
<glyph unicode="Ti" horiz-adv-x="719" d="M322 682q-93 0 -141 -49.5t-48 -141.5q0 -73 15 -95q-45 0 -66 21t-21 73q0 108 84 184t242 76q45 0 109 -10t107 -10q92 0 165 19q-14 -70 -39.5 -102t-79.5 -32q-40 0 -165 37l-139 -652h-110l146 677q-33 5 -59 5zM587 500h101l-73 -340q-5 -20 -5 -45q0 -45 31 -45 q49 0 95 109h37q-23 -59 -47.5 -98.5t-48 -57t-41 -23.5t-37.5 -6q-89 0 -89 111q0 31 9 74z" />
<glyph unicode="ax" horiz-adv-x="839" d="M525 500h114l42 -228q114 128 117 187q-12 -2 -18 -2q-44 0 -44 51q0 49 49 49q60 0 60 -75q0 -52 -34.5 -108.5t-120.5 -151.5l8 -43q1 -5 2.5 -15.5t3 -16.5t3.5 -16t4 -16t5 -14t6.5 -13t7.5 -9.5t9.5 -6.5t12.5 -2q49 0 95 109h37q-23 -59 -47.5 -98.5t-48 -57 t-41 -23.5t-36.5 -6q-48 0 -74 32t-44 106q-37 -60 -98.5 -99t-114.5 -39q-40 0 -65.5 24t-29.5 74q-24 -43 -65 -70.5t-87 -27.5q-54 0 -91 39.5t-37 119.5q0 53 17 112.5t47.5 114t80.5 90t108 35.5q72 0 85 -53l10 48h101l-73 -340q-4 -16 -4 -33q0 -57 50 -57 q38 0 85.5 33.5t70.5 80.5zM172 70q35 0 69 32t44 77l48 228q-6 43 -54 43q-49 0 -89 -51t-59 -115t-19 -120q0 -94 60 -94z" />
<glyph unicode="a&#x7a;" horiz-adv-x="872" d="M353 500h101l-73 -340q-4 -20 -4 -43q0 -47 35 -47q16 0 32 6q-11 -45 -30.5 -63.5t-48.5 -18.5q-73 0 -80 98q-24 -43 -65 -70.5t-87 -27.5q-54 0 -91 39.5t-37 121.5q0 53 17 112t47.5 113t81 89.5t110.5 35.5q69 0 82 -53zM778 85q-13 5 -13 21q0 17 15 27.5t34 10.5 q20 0 33 -12.5t13 -37.5q0 -34 -39 -64t-94 -30h-252l255 446h-76q-60 0 -60 -16q0 -6 5 -14t5 -14q0 -11 -16 -22t-35 -11q-43 0 -43 59q0 72 116 72h238l-249 -430q102 -6 118 -6q38 0 45 21zM175 70q33 0 67 32.5t43 76.5l48 227q-3 18 -16 31t-34 13q-51 0 -92 -50.5 t-60 -113.5t-19 -117q0 -99 63 -99z" />
<glyph unicode="bs" horiz-adv-x="759" d="M402 122q0 33 19.5 64.5t51.5 31.5q20 0 31.5 -13.5t11.5 -25.5q0 -23 -12.5 -36.5t-28.5 -13.5t-24 14q0 -74 65 -74q87 0 87 97q0 21 -2.5 45.5t-8 86t-10.5 141.5q-74 -107 -179 -136q-13 -119 -90.5 -214t-185.5 -95q-57 0 -87.5 25.5t-30.5 87.5q0 32 8 72l109 507 l102 14l-51 -237q45 39 94 39q57 0 94.5 -32.5t39.5 -122.5q46 14 95 56.5t78 107.5l105 20q6 -109 12 -188.5t9.5 -114.5t3.5 -61q0 -22 -3 -40q41 27 71 52h42q-49 -54 -128 -99q-22 -44 -61.5 -65t-80.5 -21q-71 0 -108.5 38.5t-37.5 89.5zM294 337q0 22 15 40 q-14 73 -68 73q-31 0 -72 -34l-59 -263q-5 -23 -5 -38q0 -52 50 -52q60 0 105 72t52 166q-18 12 -18 36z" />
<glyph unicode="bsx" horiz-adv-x="1091" d="M402 122q0 33 19.5 64.5t51.5 31.5q20 0 31.5 -13.5t11.5 -25.5q0 -23 -12.5 -36.5t-28.5 -13.5t-24 14q0 -74 65 -74q87 0 87 97q0 21 -2.5 45.5t-8 86t-10.5 141.5q-74 -107 -179 -136q-13 -119 -90.5 -214t-185.5 -95q-57 0 -87.5 25.5t-30.5 87.5q0 32 8 72l109 507 l102 14l-51 -237q45 39 94 39q57 0 94.5 -32.5t39.5 -122.5q46 14 95 56.5t78 107.5l105 20q6 -109 12 -188.5t9.5 -114.5t3.5 -61q0 -30 -9 -64q90 41 135 83l-57 314h114l42 -228q114 128 117 187q-12 -2 -18 -2q-44 0 -44 51q0 49 49 49q60 0 60 -75q0 -52 -34.5 -108.5 t-120.5 -151.5l8 -43q1 -5 2.5 -15.5t3 -16.5t3.5 -16t4 -16t5 -14t6.5 -13t7.5 -9.5t9.5 -6.5t12.5 -2q49 0 95 109h37q-23 -59 -47.5 -98.5t-48 -57t-41 -23.5t-36.5 -6q-50 0 -76.5 35t-44.5 118q-70 -63 -182 -108q-46 -45 -112 -45q-71 0 -108.5 38.5t-37.5 89.5z M294 337q0 22 15 40q-14 73 -68 73q-31 0 -72 -34l-59 -263q-5 -23 -5 -38q0 -52 50 -52q60 0 105 72t52 166q-18 12 -18 36z" />
<glyph unicode="bs&#x7a;" horiz-adv-x="1114" d="M402 122q0 33 19.5 64.5t51.5 31.5q20 0 31.5 -13.5t11.5 -25.5q0 -23 -12.5 -36.5t-28.5 -13.5t-24 14q0 -74 65 -74q87 0 87 97q0 21 -2.5 45.5t-8 86t-10.5 141.5q-74 -107 -179 -136q-13 -119 -90.5 -214t-185.5 -95q-57 0 -87.5 25.5t-30.5 87.5q0 32 8 72l109 507 l102 14l-51 -237q45 39 94 39q57 0 94.5 -32.5t39.5 -122.5q46 14 95 56.5t78 107.5l105 20q6 -109 12 -188.5t9.5 -114.5t3.5 -61q0 -88 -50 -130.5t-110 -42.5q-71 0 -108.5 38.5t-37.5 89.5zM1020 85q-13 5 -13 21q0 17 15 27.5t34 10.5q20 0 33 -12.5t13 -37.5 q0 -34 -39 -64t-94 -30h-252l255 446h-76q-60 0 -60 -16q0 -6 5 -14t5 -14q0 -11 -16 -22t-35 -11q-43 0 -43 59q0 72 116 72h238l-249 -430q102 -6 118 -6q38 0 45 21zM294 337q0 22 15 40q-14 73 -68 73q-31 0 -72 -34l-59 -263q-5 -23 -5 -38q0 -52 50 -52q60 0 105 72 t52 166q-18 12 -18 36z" />
<glyph unicode="cx" horiz-adv-x="732" d="M418 500h114l42 -228q114 128 117 187q-12 -2 -18 -2q-44 0 -44 51q0 49 49 49q60 0 60 -75q0 -52 -34.5 -0797589ABA" />
<glyph unicode="c&#x7a;" horiz-adv-x="729" d="M635 85q-13 5 -13 21q0 17 15 27.5t34 10.5q20 0 33 -12.5t13 -37.5q0 -34 -39 -64t-94 -30h-252l255 446h-38q-60 0 -60 -16q0 -6 5 -14t5 -14q0 -11 -16 -22t-35 -11q-43 0 -43 59q0 72 116 72h200l-249 -430q102 -6 118 -6q38 0 45 21zM321 117q-6 -45 -37 -74.5 t-64 -39t-65 -9.5q-63 0 -105 40t-42 121q0 47 14 103t42.5 113.5t81.5 95.5t121 38q105 0 105 -95q0 -36 -14 -60t-39 -24q-22 0 -33 21q12 8 21 28t9 37q0 19 -11.5 32t-32.5 13q-44 0 -81 -49.5t-55.5 -114.5t-18.5 -123q0 -52 19.5 -76t64.5 -24q57 0 120 47z" />
<glyph unicode="ex" horiz-adv-x="725" d="M418 500h114l42 -228q114 128 117 187q-12 -2 -18 -2q-44 0 -44 51q0 49 49 49q60 0 60 -75q0 -52 -34.5 -108.5t-120.5 -151.5l8 -43q1 -5 2.5 -15.5t3 -16.5t3.5 -16t4 -16t5 -14t6.5 -13t7.5 -9.5t9.5 -6.5t12.5 -2q49 0 95 109h37q-23 -59 -47.5 -98.5t-48 -57 t-41 -23.5t-36.5 -6q-50 0 -76 33.5t-44 113.5q-62 -60 -146 -104t-167 -44q-73 0 -118 39.5t-45 121.5q0 36 8.5 80t28 92.5t47.5 87.5t72.5 65t96.5 26q107 0 107 -103q0 -83 -67 -136.5t-183 -65.5q-1 -8 -1 -21q0 -57 28 -83t86 -26q73 0 142.5 35t102.5 79zM270 456 q-52 0 -92.5 -67t-54.5 -150q84 12 134 59t50 114q0 44 -37 44z" />
<glyph unicode="e&#x7a;" horiz-adv-x="754" d="M368 402q0 -84 -66.5 -137t-183.5 -65q-1 -11 -1 -31q0 -52 20 -75.5t67 -23.5q68 0 119 48q-22 -124 -167 -124q-63 0 -105.5 39.5t-42.5 120.5q0 36 8.5 80t28 92.5t47.5 87.5t72.5 65t96.5 26q107 0 107 -103zM660 85q-13 5 -13 21q0 17 15 27.5t34 10.5 q20 0 33 -12.5t13 -37.5q0 -34 -39 -64t-94 -30h-252l255 446h-76q-60 0 -60 -16q0 -6 5 -14t5 -14q0 -11 -16 -22t-35 -11q-43 0 -43 59q0 72 116 72h238l-249 -430q102 -6 118 -6q38 0 45 21zM270 456q-52 0 -92 -65.5t-55 -151.5q84 13 134 59.5t50 113.5q0 44 -37 44z " />
<glyph unicode="&#xe9;x" horiz-adv-x="732" d="M418 500h114l42 -228q114 128 117 187q-12 -2 -18 -2q-44 0 -44 51q0 49 49 49q60 0 60 -75q0 -52 -34.5 -108.5t-120.5 -151.5l8 -43q1 -5 2.5 -15.5t3 -16.5t3.5 -16t4 -16t5 -14t6.5 -13t7.5 -9.5t9.5 -6.5t12.5 -2q49 0 95 109h37q-23 -59 -47.5 -98.5t-48 -57 t-41 -23.5t-36.5 -6q-50 0 -76 33.5t-44 113.5q-62 -60 -146 -104t-167 -44q-73 0 -118 39.5t-45 121.5q0 36 8.5 80t28 92.5t47.5 87.5t72.5 65t96.5 26q107 0 107 -103q0 -83 -67 -136.5t-183 -65.5q-1 -8 -1 -21q0 -57 28 -83t86 -26q73 0 142.5 35t102.5 79zM270 456 q-52 0 -92.5 -67t-54.5 -150q84 12 134 59t50 114q0 44 -37 44zM232 561l91 189h85l-121 -189h-55z" />
<glyph unicode="fft" horiz-adv-x="715" d="M153 -250q-69 0 -125 61q-18 -35 -41.5 -48t-59.5 -13q-49 0 -79.5 22t-30.5 68q0 78 159 145l123 576q8 36 18 63.5t30 59t54 48.5t80 17q80 0 105 -64q47 64 134 64q22 0 42 -2t32.5 -4t30 -8t25.5 -9.5t28.5 -12.5t29.5 -13l-44 -200h77l-7 -35h-77l-66 -305 q-5 -20 -5 -45q0 -45 31 -45q59 0 115 109h37q-26 -59 -53.5 -98.5t-53 -57t-45.5 -23.5t-42 -6q-89 0 -89 111q0 31 9 74l61 286h-139l-115 -545q-18 -88 -58 -129t-91 -41zM85 23q73 21 145 33l87 409h-139zM114 -198q62 0 87 116l22 103q-76 -14 -146 -35l-14 -66 q-11 -49 -22 -80q36 -38 73 -38zM435 548l-10 -48h138l39 181q-38 5 -58 5q-49 0 -71.5 -33t-37.5 -105zM196 548l-10 -48h139l13 61q7 34 18 65q-1 25 -13.5 42.5t-37.5 17.5q-49 0 -71.5 -33t-37.5 -105zM-107 -198q26 0 41 29t28 87l6 29q-112 -52 -112 -106 q0 -17 10 -28t27 -11z" />
<glyph unicode="fix" horiz-adv-x="801" d="M496 500h114l41 -227q106 121 109 186q-12 -2 -18 -2q-44 0 -44 51q0 49 49 49q60 0 60 -75q0 -54 -32 -11046C712AD5" />
<glyph unicode="fi&#x7a;" horiz-adv-x="820" d="M386 564q-23 0 -35.5 13t-12.5 31q0 17 11 31t27 17q-1 48 -59 48q-89 0 -122 -156l-10 -48h80l-7 -35h-8108E25F9A2E" />
<glyph unicode="flx" horiz-adv-x="810" d="M496 500h114l42 -228q114 128 117 187q-12 -2 -18 -2q-44 0 -44 51q0 49 49 49q60 0 60 -75q0 -52 -34.5 -108.5t-120.5 -151.5l8 -43q1 -5 2.5 -15.5t3 -16.5t3.5 -16t4 -16t5 -14t6.5 -13t7.5 -9.5t9.5 -6.5t12.5 -2q49 0 95 109h37q-23 -59 -47.5 -98.5t-48 -57 t-41 -23.5t-36.5 -6q-48 0 -74 32t-44 106q-38 -60 -100 -99t-116 -39q-101 0 -101 109q0 31 9 76l107 502q-38 5 -59 5q-49 0 -71.5 -33t-37.5 -105l-10 -48h80l-7 -35h-81l-115 -545q-21 -101 -52 -135.5t-84 -34.5q-49 0 -79.5 22t-30.5 68q0 82 160 147l122 574 q8 36 18 63.5t30 59t54 48.5t80 17q22 0 42 -2t32.5 -4t30 -8t25.5 -9.5t28.5 -12.5t29.5 -13l-116 -540q-4 -16 -4 -33q0 -57 50 -57q38 0 85.5 33.5t70.5 80.5zM-108 -198q26 0 41 29t28 87l7 32q-54 -24 -83.5 -53t-29.5 -56q0 -17 10 -28t27 -11z" />
<glyph unicode="fl&#x7a;" horiz-adv-x="817" d="M195 548l-10 -48h80l-7 -35h-81l-115 -545q-21 -101 -52 -135.5t-84 -34.5q-49 0 -79.5 22t-30.5 68q0 82 160 147l122 574q8 36 18 63.5t30 59t54 48.5t80 17q22 0 42 -2t32.5 -4t30 -8t25.5 -9.5t28.5 -12.5t29.5 -13l-116 -540q-4 -20 -4 -43q0 -47 35 -47q16 0 32 6 q-11 -45 -30.5 -63.5t-48.5 -18.5q-35 0 -62 28t-27 89q0 29 9 68l107 502q-29 9 -59 9q-48 0 -70.5 -34.5t-38.5 -107.5zM-108 -198q26 0 41 29t28 87l7 32q-54 -24 -83.5 -53t-29.5 -56q0 -17 10 -28t27 -11zM723 85q-13 5 -13 21q0 17 15 27.5t34 10.5q20 0 33 -12.5 t13 -37.5q0 -34 -39 -64t-94 -30h-252l255 446h-76q-60 0 -60 -16q0 -6 5 -14t5 -14q0 -11 -16 -22t-35 -11q-43 0 -43 59q0 72 116 72h238l-249 -430q102 -6 118 -6q38 0 45 21z" />
<glyph unicode="ft" horiz-adv-x="475" d="M246 105q0 31 9 74l61 286h-139l-115 -545q-21 -101 -52 -135.5t-84 -34.5q-49 0 -79.5 22t-30.5 68q0 82 160 147l122 574q8 36 18 63.5t30 59t54 48.5t80 17q22 0 42 -2t32.5 -4t30 -8t25.5 -9.5t28.5 -12.5t29.5 -13l-44 -200h77l-7 -35h-77l-66 -305q-5 -20 -5 -45 q0 -45 31 -45q59 0 115 109h37q-26 -59 -53.5 -98.5t-53 -57t-45.5 -23.5t-42 -6q-89 0 -89 111zM195 548l-10 -48h138l39 181q-38 5 -58 5q-49 0 -71.5 -33t-37.5 -105zM-108 -198q26 0 41 29t28 87l7 32q-54 -24 -83.5 -53t-29.5 -56q0 -17 10 -28t27 -11z" />
<glyph unicode="fu" horiz-adv-x="675" d="M543 500h101l-73 -340q-5 -20 -5 -45q0 -45 31 -45q49 0 95 109h37q-23 -59 -47.5 -98.5t-48 -57t-41 -23.5t-37.5 -6q-73 0 -80 96q-27 -48 -62.5 -72t-71.5 -24q-46 0 -78 36.5t-32 97.5q0 24 6 51l60 286h-120l-115 -545q-21 -101 -52 -135.5t-84 -34.5 q-49 0 -79.5 22t-30.5 68q0 82 160 147l122 574q8 36 18 63.5t30 59t54 48.5t80 17q55 0 85 -32.5t30 -82.5q0 -18 -3 -34h-40q3 10 3 24q0 26 -13 44t-38 18q-49 0 -71.5 -33t-37.5 -105l-10 -48h221l-73 -340q-4 -16 -4 -33q0 -28 12.5 -42.5t32.5 -14.5q31 0 61 30t40 79 zM-108 -198q26 0 41 29t28 87l7 32q-54 -24 -83.5 -53t-29.5 -56q0 -17 10 -28t27 -11z" />
<glyph unicode="fx" horiz-adv-x="614" d="M195 548l-10 -48h229l42 -228q114 128 117 187q-12 -2 -18 -2q-44 0 -44 51q0 49 49 49q60 0 60 -75q0 -52 -34.5 -108.5t-120.5 -151.5l8 -43q1 -5 2.5 -15.5t3 -16.5t3.5 -16t4 -16t5 -14t6.5 -13t7.5 -9.5t9.5 -6.5t12.5 -2q49 0 95 109h37q-23 -59 -47.5 -98.5 t-48 -57t-41 -23.5t-36.5 -6q-54 0 -81 41t-46 140q-120 -71 -120 -129q5 1 13 1q44 0 44 -46q0 -26 -13 -35.5t-38 -9.5q-68 0 -68 57q0 55 53.5 113t121.5 92l-46 247h-129l-115 -545q-21 -101 -52 -135.5t-84 -34.5q-49 0 -79.5 22t-30.5 68q0 82 160 147l122 574 q8 36 18 63.5t30 59t54 48.5t80 17q55 0 85 -32.5t30 -82.5q0 -18 -3 -34h-40q3 10 3 24q0 26 -13 44t-38 18q-49 0 -71.5 -33t-37.5 -105zM-108 -198q26 0 41 29t28 87l7 32q-54 -24 -83.5 -53t-29.5 -56q0 -17 10 -28t27 -11z" />
<glyph unicode="gp" horiz-adv-x="907" d="M576 537h101l-17 -77q52 45 113 45q120 0 120 -167q0 -53 -12 -108.5t-38 -110.5t-75.5 -90t-114.5 -35q-17 0 -30 2t-33 7.5t-25 6.5l-50 -235l-106 -25l57 269q-60 -1 -120 -16l-17 -83q-21 -101 -51.5 -135.5t-81.5 -34.5q-50 0 -81.5 21.5t-31.5 61.5q0 51 48.5 97 t115.5 77l15 71q-59 -62 -130 -62q-53 0 -90.5 39.5t-37.5 116.5q0 51 17 107.5t47.5 107.5t80 84.5t107.5 33.5q72 0 86 -52l10 47h100l-97 -456q64 17 121 23zM726 440q-45 0 -80 -48l-70 -329q32 -5 52 -5q46 0 80.5 29.5t52 75t25.5 88t8 80.5q0 109 -68 109zM172 92 q33 0 66.5 27.5t46.5 66.5l47 221q-8 43 -55 43t-86.5 -44.5t-59.5 -105t-20 -115.5q0 -93 61 -93zM158 -198q26 0 42 29t28 87l9 46q-53 -28 -84 -61t-31 -62q0 -17 10 -28t26 -11z" />
<glyph unicode="gx" horiz-adv-x="838" d="M524 500h114l42 -228q114 128 117 187q-12 -2 -18 -2q-44 0 -44 51q0 49 49 49q60 0 60 -75q0 -52 -34.5 -108.5t-120.5 -151.5l8 -43q1 -5 2.5 -15.5t3 -16.5t3.5 -16t4 -16t5 -14t6.5 -13t7.5 -9.5t9.5 -6.5t12.5 -2q49 0 95 109h37q-23 -59 -47.5 -98.5t-48 -57 t-41 -23.5t-36.5 -6q-48 0 -74.5 32.5t-43.5 107.5q-34 -46 -80.5 -77.5t-80.5 -44t-88 -27.5l-13 -65q-21 -101 -51.5 -135.5t-82.5 -34.5q-50 0 -81 21.5t-31 62.5q0 89 159 153l20 91q-59 -62 -130 -62q-54 0 -91 39.5t-37 121.5q0 49 17 104.5t47.5 106t81 84 t110.5 33.5q69 0 82 -53l10 48h100l-102 -480q82 24 138.5 59t92.5 104zM175 92q29 0 63 27.5t48 65.5l47 222q-3 18 -16 30.5t-34 12.5q-51 0 -92 -46.5t-60 -104.5t-19 -108q0 -99 63 -99zM159 -198q27 0 42 29t28 87l6 31q-112 -47 -112 -107q0 -18 10 -29t26 -11z" />
<glyph unicode="g&#x7a;" horiz-adv-x="864" d="M84 -160q0 45 46 82.5t113 64.5l20 91q-59 -62 -130 -62q-54 0 -91 39.5t-37 121.5q0 49 17 104.5t47.5 106t81 84t110.5 33.5q69 0 82 -53l10 48h100l-123 -580q-21 -101 -52 -135.5t-84 -34.5q-49 0 -79.5 22t-30.5 68zM770 85q-13 5 -13 21q0 17 15 27.5t34 10.5 q20 0 33 -12.5t13 -37.5q0 -34 -39 -64t-94 -30h-252l255 446h-76q-60 0 -60 -16q0 -6 5 -14t5 -14q0 -11 -16 -22t-35 -11q-43 0 -43 59q0 72 116 72h238l-249 -430q102 -6 118 -6q38 0 45 21zM175 92q29 0 63 27.5t48 65.5l47 222q-3 18 -16 30.5t-34 12.5 q-51 0 -92 -46.5t-60 -104.5t-19 -108q0 -99 63 -99zM160 -198q26 0 41 29t28 87l7 32q-54 -24 -83.5 -53t-29.5 -56q0 -17 10 -28t27 -11z" />
<glyph unicode="ix" horiz-adv-x="563" d="M257 500h114l41 -227q106 121 109 186q-12 -2 -18 -2q-44 0 -44 51q0 49 49 49q60 0 60 -75q0 -54 -32 -111.5t-114 -148.5l8 -43q1 -5 2.5 -15.5t3 -16.5t3.5 -16t4 -16t5 -14t6.5 -13t7.5 -9.5t9.5 -6.5t12.5 -2q49 0 95 109h37q-23 -59 -47.5 -98.5t-48 -57t-41 -23.5 t-36.5 -6q-48 0 -74 32t-44 106q-38 -60 -100 -99t-116 -39q-101 0 -101 109q0 31 9 76l68 321h101l-73 -340q-4 -16 -4 -33q0 -57 50 -57q38 0 85.5 33.5t70.5 80.5zM93 644q0 27 19.5 47t46.5 20t47 -20t20 -47t-20 -46.5t-47 -19.5q-28 0 -47 19t-19 47z" />
<glyph unicode="i&#x7a;" horiz-adv-x="593" d="M85 500h101l-73 -340q-4 -20 -4 -43q0 -47 35 -47q16 0 32 6q-11 -45 -30.5 -63.5t-48.5 -18.5q-35 0 -61.5 28t-26.5 89q0 33 8 68zM93 644q0 27 19.5 47t46.5 20t47 -20t20 -47t-20 -46.5t-47 -19.5q-28 0 -47 19t-19 47zM499 85q-13 5 -13 21q0 17 15 27.5t34 10.5 q20 0 33 -12.5t13 -37.5q0 -34 -39 -64t-94 -30h-252l255 446h-76q-60 0 -60 -16q0 -6 5 -14t5 -14q0 -11 -16 -22t-35 -11q-43 0 -43 59q0 72 116 72h238l-249 -430q102 -6 118 -6q38 0 45 21z" />
<glyph unicode="&#xed;x" horiz-adv-x="571" d="M257 500h114l42 -228q114 128 117 187q-12 -2 -18 -2q-44 0 -44 51q0 49 49 49q60 0 60 -75q0 -52 -34.5 -108.5t-120.5 -151.5l8 -43q1 -5 2.5 -15.5t3 -16.5t3.5 -16t4 -16t5 -14t6.5 -13t7.5 -9.5t9.5 -6.5t12.5 -2q49 0 95 109h37q-23 -59 -47.5 -98.5t-48 -57 t-41 -23.5t-36.5 -6q-48 0 -74 32t-44 106q-38 -60 -100 -99t-116 -39q-101 0 -101 109q0 31 9 76l68 321h101l-73 -340q-4 -16 -4 -33q0 -57 50 -57q38 0 85.5 33.5t70.5 80.5zM119 561l91 189h85l-121 -189h-55z" />
<glyph unicode="&#xed;&#x7a;" horiz-adv-x="593" d="M85 500h101l-73 -340q-4 -20 -4 -43q0 -47 35 -47q16 0 32 6q-11 -45 -30.5 -63.5t-48.5 -18.5q-35 0 -61.5 28t-26.5 89q0 33 8 68zM499 85q-13 5 -13 21q0 17 15 27.5t34 10.5q20 0 33 -12.5t13 -37.5q0 -34 -39 -64t-94 -30h-252l255 446h-76q-60 0 -60 -16 q0 -6 5 -14t5 -14q0 -11 -16 -22t-35 -11q-43 0 -43 59q0 72 116 72h238l-249 -430q102 -6 118 -6q38 0 45 21zM119 561l91 189h85l-121 -189h-55z" />
<glyph unicode="jx" horiz-adv-x="558" d="M256 500h114l42 -228q114 128 117 187q-12 -2 -18 -2q-44 0 -44 51q0 49 49 49q60 0 60 -75q0 -52 -34.5 -108.5t-120.5 -151.5l8 -43q1 -5 2.5 -15.5t3 -16.5t3.5 -16t4 -16t5 -14t6.5 -13t7.5 -9.5t9.5 -6.5t12.5 -2q49 0 95 109h37q-23 -59 -47.5 -98.5t-48 -57 t-41 -23.5t-36.5 -6q-48 0 -74.5 32.5t-43.5 107.5q-34 -46 -80.5 -77.5t-80.5 -44t-88 -27.5l-13 -65q-21 -101 -51.5 -135.5t-82.5 -34.5q-50 0 -81 21.5t-31 62.5q0 89 160 153l109 513h100l-102 -480q82 24 138.5 59t92.5 104zM93 644q0 27 19.5 47t46.5 20t47 -20 t20 -47t-20 -46.5t-47 -19.5q-28 0 -47 19t-19 47zM-109 -198q27 0 42 29t28 87l7 31q-113 -47 -113 -107q0 -18 10 -29t26 -11z" />
<glyph unicode="j&#x7a;" horiz-adv-x="571" d="M-184 -160q0 82 160 147l109 513h100l-123 -580q-21 -101 -52 -135.5t-84 -34.5q-49 0 -79.5 22t-30.5 68zM477 85q-13 5 -13 21q0 17 15 27.5t34 10.5q20 0 33 -12.5t13 -37.5q0 -34 -39 -64t-94 -30h-252l255 446h-76q-60 0 -60 -16q0 -6 5 -14t5 -14q0 -11 -16 -22 t-35 -11q-43 0 -43 59q0 72 116 72h238l-249 -430q102 -6 118 -6q38 0 45 21zM93 644q0 27 19.5 47t46.5 20t47 -20t20 -47t-20 -46.5t-47 -19.5q-28 0 -47 19t-19 47zM-108 -198q26 0 41 29t28 87l7 32q-54 -24 -83.5 -53t-29.5 -56q0 -17 10 -28t27 -11z" />
<glyph unicode="lx" horiz-adv-x="571" d="M257 500h114l42 -228q114 128 117 187q-12 -2 -18 -2q-44 0 -44 51q0 49 49 49q60 0 60 -75q0 -52 -34.5 -0A07A40A09" />
<glyph unicode="l&#x7a;" horiz-adv-x="592" d="M125 686l104 14l-116 -540q-4 -20 -4 -43q0 -47 35 -47q16 0 32 6q-11 -45 -30.5 -63.5t-48.5 -18.5q-35 0 -62 28t-27 89q0 29 9 68zM498 85q-13 5 -13 21q0 17 15 27.5t34 10.5q20 0 33 -12.5t13 -37.5q0 -34 -39 -64t-94 -30h-252l255 446h-76q-60 0 -60 -16 q0 -6 5 -14t5 -14q0 -11 -16 -22t-35 -11q-43 0 -43 59q0 72 116 72h238l-249 -430q102 -6 118 -6q38 0 45 21z" />
<glyph unicode="mx" horiz-adv-x="1037" d="M723 500h114l42 -228q114 128 117 187q-12 -2 -18 -2q-44 0 -44 51q0 49 49 49q60 0 60 -75q0 -52 -34.5 -0098A5FAD1" />
<glyph unicode="m&#x7a;" horiz-adv-x="1071" d="M586 123q0 -53 36 -53q14 0 31 7q-4 -47 -30.5 -65t-56.5 -18q-39 0 -62.5 29.5t-23.5 82.5q0 44 24 139t24 129q0 55 -44 55q-31 0 -53.5 -25t-47.5 -82l-69 -322h-101l71 334q5 23 5 45q0 50 -41 50q-30 0 -53 -25.5t-48 -81.5l-69 -322h-100l106 500h101l-14 -64 q53 69 124 69q88 0 101 -84q57 84 135 84q103 0 103 -112q0 -47 -24 -141t-24 -129zM977 85q-13 5 -13 21q0 17 15 27.5t34 10.5q20 0 33 -12.5t13 -37.5q0 -34 -39 -64t-94 -30h-252l255 446h-76q-60 0 -60 -16q0 -6 5 -14t5 -14q0 -11 -16 -22t-35 -11q-43 0 -43 59 q0 72 116 72h238l-249 -430q102 -6 118 -6q38 0 45 21z" />
<glyph unicode="n&#x7a;" horiz-adv-x="838" d="M360 123q0 -53 36 -53q14 0 31 7q-4 -47 -30.5 -65t-56.5 -18q-39 0 -62.5 29.5t-23.5 82.5q0 44 24 139t24 129q0 55 -44 55q-62 0 -111 -107l-69 -322h-100l106 500h101l-16 -75q59 80 136 80q103 0 103 -112q0 -47 -24 -141t-24 -129zM744 85q-13 5 -13 21 q0 17 15 27.5t34 10.5q20 0 33 -12.5t13 -37.5q0 -34 -39 -64t-94 -30h-252l255 446h-76q-60 0 -60 -16q0 -6 5 -14t5 -14q0 -11 -16 -22t-35 -11q-43 0 -43 59q0 72 116 72h238l-249 -430q102 -6 118 -6q38 0 45 21z" />
<glyph unicode="o&#xe6;" horiz-adv-x="1051" d="M382 368q35 0 67.5 14t58 34t51.5 40.5t60 34.5t71 14q71 0 131 -46q63 46 127 46q104 0 104 -104q0 -82 -65 -131t-183 -58q-3 -33 -3 -47q0 -49 20.5 -72t66.5 -23q108 0 181 109h32q-42 -78 -113 -131.5t-148 -53.5q-101 0 -131 95q-24 -45 -55.5 -70t-86.5 -25 q-53 0 -90 29t-37 101q0 166 223 166q32 0 60 -4q21 49 21 93q0 78 -80 78q-38 0 -73 -18.5t-59 -42t-64 -47t-85 -30.5q-4 -139 -64.5 -232t-162.5 -93q-64 0 -106 39.5t-42 122.5q0 47 13.5 102.5t41 113t79.5 95.5t120 38q60 0 87.5 -32.5t32.5 -104.5zM191 70 q35 0 63 23t44 60.5t25 78t12 84.5q-22 0 -32.5 7.5t-10.5 32.5q0 45 38 52q-10 42 -51 42q-50 0 -88.5 -50.5t-55.5 -112.5t-17 -116q0 -101 73 -101zM954 456q-52 0 -91 -60.5t-54 -144.5q84 9 133 51.5t49 109.5q0 44 -37 44zM692 239q-58 0 -102.5 -27t-44.5 -77 q0 -29 15 -47t40 -18q39 0 69 44.5t40 123.5q-7 1 -17 1z" />
<glyph unicode="os" horiz-adv-x="759" d="M402 122q0 33 19.5 64.5t51.5 31.5q20 0 31.5 -13.5t11.5 -25.5q0 -23 -12.5 -36.5t-28.5 -13.5t-24 14q0 0B21D42A9F" />
<glyph unicode="osx" horiz-adv-x="1091" d="M402 122q0 33 19.5 64.5t51.5 31.5q20 0 31.5 -13.5t11.5 -25.5q0 -23 -12.5 -36.5t-28.5 -13.5t-24 14q0 0E5101AA4C" />
<glyph unicode="os&#x7a;" horiz-adv-x="1105" d="M402 122q0 33 19.5 64.5t51.5 31.5q20 0 31.5 -13.5t11.5 -25.5q0 -23 -12.5 -36.5t-28.5 -13.5t-24 14q0 09A40F1AA3" />
<glyph unicode="ox" horiz-adv-x="839" d="M526 500h114l41 -223q115 120 118 182q-12 -2 -18 -2q-44 0 -44 51q0 49 49 49q60 0 60 -75q0 -53 -35 -100F651D3A0D" />
<glyph unicode="&#xf3;s" horiz-adv-x="759" d="M402 122q0 33 19.5 64.5t51.5 31.5q20 0 31.5 -13.5t11.5 -25.5q0 -23 -12.5 -36.5t-28.5 -13.5t-24 14q0 -74 65 -74q87 0 87 97q0 21 -2.5 45.5t-8 86t-10.5 141.5q-81 -120 -201 -141q-9 -133 -68 -218.5t-149 -85.5q-70 0 -113 38.5t-43 119.5q0 38 7 81t26 92.5 t47.5 88.5t75.5 65t106 26q113 0 113 -162q45 3 103.5 49t91.5 119l105 20q6 -109 12 -188.5t9.5 -114.5t3.5 -61q0 -22 -3 -40q41 27 71 52h42q-49 -54 -128 -99q-22 -44 -61.5 -65t-80.5 -21q-71 0 -108.5 38.5t-37.5 89.5zM202 70q46 0 83 61t47 164q-38 3 -38 42 q0 18 11 34.5t29 22.5q-10 56 -59 56q-47 0 -84.5 -50t-55 -113t-17.5 -117q0 -53 19 -76.5t65 -23.5zM226 561l91 189h85l-121 -189h-55z" />
<glyph unicode="&#xf3;sx" horiz-adv-x="1111" d="M402 122q0 33 19.5 64.5t51.5 31.5q20 0 31.5 -13.5t11.5 -25.5q0 -23 -12.5 -36.5t-28.5 -13.5t-24 14q0 -74 65 -74q87 0 87 97q0 21 -2.5 45.5t-8 86t-10.5 141.5q-81 -120 -201 -141q-9 -133 -68 -218.5t-149 -85.5q-70 0 -113 38.5t-43 119.5q0 38 7 81t26 92.5 t47.5 88.5t75.5 65t106 26q113 0 113 -162q45 3 103.5 49t91.5 119l105 20q6 -109 12 -188.5t9.5 -114.5t3.5 -61q0 -88 -50 -130.5t-110 -42.5q-71 0 -108.5 38.5t-37.5 89.5zM1012 85q-13 5 -13 21q0 17 15 27.5t34 10.5q20 0 33 -12.5t13 -37.5q0 -34 -39 -64t-94 -30 h-252l255 446h-76q-60 0 -60 -16q0 -6 5 -14t5 -14q0 -11 -16 -22t-35 -11q-43 0 -43 59q0 72 116 72h238l-249 -430q102 -6 118 -6q38 0 45 21zM202 70q46 0 83 61t47 164q-38 3 -38 42q0 18 11 34.5t29 22.5q-10 56 -59 56q-47 0 -84.5 -50t-55 -113t-17.5 -117 q0 -53 19 -76.5t65 -23.5zM226 561l91 189h85l-121 -189h-55z" />
<glyph unicode="&#xf3;s&#x7a;" horiz-adv-x="1106" d="M402 122q0 33 19.5 64.5t51.5 31.5q20 0 31.5 -13.5t11.5 -25.5q0 -23 -12.5 -36.5t-28.5 -13.5t-24 14q0 -74 65 -74q87 0 87 97q0 21 -2.5 45.5t-8 86t-10.5 141.5q-81 -120 -201 -141q-9 -133 -68 -218.5t-149 -85.5q-70 0 -113 38.5t-43 119.5q0 38 7 81t26 92.5 t47.5 88.5t75.5 65t106 26q113 0 113 -162q45 3 103.5 49t91.5 119l105 20q6 -109 12 -188.5t9.5 -114.5t3.5 -61q0 -88 -50 -130.5t-110 -42.5q-71 0 -108.5 38.5t-37.5 89.5zM1012 85q-13 5 -13 21q0 17 15 27.5t34 10.5q20 0 33 -12.5t13 -37.5q0 -34 -39 -64t-94 -30 h-252l255 446h-76q-60 0 -60 -16q0 -6 5 -14t5 -14q0 -11 -16 -22t-35 -11q-43 0 -43 59q0 72 116 72h238l-249 -430q102 -6 118 -6q38 0 45 21zM202 70q46 0 83 61t47 164q-38 3 -38 42q0 18 11 34.5t29 22.5q-10 56 -59 56q-47 0 -84.5 -50t-55 -113t-17.5 -117 q0 -53 19 -76.5t65 -23.5zM226 561l91 189h85l-121 -189h-55z" />
<glyph unicode="&#xf3;x" horiz-adv-x="839" d="M526 500h114l41 -223q115 120 118 182q-12 -2 -18 -2q-44 0 -44 51q0 49 49 49q60 0 60 -75q0 -53 -35 -109t-121 -145l9 -49q1 -5 2.5 -15.5t3 -16.5t3.5 -16t4 -16t5 -14t6.5 -13t7.5 -9.5t9.5 -6.5t12.5 -2q49 0 95 109h37q-23 -59 -47.5 -98.5t-48 -57t-41 -23.5 t-36.5 -6q-54 0 -81 41t-46 142q-48 -30 -81.5 -65t-33.5 -67q5 1 13 1q38 0 38 -46q0 -22 -15 -33.5t-37 -11.5q-23 0 -40.5 14.5t-17.5 42.5q0 56 50.5 114.5t115.5 92.5l-34 186q-64 -83 -162 -105q-8 -134 -67 -220t-150 -86q-70 0 -113 38.5t-43 119.5q0 38 7 81 t26 92.5t47.5 88.5t75.5 65t106 26q110 0 113 -156q78 7 152 102zM202 70q46 0 83 61t47 164q-40 0 -40 41q0 46 43 51q-7 63 -60 63q-47 0 -84.5 -50t-55 -113t-17.5 -117q0 -53 19 -76.5t65 -23.5zM286 561l91 189h85l-121 -189h-55z" />
<glyph unicode="rx" horiz-adv-x="719" d="M405 500h114l42 -228q114 128 117 187q-12 -2 -18 -2q-44 0 -44 51q0 49 49 49q60 0 60 -75q0 -52 -34.5 -108.5t-120.5 -151.5l8 -43q1 -5 2.5 -15.5t3 -16.5t3.5 -16t4 -16t5 -14t6.5 -13t7.5 -9.5t9.5 -6.5t12.5 -2q49 0 95 109h37q-23 -59 -47.5 -98.5t-48 -57 t-41 -23.5t-36.5 -6q-54 0 -81 41t-46 140q-120 -71 -120 -129q5 1 13 1q44 0 44 -46q0 -26 -13 -35.5t-38 -9.5q-68 0 -68 57q0 55 53.5 113t121.5 92zM84 500h101l-18 -82q25 28 40.5 42.5t41.5 29.5t52 15q56 0 56 -47q0 -34 -19.5 -49.5t-38.5 -15.5q-11 0 -23 12.5 t-27 12.5q-35 0 -92 -49l-79 -369h-100z" />
<glyph unicode="r&#x7a;" horiz-adv-x="606" d="M512 85q-13 5 -13 21q0 17 15 27.5t34 10.5q20 0 33 -12.5t13 -37.5q0 -34 -39 -64t-94 -30h-252l255 446h-76q-25 0 -34 -1q5 -12 5 -23q0 -21 -14.5 -37t-37.5 -16q-38 0 -43 49q-40 -3 -108 -51l-78 -367h-100l106 500h101l-19 -87q96 87 174 87h258l-249 -430 q102 -6 118 -6q38 0 45 21z" />
<glyph unicode="sx" horiz-adv-x="674" d="M360 500h114l42 -228q114 128 117 187q-12 -2 -18 -2q-44 0 -44 51q0 49 49 49q60 0 60 -75q0 -52 -34.5 -108.5t-120.5 -151.5l8 -43q1 -5 2.5 -15.5t3 -16.5t3.5 -16t4 -16t5 -14t6.5 -13t7.5 -9.5t9.5 -6.5t12.5 -2q49 0 95 109h37q-23 -59 -47.5 -98.5t-48 -57 t-41 -23.5t-36.5 -6q-50 0 -76.5 35t-44.5 118q-70 -63 -182 -108q-46 -45 -112 -45q-71 0 -108.5 38.5t-37.5 89.5q0 33 15.5 57.5t37.5 35.5q67 118 123 296l105 20q6 -109 12 -188.5t9.5 -114.5t3.5 -61q0 -30 -9 -64q90 41 135 83zM186 166q0 25 -7.5 95.5t-13.5 162.5 q-25 -101 -80 -212q14 -11 14 -33q0 -23 -12.5 -36.5t-28.5 -13.5t-24 14q0 -74 65 -74q87 0 87 97z" />
<glyph unicode="s&#x7a;" horiz-adv-x="690" d="M161 511l105 20q6 -109 12 -188.5t9.5 -114.5t3.5 -61q0 -88 -50 -130.5t-110 -42.5q-71 0 -108.5 38.5t-37.5 89.5q0 33 15.5 57.5t37.5 35.5q67 118 123 296zM186 166q0 25 -7.5 95.5t-13.5 162.5q-25 -101 -80 -212q14 -11 14 -33q0 -23 -12.5 -36.5t-28.5 -13.5 t-24 14q0 -74 65 -74q87 0 87 97zM596 85q-13 5 -13 21q0 17 15 27.5t34 10.5q20 0 33 -12.5t13 -37.5q0 -34 -39 -64t-94 -30h-252l255 446h-76q-60 0 -60 -16q0 -6 5 -14t5 -14q0 -11 -16 -22t-35 -11q-43 0 -43 59q0 72 116 72h238l-249 -430q102 -6 118 -6q38 0 45 21z " />
<glyph unicode="tx" horiz-adv-x="571" d="M44 465l7 35h34l29 138l104 14l-33 -152h186l42 -228q114 128 117 187q-12 -2 -18 -2q-44 0 -44 51q0 49 49 49q60 0 60 -75q0 -52 -34.5 -108.5t-120.5 -151.5l8 -43q1 -5 2.5 -15.5t3 -16.5t3.5 -16t4 -16t5 -14t6.5 -13t7.5 -9.5t9.5 -6.5t12.5 -2q49 0 95 109h37 q-23 -59 -47.5 -98.5t-48 -57t-41 -23.5t-36.5 -6q-48 0 -74 32t-44 106q-38 -60 -100 -99t-116 -39q-101 0 -101 109q0 31 9 76l60 286h-33zM159 70q38 0 85.5 33.5t70.5 80.5l-52 281h-85l-65 -305q-4 -16 -4 -33q0 -57 50 -57z" />
<glyph unicode="t&#x7a;" horiz-adv-x="639" d="M545 85q-13 5 -13 21q0 17 15 27.5t34 10.5q20 0 33 -12.5t13 -37.5q0 -34 -39 -64t-94 -30h-252l255 446h-76q-60 0 -60 -16q0 -6 5 -14t5 -14q0 -11 -16 -22t-35 -11q-43 0 -43 59q0 72 116 72h238l-249 -430q102 -6 118 -6q38 0 45 21zM43 465l7 35h34l30 138l104 14 l-33 -152h76l-7 -35h-77l-65 -305q-5 -23 -5 -43q0 -47 36 -47q16 0 32 6q-11 -45 -30.5 -63.5t-48.5 -18.5q-41 0 -64 34.5t-23 89.5q0 32 7 61l61 286h-34z" />
<glyph unicode="uv" horiz-adv-x="852" d="M84 500h101l-73 -340q-4 -16 -4 -33q0 -28 12.5 -42.5t32.5 -14.5q31 0 61 30t40 79l68 321h101l-106 -500h-101l10 50q-47 -56 -106 -56q-46 0 -78 36.5t-32 97.5q0 24 6 51zM833 433q0 -65 -19 -140.5t-51 -142.5t-80 -111.5t-100 -44.5q-58 0 -90.5 30t-32.5 88 q0 24 5 48l61 290l-22 11l9 39h124l-72 -340q-4 -16 -4 -33q0 -57 43 -57q39 0 74 39.5t56 97t33.5 116.5t12.5 102q-9 -8 -35 -8q-14 0 -22 12.5t-8 30.5q0 22 14 40t37 18q32 0 49.5 -22t17.5 -63z" />
<glyph unicode="ux" horiz-adv-x="808" d="M494 500h114l42 -228q114 128 117 187q-12 -2 -18 -2q-44 0 -44 51q0 49 49 49q60 0 60 -75q0 -52 -34.5 -0EDEB8EA70" />
<glyph unicode="yp" horiz-adv-x="878" d="M624 -6q-17 0 -30 2t-33 7.5t-25 6.5l-50 -235l-106 -25l57 269q-60 -1 -120 -16l-17 -83q-21 -101 -51.5 -135.5t-81.5 -34.5q-50 0 -81.5 21.5t-31.5 61.5q0 51 48.5 97t115.5 77l9 44q-47 -57 -107 -57q-46 0 -78 36.5t-32 97.5q0 24 6 51l68 321h101l-73 -340 q-4 -16 -4 -33q0 -28 13 -42.5t33 -14.5q29 0 58 24.5t39 70.5l72 335h100l-97 -456q64 17 121 23l100 470h101l-17 -77q52 45 113 45q120 0 120 -167q0 -53 -12 -108.5t-38 -110.5t-75.5 -90t-114.5 -35zM697 440q-45 0 -80 -48l-70 -329q32 -5 52 -5q46 0 80.5 29.5t52 75 t25.5 88t8 80.5q0 109 -68 109zM129 -198q26 0 42 29t28 87l9 46q-53 -28 -84 -61t-31 -62q0 -17 10 -28t26 -11z" />
<glyph unicode="yx" horiz-adv-x="807" d="M493 500h114l42 -228q114 128 117 187q-12 -2 -18 -2q-44 0 -44 51q0 49 49 49q60 0 60 -75q0 -52 -34.5 -108.5t-120.5 -151.5l8 -43q1 -5 2.5 -15.5t3 -16.5t3.5 -16t4 -16t5 -14t6.5 -13t7.5 -9.5t9.5 -6.5t12.5 -2q49 0 95 109h37q-23 -59 -47.5 -98.5t-48 -57 t-41 -23.5t-36.5 -6q-48 0 -74.5 32.5t-43.5 107.5q-34 -46 -80.5 -77.5t-80.5 -44t-88 -27.5l-13 -65q-21 -101 -51.5 -135.5t-82.5 -34.5q-50 0 -81 21.5t-31 62.5q0 89 159 153l14 62q-48 -55 -106 -55q-46 0 -78 36.5t-32 97.5q0 24 6 51l68 321h101l-73 -340 q-4 -16 -4 -33q0 -29 12.5 -43t32.5 -14q28 0 56 25.5t41 67.5l72 337h100l-102 -480q82 24 138.5 59t92.5 104zM128 -198q27 0 42 29t28 87l6 31q-112 -47 -112 -107q0 -18 10 -29t26 -11z" />
<glyph unicode="y&#x7a;" horiz-adv-x="834" d="M84 500h101l-73 -340q-4 -16 -4 -33q0 -28 12.5 -42.5t32.5 -14.5q30 0 60 28.5t41 80.5l68 321h100l-123 -580q-21 -101 -52 -135.5t-84 -34.5q-49 0 -79.5 22t-30.5 68q0 45 46.5 82.5t113.5 64.5l13 63q-47 -56 -106 -56q-46 0 -78 36.5t-32 97.5q0 24 6 51zM740 85 q-13 5 -13 21q0 17 15 27.5t34 10.5q20 0 33 -12.5t13 -37.5q0 -34 -39 -64t-94 -30h-252l255 446h-76q-60 0 -60 -16q0 -6 5 -14t5 -14q0 -11 -16 -22t-35 -11q-43 0 -43 59q0 72 116 72h238l-249 -430q102 -6 118 -6q38 0 45 21zM129 -198q26 0 41 29t28 87l7 32 q-54 -24 -83.5 -52.5t-29.5 -56.5q0 -17 10 -28t27 -11z" />
<glyph unicode=" "  horiz-adv-x="215" />
<glyph unicode="&#x09;" horiz-adv-x="215" />
<glyph unicode="&#xa0;" horiz-adv-x="215" />
<glyph unicode="!" horiz-adv-x="242" d="M124 231h-53l71 469h112zM6 66q0 27 19.5 47t46.5 20t47 -20t20 -47t-20 -46.5t-47 -19.5q-28 0 -47 19t-19 47z" />
<glyph unicode="&#x22;" horiz-adv-x="335" d="M93 561l61 189h85l-91 -189h-55zM252 561l61 189h85l-91 -189h-55z" />
<glyph unicode="#" horiz-adv-x="525" d="M265 -27l30 168h-143l-37 -168h-27l30 168h-122l14 66h120l22 126h-116l14 66h114l58 319h58l-71 -319h132l58 319h58l-71 -319h122l-13 -66h-123l-28 -126h124l-13 -66h-126l-37 -168h-27zM195 333l-28 -126h140l22 126h-134z" />
<glyph unicode="$" horiz-adv-x="384" d="M114 -27l24 135q-54 5 -85.5 33t-31.5 79q0 39 18.5 62.5t44.5 23.5q23 0 42 -23q-20 -3 -30 -23.5t-10 -40914C00A08" />
<glyph unicode="%" horiz-adv-x="615" d="M542 750l-386 -750h-60l386 750h60zM228 702q82 0 82 -110q0 -50 -16.5 -98t-54 -84t-89.5 -36q-82 0 -82 075BE14A90" />
<glyph unicode="&#x26;" horiz-adv-x="646" d="M653 413h6q0 -39 -48 -77.5t-109 -43.5q-25 -132 -109 -221t-201 -89q-91 0 -137.5 50t-46.5 126q0 80 50 152t135 107q-61 44 -61 120q0 81 63.5 148t155.5 67q62 0 102.5 -33t40.5 -92q0 -44 -22 -74t-52 -30q-27 0 -47 27q22 8 40 32t18 60q0 72 -67 72 q-51 0 -94.5 -46.5t-43.5 -125.5q0 -108 80 -124q-85 -18 -133 -84t-48 -148q0 -125 126 -125q92 0 146 64.5t76 166.5q-9 1 -24 2.5t-27 2.5t-22 1q-66 0 -94 -45l-7 1q15 54 63 87.5t120 33.5q14 0 39 -2.5t37 -2.5q71 0 95 43z" />
<glyph unicode="'" horiz-adv-x="176" d="M93 561l61 189h85l-91 -189h-55z" />
<glyph unicode="(" horiz-adv-x="272" d="M338 750l6 -27q-75 -36 -138 -142t-98 -241.5t-35 -263.5q0 -200 80 -302l-28 -24q-113 125 -113 350q0 131 39.5 262t115 236.5t171.5 151.5z" />
<glyph unicode=")" horiz-adv-x="272" d="M-95 -250l-6 27q75 36 138 142t98 241.5t35 263.5q0 200 -80 302l28 24q113 -125 113 -350q0 -131 -39.5 -262t-115 -236.5t-171.5 -151.5z" />
<glyph unicode="*" horiz-adv-x="408" d="M229 752h52v-146l116 67l24 -40l-120 -69l120 -69l-24 -40l-116 67v-146h-52v146l-116 -67l-24 40l119 69l-119 69l24 40l116 -67v146z" />
<glyph unicode="+" horiz-adv-x="429" d="M398 317l-15 -70h-143l-31 -143h-83l31 143h-142l16 70h141l27 122h83l-27 -122h143z" />
<glyph unicode="," horiz-adv-x="212" d="M-12 61q0 31 19.5 49t46.5 18q63 0 63 -60q0 -50 -40 -111.5t-86 -82.5q-9 6 -9 17q0 16 20 47.5t20 46.5q0 16 -17 31.5t-17 44.5z" />
<glyph unicode="-" horiz-adv-x="321" d="M257 301l-15 -70h-201l16 70h200z" />
<glyph unicode="." horiz-adv-x="213" d="M-12 61q0 27 19.5 47t46.5 20t47 -20t20 -47t-20 -46.5t-47 -19.5q-28 0 -47 19t-19 47z" />
<glyph unicode="../../default.htm" horiz-adv-x="195" d="M214 750l-212 -1000h-50l212 1000h50z" />
<glyph unicode="0" horiz-adv-x="588" d="M383 750q179 0 179 -249q0 -66 -11.5 -133.5t-37.5 -135.5t-63.5 -120.5t-95 -85t-125.5 -32.5q-101 0 -1403E85E9AC8" />
<glyph unicode="1" horiz-adv-x="309" d="M322 748l-159 -748h-108l130 618h-111l14 52q108 0 234 78z" />
<glyph unicode="2" horiz-adv-x="521" d="M123 96q27 0 90.5 -9t97.5 -9q52 0 79.5 15.5t58.5 53.5q1 -17 1 -44q0 -61 -25 -87.5t-98 -26.5q-50 0 -122 18t-122 18q-10 0 -24.5 -5t-31.5 -13t-23 -10q-2 11 -2 33q0 49 26.5 99t66.5 90.5t86.5 86.5t86.5 87.5t66.5 94.5t26.5 106q0 54 -25 80t-65 26 q-34 0 -62 -23t-28 -64q0 -55 38 -67q-28 -34 -59 -34q-28 0 -48.5 22.5t-20.5 63.5q0 62 47.5 106.5t146.5 44.5q190 0 190 -161q0 -58 -25.5 -111t-64.5 -91.5t-86.5 -78t-89.5 -71t-76.5 -70t-45.5 -74.5q15 4 36 4z" />
<glyph unicode="3" horiz-adv-x="535" d="M185 257q-88 -5 -88 -98q0 -95 99 -95q79 0 122.5 56t43.5 128q0 66 -41 114t-122 56q94 22 147.5 76.5t53.5 111.5q0 40 -24.5 66.5t-66.5 26.5q-47 0 -75 -24.5t-28 -58.5q0 -41 39 -70q-34 -31 -67 -31q-27 0 -44 21.5t-17 58.5q0 72 61 113t142 41q74 0 126 -38 t52 -108q0 -56 -37 -107t-100 -79q64 -28 95 -75.5t31 -104.5q0 -91 -82.5 -167t-198.5 -76q-29 0 -57.5 6t-63.5 21.5t-57 52t-22 89.5q0 64 31 103t81 39q58 0 67 -48z" />
<glyph unicode="4" horiz-adv-x="483" d="M362 735l111 15l-86 -401h84l-15 -59h-81l-62 -290h-108l62 290h-258q13 40 55 107.5t73 135t31 131.5q0 29 -12 84q40 0 65.5 -25t25.5 -81q0 -41 -18.5 -83.5t-41.5 -72.5t-52 -69t-43 -68h187z" />
<glyph unicode="5" horiz-adv-x="511" d="M483 749q2 -22 2 -33q0 -100 -112 -100q-31 0 -95.5 12t-71.5 13l-45 -207q65 31 125 31q87 0 132.5 -56t45.5 -141q0 -114 -73 -194t-215 -80q-69 0 -117.5 34t-48.5 114q0 61 31 100t73 39q52 0 64 -51q-38 -2 -60 -24t-22 -59q0 -44 26 -66.5t67 -22.5q76 0 118.5 59 t42.5 135q0 65 -38.5 102t-103.5 37q-62 0 -129 -44l82 385q107 -16 160 -16q85 0 162 33z" />
<glyph unicode="6" horiz-adv-x="541" d="M254 292q-50 0 -50 44q0 43 38 80t102 37q73 0 111.5 -49.5t38.5 -121.5q0 -112 -75 -200t-192 -88q-105 0 -145.5 54t-40.5 161q0 134 41 255.5t124.5 203.5t191.5 82q63 0 97.5 -24.5t34.5 -57.5q0 -26 -17 -49t-48 -23q-6 0 -24 4q18 16 18 42q0 27 -17 44.5t-42 17.5 q-67 0 -127 -77t-93 -187t-33 -213q0 -84 27.5 -120.5t85.5 -36.5q69 0 111.5 68.5t42.5 137.5q0 50 -23.5 80t-58.5 30q-37 0 -59 -18t-22 -51q0 -11 3 -25z" />
<glyph unicode="7" horiz-adv-x="497" d="M578 732q0 -20 -33 -67.5t-80 -109t-94.5 -131.5t-80.5 -152t-33 -153q0 -43 17 -112q-33 -16 -63 -16q-82 0 -82 134q0 55 33 120.5t79.5 123t93 110t79.5 97.5t33 70q-93 19 -181 19q-115 0 -121 -77q-27 1 -44.5 23.5t-17.5 57.5q0 46 31 63t87 17q43 0 146 -12.5 t149 -12.5q43 0 82 8z" />
<glyph unicode="8" horiz-adv-x="526" d="M221 66q57 0 99 53t42 115q0 79 -93 146q-65 -21 -106 -77t-41 -116q0 -47 25.5 -84t73.5 -37zM216 -6q-900332FD6A0C" />
<glyph unicode="9" horiz-adv-x="547" d="M325 444q24 -14 24 -48q0 -39 -40.5 -65t-93.5 -26q-72 0 -108 51.5t-36 127.5q0 112 72.5 189t190.5 77q1092B51EAE0" />
<glyph unicode=":" horiz-adv-x="254" d="M73 386q0 27 19.5 47t46.5 20t47 -20t20 -47t-20 -46.5t-47 -19.5q-28 0 -47 19t-19 47zM25 145q0 27 19.5 47t46.5 20t47 -20t20 -47t-20 -46.5t-47 -19.5q-28 0 -47 19t-19 47z" />
<glyph unicode=";" horiz-adv-x="249" d="M22 144q0 31 19.5 49t46.5 18t47 -18t20 -49t-39.5 -92.5t-90.5 -94.5q-9 6 -9 17q0 16 20 47.5t20 46.5q0 16 -17 31.5t-17 44.5zM70 386q0 27 19.5 47t46.5 20t47 -20t20 -47t-20 -46.5t-47 -19.5q-28 0 -47 19t-19 47z" />
<glyph unicode="&#x3c;" horiz-adv-x="358" d="M323 429l-10 -55l-241 -120l194 -96l-12 -57l-247 137l9 41z" />
<glyph unicode="=" horiz-adv-x="472" d="M421 396l-16 -80h-341l17 80h340zM384 213l-16 -80h-341l17 80h340z" />
<glyph unicode="&#x3e;" horiz-adv-x="362" d="M71 374l9 55l246 -150l-11 -54l-304 -124l14 57l240 96z" />
<glyph unicode="?" horiz-adv-x="418" d="M443 579q0 -48 -22 -87.5t-55 -68t-67.5 -55t-64.5 -61.5t-41 -75h-46q0 39 21 74t50.5 63.5t59 57.5t50.5 67.5t21 82.5q0 40 -24 59.5t-61 19.5q-42 0 -76 -26.5t-34 -66.5q0 -21 17 -41t51 -25q-26 -42 -73 -42q-31 0 -53.5 22t-22.5 62q0 60 53.5 110.5t156.5 50.5 q79 0 119.5 -34t40.5 -87zM80 66q0 27 19.5 47t46.5 20t47 -20t20 -47t-20 -46.5t-47 -19.5q-28 0 -47 19t-19 47z" />
<glyph unicode="@" horiz-adv-x="549" d="M220 -38q-38 0 -72 10.5t-65 32.5t-49 63t-18 96q0 163 100.5 278t240.5 115q27 0 51 -5.5t50 -20.5t41.5 -48.5t15.5 -82.5q0 -100 -51.5 -182t-122.5 -82q-34 0 -49 25q-25 -41 -65 -41q-28 0 -45.5 22.5t-17.5 65.5q0 71 42 147.5t93 76.5q26 0 39 -17l4 15l55 -6 l-45 -192q-7 -28 -7 -36q0 -20 15 -20q38 0 72.5 73.5t34.5 141.5q0 53 -26.5 88t-86.5 35q-73 0 -134 -53.5t-92.5 -128.5t-31.5 -148q0 -151 153 -151q52 0 93.5 22.5t58.5 58.5q23 -10 23 -43q0 -48 -56 -78.5t-148 -30.5zM284 197q0 10 3 19l43 168q-9 15 -21 15 q-36 0 -64.5 -64t-28.5 -111q0 -19 7 -35.5t23 -16.5q22 0 38 25z" />
<glyph unicode="A" horiz-adv-x="603" d="M487 0h-109l76 359q-69 38 -179 50q-60 -119 -97.5 -243.5t-37.5 -211.5q0 -40 9 -68q-113 0 -113 106q0 70 43 186.5t112 234.5q-62 -2 -104 -19t-42 -43q20 -7 20 -25q0 -40 -49 -40q-55 0 -55 52q0 53 61 84.5t152 31.5q13 0 41 -2q83 132 175 215t177 83q43 0 77 -14 zM292 442q102 -17 168 -52l66 311q-50 -2 -112.5 -74t-121.5 -185z" />
<glyph unicode="B" horiz-adv-x="679" d="M139 461q0 -26 14 -68q-97 0 -97 92q0 103 110.5 184t252.5 81q104 0 158.5 -46t54.5 -113q0 -46 -27 -89.08D3B43A60" />
<glyph unicode="C" horiz-adv-x="506" d="M526 180l23 -10q-39 -88 -121 -137t-177 -49q-206 0 -206 245q0 59 10.5 124t37 137t65 129t101 94t139.5 03A5BD6AA6" />
<glyph unicode="D" horiz-adv-x="704" d="M309 641l112 15l-124 -578q32 -26 65 -26q53 0 96 44t69 113t39.5 145.5t13.5 147.5q0 115 -43 163.5t-134 48.5q-109 0 -191.5 -68.5t-82.5 -181.5q0 -43 34 -71q-107 0 -107 93q0 103 110.5 183.5t257.5 80.5q95 0 157.5 -40t88 -103.5t25.5 -150.5q0 -108 -41 -217.5 t-106.5 -180.5t-131.5 -71q-61 0 -126 58l-9 -45h-110z" />
<glyph unicode="E" horiz-adv-x="447" d="M466 180l23 -10q-38 -86 -119.5 -137t-173.5 -51q-91 0 -137.5 50t-46.5 126q0 80 50 152t135 107q-61 44 0236691AF8" />
<glyph unicode="F" horiz-adv-x="554" d="M548 646q-43 0 -129 18l-49 -229h149l-14 -59h-148l-80 -376h-110l147 682q-7 1 -20 1q-159 0 -159 -213q007BB426A71" />
<glyph unicode="G" horiz-adv-x="591" d="M480 419l97 -1l-82 -376q-26 -122 -83 -185.5t-157 -63.5q-82 0 -118.5 39t-36.5 98q0 58 33 98t101 40q86 0 86 -67q0 -17 -6 -40q-28 37 -69 37q-31 0 -54 -23.5t-23 -60.5q0 -36 23 -59t58 -23q39 0 72 31.5t49 102.5l51 233q-68 -90 -173 -90q-90 0 -144 66t-54 182 q0 103 43 192t126 145t190 56q80 0 134 -33t54 -105q0 -39 -17 -63.5t-53 -24.5q-47 0 -69 26q6 0 18 6t26 27.5t14 52.5q0 78 -80 78q-108 0 -187 -112t-79 -248q0 -80 30.5 -127.5t87.5 -47.5q126 0 192 240z" />
<glyph unicode="H" horiz-adv-x="697" d="M624 717l116 31l-159 -748h-110l80 376h-215l-80 -376h-110l149 698q-73 -25 -117 -88t-44 -148q0 -56 24 -69q-100 0 -100 92q0 103 100 184t216 81q15 0 41 -2l-67 -313h215z" />
<glyph unicode="I" horiz-adv-x="404" d="M447 748l-159 -748h-110l147 692q-85 -22 -135.5 -80t-50.5 -143q0 -50 24 -76q-107 0 -107 92q0 68 53 130t134 98.5t163 36.5q15 0 41 -2z" />
<glyph unicode="J" horiz-adv-x="440" d="M443 750h40l-150 -710q-52 -247 -250 -247q-81 0 -118 37t-37 98t34.5 100.5t104.5 39.5q78 0 78 -67q0 -60095982AC3" />
<glyph unicode="K" horiz-adv-x="647" d="M447 748l-69 -323l248 320h88l-292 -321q34 2 43 2q130 0 130 -108q0 -43 -24.5 -132.5t-24.5 -117.5q0 -53 39 -68q-59 -17 -89 -17q-35 0 -53 19.5t-18 45.5q0 35 29 128.5t29 130.5q0 81 -73 81q-18 0 -41 -5l-81 -383h-110l148 692q-88 -22 -140.5 -80t-52.5 -143 q0 -53 21 -76q-98 0 -98 92q0 68 53 130t134 98.5t163 36.5q15 0 41 -2z" />
<glyph unicode="L" horiz-adv-x="448" d="M445 738l-154 -719q35 -9 88 -39.5t106 -54.5t103 -24q46 0 83 16q-17 -133 -111 -133q-35 0 -81 30.5t-85.5 66.5t-94 66.5t-102.5 30.5q-15 0 -23 -1l150 705q-86 -22 -136.5 -80t-50.5 -143q0 -50 24 -76q-107 0 -107 92q0 68 53 130t134 98.5t163 36.5q15 0 41 -2z " />
<glyph unicode="M" horiz-adv-x="750" d="M423 736l-26 -581l243 581h114l-105 -736h-114l74 522l-218 -522h-107l23 512l-190 -512h-60l259 700q-83 -18 -128.5 -80.5t-45.5 -157.5q0 -51 14 -69q-97 0 -97 90q0 65 51.5 128.5t122.5 101t131 37.5q37 0 59 -14z" />
<glyph unicode="N" horiz-adv-x="712" d="M682 748h77l-170 -748h-128l-126 539l-124 -539h-75l157 691q-75 -22 -117.5 -77.5t-42.5 -144.5q0 -45 24 -76q-49 0 -73 22.5t-24 74.5q0 94 84.5 177t194.5 83q38 0 67 -14l137 -622z" />
<glyph unicode="O" horiz-adv-x="697" d="M469 656q-76 -40 -139.5 -192t-63.5 -273t88 -121q53 0 106.5 70t87 180t33.5 219q0 95 -33.5 135t-119.5 40q-117 0 -205 -74t-88 -192q0 -42 10 -55q-91 0 -91 84q0 68 56.5 132t149.5 102.5t192 38.5q242 0 242 -253q0 -61 -13 -127.5t-42 -134t-70.5 -121t-104 -87 t-136.5 -33.5q-182 0 -182 201q0 64 17.5 142t49.5 152.5t86.5 124.5t118.5 50q27 0 51 -8z" />
<glyph unicode="P" horiz-adv-x="601" d="M299 641l112 15l-73 -340q68 1 118.5 42t73 97t22.5 117q0 142 -161 142q-108 0 -183.5 -67.5t-75.5 -183.5q0 -45 21 -70q-97 0 -97 92q0 104 111.5 184.5t246.5 80.5q110 0 169.5 -57.5t59.5 -140.5q0 -101 -80.5 -184t-208.5 -83h-22l-61 -285h-110z" />
<glyph unicode="Q" horiz-adv-x="713" d="M469 656q-76 -40 -139.5 -191.5t-63.5 -270.5q0 -36 5 -56q41 12 77 12q51 0 90 -34q61 62 102 180.5t41 240.5q0 96 -33 136.5t-116 40.5q-122 0 -209.5 -73.5t-87.5 -200.5q0 -36 10 -47q-91 0 -91 83q0 69 57 133t148.5 102.5t188.5 38.5q128 0 186 -68.5t58 -183.5 q0 -119 -52.5 -248.5t-146.5 -198.5q29 -39 58.5 -59.5t74.5 -20.5q8 0 24 2q-29 -64 -90 -64q-51 0 -77.5 27.5t-48.5 79.5q-53 -22 -110 -22q-83 0 -130.5 48.5t-47.5 152.5q0 64 17.5 142t49.5 152.5t86.5 124.5t118.5 50q27 0 51 -8zM333 120q-25 0 -51 -11 q20 -39 63 -39q27 0 53 15q-25 35 -65 35z" />
<glyph unicode="R" horiz-adv-x="655" d="M299 641l112 15l-50 -233h26q67 0 114.5 57t47.5 122q0 112 -146 112q-111 0 -187.5 -69t-76.5 -184q0 -50 12 -68q-40 0 -67.5 22.5t-27.5 69.5q0 103 110.5 184t249.5 81q102 0 160 -46.5t58 -114.5q0 -48 -30.5 -94.5t-84.5 -74.5q76 -17 76 -102q0 -43 -24.5 -132.5 t-24.5 -117.5q0 -53 39 -68q-59 -17 -89 -17q-35 0 -53 19.5t-18 45.5q0 35 29 128.5t29 130.5q0 81 -73 81q-28 0 -58 -7l-81 -381h-110z" />
<glyph unicode="S" horiz-adv-x="496" d="M506 632q0 -45 -23 -74t-56 -29q-23 0 -39 21q20 12 33 36.5t13 51.5q0 33 -19.5 54.5t-63.5 21.5q-56 0 -0192B5EA67" />
<glyph unicode="T" horiz-adv-x="671" d="M647 630q-40 0 -159 23l-139 -653h-110l144 670q-26 2 -39 2q-107 0 -159 -43.5t-52 -152.5q0 -55 20 -84q-91 0 -91 103q0 50 19 93.5t58.5 80.5t108.5 58.5t160 21.5q56 0 131 -11.5t114 -11.5q70 0 122 21q-3 -117 -128 -117z" />
<glyph unicode="U" horiz-adv-x="770" d="M708 748h108l-66 -312q-21 -100 -39.5 -164t-45.5 -122t-61.5 -89.5t-84 -49.5t-116.5 -18q-105 0 -149 400FA7189A4B" />
<glyph unicode="V" horiz-adv-x="660" d="M410 746l17 -666l255 665h57l-301 -745h-111l-27 693q-87 0 -131 -62t-44 -146q0 -52 21 -91q-87 0 -87 91q0 109 86.5 187t222.5 78q16 0 42 -4z" />
<glyph unicode="W" horiz-adv-x="1006" d="M410 746l17 -666l255 665h74l17 -665l255 665h57l-301 -745h-111l-19 534l-216 -534h-111l-27 693q-87 0 -131 -62t-44 -146q0 -52 21 -91q-87 0 -87 91q0 109 86.5 187t222.5 78q16 0 42 -4z" />
<glyph unicode="X" horiz-adv-x="633" d="M582 0h-108l-77 306l-160 -306h-47l192 365l-87 349q-70 -18 -118.5 -87t-48.5 -151q0 -52 16 -73q-42 0 -63 17.5t-21 64.5q0 114 91.5 190t207.5 76q21 0 41 -3l83 -341l163 338h47l-196 -397z" />
<glyph unicode="Y" horiz-adv-x="614" d="M440 0h-109l66 308l-104 406q-84 -22 -127.5 -87t-43.5 -139q0 -58 24 -95q-87 0 -87 92q0 107 88 186t211 79q15 0 41 -2l94 -389l161 386h46l-194 -437z" />
<glyph unicode="Z" horiz-adv-x="528" d="M400 71q-17 13 -17 33q0 22 16.5 35.5t39.5 13.5q21 0 37.5 -13t16.5 -35q0 -39 -37.5 -72t-90.5 -33h-361l354 705q-75 5 -93 5q-83 0 -89 -20q16 -13 16 -33q0 -19 -15 -34.5t-38 -15.5q-22 0 -38.5 16.5t-16.5 44.5q0 32 36 57t90 25h291l-351 -697q13 0 58.5 -1.5 t72.5 -1.5q105 0 119 21z" />
<glyph unicode="[" horiz-adv-x="287" d="M158 -188l-13 -62h-193l212 1000h193l-13 -62h-121l-186 -876h121z" />
<glyph unicode="\" horiz-adv-x="504" d="M318 -250l-212 1000h50l212 -1000h-50z" />
<glyph unicode="]" horiz-adv-x="286" d="M99 688l13 62h193l-212 -1000h-193l13 62h121l186 876h-121z" />
<glyph unicode="^" horiz-adv-x="421" d="M338 561h-22l-65 101l-162 -101h-34l201 167h21z" />
<glyph unicode="_" horiz-adv-x="441" d="M344 70l-15 -70h-351l16 70h350z" />
<glyph unicode="`" horiz-adv-x="201" d="M116 750l31 -189h-55l-61 189h85z" />
<glyph unicode="a" d="M353 500h101l-73 -340q-5 -20 -5 -45q0 -45 31 -45q49 0 95 109h37q-23 -59 -47.5 -98.5t-48 -57t-41 -23.5t-37.5 -6q-73 0 -80 98q-24 -43 -65 -70.5t-87 -27.5q-54 0 -91 39.5t-37 121.5q0 53 17 112t47.5 113t81 89.5t110.5 35.5q69 0 82 -53zM175 70q33 0 67 32.5 t43 76.5l48 227q-3 18 -16 31t-34 13q-51 0 -92 -50.5t-60 -113.5t-19 -117q0 -99 63 -99z" />
<glyph unicode="b" horiz-adv-x="418" d="M17 179l109 507l102 14l-51 -237q45 39 94 39q59 0 96.5 -34t37.5 -129q0 -79 -34 -157.5t-99.5 -133t-14404EA57FA3B" />
<glyph unicode="c" horiz-adv-x="364" d="M286 347q12 8 21 28t9 37q0 18 -11.5 29t-33.5 11q-44 0 -81 -48t-55 -112t-18 -123q0 -53 20 -76t68 -23q111 0 176 109h34q-42 -79 -112.5 -132t-146.5 -53q-64 0 -106 39.5t-42 121.5q0 47 14 103t42.5 113.5t81.5 95.5t121 38q105 0 105 -95q0 -36 -14 -60t-39 -24 q-22 0 -33 21z" />
<glyph unicode="d" d="M393 686l104 14l-116 -540q-5 -20 -5 -45q0 -45 31 -45q49 0 95 109h37q-23 -59 -47.5 -98.5t-48 -57t-41 -23.5t-37.5 -6q-73 0 -80 98q-24 -43 -65 -70.5t-87 -27.5q-54 0 -91 39.5t-37 121.5q0 53 17 112t47.5 113t81 89.5t110.5 35.5q69 0 82 -54zM175 70 q33 0 67 32.5t43 76.5l48 227q-3 18 -15.5 31t-34.5 13q-51 0 -92 -50.5t-60 -113.5t-19 -117q0 -99 63 -99z" />
<glyph unicode="e" horiz-adv-x="368" d="M368 402q0 -84 -66.5 -137t-183.5 -65q-1 -11 -1 -31q0 -52 20 -75.5t67 -23.5q108 0 181 109h32q-42 -78 -113 -131.5t-148 -53.5q-63 0 -105.5 39.5t-42.5 120.5q0 36 8.5 80t28 92.5t47.5 87.5t72.5 65t96.5 26q107 0 107 -103zM270 456q-52 0 -92 -65.5t-55 -151.5 q84 13 134 59.5t50 113.5q0 44 -37 44z" />
<glyph unicode="f" horiz-adv-x="239" d="M195 548l-10 -48h80l-7 -35h-81l-115 -545q-21 -101 -52 -135.5t-84 -34.5q-49 0 -79.5 22t-30.5 68q0 82 160 147l122 574q8 36 18 63.5t30 59t54 48.5t80 17q55 0 85 -32.5t30 -82.5q0 -18 -3 -34h-40q3 10 3 24q0 26 -13 44t-38 18q-49 0 -71.5 -33t-37.5 -105z M-108 -198q26 0 41 29t28 87l7 32q-54 -24 -83.5 -53t-29.5 -56q0 -17 10 -28t27 -11z" />
<glyph unicode="g" d="M353 500h100l-102 -480q58 18 92.5 52.5t58.5 106.5h37q-33 -98 -76.5 -137.5t-119.5 -57.5l-13 -64q-21 -101 -52 -135.5t-84 -34.5q-49 0 -79.5 22t-30.5 68q0 45 46.5 82.5t113.5 64.5l19 92q-58 -63 -130 -63q-54 0 -91 39.5t-37 121.5q0 49 17 104.5t47.5 106t81 84 t110.5 33.5q69 0 82 -53zM175 92q30 0 64.5 28t46.5 68l47 219q-3 18 -16 30.5t-34 12.5q-51 0 -92 -46.5t-60 -104.5t-19 -108q0 -99 63 -99zM160 -198q26 0 41 29t28 87l7 32q-54 -24 -83.5 -52.5t-29.5 -56.5q0 -17 10 -28t27 -11z" />
<glyph unicode="h" horiz-adv-x="467" d="M360 119q0 -49 30 -49q47 0 94 109h37q-23 -60 -47.5 -99.5t-47.5 -56.5t-40 -23t-36 -6q-49 0 -72.5 31t-23.5 82q0 46 24 140t24 127q0 55 -44 55q-64 0 -111 -107l-69 -322h-100l147 686l103 14l-59 -275q59 80 136 80q103 0 103 -113q0 -46 -24 -140t-24 -133z" />
<glyph unicode="i" horiz-adv-x="217" d="M93 644q0 27 19.5 47t46.5 20t47 -20t20 -47t-20 -46.5t-47 -19.5q-28 0 -47 19t-19 47zM85 500h101l-73 -340q-5 -20 -5 -45q0 -45 31 -45q49 0 95 109h37q-23 -59 -47.5 -98.5t-48 -57t-41 -23.5t-37.5 -6q-89 0 -89 111q0 31 9 74z" />
<glyph unicode="j" horiz-adv-x="217" d="M85 500h100l-102 -480q58 18 92.5 52.5t58.5 106.5h37q-33 -98 -76.5 -137.5t-119.5 -57.5l-13 -64q-21 -101 -52 -135.5t-84 -34.5q-49 0 -79.5 22t-30.5 68q0 82 160 147zM93 644q0 27 19.5 47t46.5 20t47 -20t20 -47t-20 -46.5t-47 -19.5q-28 0 -47 19t-19 47z M-108 -198q26 0 41 29t28 87l7 32q-54 -24 -83.5 -53t-29.5 -56q0 -17 10 -28t27 -11z" />
<glyph unicode="k" horiz-adv-x="457" d="M125 686l103 14l-78 -362l206 162h97l-197 -136q2 0 7 0.5t8 0.5q101 0 101 -113q0 -25 -11 -70t-11 -63q0 -49 30 -49q47 0 94 109h37q-23 -60 -47.5 -99.5t-47.5 -56.5t-40 -23t-36 -6q-49 0 -72.5 31t-23.5 82q0 23 11 68t11 59q0 55 -42 55q-57 0 -101 -77l-45 -212 h-100z" />
<glyph unicode="l" horiz-adv-x="216" d="M125 686l104 14l-117 -540q-5 -20 -5 -45q0 -45 31 -45q49 0 95 109h37q-23 -59 -47.5 -98.5t-48 -57t-41 -23.5t-37.5 -6q-89 0 -89 111q0 31 9 74z" />
<glyph unicode="m" horiz-adv-x="693" d="M586 119q0 -49 30 -49q47 0 94 109h37q-23 -60 -47.5 -99.5t-47.5 -56.5t-40 -23t-36 -6q-49 0 -72.5 31t-23.5 82q0 46 24 140t24 127q0 55 -44 55q-31 0 -53.5 -25t-47.5 -82l-69 -322h-101l71 334q5 23 5 45q0 50 -41 50q-30 0 -53 -25.5t-48 -81.5l-69 -322h-100 l106 500h101l-14 -64q53 69 124 69q89 0 101 -84q56 84 135 84q103 0 103 -113q0 -46 -24 -140t-24 -133z" />
<glyph unicode="n" horiz-adv-x="467" d="M84 500h101l-16 -75q59 80 136 80q103 0 103 -113q0 -46 -24 -140t-24 -133q0 -49 30 -49q47 0 94 109h37q-23 -60 -47.5 -99.5t-47.5 -56.5t-40 -23t-36 -6q-49 0 -72.5 31t-23.5 82q0 46 24 140t24 127q0 55 -44 55q-62 0 -111 -107l-69 -322h-100z" />
<glyph unicode="o" horiz-adv-x="419" d="M270 505q111 0 113 -158q89 0 164 60l9 -27q-58 -67 -175 -82q-9 -133 -68 -218.5t-149 -85.5q-70 0 -113 0AB604DA84" />
<glyph unicode="p" horiz-adv-x="423" d="M92 537h101l-17 -77q52 45 113 45q120 0 120 -167q0 -42 -7 -85.5t-24.5 -91t-44 -84t-69.5 -60t-96 -23.5053DDE7AFD" />
<glyph unicode="q" horiz-adv-x="445" d="M352 500h101l-154 -725l-106 -25l64 303q-54 -59 -124 -59q-54 0 -91 39.5t-37 121.5q0 53 17 112t47.5 113t81 89.5t110.5 35.5q67 0 81 -51zM175 70q29 0 60.5 27t44.5 66l52 246q-3 17 -16 29t-33 12q-51 0 -92 -50.5t-60 -113.5t-19 -117q0 -99 63 -99z" />
<glyph unicode="r" horiz-adv-x="336" d="M84 500h101l-18 -82q25 28 40.5 42.5t41.5 29.5t52 15q56 0 56 -47q0 -34 -19.5 -49.5t-38.5 -15.5q-11 0 -23 12.5t-27 12.5q-35 0 -92 -49l-79 -369h-100z" />
<glyph unicode="s" horiz-adv-x="342" d="M359 179h42q-53 -58 -132 -106q-22 -40 -60.5 -59.5t-77.5 -19.5q-71 0 -108.5 38.5t-37.5 89.5q0 33 15.5 57.5t37.5 35.5q67 118 123 296l105 20q6 -109 12 -188.5t9.5 -114.5t3.5 -61q0 -14 -2 -34q34 19 70 46zM186 166q0 25 -7.5 95.5t-13.5 162.5 q-25 -101 -80 -212q14 -11 14 -33q0 -23 -12.5 -36.5t-28.5 -13.5t-24 14q0 -74 65 -74q87 0 87 97z" />
<glyph unicode="t" horiz-adv-x="236" d="M44 465l7 35h33l30 138l104 14l-33 -152h77l-7 -35h-78l-65 -305q-7 -38 -7 -43q0 -47 38 -47q27 0 56 29t54 80h37q-87 -185 -189 -185q-94 0 -94 112q0 28 9 73l61 286h-33z" />
<glyph unicode="u" horiz-adv-x="454" d="M322 500h101l-73 -340q-5 -20 -5 -45q0 -45 31 -45q49 0 95 109h37q-23 -59 -47.5 -98.5t-48 -57t-41 -23.5t-37.5 -6q-73 0 -80 96q-27 -48 -62.5 -72t-71.5 -24q-46 0 -78 36.5t-32 97.5q0 24 6 51l68 321h101l-73 -340q-4 -16 -4 -33q0 -28 12.5 -42.5t32.5 -14.5 q31 0 61 30t40 79z" />
<glyph unicode="v" horiz-adv-x="399" d="M380 433q0 -65 -19 -140.5t-51 -142.5t-80 -111.5t-100 -44.5q-58 0 -90.5 30t-32.5 88q0 24 5 48l72 340h100l-72 -340q-4 -16 -4 -33q0 -57 43 -57q39 0 74 39.5t56 97t33.5 116.5t12.5 102q-9 -8 -35 -8q-14 0 -22 12.5t-8 30.5q0 22 14 40t37 18q32 0 49.5 -22 t17.5 -63z" />
<glyph unicode="w" horiz-adv-x="623" d="M84 500h101l-73 -340q-4 -16 -4 -33q0 -28 12.5 -42.5t32.5 -14.5q31 0 61 30t40 79l68 321h100l-72 -340q-4 -16 -4 -33q0 -57 43 -57q52 0 92.5 69t58 148t17.5 138q-9 -8 -35 -8q-14 0 -22 12.5t-8 30.5q0 22 14 40t37 18q63 0 63 -85q0 -91 -30 -191t-86.5 -174 t-121.5 -74q-104 0 -120 85q-55 -85 -128 -85q-46 0 -78 36.5t-32 97.5q0 24 6 51z" />
<glyph unicode="x" horiz-adv-x="498" d="M327 386l16 -110q111 125 114 183q-12 -2 -17 -2q-45 0 -45 56q0 44 53 44q56 0 56 -77q0 -51 -34 -107t-119 -149l7 -46q8 -55 20.5 -81.5t36.5 -26.5q28 0 58.5 33.5t42.5 72.5h30q-15 -55 -38 -93.5t-49.5 -56.5t-49.5 -25t-47 -7q-80 0 -107 179l-142 -173h-68 l202 223l-16 117q-13 90 -38 90q-57 0 -141 -253h-37q10 25 29 74.5t30 77.5t31 66.5t38.5 59t46 35.5t59.5 15q60 0 78 -119z" />
<glyph unicode="y" horiz-adv-x="454" d="M84 500h101l-73 -340q-4 -16 -4 -33q0 -28 12.5 -42.5t32.5 -14.5q31 0 61 30t40 79l68 321h100l-102 -480q58 18 92.5 52.5t58.5 106.5h37q-33 -98 -76.5 -137.5t-119.5 -57.5l-13 -64q-21 -101 -52 -135.5t-84 -34.5q-49 0 -79.5 22t-30.5 68q0 45 46.5 82.5 t113.5 64.5l13 63q-47 -56 -106 -56q-46 0 -78 36.5t-32 97.5q0 24 6 51zM129 -198q26 0 41 29t28 87l7 32q-54 -24 -83.5 -52.5t-29.5 -56.5q0 -17 10 -28t27 -11z" />
<glyph unicode="z" horiz-adv-x="414" d="M320 85q-13 5 -13 21q0 17 15 27.5t34 10.5q20 0 33 -12.5t13 -37.5q0 -34 -39 -64t-94 -30h-252l255 446h-76q-60 0 -60 -16q0 -6 5 -14t5 -14q0 -11 -16 -22t-35 -11q-43 0 -43 59q0 72 116 72h238l-249 -430q102 -6 118 -6q38 0 45 21z" />
<glyph unicode="{" horiz-adv-x="269" d="M318 750l-9 -50q-36 0 -56 -4.5t-35 -21.5q-46 -51 -46 -138q0 -28 3 -85t3 -86q0 -78 -40 -111q12 -14 120F9D4AFA67" />
<glyph unicode="|" horiz-adv-x="274" d="M148 751v-1001h-53v1001h53z" />
<glyph unicode="}" horiz-adv-x="267" d="M-80 -249l9 50q36 0 56 4.5t35 21.5q46 51 46 138q0 29 -3 86t-3 85q0 78 40 111q-12 14 -12 36q0 43 45 167t45 175q0 23 -2 34.5t-9.5 23.5t-25.5 17t-48 5l9 45h29q55 0 84 -29t29 -80q0 -57 -45.5 -172.5t-45.5 -164.5q0 -31 41 -31q13 0 32 3l-12 -57q-18 3 -31 3 q-23 0 -37.5 -10t-20.5 -29t-7.5 -34t-1.5 -38q0 -28 3.5 -81t3.5 -78q0 -43 -14 -86.5t-52.5 -79t-93.5 -35.5h-43z" />
<glyph unicode="~" horiz-adv-x="405" d="M446 671h5q-8 -33 -51.5 -61.5t-93.5 -28.5q-31 0 -79.5 16.5t-71.5 16.5q-35 0 -60 -24l-5 2q44 88 150 88q35 0 80 -14.5t69 -14.5q37 0 57 20z" />
<glyph unicode="&#xa1;" horiz-adv-x="230" d="M74 221h53l-71 -469h-112zM192 386q0 -27 -19.5 -47t-46.5 -20t-47 20t-20 47t20 46.5t47 19.5q28 0 47 -19t19 -47z" />
<glyph unicode="&#xa2;" horiz-adv-x="376" d="M329 255q-7 -53 -48.5 -79.5t-89.5 -31.5l-38 -171h-27l30 170q-54 5 -89.5 40.5t-35.5 103.5q0 39 10.5 85.5t33 95.5t65 85.5t98.5 45.5l22 119h58l-26 -117q40 -4 63.5 -25t23.5 -59q0 -33 -12.5 -54.5t-35.5 -21.5q-18 0 -30 19q11 7 19 25t8 34q0 14 -13.5 26.5 t-31.5 13.5l-77 -348h9q60 0 114 44zM129 301q0 -66 41 -83l58 325q-45 -30 -72 -103t-27 -139z" />
<glyph unicode="&#xa3;" horiz-adv-x="466" d="M317 0h-295l88 365h-6q-34 0 -60 -24l-5 2q28 55 85 77l72 299l102 22l-76 -313q17 -3 54.5 -14.5t61.5 -11.5q37 0 57 20h5q-8 -33 -51.5 -61.5t-93.5 -28.5q-28 0 -55 8l-69 -282q33 10 77.5 10t90.5 8.5t102 41.5q-6 -54 -28.5 -86t-55.5 -32z" />
<glyph unicode="&#xa4;" horiz-adv-x="479" d="M59 492l38 36l56 -56q41 30 91 30q49 0 89 -29l56 56l36 -36l-55 -55q30 -41 30 -92q0 -50 -30 -91l55 -55l-36 -36l-55 55q-40 -29 -90 -29q-51 0 -92 30l-56 -56l-36 36l56 56q-29 40 -29 89q0 50 29 90zM244 462q-48 0 -82 -34t-34 -82t34 -82t82 -34t82 34t34 82 t-34 82t-82 34z" />
<glyph unicode="&#xa5;" horiz-adv-x="522" d="M70 192h126l17 80h-128l10 35h126l-112 438h114l94 -386l161 386h46l-194 -438h152l-10 -35h-150l-17 -80h152l-10 -35h-150l-33 -157h-109l33 157h-128z" />
<glyph unicode="&#xa6;" horiz-adv-x="278" d="M150 222v-472h-53v472h53zM150 301h-53v450h53v-450z" />
<glyph unicode="&#xa7;" horiz-adv-x="520" d="M505 652q0 -33 -15.5 -55.5t-41.5 -22.5q-21 0 -36 16q16 10 26 29.5t10 40.5q0 27 -17 45t-52 18q-50 0 -85.5 -35.5t-35.5 -81.5q0 -34 23.5 -62.5t57 -50.5t67 -46.5t57 -61.5t23.5 -84q0 -58 -31.5 -105.5t-84.5 -58.5v-6q0 -84 -58 -134.5t-158 -50.5q-27 0 -51 4.5 t-52 16.5t-44.5 40t-16.5 69q0 54 27.5 89t66.5 35q22 0 37 -12t31 -34q-40 -3 -59 -21.5t-19 -55.5q0 -46 25 -69.5t63 -23.5q43 0 77.5 28.5t34.5 86.5q0 36 -15.5 66t-39 50t-50.5 42t-50.5 40.5t-39 45.5t-15.5 58q0 45 29 80.5t76 54.5q-6 19 -6 44q0 81 64.5 125.5 t149.5 44.5q19 0 36.5 -3t40.5 -11.5t37 -30t14 -53.5zM413 250q0 40 -28.5 74.5t-65 56.5t-77.5 55.5t-60 67.5q-42 -18 -42 -52q0 -24 20.5 -48t51 -46.5t62 -47.5t58 -61t34.5 -78q47 21 47 79z" />
<glyph unicode="&#xa8;" horiz-adv-x="392" d="M72 642q0 22 15 37.5t37 15.5t37.5 -15.5t15.5 -37.5t-15.5 -37t-37.5 -15t-37 15t-15 37zM236 642q0 22 15 37.5t37 15.5t37.5 -15.5t15.5 -37.5t-15.5 -37t-37.5 -15t-37 15t-15 37z" />
<glyph unicode="&#xa9;" horiz-adv-x="564" d="M143 336q0 65 45.5 106.5t103.5 41.5q41 0 75 -24t48 -71l-37 -14q-6 31 -31 48t-57 17q-48 0 -75.5 -31t-27.5 -72q0 -45 27.5 -79t74.5 -34q57 0 89 49l34 -23q-21 -31 -56.5 -49.5t-72.5 -18.5q-60 0 -100 45.5t-40 108.5zM284 76q-99 0 -170.5 74.5t-71.5 180.5 q0 107 71 181.5t171 74.5t171 -74t71 -181t-71 -181.5t-171 -74.5zM68 331q0 -98 64 -166t154 -68q89 0 153 68t64 166t-64 166t-153 68q-90 0 -154 -68t-64 -166z" />
<glyph unicode="&#xaa;" horiz-adv-x="333" d="M290 740h56l-42 -181q-2 -12 -2 -22q0 -28 21 -28q6 0 18 3q-12 -46 -45 -46q-42 0 -45 56q-31 -56 -85 -56q-30 0 -50.5 22.5t-20.5 68.5q0 65 38 126.5t105 61.5q39 0 46 -33zM192 509q18 0 36 18t23 43l27 119q-4 25 -28 25q-31 0 -54 -27.5t-32 -60t-9 -62.5 q0 -55 37 -55z" />
<glyph unicode="&#xab;" horiz-adv-x="516" d="M224 449l42 -45l-175 -151l137 -140l-40 -44l-180 185zM432 449l42 -45l-175 -151l137 -140l-40 -44l-180 185z" />
<glyph unicode="&#xac;" horiz-adv-x="453" d="M386 301l-51 -250h-81l37 180h-270l16 70h349z" />
<glyph unicode="&#xad;" horiz-adv-x="321" d="M257 301l-15 -70h-201l16 70h200z" />
<glyph unicode="&#xae;" horiz-adv-x="564" d="M285 79q-99 0 -170.5 74.5t-71.5 180.5q0 107 71 181.5t171 74.5t171 -74t71 -181t-71 -181.5t-171 -74.5zM69 334q0 -98 64 -166t154 -68q89 0 153 68t64 166t-64 166t-153 68q-90 0 -154 -68t-64 -166zM193 192l1 291h98q100 0 100 -84q0 -61 -57 -77l63 -125l-37 -6 l-62 124h-70v-123h-36zM229 445v-95h66q25 0 43 11.5t18 37.5q0 46 -63 46h-64z" />
<glyph unicode="&#xb0;" horiz-adv-x="318" d="M244 702q82 0 82 -110q0 -50 -16.5 -98t-54 -84t-89.5 -36q-82 0 -82 112q0 93 45.5 154.5t114.5 61.5zM130705980A85" />
<glyph unicode="&#xb1;" horiz-adv-x="479" d="M447 421l-15 -70h-143l-31 -143h-83l31 143h-142l16 70h141l27 122h83l-27 -122h143zM387 147l-15 -70h-369l16 70h368z" />
<glyph unicode="&#xb2;" horiz-adv-x="344" d="M126 406q22 0 59 -6t53 -6q48 0 87 40q0 -4 0.5 -10.5t0.5 -9.5q0 -74 -70 -74q-24 0 -70 9t-60 9q-30 0 -59 -15q-2 12 -2 18q0 27 16 54t40 48.5t51.5 46.5t51.5 47.5t40 52t16 58.5q0 27 -16.5 41t-39.5 14q-22 0 -38 -12.5t-16 -33.5q0 -31 17 -42q-17 -16 -39 -16 q-14 0 -23 13.5t-9 37.5q0 31 30.5 55t83.5 24q110 0 110 -86q0 -43 -27 -82.5t-61.5 -64.5t-72.5 -56t-53 -54z" />
<glyph unicode="&#xb3;" horiz-adv-x="347" d="M171 488q-25 -6 -37.5 -23.5t-12.5 -37.5q0 -22 16.5 -38.5t44.5 -16.5q37 0 63.5 34.5t26.5 74.5q0 67 -70 90q46 11 70 43t24 63q0 20 -15 33.5t-44 13.5q-28 0 -43 -13t-15 -34q0 -32 22 -37q-19 -18 -39 -18q-16 0 -26.5 12.5t-10.5 32.5q0 36 33.5 59t86.5 23 t78 -20.5t25 -54.5q0 -30 -18.5 -58t-56.5 -46q67 -20 67 -92q0 -52 -40 -94t-113 -42q-25 0 -48 4.5t-47.5 25.5t-24.5 57t20.5 59.5t46.5 23.5q27 0 37 -24z" />
<glyph unicode="&#xb4;" horiz-adv-x="287" d="M111 561l91 189h85l-121 -189h-55z" />
<glyph unicode="&#xb5;" horiz-adv-x="454" d="M322 500h101l-73 -340q-5 -20 -5 -45q0 -45 31 -45q49 0 95 109h37q-23 -59 -47.5 -98.5t-48 -57t-41 -23.5t-37.5 -6q-73 0 -80 96q-27 -48 -62.5 -72t-71.5 -24q-23 0 -44 9l-31 -145l-102 -24l141 666h101l-73 -340q-4 -16 -4 -33q0 -28 12.5 -42.5t32.5 -14.5 q31 0 61 30t40 79z" />
<glyph unicode="&#xb6;" horiz-adv-x="519" d="M224 -81h-71l77 366q-79 10 -122 68.5t-43 137.5q0 102 67 180t183 78q82 0 133.5 -40t51.5 -125q0 -30 -8 -72l-127 -593h-72l81 385q-29 -10 -73 -17z" />
<glyph unicode="&#xb7;" horiz-adv-x="257" d="M35 267q0 35 24 59t58 24q35 0 59 -24t24 -59q0 -34 -24 -58t-59 -24t-58.5 23.5t-23.5 58.5z" />
<glyph unicode="&#xb8;" horiz-adv-x="227" d="M227 -108q0 -51 -36.5 -80.5t-83.5 -29.5q-53 0 -107 28q18 32 40 32q13 0 36.5 -15t37.5 -15q21 0 35.5 14t14.5 31q0 19 -12 32.5t-37 13.5q-30 0 -62 -22l53 148l35 -23l-29 -72q32 8 53 8q62 0 62 -50z" />
<glyph unicode="&#xb9;" horiz-adv-x="201" d="M231 749l-92 -404h-58l77 337h-55l7 25q65 0 121 42z" />
<glyph unicode="&#xba;" horiz-adv-x="304" d="M242 746q53 0 62 -63q3 -2 5 -10q21 0 39 28l7 -12q-20 -45 -50 -56q-5 -73 -38.5 -120.5t-82.5 -47.5q-39 0 -64.5 21.5t-25.5 65.5q0 27 7.5 57.5t23.5 62.5t46.5 53t70.5 21zM205 507q25 0 45.5 33.5t26.5 88.5q-21 0 -21 23q0 25 22 32q-6 32 -33 32q-38 0 -64.5 -53 t-26.5 -101q0 -55 51 -55z" />
<glyph unicode="&#xbb;" horiz-adv-x="519" d="M267 69l-42 45l175 151l-137 140l40 44l180 -185zM59 69l-42 45l175 151l-137 140l40 44l180 -185z" />
<glyph unicode="&#xbc;" horiz-adv-x="661" d="M534 750l-386 -750h-60l386 750h60zM559 398l64 8l-52 -225h37l-9 -31h-35l-34 -149h-61l34 149h-151q7 19 29 62.5t37 84.5t15 76q0 18 -4 33q18 0 34 -15t16 -36q0 -29 -13.5 -58.5t-36 -63.5t-31.5 -52h112zM219 707l-92 -404h-58l77 337h-55l7 25q65 0 121 42z" />
<glyph unicode="&#xbd;" horiz-adv-x="672" d="M511 750l-386 -750h-60l386 750h60zM395 66q22 0 59 -6t53 -6q48 0 87 40q0 -4 0.5 -10.5t0.5 -9.5q0 -74 -70 -74q-23 0 -69 9t-61 9q-30 0 -59 -15q-2 12 -2 18q0 31 22 63t54 59t63.5 54.5t53.5 61.5t22 69q0 27 -16.5 41t-39.5 14q-22 0 -38 -12.5t-16 -33.5 q0 -31 17 -42q-17 -16 -39 -16q-14 0 -23 13.5t-9 37.5q0 31 30.5 55t83.5 24q110 0 110 -86q0 -43 -27 -82.5t-61.5 -64.5t-72.5 -56t-53 -54zM221 707l-92 -404h-58l77 337h-55l7 25q65 0 121 42z" />
<glyph unicode="&#xbe;" horiz-adv-x="798" d="M662 750l-386 -750h-60l386 750h60zM150 445q-25 -6 -37.5 -23.5t-12.5 -37.5q0 -22 16.5 -38.5t44.5 -16.5q37 0 63.5 34.5t26.5 74.5q0 68 -70 90q46 11 70 43t24 63q0 20 -15 33.5t-44 13.5q-28 0 -43 -13t-15 -34q0 -32 22 -37q-19 -18 -39 -18q-16 0 -26.5 12.5 t-10.5 32.5q0 36 33.5 59t86.5 23t78 -20.5t25 -54.5q0 -30 -18.5 -58t-56.5 -46q67 -20 67 -92q0 -52 -40 -94t-113 -42q-25 0 -48 4.5t-47.5 25.5t-24.5 57t20.5 59.5t46.5 23.5q27 0 37 -24zM697 398l64 8l-52 -225h37l-9 -31h-35l-34 -149h-61l34 149h-151q7 19 29 62.5 t37 84.5t15 76q0 18 -4 33q18 0 34 -15t16 -36q0 -29 -13.5 -58.5t-36 -63.5t-31.5 -52h112z" />
<glyph unicode="&#xbf;" horiz-adv-x="426" d="M-48 -126q0 48 22 87.5t55 68t67.5 55t64.5 61.5t41 75h46q0 -39 -21 -74t-50.5 -63.5t-59 -57.5t-50.5 -67.5t-21 -82.5q0 -40 24 -59.5t61 -19.5q42 0 76 26.5t34 66.5q0 21 -17 41t-51 25q25 42 73 42q31 0 53.5 -22t22.5 -62q0 -60 -53.5 -110.5t-156.5 -50.5 q-79 0 -119.5 34t-40.5 87zM315 387q0 -27 -19.5 -47t-46.5 -20t-47 20t-20 47t20 46.5t47 19.5q28 0 47 -19t19 -47z" />
<glyph unicode="&#xc0;" horiz-adv-x="603" d="M487 0h-109l76 359q-69 38 -179 50q-60 -119 -97.5 -243.5t-37.5 -211.5q0 -40 9 -68q-113 0 -113 106q0 70 43 186.5t112 234.5q-62 -2 -104 -19t-42 -43q20 -7 20 -25q0 -40 -49 -40q-55 0 -55 52q0 53 61 84.5t152 31.5q13 0 41 -2q83 132 175 215t177 83q43 0 77 -14 zM292 442q102 -17 168 -52l66 311q-50 -2 -112.5 -74t-121.5 -185zM491 1000l31 -189h-55l-61 189h85z" />
<glyph unicode="&#xc1;" horiz-adv-x="603" d="M487 0h-109l76 359q-69 38 -179 50q-60 -119 -97.5 -243.5t-37.5 -211.5q0 -40 9 -68q-113 0 -113 106q0 70 43 186.5t112 234.5q-62 -2 -104 -19t-42 -43q20 -7 20 -25q0 -40 -49 -40q-55 0 -55 52q0 53 61 84.5t152 31.5q13 0 41 -2q83 132 175 215t177 83q43 0 77 -14 zM292 442q102 -17 168 -52l66 311q-50 -2 -112.5 -74t-121.5 -185zM459 811l91 189h85l-121 -189h-55z" />
<glyph unicode="&#xc2;" horiz-adv-x="603" d="M487 0h-109l76 359q-69 38 -179 50q-60 -119 -97.5 -243.5t-37.5 -211.5q0 -40 9 -68q-113 0 -113 106q0 70 43 186.5t112 234.5q-62 -2 -104 -19t-42 -43q20 -7 20 -25q0 -40 -49 -40q-55 0 -55 52q0 53 61 84.5t152 31.5q13 0 41 -2q83 132 175 215t177 83q43 0 77 -14 zM292 442q102 -17 168 -52l66 311q-50 -2 -112.5 -74t-121.5 -185zM657 811h-22l-65 101l-162 -101h-34l201 167h21z" />
<glyph unicode="&#xc3;" horiz-adv-x="603" d="M487 0h-109l76 359q-69 38 -179 50q-60 -119 -97.5 -243.5t-37.5 -211.5q0 -40 9 -68q-113 0 -113 106q0 70 43 186.5t112 234.5q-62 -2 -104 -19t-42 -43q20 -7 20 -25q0 -40 -49 -40q-55 0 -55 52q0 53 61 84.5t152 31.5q13 0 41 -2q83 132 175 215t177 83q43 0 77 -14 zM292 442q102 -17 168 -52l66 311q-50 -2 -112.5 -74t-121.5 -185zM723 915h5q-8 -33 -51.5 -61.5t-93.5 -28.5q-31 0 -79.5 16.5t-71.5 16.5q-34 0 -60 -24l-5 2q44 88 150 88q35 0 80 -14.5t69 -14.5q37 0 57 20z" />
<glyph unicode="&#xc4;" horiz-adv-x="603" d="M487 0h-109l76 359q-69 38 -179 50q-60 -119 -97.5 -243.5t-37.5 -211.5q0 -40 9 -68q-113 0 -113 106q0 70 43 186.5t112 234.5q-62 -2 -104 -19t-42 -43q20 -7 20 -25q0 -40 -49 -40q-55 0 -55 52q0 53 61 84.5t152 31.5q13 0 41 -2q83 132 175 215t177 83q43 0 77 -14 zM292 442q102 -17 168 -52l66 311q-50 -2 -112.5 -74t-121.5 -185zM562 892q0 22 15 37.5t37 15.5t37.5 -15.5t15.5 -37.5t-15.5 -37t-37.5 -15t-37 15t-15 37zM398 892q0 22 15 37.5t37 15.5t37.5 -15.5t15.5 -37.5t-15.5 -37t-37.5 -15t-37 15t-15 37z" />
<glyph unicode="&#xc5;" horiz-adv-x="603" d="M487 0h-109l76 359q-69 38 -179 50q-60 -119 -97.5 -243.5t-37.5 -211.5q0 -40 9 -68q-113 0 -113 106q0 70 43 186.5t112 234.5q-62 -2 -104 -19t-42 -43q20 -7 20 -25q0 -40 -49 -40q-55 0 -55 52q0 53 61 84.5t152 31.5q13 0 41 -2q83 132 175 215t177 83q43 0 77 -14 zM292 442q102 -17 168 -52l66 311q-50 -2 -112.5 -74t-121.5 -185zM541 963q35 0 53.5 -21.5t18.5 -55.5q0 -36 -21.5 -60t-65.5 -24q-31 0 -50.5 20.5t-19.5 49.5q0 32 22 61.5t63 29.5zM576 883q0 47 -33 47q-24 0 -35.5 -17t-11.5 -39q0 -37 34 -37q46 0 46 46z" />
<glyph unicode="&#xc6;" horiz-adv-x="833" d="M805 657q-45 0 -119 22l-57 -266h149l-14 -59h-148l-60 -284h220l-15 -70h-329l76 359q-71 38 -180 50q-5907BF070A0E" />
<glyph unicode="&#xc7;" horiz-adv-x="506" d="M390 -108q0 -51 -36.5 -80.5t-83.5 -29.5q-53 0 -107 28q18 32 40 32q13 0 36.5 -15t37.5 -15q21 0 35.5 14t14.5 31q0 19 -12.5 32.5t-36.5 13.5q-30 0 -62 -22l37 103q-208 0 -208 245q0 59 10.5 124t37 137t65 129t101 94t139.5 37q73 0 118 -33t45 -103 q0 -90 -70 -90q-29 0 -42 18q15 9 29 40t14 65q0 33 -19.5 50t-54.5 17q-57 0 -106 -45.5t-80 -116t-48.5 -152.5t-17.5 -159q0 -40 5.5 -68.5t21 -56t48 -42t81.5 -14.5q67 0 115.5 29t88.5 91l23 -10q-35 -77 -103 -124.5t-150 -58.5l-21 -53q32 8 53 8q62 0 62 -50z" />
<glyph unicode="&#xc8;" horiz-adv-x="447" d="M466 180l23 -10q-38 -86 -119.5 -137t-173.5 -51q-91 0 -137.5 50t-46.5 126q0 80 50 152t135 107q-61 44 -61 120q0 81 63.5 148t155.5 67q62 0 102.5 -33t40.5 -92q0 -44 -22 -74t-52 -30q-27 0 -47 27q22 8 40 32t18 60q0 72 -67 72q-51 0 -94.5 -46.5t-43.5 -125.5 q0 -108 80 -124q-85 -18 -133 -84t-48 -148q0 -125 126 -125q67 0 124 34.5t87 84.5zM352 1000l31 -189h-55l-61 189h85z" />
<glyph unicode="&#xc9;" horiz-adv-x="447" d="M466 180l23 -10q-38 -86 -119.5 -137t-173.5 -51q-91 0 -137.5 50t-46.5 126q0 80 50 152t135 107q-61 44 -61 120q0 81 63.5 148t155.5 67q62 0 102.5 -33t40.5 -92q0 -44 -22 -74t-52 -30q-27 0 -47 27q22 8 40 32t18 60q0 72 -67 72q-51 0 -94.5 -46.5t-43.5 -125.5 q0 -108 80 -124q-85 -18 -133 -84t-48 -148q0 -125 126 -125q67 0 124 34.5t87 84.5zM356 811l91 189h85l-121 -189h-55z" />
<glyph unicode="&#xca;" horiz-adv-x="447" d="M466 180l23 -10q-38 -86 -119.5 -137t-173.5 -51q-91 0 -137.5 50t-46.5 126q0 80 50 152t135 107q-61 44 -61 120q0 81 63.5 148t155.5 67q62 0 102.5 -33t40.5 -92q0 -44 -22 -74t-52 -30q-27 0 -47 27q22 8 40 32t18 60q0 72 -67 72q-51 0 -94.5 -46.5t-43.5 -125.5 q0 -108 80 -124q-85 -18 -133 -84t-48 -148q0 -125 126 -125q67 0 124 34.5t87 84.5zM506 811h-22l-65 101l-162 -101h-34l201 167h21z" />
<glyph unicode="&#xcb;" horiz-adv-x="447" d="M466 180l23 -10q-38 -86 -119.5 -137t-173.5 -51q-91 0 -137.5 50t-46.5 126q0 80 50 152t135 107q-61 44 -61 120q0 81 63.5 148t155.5 67q62 0 102.5 -33t40.5 -92q0 -44 -22 -74t-52 -30q-27 0 -47 27q22 8 40 32t18 60q0 72 -67 72q-51 0 -94.5 -46.5t-43.5 -125.5 q0 -108 80 -124q-85 -18 -133 -84t-48 -148q0 -125 126 -125q67 0 124 34.5t87 84.5zM261 892q0 22 15 37.5t37 15.5t37.5 -15.5t15.5 -37.5t-15.5 -37t-37.5 -15t-37 15t-15 37zM425 892q0 22 15 37.5t37 15.5t37.5 -15.5t15.5 -37.5t-15.5 -37t-37.5 -15t-37 15t-15 37z " />
<glyph unicode="&#xcc;" horiz-adv-x="404" d="M447 748l-159 -748h-110l147 692q-85 -22 -135.5 -80t-50.5 -143q0 -50 24 -76q-107 0 -107 92q0 68 53 130t134 98.5t163 36.5q15 0 41 -2zM363 1000l31 -189h-55l-61 189h85z" />
<glyph unicode="&#xcd;" horiz-adv-x="404" d="M447 748l-159 -748h-110l147 692q-85 -22 -135.5 -80t-50.5 -143q0 -50 24 -76q-107 0 -107 92q0 68 53 130t134 98.5t163 36.5q15 0 41 -2zM353 811l91 189h85l-121 -189h-55z" />
<glyph unicode="&#xce;" horiz-adv-x="404" d="M447 748l-159 -748h-110l147 692q-85 -22 -135.5 -80t-50.5 -143q0 -50 24 -76q-107 0 -107 92q0 68 53 130t134 98.5t163 36.5q15 0 41 -2zM539 811h-22l-65 101l-162 -101h-34l201 167h21z" />
<glyph unicode="&#xcf;" horiz-adv-x="404" d="M447 748l-159 -748h-110l147 692q-85 -22 -135.5 -80t-50.5 -143q0 -50 24 -76q-107 0 -107 92q0 68 53 130t134 98.5t163 36.5q15 0 41 -2zM420 892q0 22 15 37.5t37 15.5t37.5 -15.5t15.5 -37.5t-15.5 -37t-37.5 -15t-37 15t-15 37zM256 892q0 22 15 37.5t37 15.5 t37.5 -15.5t15.5 -37.5t-15.5 -37t-37.5 -15t-37 15t-15 37z" />
<glyph unicode="&#xd0;" horiz-adv-x="704" d="M129 464q0 -43 34 -71q-107 0 -107 93q0 103 110.5 183.5t257.5 80.5q95 0 157.5 -40t88 -103.5t25.5 -1500A97DDBAB9" />
<glyph unicode="&#xd1;" horiz-adv-x="712" d="M682 748h77l-170 -748h-128l-126 539l-124 -539h-75l157 691q-75 -22 -117.5 -77.5t-42.5 -144.5q0 -45 24 -76q-49 0 -73 22.5t-24 74.5q0 94 84.5 177t194.5 83q38 0 67 -14l137 -622zM724 915h5q-8 -33 -51.5 -61.5t-93.5 -28.5q-31 0 -79.5 16.5t-71.5 16.5 q-35 0 -60 -24l-5 2q44 88 150 88q35 0 80 -14.5t69 -14.5q37 0 57 20z" />
<glyph unicode="&#xd2;" horiz-adv-x="697" d="M469 656q-76 -40 -139.5 -192t-63.5 -273t88 -121q53 0 106.5 70t87 180t33.5 219q0 95 -33.5 135t-119.5 40q-117 0 -205 -74t-88 -192q0 -42 10 -55q-91 0 -91 84q0 68 56.5 132t149.5 102.5t192 38.5q242 0 242 -253q0 -61 -13 -127.5t-42 -134t-70.5 -121t-104 -87 t-136.5 -33.5q-182 0 -182 201q0 64 17.5 142t49.5 152.5t86.5 124.5t118.5 50q27 0 51 -8zM466 1000l31 -189h-55l-61 189h85z" />
<glyph unicode="&#xd3;" horiz-adv-x="697" d="M469 656q-76 -40 -139.5 -192t-63.5 -273t88 -121q53 0 106.5 70t87 180t33.5 219q0 95 -33.5 135t-119.5 40q-117 0 -205 -74t-88 -192q0 -42 10 -55q-91 0 -91 84q0 68 56.5 132t149.5 102.5t192 38.5q242 0 242 -253q0 -61 -13 -127.5t-42 -134t-70.5 -121t-104 -87 t-136.5 -33.5q-182 0 -182 201q0 64 17.5 142t49.5 152.5t86.5 124.5t118.5 50q27 0 51 -8zM466 811l91 189h85l-121 -189h-55z" />
<glyph unicode="&#xd4;" horiz-adv-x="697" d="M469 656q-76 -40 -139.5 -192t-63.5 -273t88 -121q53 0 106.5 70t87 180t33.5 219q0 95 -33.5 135t-119.5 40q-117 0 -205 -74t-88 -192q0 -42 10 -55q-91 0 -91 84q0 68 56.5 132t149.5 102.5t192 38.5q242 0 242 -253q0 -61 -13 -127.5t-42 -134t-70.5 -121t-104 -87 t-136.5 -33.5q-182 0 -182 201q0 64 17.5 142t49.5 152.5t86.5 124.5t118.5 50q27 0 51 -8zM638 811h-22l-65 101l-162 -101h-34l201 167h21z" />
<glyph unicode="&#xd5;" horiz-adv-x="697" d="M469 656q-76 -40 -139.5 -192t-63.5 -273t88 -121q53 0 106.5 70t87 180t33.5 219q0 95 -33.5 135t-119.5 40q-117 0 -205 -74t-88 -192q0 -42 10 -55q-91 0 -91 84q0 68 56.5 132t149.5 102.5t192 38.5q242 0 242 -253q0 -61 -13 -127.5t-42 -134t-70.5 -121t-104 -87 t-136.5 -33.5q-182 0 -182 201q0 64 17.5 142t49.5 152.5t86.5 124.5t118.5 50q27 0 51 -8zM704 915h5q-8 -33 -51.5 -61.5t-93.5 -28.5q-31 0 -79.5 16.5t-71.5 16.5q-35 0 -60 -24l-5 2q44 88 150 88q35 0 80 -14.5t69 -14.5q37 0 57 20z" />
<glyph unicode="&#xd6;" horiz-adv-x="697" d="M469 656q-76 -40 -139.5 -192t-63.5 -273t88 -121q53 0 106.5 70t87 180t33.5 219q0 95 -33.5 135t-119.5 40q-117 0 -205 -74t-88 -192q0 -42 10 -55q-91 0 -91 84q0 68 56.5 132t149.5 102.5t192 38.5q242 0 242 -253q0 -61 -13 -127.5t-42 -134t-70.5 -121t-104 -87 t-136.5 -33.5q-182 0 -182 201q0 64 17.5 142t49.5 152.5t86.5 124.5t118.5 50q27 0 51 -8zM405 892q0 22 15 37.5t37 15.5t37.5 -15.5t15.5 -37.5t-15.5 -37t-37.5 -15t-37 15t-15 37zM569 892q0 22 15 37.5t37 15.5t37.5 -15.5t15.5 -37.5t-15.5 -37t-37.5 -15t-37 15 t-15 37z" />
<glyph unicode="&#xd7;" horiz-adv-x="401" d="M340 166l-50 -52l-95 94l-106 -106l-48 48l106 106l-109 110l51 52l109 -111l96 96l48 -48l-96 -96z" />
<glyph unicode="&#xd8;" horiz-adv-x="686" d="M340 -71h-32l14 65q-178 3 -178 201q0 64 17.5 142t49.5 152.5t86.5 124.5t118.5 50q24 0 46 -7l11 53q-190C5EA45A47" />
<glyph unicode="&#xd9;" horiz-adv-x="770" d="M708 748h108l-66 -312q-21 -100 -39.5 -164t-45.5 -122t-61.5 -89.5t-84 -49.5t-116.5 -18q-105 0 -149 40t-44 122q0 27 3.5 58t14.5 81t16 73.5t24.5 99t23.5 93.5l36 147q-93 -18 -147 -83t-54 -161q0 -14 1 -25t3 -18t4 -11.5l4 -9t3 -5.5q-37 0 -62 23.5t-25 67.5 q0 68 53 130t136 98.5t169 36.5q22 0 48 -5q-16 -58 -36.5 -134t-31 -115t-24 -89.5t-20 -78t-13 -58.5t-8.5 -51.5t-2 -39.5q0 -57 17.5 -83t71.5 -26q40 0 67 12t55 49.5t53 112t51 195.5zM587 1000l31 -189h-55l-61 189h85z" />
<glyph unicode="&#xda;" horiz-adv-x="770" d="M708 748h108l-66 -312q-21 -100 -39.5 -164t-45.5 -122t-61.5 -89.5t-84 -49.5t-116.5 -18q-105 0 -149 40t-44 122q0 27 3.5 58t14.5 81t16 73.5t24.5 99t23.5 93.5l36 147q-93 -18 -147 -83t-54 -161q0 -14 1 -25t3 -18t4 -11.5l4 -9t3 -5.5q-37 0 -62 23.5t-25 67.5 q0 68 53 130t136 98.5t169 36.5q22 0 48 -5q-16 -58 -36.5 -134t-31 -115t-24 -89.5t-20 -78t-13 -58.5t-8.5 -51.5t-2 -39.5q0 -57 17.5 -83t71.5 -26q40 0 67 12t55 49.5t53 112t51 195.5zM557 811l91 189h85l-121 -189h-55z" />
<glyph unicode="&#xdb;" horiz-adv-x="770" d="M708 748h108l-66 -312q-21 -100 -39.5 -164t-45.5 -122t-61.5 -89.5t-84 -49.5t-116.5 -18q-105 0 -149 40t-44 122q0 27 3.5 58t14.5 81t16 73.5t24.5 99t23.5 93.5l36 147q-93 -18 -147 -83t-54 -161q0 -14 1 -25t3 -18t4 -11.5l4 -9t3 -5.5q-37 0 -62 23.5t-25 67.5 q0 68 53 130t136 98.5t169 36.5q22 0 48 -5q-16 -58 -36.5 -134t-31 -115t-24 -89.5t-20 -78t-13 -58.5t-8.5 -51.5t-2 -39.5q0 -57 17.5 -83t71.5 -26q40 0 67 12t55 49.5t53 112t51 195.5zM737 811h-22l-65 101l-162 -101h-34l201 167h21z" />
<glyph unicode="&#xdc;" horiz-adv-x="770" d="M708 748h108l-66 -312q-21 -100 -39.5 -164t-45.5 -122t-61.5 -89.5t-84 -49.5t-116.5 -18q-105 0 -149 40t-44 122q0 27 3.5 58t14.5 81t16 73.5t24.5 99t23.5 93.5l36 147q-93 -18 -147 -83t-54 -161q0 -14 1 -25t3 -18t4 -11.5l4 -9t3 -5.5q-37 0 -62 23.5t-25 67.5 q0 68 53 130t136 98.5t169 36.5q22 0 48 -5q-16 -58 -36.5 -134t-31 -115t-24 -89.5t-20 -78t-13 -58.5t-8.5 -51.5t-2 -39.5q0 -57 17.5 -83t71.5 -26q40 0 67 12t55 49.5t53 112t51 195.5zM658 892q0 22 15 37.5t37 15.5t37.5 -15.5t15.5 -37.5t-15.5 -37t-37.5 -15 t-37 15t-15 37zM494 892q0 22 15 37.5t37 15.5t37.5 -15.5t15.5 -37.5t-15.5 -37t-37.5 -15t-37 15t-15 37z" />
<glyph unicode="&#xdd;" horiz-adv-x="614" d="M440 0h-109l66 308l-104 406q-84 -22 -127.5 -87t-43.5 -139q0 -58 24 -95q-87 0 -87 92q0 107 88 186t211 79q15 0 41 -2l94 -389l161 386h46l-194 -437zM548 811l91 189h85l-121 -189h-55z" />
<glyph unicode="&#xde;" horiz-adv-x="601" d="M305 734l112 15l-23 -109q108 -1 166.5 -58.5t58.5 -139.5q0 -101 -80.5 -184t-208.5 -83q-23 0 -36 1l-370CD71C0AAD" />
<glyph unicode="&#xdf;" horiz-adv-x="450" d="M209 530l-159 -744l-118 -36l166 780q36 170 182 170q66 0 101.5 -37t35.5 -90q0 -45 -24.5 -85.5t-67.5 -0DAB38BA63" />
<glyph unicode="&#xe0;" d="M353 500h101l-73 -340q-5 -20 -5 -45q0 -45 31 -45q49 0 95 109h37q-23 -59 -47.5 -98.5t-48 -57t-41 -23.5t-37.5 -6q-73 0 -80 98q-24 -43 -65 -70.5t-87 -27.5q-54 0 -91 39.5t-37 121.5q0 53 17 112t47.5 113t81 89.5t110.5 35.5q69 0 82 -53zM175 70q32 0 66.5 32.5 t43.5 76.5l48 227q-3 18 -16 31t-34 13q-51 0 -92 -50.5t-60 -113.5t-19 -117q0 -99 63 -99zM293 750l31 -189h-55l-61 189h85z" />
<glyph unicode="&#xe1;" d="M353 500h101l-73 -340q-5 -20 -5 -45q0 -45 31 -45q49 0 95 109h37q-23 -59 -47.5 -98.5t-48 -57t-41 -23.5t-37.5 -6q-73 0 -80 98q-24 -43 -65 -70.5t-87 -27.5q-54 0 -91 39.5t-37 121.5q0 53 17 112t47.5 113t81 89.5t110.5 35.5q69 0 82 -53zM175 70q32 0 66.5 32.5 t43.5 76.5l48 227q-3 18 -16 31t-34 13q-51 0 -92 -50.5t-60 -113.5t-19 -117q0 -99 63 -99zM253 561l91 189h85l-121 -189h-55z" />
<glyph unicode="&#xe2;" d="M353 500h101l-73 -340q-5 -20 -5 -45q0 -45 31 -45q49 0 95 109h37q-23 -59 -47.5 -98.5t-48 -57t-41 -23.5t-37.5 -6q-73 0 -80 98q-24 -43 -65 -70.5t-87 -27.5q-54 0 -91 39.5t-37 121.5q0 53 17 112t47.5 113t81 89.5t110.5 35.5q69 0 82 -53zM175 70q32 0 66.5 32.5 t43.5 76.5l48 227q-3 18 -16 31t-34 13q-51 0 -92 -50.5t-60 -113.5t-19 -117q0 -99 63 -99zM431 561h-22l-65 101l-162 -101h-34l201 167h21z" />
<glyph unicode="&#xe3;" d="M353 500h101l-73 -340q-5 -20 -5 -45q0 -45 31 -45q49 0 95 109h37q-23 -59 -47.5 -98.5t-48 -57t-41 -23.5t-37.5 -6q-73 0 -80 98q-24 -43 -65 -70.5t-87 -27.5q-54 0 -91 39.5t-37 121.5q0 53 17 112t47.5 113t81 89.5t110.5 35.5q69 0 82 -53zM175 70q32 0 66.5 32.5 t43.5 76.5l48 227q-3 18 -16 31t-34 13q-51 0 -92 -50.5t-60 -113.5t-19 -117q0 -99 63 -99zM481 665h5q-8 -33 -51.5 -61.5t-93.5 -28.5q-31 0 -79.5 16.5t-71.5 16.5q-34 0 -60 -24l-5 2q44 88 150 88q35 0 80 -14.5t69 -14.5q37 0 57 20z" />
<glyph unicode="&#xe4;" d="M353 500h101l-73 -340q-5 -20 -5 -45q0 -45 31 -45q49 0 95 109h37q-23 -59 -47.5 -98.5t-48 -57t-41 -23.5t-37.5 -6q-73 0 -80 98q-24 -43 -65 -70.5t-87 -27.5q-54 0 -91 39.5t-37 121.5q0 53 17 112t47.5 113t81 89.5t110.5 35.5q69 0 82 -53zM175 70q33 0 67 32.5 t43 76.5l48 227q-3 18 -16 31t-34 13q-51 0 -92 -50.5t-60 -113.5t-19 -117q0 -99 63 -99zM206 642q0 22 15 37.5t37 15.5t37.5 -15.5t15.5 -37.5t-15.5 -37t-37.5 -15t-37 15t-15 37zM370 642q0 22 15 37.5t37 15.5t37.5 -15.5t15.5 -37.5t-15.5 -37t-37.5 -15t-37 15 t-15 37z" />
<glyph unicode="&#xe5;" d="M353 500h101l-73 -340q-5 -20 -5 -45q0 -45 31 -45q49 0 95 109h37q-23 -59 -47.5 -98.5t-48 -57t-41 -23.5t-37.5 -6q-73 0 -80 98q-24 -43 -65 -70.5t-87 -27.5q-54 0 -91 39.5t-37 121.5q0 53 17 112t47.5 113t81 89.5t110.5 35.5q69 0 82 -53zM175 70q33 0 67 32.5 t43 76.5l48 227q-3 18 -16 31t-34 13q-51 0 -92 -50.5t-60 -113.5t-19 -117q0 -99 63 -99zM336 713q35 0 53.5 -21.5t18.5 -55.5q0 -36 -21.5 -60t-65.5 -24q-31 0 -50.5 20.5t-19.5 49.5q0 32 22 61.5t63 29.5zM371 633q0 47 -33 47q-24 0 -35.5 -17t-11.5 -39 q0 -37 34 -37q46 0 46 46z" />
<glyph unicode="&#xe6;" horiz-adv-x="621" d="M94 427q75 78 168 78q68 0 128 -46q63 46 124 46q107 0 107 -103q0 -83 -65 -132t-183 -58q-3 -33 -3 -43q0 -52 20 -75.5t67 -23.5q108 0 181 109h32q-42 -78 -113 -131.5t-148 -53.5q-101 0 -131 95q-24 -45 -55.5 -70t-86.5 -25q-53 0 -90 29t-37 101q0 166 222 166 q33 0 61 -4q21 49 21 88q0 37 -17.5 60t-52.5 23q-69 0 -121 -59zM523 456q-52 0 -91 -60.5t-54 -144.5q84 9 133 51.5t49 109.5q0 44 -37 44zM261 239q-58 0 -102.5 -27.5t-44.5 -70.5q0 -71 57 -71q37 0 67 44.5t40 123.5q-7 1 -17 1z" />
<glyph unicode="&#xe7;" horiz-adv-x="364" d="M254 -108q0 -51 -36.5 -80.5t-83.5 -29.5q-53 0 -107 28q18 32 40 32q13 0 36.5 -15t37.5 -15q21 0 35.5 14t14.5 31q0 19 -12.5 32.5t-36.5 13.5q-30 0 -62 -22l41 116q-50 10 -81.5 49t-31.5 109q0 47 14 103t42.5 113.5t81.5 95.5t121 38q105 0 105 -95q0 -36 -14 -60 t-39 -24q-22 0 -33 21q12 8 21 28t9 37q0 18 -11.5 29t-33.5 11q-44 0 -81 -48t-55 -112t-18 -123q0 -53 20 -76t68 -23q111 0 176 109h34q-41 -77 -109.5 -129.5t-142.5 -55.5l-24 -60q32 8 53 8q62 0 62 -50z" />
<glyph unicode="&#xe8;" horiz-adv-x="368" d="M368 402q0 -84 -66.5 -137t-183.5 -65q-1 -11 -1 -31q0 -52 20 -75.5t67 -23.5q108 0 181 109h32q-42 -78 -113 -131.5t-148 -53.5q-63 0 -105.5 39.5t-42.5 120.5q0 36 8.5 80t28 92.5t47.5 87.5t72.5 65t96.5 26q107 0 107 -103zM270 456q-52 0 -92 -65.5t-55 -151.5 q84 13 134 59.5t50 113.5q0 44 -37 44zM262 750l31 -189h-55l-61 189h85z" />
<glyph unicode="&#xe9;" horiz-adv-x="368" d="M368 402q0 -84 -66.5 -137t-183.5 -65q-1 -11 -1 -31q0 -52 20 -75.5t67 -23.5q108 0 181 109h32q-42 -78 -113 -131.5t-148 -53.5q-63 0 -105.5 39.5t-42.5 120.5q0 36 8.5 80t28 92.5t47.5 87.5t72.5 65t96.5 26q107 0 107 -103zM270 456q-52 0 -92 -65.5t-55 -151.5 q84 13 134 59.5t50 113.5q0 44 -37 44zM247 561l91 189h85l-121 -189h-55z" />
<glyph unicode="&#xea;" horiz-adv-x="368" d="M368 402q0 -84 -66.5 -137t-183.5 -65q-1 -11 -1 -31q0 -52 20 -75.5t67 -23.5q108 0 181 109h32q-42 -78 -113 -131.5t-148 -53.5q-63 0 -105.5 39.5t-42.5 120.5q0 36 8.5 80t28 92.5t47.5 87.5t72.5 65t96.5 26q107 0 107 -103zM270 456q-52 0 -92 -65.5t-55 -151.5 q84 13 134 59.5t50 113.5q0 44 -37 44zM410 561h-22l-65 101l-162 -101h-34l201 167h21z" />
<glyph unicode="&#xeb;" horiz-adv-x="368" d="M368 402q0 -84 -66.5 -137t-183.5 -65q-1 -11 -1 -31q0 -52 20 -75.5t67 -23.5q108 0 181 109h32q-42 -78 -113 -131.5t-148 -53.5q-63 0 -105.5 39.5t-42.5 120.5q0 36 8.5 80t28 92.5t47.5 87.5t72.5 65t96.5 26q107 0 107 -103zM270 456q-52 0 -92 -65.5t-55 -151.5 q84 13 134 59.5t50 113.5q0 44 -37 44zM155 642q0 22 15 37.5t37 15.5t37.5 -15.5t15.5 -37.5t-15.5 -37t-37.5 -15t-37 15t-15 37zM319 642q0 22 15 37.5t37 15.5t37.5 -15.5t15.5 -37.5t-15.5 -37t-37.5 -15t-37 15t-15 37z" />
<glyph unicode="&#xec;" horiz-adv-x="217" d="M85 500h101l-73 -340q-5 -20 -5 -45q0 -45 31 -45q49 0 95 109h37q-23 -59 -47.5 -98.5t-48 -57t-41 -23.5t-37.5 -6q-89 0 -89 111q0 31 9 74zM129 750l31 -189h-55l-61 189h85z" />
<glyph unicode="&#xed;" horiz-adv-x="217" d="M85 500h101l-73 -340q-5 -20 -5 -45q0 -45 31 -45q49 0 95 109h37q-23 -59 -47.5 -98.5t-48 -57t-41 -23.5t-37.5 -6q-89 0 -89 111q0 31 9 74zM119 561l91 189h85l-121 -189h-55z" />
<glyph unicode="&#xee;" horiz-adv-x="217" d="M85 500h101l-73 -340q-5 -20 -5 -45q0 -45 31 -45q49 0 95 109h37q-23 -59 -47.5 -98.5t-48 -57t-41 -23.5t-37.5 -6q-89 0 -89 111q0 31 9 74zM295 561h-22l-65 101l-162 -101h-34l201 167h21z" />
<glyph unicode="&#xef;" horiz-adv-x="217" d="M85 500h101l-73 -340q-5 -20 -5 -45q0 -45 31 -45q49 0 95 109h37q-23 -59 -47.5 -98.5t-48 -57t-41 -23.5t-37.5 -6q-89 0 -89 111q0 31 9 74zM23 642q0 22 15 37.5t37 15.5t37.5 -15.5t15.5 -37.5t-15.5 -37t-37.5 -15t-37 15t-15 37zM187 642q0 22 15 37.5t37 15.5 t37.5 -15.5t15.5 -37.5t-15.5 -37t-37.5 -15t-37 15t-15 37z" />
<glyph unicode="&#xf0;" d="M502 179h37q-23 -59 -47.5 -98.5t-48 -57t-41 -23.5t-37.5 -6q-73 0 -80 98q-24 -43 -65 -70.5t-87 -27.5q-54 0 -91 39.5t-37 121.5q0 53 17 112t47.5 113t81 89.5t110.5 35.5q69 0 82 -54l7 34q12 62 12 93v7l-72 -10v30l69 10q-9 42 -40 85h35q60 -39 84 -74l69 10 v-30l-55 -8q9 -21 9 -49q0 -17 -5 -42l-75 -347q-5 -20 -5 -45q0 -45 31 -45q49 0 95 109zM175 70q33 0 67 32.5t43 76.5l48 227q-3 18 -15.5 31t-34.5 13q-51 0 -92 -50.5t-60 -113.5t-19 -117q0 -99 63 -99z" />
<glyph unicode="&#xf1;" horiz-adv-x="467" d="M84 500h101l-16 -75q59 80 136 80q103 0 103 -113q0 -46 -24 -140t-24 -133q0 -49 30 -49q47 0 94 109h37q-23 -60 -47.5 -99.5t-47.5 -56.5t-40 -23t-36 -6q-49 0 -72.5 31t-23.5 82q0 46 24 140t24 127q0 55 -44 55q-62 0 -111 -107l-69 -322h-100zM461 665h5 q-8 -33 -51.5 -61.5t-93.5 -28.5q-31 0 -79.5 16.5t-71.5 16.5q-34 0 -60 -24l-5 2q44 88 150 88q35 0 80 -14.5t69 -14.5q37 0 57 20z" />
<glyph unicode="&#xf2;" horiz-adv-x="419" d="M270 505q111 0 113 -158q10 -2 16 -2q31 0 76 20t72 42l9 -27q-58 -67 -175 -82q-9 -133 -68 -218.5t-149 -85.5q-70 0 -113 38.5t-43 119.5q0 38 7 81t26 92.5t47.5 88.5t75.5 65t106 26zM202 70q46 0 83 61t47 164q-40 0 -40 41q0 46 43 51q-7 63 -60 63 q-47 0 -84.5 -50t-55 -113t-17.5 -117q0 -53 19 -76.5t65 -23.5zM264 750l31 -189h-55l-61 189h85z" />
<glyph unicode="&#xf3;" horiz-adv-x="419" d="M270 505q111 0 113 -158q5 -2 17 -2q31 0 75.5 20t71.5 42l9 -27q-58 -67 -175 -82q-9 -133 -68 -218.5t-149 -85.5q-70 0 -113 38.5t-43 119.5q0 38 7 81t26 92.5t47.5 88.5t75.5 65t106 26zM202 70q46 0 83 61t47 164q-40 0 -40 41q0 46 43 51q-7 63 -60 63 q-47 0 -84.5 -50t-55 -113t-17.5 -117q0 -53 19 -76.5t65 -23.5zM247 561l91 189h85l-121 -189h-55z" />
<glyph unicode="&#xf4;" horiz-adv-x="419" d="M270 505q111 0 113 -158q3 -1 11 -1q32 0 79.5 19.5t73.5 41.5l9 -27q-58 -67 -175 -82q-9 -133 -68 -218.5t-149 -85.5q-70 0 -113 38.5t-43 119.5q0 38 7 81t26 92.5t47.5 88.5t75.5 65t106 26zM202 70q46 0 83 61t47 164q-40 0 -40 41q0 46 43 51q-7 63 -60 63 q-47 0 -84.5 -50t-55 -113t-17.5 -117q0 -53 19 -76.5t65 -23.5zM406 561h-22l-65 101l-162 -101h-34l201 167h21z" />
<glyph unicode="&#xf5;" horiz-adv-x="419" d="M270 505q111 0 113 -158q8 -2 15 -2q31 0 76.5 20t72.5 42l9 -27q-58 -67 -175 -82q-9 -133 -68 -218.5t-149 -85.5q-70 0 -113 38.5t-43 119.5q0 38 7 81t26 92.5t47.5 88.5t75.5 65t106 26zM202 70q46 0 83 61t47 164q-40 0 -40 41q0 46 43 51q-7 63 -60 63 q-47 0 -84.5 -50t-55 -113t-17.5 -117q0 -53 19 -76.5t65 -23.5zM448 665h5q-8 -33 -51.5 -61.5t-93.5 -28.5q-31 0 -79.5 16.5t-71.5 16.5q-35 0 -60 -24l-5 2q44 88 150 88q35 0 80 -14.5t69 -14.5q37 0 57 20z" />
<glyph unicode="&#xf6;" horiz-adv-x="419" d="M270 505q111 0 113 -158q8 -3 18 -3q32 0 75.5 20.5t70.5 42.5l9 -27q-58 -67 -175 -82q-9 -133 -68 -218.5t-149 -85.5q-70 0 -113 38.5t-43 119.5q0 38 7 81t26 92.5t47.5 88.5t75.5 65t106 26zM202 70q46 0 83 61t47 164q-40 0 -40 41q0 46 43 51q-7 63 -60 63 q-47 0 -84.5 -50t-55 -113t-17.5 -117q0 -53 19 -76.5t65 -23.5zM144 642q0 22 15 37.5t37 15.5t37.5 -15.5t15.5 -37.5t-15.5 -37t-37.5 -15t-37 15t-15 37zM308 642q0 22 15 37.5t37 15.5t37.5 -15.5t15.5 -37.5t-15.5 -37t-37.5 -15t-37 15t-15 37z" />
<glyph unicode="&#xf7;" horiz-adv-x="420" d="M178 428q0 27 19.5 47t46.5 20t47 -20t20 -47t-20 -46.5t-47 -19.5q-28 0 -47 19t-19 47zM118 67q0 27 19.5 47t46.5 20t47 -20t20 -47t-20 -46.5t-47 -19.5q-28 0 -47 19t-19 47zM377 285l-15 -70h-351l16 70h350z" />
<glyph unicode="&#xf8;" horiz-adv-x="419" d="M162 -103h-52l21 99q-57 8 -90 46.5t-33 109.5q0 37 6.5 78.5t24.5 89.5t44.5 86.5t70.5 66t98 31.5l21 1002984BCA97" />
<glyph unicode="&#xf9;" horiz-adv-x="454" d="M322 500h101l-73 -340q-5 -20 -5 -45q0 -45 31 -45q49 0 95 109h37q-23 -59 -47.5 -98.5t-48 -57t-41 -23.5t-37.5 -6q-73 0 -80 96q-27 -48 -62.5 -72t-71.5 -24q-46 0 -78 36.5t-32 97.5q0 24 6 51l68 321h101l-73 -340q-4 -16 -4 -33q0 -28 12.5 -42.5t32.5 -14.5 q31 0 61 30t40 79zM244 750l31 -189h-55l-61 189h85z" />
<glyph unicode="&#xfa;" horiz-adv-x="454" d="M322 500h101l-73 -340q-5 -20 -5 -45q0 -45 31 -45q49 0 95 109h37q-23 -59 -47.5 -98.5t-48 -57t-41 -23.5t-37.5 -6q-73 0 -80 96q-27 -48 -62.5 -72t-71.5 -24q-46 0 -78 36.5t-32 97.5q0 24 6 51l68 321h101l-73 -340q-4 -16 -4 -33q0 -28 12.5 -42.5t32.5 -14.5 q31 0 61 30t40 79zM227 561l91 189h85l-121 -189h-55z" />
<glyph unicode="&#xfb;" horiz-adv-x="454" d="M322 500h101l-73 -340q-5 -20 -5 -45q0 -45 31 -45q49 0 95 109h37q-23 -59 -47.5 -98.5t-48 -57t-41 -23.5t-37.5 -6q-73 0 -80 96q-27 -48 -62.5 -72t-71.5 -24q-46 0 -78 36.5t-32 97.5q0 24 6 51l68 321h101l-73 -340q-4 -16 -4 -33q0 -28 12.5 -42.5t32.5 -14.5 q31 0 61 30t40 79zM412 561h-22l-65 101l-162 -101h-34l201 167h21z" />
<glyph unicode="&#xfc;" horiz-adv-x="454" d="M322 500h101l-73 -340q-5 -20 -5 -45q0 -45 31 -45q49 0 95 109h37q-23 -59 -47.5 -98.5t-48 -57t-41 -23.5t-37.5 -6q-73 0 -80 96q-27 -48 -62.5 -72t-71.5 -24q-46 0 -78 36.5t-32 97.5q0 24 6 51l68 321h101l-73 -340q-4 -16 -4 -33q0 -28 12.5 -42.5t32.5 -14.5 q31 0 61 30t40 79zM307 642q0 22 15 37.5t37 15.5t37.5 -15.5t15.5 -37.5t-15.5 -37t-37.5 -15t-37 15t-15 37zM143 642q0 22 15 37.5t37 15.5t37.5 -15.5t15.5 -37.5t-15.5 -37t-37.5 -15t-37 15t-15 37z" />
<glyph unicode="&#xfd;" horiz-adv-x="454" d="M84 500h101l-73 -340q-4 -16 -4 -33q0 -28 12.5 -42.5t32.5 -14.5q30 0 60 28.5t41 80.5l68 321h100l-102 -480q58 18 92.5 52.5t58.5 106.5h37q-33 -98 -76.5 -137.5t-119.5 -57.5l-13 -64q-21 -101 -52 -135.5t-84 -34.5q-49 0 -79.5 22t-30.5 68q0 45 46.5 82.5 t113.5 64.5l13 63q-47 -56 -106 -56q-46 0 -78 36.5t-32 97.5q0 24 6 51zM226 561l91 189h85l-121 -189h-55zM129 -198q26 0 41 29t28 87l7 32q-54 -24 -83.5 -52.5t-29.5 -56.5q0 -17 10 -28t27 -11z" />
<glyph unicode="&#xfe;" horiz-adv-x="473" d="M-75 -250l156 735q12 54 12 93q0 65 -43 122h23q33 -22 52.5 -41t36.5 -58.5t17 -92.5q0 -26 -4 -49q53 460DF34A5A72" />
<glyph unicode="&#xff;" horiz-adv-x="454" d="M84 500h101l-73 -340q-4 -16 -4 -33q0 -28 12.5 -42.5t32.5 -14.5q31 0 61 30t40 79l68 321h100l-102 -480q58 18 92.5 52.5t58.5 106.5h37q-33 -98 -76.5 -137.5t-119.5 -57.5l-13 -64q-21 -101 -52 -135.5t-84 -34.5q-49 0 -79.5 22t-30.5 68q0 45 46.5 82.5 t113.5 64.5l13 63q-47 -56 -106 -56q-46 0 -78 36.5t-32 97.5q0 24 6 51zM129 -198q26 0 41 29t28 87l7 32q-54 -24 -83.5 -52.5t-29.5 -56.5q0 -17 10 -28t27 -11zM146 642q0 22 15 37.5t37 15.5t37.5 -15.5t15.5 -37.5t-15.5 -37t-37.5 -15t-37 15t-15 37zM310 642 q0 22 15 37.5t37 15.5t37.5 -15.5t15.5 -37.5t-15.5 -37t-37.5 -15t-37 15t-15 37z" />
<glyph unicode="&#x104;" horiz-adv-x="603" d="M487 0h-55q-23 -12 -39.5 -35.5t-16.5 -48.5q0 -23 13.5 -41.5t36.5 -18.5q27 0 71 44l-2 -31q-1 -1 -15 -14.5t-20 -18t-19.5 -13.5t-26.5 -12.5t-28 -3.5q-38 0 -58.5 24t-20.5 54q0 56 71 115l76 359q-69 38 -179 50q-60 -119 -97.5 -243.5t-37.5 -211.5q0 -40 9 -68 q-113 0 -113 106q0 70 43 186.5t112 234.5q-62 -2 -104 -19t-42 -43q20 -7 20 -25q0 -40 -49 -40q-55 0 -55 52q0 53 61 84.5t152 31.5q13 0 41 -2q83 132 175 215t177 83q43 0 77 -14zM292 442q102 -17 168 -52l66 311q-50 -2 -112.5 -74t-121.5 -185z" />
<glyph unicode="&#x105;" d="M353 500h101l-73 -340q-5 -20 -5 -45q0 -45 31 -45q49 0 95 109h37q-60 -152 -134 -179q-23 -11 -40.5 -34.5t-17.5 -49.5q0 -23 13.5 -41.5t36.5 -18.5q27 0 71 44l-2 -31q-1 -1 -15 -14.5t-20 -18t-19.5 -13.5t-26.5 -12.5t-28 -3.5q-38 0 -58.5 24t-20.5 54 q0 55 66 112q-53 11 -59 95q-24 -43 -65 -70.5t-87 -27.5q-54 0 -91 39.5t-37 121.5q0 53 17 112t47.5 113t81 89.5t110.5 35.5q69 0 82 -53zM175 70q33 0 67 32.5t43 76.5l48 227q-3 18 -16 31t-34 13q-51 0 -92 -50.5t-60 -113.5t-19 -117q0 -99 63 -99z" />
<glyph unicode="&#x106;" horiz-adv-x="506" d="M526 180l23 -10q-39 -88 -121 -137t-177 -49q-206 0 -206 245q0 59 10.5 124t37 137t65 129t101 94t139.5 37q73 0 118 -33t45 -103q0 -90 -70 -90q-29 0 -42 18q15 9 29 40t14 65q0 33 -19.5 50t-54.5 17q-57 0 -106 -45.5t-80 -116t-48.5 -152.5t-17.5 -159 q0 -40 5.5 -68.5t21 -56t48 -42t81.5 -14.5q67 0 115.5 29t88.5 91zM414 811l91 189h85l-121 -189h-55z" />
<glyph unicode="&#x107;" horiz-adv-x="364" d="M286 347q12 8 21 28t9 37q0 18 -11.5 29t-33.5 11q-44 0 -81 -48t-55 -112t-18 -123q0 -53 20 -76t68 -23q111 0 176 109h34q-42 -79 -112.5 -132t-146.5 -53q-64 0 -106 39.5t-42 121.5q0 47 14 103t42.5 113.5t81.5 95.5t121 38q105 0 105 -95q0 -36 -14 -60t-39 -24 q-22 0 -33 21zM272 561l91 189h85l-121 -189h-55z" />
<glyph unicode="&#x108;" horiz-adv-x="506" d="M526 180l23 -10q-39 -88 -121 -137t-177 -49q-206 0 -206 245q0 59 10.5 124t37 137t65 129t101 94t139.5 37q73 0 118 -33t45 -103q0 -90 -70 -90q-29 0 -42 18q15 9 29 40t14 65q0 33 -19.5 50t-54.5 17q-57 0 -106 -45.5t-80 -116t-48.5 -152.5t-17.5 -159 q0 -40 5.5 -68.5t21 -56t48 -42t81.5 -14.5q67 0 115.5 29t88.5 91zM556 811h-22l-65 101l-162 -101h-34l201 167h21z" />
<glyph unicode="&#x109;" horiz-adv-x="364" d="M286 347q12 8 21 28t9 37q0 18 -11.5 29t-33.5 11q-44 0 -81 -48t-55 -112t-18 -123q0 -53 20 -76t68 -23q111 0 176 109h34q-42 -79 -112.5 -132t-146.5 -53q-64 0 -106 39.5t-42 121.5q0 47 14 103t42.5 113.5t81.5 95.5t121 38q105 0 105 -95q0 -36 -14 -60t-39 -24 q-22 0 -33 21zM417 561h-22l-65 101l-162 -101h-34l201 167h21z" />
<glyph unicode="&#x10c;" horiz-adv-x="506" d="M526 180l23 -10q-39 -88 -121 -137t-177 -49q-206 0 -206 245q0 59 10.5 124t37 137t65 129t101 94t139.5 37q73 0 118 -33t45 -103q0 -90 -70 -90q-29 0 -42 18q15 9 29 40t14 65q0 33 -19.5 50t-54.5 17q-57 0 -106 -45.5t-80 -116t-48.5 -152.5t-17.5 -159 q0 -40 5.5 -68.5t21 -56t48 -42t81.5 -14.5q67 0 115.5 29t88.5 91zM361 992h22l65 -101l162 101h34l-201 -167h-21z" />
<glyph unicode="&#x10d;" horiz-adv-x="364" d="M286 347q12 8 21 28t9 37q0 18 -11.5 29t-33.5 11q-44 0 -81 -48t-55 -112t-18 -123q0 -53 20 -76t68 -23q111 0 176 109h34q-42 -79 -112.5 -132t-146.5 -53q-64 0 -106 39.5t-42 121.5q0 47 14 103t42.5 113.5t81.5 95.5t121 38q105 0 105 -95q0 -36 -14 -60t-39 -24 q-22 0 -33 21zM231 742h22l65 -101l162 101h34l-201 -167h-21z" />
<glyph unicode="&#x111;" horiz-adv-x="484" d="M393 686l104 14l-20 -90h77l-7 -35h-77l-89 -415q-5 -20 -5 -45q0 -45 31 -45q49 0 95 109h37q-23 -59 -47.5 -98.5t-48 -57t-41 -23.5t-37.5 -6q-73 0 -80 98q-24 -43 -65 -70.5t-87 -27.5q-54 0 -91 39.5t-37 121.5q0 53 17 112t47.5 113t81 89.5t110.5 35.5 q69 0 82 -54l26 124h-33l7 35h34zM175 70q32 0 66.5 32.5t43.5 76.5l48 227q-3 18 -15.5 31t-34.5 13q-51 0 -92 -50.5t-60 -113.5t-19 -117q0 -99 63 -99z" />
<glyph unicode="&#x118;" horiz-adv-x="449" d="M466 180l23 -10q-7 -33 -38.5 -68t-65 -59.5t-60.5 -58.5t-27 -68q0 -22 12 -40t36 -18q25 0 69 42l-2 -31q-1 -1 -15 -14.5t-20 -18t-19.5 -13.5t-26.5 -12.5t-28 -3.5q-38 0 -58.5 24t-20.5 54q0 56 67 112q-46 -15 -96 -15q-91 0 -137.5 50t-46.5 126q0 80 50 152 t135 107q-61 44 -61 120q0 81 63.5 148t155.5 67q62 0 102.5 -33t40.5 -92q0 -44 -22 -74t-52 -30q-27 0 -47 27q22 8 40 32t18 60q0 72 -67 72q-51 0 -94.5 -46.5t-43.5 -125.5q0 -108 80 -124q-85 -18 -133 -84t-48 -148q0 -125 126 -125q69 0 128 34t83 85z" />
<glyph unicode="&#x119;" horiz-adv-x="368" d="M368 402q0 -84 -66.5 -137t-183.5 -65q-1 -11 -1 -31q0 -52 20 -75.5t67 -23.5q108 0 181 109h32q-62 -115 -167 -163q-25 -17 -43 -46.5t-18 -53.5q0 -23 13.5 -41.5t36.5 -18.5q41 0 73 31l-2 -31q-53 -49 -111 -49q-38 0 -58.5 24t-20.5 54q0 55 66 112q-15 -3 -30 -3 q-63 0 -105.5 39.5t-42.5 120.5q0 36 8.5 80t28 92.5t47.5 87.5t72.5 65t96.5 26q107 0 107 -103zM270 456q-52 0 -92 -65.5t-55 -151.5q84 13 134 59.5t50 113.5q0 44 -37 44z" />
<glyph unicode="&#x11e;" horiz-adv-x="591" d="M480 419l97 -1l-82 -376q-26 -122 -83 -185.5t-157 -63.5q-82 0 -118.5 39t-36.5 98q0 58 33 98t101 40q86 0 86 -67q0 -17 -6 -40q-28 37 -69 37q-31 0 -54 -23.5t-23 -60.5q0 -36 23 -59t58 -23q39 0 72 31.5t49 102.5l51 233q-68 -90 -173 -90q-90 0 -144 66t-54 182 q0 103 43 192t126 145t190 56q80 0 134 -33t54 -105q0 -39 -17 -63.5t-53 -24.5q-47 0 -69 26q6 0 18 6t26 27.5t14 52.5q0 78 -80 78q-108 0 -187 -112t-79 -248q0 -80 30.5 -127.5t87.5 -47.5q126 0 192 240zM592 953h66q-1 -72 -44.5 -105t-146.5 -33q-155 0 -155 115 q0 7 2 23h69q-2 -12 -2 -18q0 -41 27.5 -63t71.5 -22q102 0 112 103z" />
<glyph unicode="&#x11f;" d="M353 500h100l-102 -480q58 18 92.5 52.5t58.5 106.5h37q-33 -98 -76.5 -137.5t-119.5 -57.5l-13 -64q-21 -101 -52 -135.5t-84 -34.5q-49 0 -79.5 22t-30.5 68q0 45 46.5 82.5t113.5 64.5l19 92q-58 -63 -130 -63q-54 0 -91 39.5t-37 121.5q0 49 17 104.5t47.5 106t81 84 t110.5 33.5q69 0 82 -53zM175 92q30 0 64.5 28t46.5 68l47 219q-3 18 -16 30.5t-34 12.5q-51 0 -92 -46.5t-60 -104.5t-19 -108q0 -99 63 -99zM447 703h66q-1 -72 -44.5 -105t-146.5 -33q-155 0 -155 115q0 7 2 23h69q-2 -12 -2 -18q0 -41 27.5 -63t71.5 -22q102 0 112 103z M160 -198q26 0 41 29t28 87l7 32q-54 -24 -83.5 -52.5t-29.5 -56.5q0 -17 10 -28t27 -11z" />
<glyph unicode="&#x131;" horiz-adv-x="217" d="M85 500h101l-73 -340q-5 -20 -5 -45q0 -45 31 -45q49 0 95 109h37q-23 -59 -47.5 -98.5t-48 -57t-41 -23.5t-37.5 -6q-89 0 -89 111q0 31 9 74z" />
<glyph unicode="&#x141;" horiz-adv-x="488" d="M445 738l-58 -272l119 78l-3 -44l-127 -83l-85 -397q40 -9 99.5 -42t120.5 -60t117 -27q44 0 83 16q-17 -133 -111 -133q-39 0 -90 32t-95 70t-104 70t-114 32q-15 0 -23 -1l76 358l-107 -69l2 43l115 75l64 298q-86 -22 -136.5 -80t-50.5 -143q0 -50 24 -76 q-107 0 -107 92q0 68 53 130t134 98.5t163 36.5q15 0 41 -2z" />
<glyph unicode="&#x142;" horiz-adv-x="216" d="M-17 306l70 45l72 335l104 14l-59 -274l142 91l-3 -44l-150 -97l-47 -216q-5 -20 -5 -45q0 -45 31 -45q49 0 95 109h37q-23 -59 -47.5 -98.5t-48 -57t-41 -23.5t-37.5 -6q-89 0 -89 111q0 31 9 74l26 122l-59 -38v43z" />
<glyph unicode="&#x143;" horiz-adv-x="712" d="M682 748h77l-170 -748h-128l-126 539l-124 -539h-75l157 691q-75 -22 -117.5 -77.5t-42.5 -144.5q0 -45 24 -76q-49 0 -73 22.5t-24 74.5q0 94 84.5 177t194.5 83q38 0 67 -14l137 -622zM550 811l91 189h85l-121 -189h-55z" />
<glyph unicode="&#x144;" horiz-adv-x="467" d="M84 500h101l-16 -75q59 80 136 80q103 0 103 -113q0 -46 -24 -140t-24 -133q0 -49 30 -49q47 0 94 109h37q-23 -60 -47.5 -99.5t-47.5 -56.5t-40 -23t-36 -6q-49 0 -72.5 31t-23.5 82q0 46 24 140t24 127q0 55 -44 55q-62 0 -111 -107l-69 -322h-100zM252 561l91 189h85 l-121 -189h-55z" />
<glyph unicode="&#x150;" horiz-adv-x="697" d="M469 656q-76 -40 -139.5 -192t-63.5 -273t88 -121q53 0 106.5 70t87 180t33.5 219q0 95 -33.5 135t-119.5 40q-117 0 -205 -74t-88 -192q0 -42 10 -55q-91 0 -91 84q0 68 56.5 132t149.5 102.5t192 38.5q242 0 242 -253q0 -61 -13 -127.5t-42 -134t-70.5 -121t-104 -87 t-136.5 -33.5q-182 0 -182 201q0 64 17.5 142t49.5 152.5t86.5 124.5t118.5 50q27 0 51 -8zM432 811l91 189h85l-121 -189h-55zM562 811l91 189h85l-121 -189h-55z" />
<glyph unicode="&#x151;" horiz-adv-x="419" d="M270 505q111 0 113 -158q89 0 164 60l9 -27q-58 -67 -175 -82q-9 -133 -68 -218.5t-149 -85.5q-70 0 -113 38.5t-43 119.5q0 38 7 81t26 92.5t47.5 88.5t75.5 65t106 26zM202 70q46 0 83 61t47 164q-40 0 -40 41q0 46 43 51q-7 63 -60 63q-47 0 -84.5 -50t-55 -113 t-17.5 -117q0 -53 19 -76.5t65 -23.5zM194 561l91 189h85l-121 -189h-55zM324 561l91 189h85l-121 -189h-55z" />
<glyph unicode="&#x152;" horiz-adv-x="864" d="M469 656q-76 -40 -139.5 -192t-63.5 -273t88 -121q53 0 106.5 70t87 180t33.5 219q0 95 -33.5 135t-119.5 40q-117 0 -205 -74t-88 -192q0 -42 10 -55q-91 0 -91 84q0 68 56.5 132t149.5 102.5t192 38.5q64 0 115 -19q55 19 113 19q35 0 90.5 -6t88.5 -6q54 0 91 12 q-16 -63 -43 -83.5t-68 -20.5q-29 0 -62.5 5t-74.5 14t-61 12q53 -63 53 -180q0 -41 -6 -84h129l-14 -59h-126q-41 -186 -151 -284h273l-15 -70h-396q-28 -6 -60 -6q-182 0 -182 201q0 64 17.5 142t49.5 152.5t86.5 124.5t118.5 50q27 0 51 -8z" />
<glyph unicode="&#x153;" horiz-adv-x="674" d="M270 505q97 0 111 -119q69 119 185 119q107 0 107 -103q0 -84 -64.5 -137t-180.5 -65q-1 -11 -1 -31q0 -52 20 -75.5t67 -23.5q108 0 181 109h32q-42 -78 -113 -131.5t-148 -53.5q-51 0 -89 25.5t-52 77.5q-61 -103 -161 -103q-70 0 -113 38.5t-43 119.5q0 38 7 81 t26 92.5t47.5 88.5t75.5 65t106 26zM202 70q46 0 83 61t47 164q-40 0 -40 41q0 46 43 51q-7 63 -60 63q-47 0 -84.5 -50t-55 -113t-17.5 -117q0 -53 19 -76.5t65 -23.5zM575 456q-52 0 -90 -65t-52 -152q84 12 134 58t50 113q0 46 -42 46z" />
<glyph unicode="&#x15a;" horiz-adv-x="496" d="M506 632q0 -45 -23 -74t-56 -29q-23 0 -39 21q20 12 33 36.5t13 51.5q0 33 -19.5 54.5t-63.5 21.5q-56 0 -89 -27.5t-33 -76.5q0 -35 16.5 -65t41.5 -51t54.5 -48t54.5 -54t41.5 -71t16.5 -97q0 -117 -71.5 -179.5t-178.5 -62.5q-86 0 -145.5 41.5t-59.5 126.5 q0 76 45.5 120.5t96.5 44.5q62 0 73 -66q-47 0 -83 -24.5t-36 -74.5q0 -46 30 -73.5t72 -27.5q52 0 92 37.5t40 105.5q0 47 -21 90t-51.5 76t-60.5 64.5t-51 70t-21 78.5q0 77 66.5 128t162.5 51q23 0 44.5 -3.5t48.5 -14.5t43.5 -36.5t16.5 -63.5zM371 811l91 189h85 l-121 -189h-55z" />
<glyph unicode="&#x15b;" horiz-adv-x="342" d="M359 179h42q-53 -58 -132 -106q-22 -40 -60.5 -59.5t-77.5 -19.5q-71 0 -108.5 38.5t-37.5 89.5q0 33 15.5 57.5t37.5 35.5q67 118 123 296l105 20q6 -109 12 -188.5t9.5 -114.5t3.5 -61q0 -14 -2 -34q34 19 70 46zM186 166q0 25 -7.5 95.5t-13.5 162.5 q-25 -101 -80 -212q14 -11 14 -33q0 -23 -12.5 -36.5t-28.5 -13.5t-24 14q0 -74 65 -74q87 0 87 97zM195 561l91 189h85l-121 -189h-55z" />
<glyph unicode="&#x160;" horiz-adv-x="496" d="M506 632q0 -45 -23 -74t-56 -29q-23 0 -39 21q20 12 33 36.5t13 51.5q0 33 -19.5 54.5t-63.5 21.5q-56 0 -89 -27.5t-33 -76.5q0 -35 16.5 -65t41.5 -51t54.5 -48t54.5 -54t41.5 -71t16.5 -97q0 -117 -71.5 -179.5t-178.5 -62.5q-86 0 -145.5 41.5t-59.5 126.5 q0 76 45.5 120.5t96.5 44.5q62 0 73 -66q-47 0 -83 -24.5t-36 -74.5q0 -46 30 -73.5t72 -27.5q52 0 92 37.5t40 105.5q0 47 -21 90t-51.5 76t-60.5 64.5t-51 70t-21 78.5q0 77 66.5 128t162.5 51q23 0 44.5 -3.5t48.5 -14.5t43.5 -36.5t16.5 -63.5zM306 992h22l65 -101 l162 101h34l-201 -167h-21z" />
<glyph unicode="&#x161;" horiz-adv-x="342" d="M359 179h42q-53 -58 -132 -106q-22 -40 -60.5 -59.5t-77.5 -19.5q-71 0 -108.5 38.5t-37.5 89.5q0 33 15.5 57.5t37.5 35.5q67 118 123 296l105 20q6 -109 12 -188.5t9.5 -114.5t3.5 -61q0 -14 -2 -34q34 19 70 46zM186 166q0 25 -7.5 95.5t-13.5 162.5 q-25 -101 -80 -212q14 -11 14 -33q0 -23 -12.5 -36.5t-28.5 -13.5t-24 14q0 -74 65 -74q87 0 87 97zM158 742h22l65 -101l162 101h34l-201 -167h-21z" />
<glyph unicode="&#x170;" horiz-adv-x="770" d="M708 748h108l-66 -312q-21 -100 -39.5 -164t-45.5 -122t-61.5 -89.5t-84 -49.5t-116.5 -18q-105 0 -149 40t-44 122q0 27 3.5 58t14.5 81t16 73.5t24.5 99t23.5 93.5l36 147q-93 -18 -147 -83t-54 -161q0 -14 1 -25t3 -18t4 -11.5l4 -9t3 -5.5q-37 0 -62 23.5t-25 67.5 q0 68 53 130t136 98.5t169 36.5q22 0 48 -5q-16 -58 -36.5 -134t-31 -115t-24 -89.5t-20 -78t-13 -58.5t-8.5 -51.5t-2 -39.5q0 -57 17.5 -83t71.5 -26q40 0 67 12t55 49.5t53 112t51 195.5zM634 811l91 189h85l-121 -189h-55zM504 811l91 189h85l-121 -189h-55z" />
<glyph unicode="&#x171;" horiz-adv-x="454" d="M322 500h101l-73 -340q-5 -20 -5 -45q0 -45 31 -45q49 0 95 109h37q-23 -59 -47.5 -98.5t-48 -57t-41 -23.5t-37.5 -6q-73 0 -80 96q-27 -48 -62.5 -72t-71.5 -24q-46 0 -78 36.5t-32 97.5q0 24 6 51l68 321h101l-73 -340q-4 -16 -4 -33q0 -28 12.5 -42.5t32.5 -14.5 q31 0 61 30t40 79zM291 561l91 189h85l-121 -189h-55zM161 561l91 189h85l-121 -189h-55z" />
<glyph unicode="&#x178;" horiz-adv-x="614" d="M440 0h-109l66 308l-104 406q-84 -22 -127.5 -87t-43.5 -139q0 -58 24 -95q-87 0 -87 92q0 107 88 186t211 79q15 0 41 -2l94 -389l161 386h46l-194 -437zM572 892q0 22 15 37.5t37 15.5t37.5 -15.5t15.5 -37.5t-15.5 -37t-37.5 -15t-37 15t-15 37zM408 892q0 22 15 37.5 t37 15.5t37.5 -15.5t15.5 -37.5t-15.5 -37t-37.5 -15t-37 15t-15 37z" />
<glyph unicode="&#x179;" horiz-adv-x="528" d="M400 71q-17 13 -17 33q0 22 16.5 35.5t39.5 13.5q21 0 37.5 -13t16.5 -35q0 -39 -37.5 -72t-90.5 -33h-361l354 705q-75 5 -93 5q-83 0 -89 -20q16 -13 16 -33q0 -19 -15 -34.5t-38 -15.5q-22 0 -38.5 16.5t-16.5 44.5q0 32 36 57t90 25h291l-351 -697q13 0 58.5 -1.5 t72.5 -1.5q105 0 119 21zM357 811l91 189h85l-121 -189h-55z" />
<glyph unicode="&#x17a;" horiz-adv-x="414" d="M320 85q-13 5 -13 21q0 17 15 27.5t34 10.5q20 0 33 -12.5t13 -37.5q0 -34 -39 -64t-94 -30h-252l255 446h-76q-60 0 -60 -16q0 -6 5 -14t5 -14q0 -11 -16 -22t-35 -11q-43 0 -43 59q0 72 116 72h238l-249 -430q102 -6 118 -6q38 0 45 21zM244 561l91 189h85l-121 -189 h-55z" />
<glyph unicode="&#x17b;" horiz-adv-x="528" d="M430 884q0 -25 -18 -43t-43 -18t-43 17.5t-18 43.5q0 25 18 43t43 18t43 -18t18 -43zM400 71q-17 13 -17 33q0 22 16.5 35.5t39.5 13.5q21 0 37.5 -13t16.5 -35q0 -39 -37.5 -72t-90.5 -33h-361l354 705q-75 5 -93 5q-83 0 -89 -20q16 -13 16 -33q0 -19 -15 -34.5 t-38 -15.5q-22 0 -38.5 16.5t-16.5 44.5q0 32 36 57t90 25h291l-351 -697q13 0 58.5 -1.5t72.5 -1.5q105 0 119 21z" />
<glyph unicode="&#x17c;" horiz-adv-x="414" d="M337 634q0 -25 -18 -43t-43 -18q-26 0 -43.5 17.5t-17.5 43.5q0 25 18 43t43 18t43 -18t18 -43zM320 85q-13 5 -13 21q0 17 15 27.5t34 10.5q20 0 33 -12.5t13 -37.5q0 -34 -39 -64t-94 -30h-252l255 446h-76q-60 0 -60 -16q0 -6 5 -14t5 -14q0 -11 -16 -22t-35 -11 q-43 0 -43 59q0 72 116 72h238l-249 -430q102 -6 118 -6q38 0 45 21z" />
<glyph unicode="&#x17d;" horiz-adv-x="528" d="M400 71q-17 13 -17 33q0 22 16.5 35.5t39.5 13.5q21 0 37.5 -13t16.5 -35q0 -39 -37.5 -72t-90.5 -33h-361l354 705q-75 5 -93 5q-83 0 -89 -20q16 -13 16 -33q0 -19 -15 -34.5t-38 -15.5q-22 0 -38.5 16.5t-16.5 44.5q0 32 36 57t90 25h291l-351 -697q13 0 58.5 -1.5 t72.5 -1.5q105 0 119 21zM330 992h22l65 -101l162 101h34l-201 -167h-21z" />
<glyph unicode="&#x17e;" horiz-adv-x="414" d="M320 85q-13 5 -13 21q0 17 15 27.5t34 10.5q20 0 33 -12.5t13 -37.5q0 -34 -39 -64t-94 -30h-252l255 446h-76q-60 0 -60 -16q0 -6 5 -14t5 -14q0 -11 -16 -22t-35 -11q-43 0 -43 59q0 72 116 72h238l-249 -430q102 -6 118 -6q38 0 45 21zM229 742h22l65 -101l162 101h34 l-201 -167h-21z" />
<glyph unicode="&#x192;" horiz-adv-x="271" d="M41 465l7 35h44l13 61q41 188 177 188q60 0 90 -32t30 -83q0 -18 -3 -34h-40q3 10 3 24q0 62 -57 62q-45 0 -67 -35.5t-36 -102.5l-10 -48h80l-7 -35h-81l-115 -545q-21 -101 -51.5 -135.5t-80.5 -34.5q-116 0 -116 94q0 18 5.5 34t21 37t51 44t88.5 45l97 461h-43z M-102 -198q27 0 42 29t28 87l11 53q-125 -51 -125 -119q0 -22 12.5 -36t31.5 -14z" />
<glyph unicode="&#x2c6;" horiz-adv-x="293" d="M288 561h-22l-65 101l-162 -101h-34l201 167h21z" />
<glyph unicode="&#x2c7;" horiz-adv-x="294" d="M103 742h22l65 -101l162 101h34l-201 -167h-21z" />
<glyph unicode="&#x2d8;" horiz-adv-x="431" d="M355 703h66q-1 -72 -44.5 -105t-146.5 -33q-155 0 -155 115q0 7 2 23h69q-2 -12 -2 -18q0 -41 27.5 -63t71.5 -22q102 0 112 103z" />
<glyph unicode="&#x2da;" horiz-adv-x="156" d="M85 713q35 0 53.5 -21.5t18.5 -55.5q0 -36 -21.5 -60t-65.5 -24q-31 0 -50.5 20.5t-19.5 49.5q0 32 22 61.5t63 29.5zM120 633q0 47 -33 47q-24 0 -35.5 -17t-11.5 -39q0 -37 34 -37q46 0 46 46z" />
<glyph unicode="&#x2db;" horiz-adv-x="291" d="M122 5h60q-25 -9 -46.5 -35t-21.5 -54q0 -23 13.5 -41.5t36.5 -18.5q27 0 71 44l-2 -31q-1 -1 -15 -14.5t-20 -18t-19.5 -13.5t-26.5 -12.5t-28 -3.5q-38 0 -58.5 24t-20.5 54q0 60 77 120z" />
<glyph unicode="&#x2dc;" horiz-adv-x="403" d="M400 665h5q-8 -33 -51.5 -61.5t-93.5 -28.5q-31 0 -79.5 16.5t-71.5 16.5q-34 0 -60 -24l-5 2q44 88 150 88q35 0 80 -14.5t69 -14.5q37 0 57 20z" />
<glyph unicode="&#x2dd;" horiz-adv-x="436" d="M120 561l91 189h85l-121 -189h-55zM250 561l91 189h85l-121 -189h-55z" />
<glyph unicode="&#x2013;" horiz-adv-x="381" d="M317 301l-15 -70h-261l16 70h260z" />
<glyph unicode="&#x2014;" horiz-adv-x="471" d="M407 301l-15 -70h-351l16 70h350z" />
<glyph unicode="&#x2018;" horiz-adv-x="210" d="M222 561q0 -31 -19.5 -49t-46.5 -18q-32 0 -48.5 19t-16.5 48q0 50 39.5 108t88.5 79q9 -6 9 -17q0 -16 -20 -47.5t-20 -46.5q0 -16 17 -31.5t17 -44.5z" />
<glyph unicode="&#x2019;" horiz-adv-x="207" d="M113 681q0 31 19.5 49t46.5 18q32 0 48.5 -19t16.5 -48q0 -50 -39.5 -108t-88.5 -79q-9 6 -9 17q0 16 20 47.5t20 46.5q0 16 -17 31.5t-17 44.5z" />
<glyph unicode="&#x201a;" horiz-adv-x="212" d="M-12 61q0 31 19.5 49t46.5 18q63 0 63 -60q0 -50 -40 -111.5t-86 -82.5q-9 6 -9 17q0 16 20 47.5t20 46.5q0 16 -17 31.5t-17 44.5z" />
<glyph unicode="&#x201c;" horiz-adv-x="429" d="M222 561q0 -31 -19.5 -49t-46.5 -18q-32 0 -48.5 19t-16.5 48q0 50 39.5 108t88.5 79q9 -6 9 -17q0 -16 -206DB20AA5E" />
<glyph unicode="&#x201d;" horiz-adv-x="426" d="M332 681q0 31 19.5 49t46.5 18q32 0 48.5 -19t16.5 -48q0 -50 -39.5 -108t-88.5 -79q-9 6 -9 17q0 16 20 40C8FE03AEA" />
<glyph unicode="&#x201e;" horiz-adv-x="433" d="M-12 61q0 31 19.5 49t46.5 18q63 0 63 -60q0 -50 -40 -111.5t-86 -82.5q-9 6 -9 17q0 16 20 47.5t20 46.5q0B51331A57" />
<glyph unicode="&#x2020;" horiz-adv-x="410" d="M330 750l-69 -322h151l-19 -92h-151l-124 -586h-72l124 586h-146l20 92h145l69 322h72z" />
<glyph unicode="&#x2021;" horiz-adv-x="427" d="M338 750l-68 -322h150l-19 -92h-151l-30 -143h152l-19 -92h-153l-74 -351h-72l74 351h-144l20 92h144l30 143h-146l20 92h146l68 322h72z" />
<glyph unicode="&#x2022;" horiz-adv-x="257" d="M35 267q0 35 24 59t58 24q35 0 59 -24t24 -59q0 -34 -24 -58t-59 -24t-58.5 23.5t-23.5 58.5z" />
<glyph unicode="&#x2026;" horiz-adv-x="695" d="M-12 61q0 27 19.5 47t46.5 20t47 -20t20 -47t-20 -46.5t-47 -19.5q-28 0 -47 19t-19 47zM225 61q0 27 19.5 47t46.5 20t47 -20t20 -47t-20 -46.5t-47 -19.5q-28 0 -47 19t-19 47zM470 61q0 27 19.5 47t46.5 20t47 -20t20 -47t-20 -46.5t-47 -19.5q-28 0 -47 19t-19 47z " />
<glyph unicode="&#x2030;" horiz-adv-x="893" d="M543 750l-386 -750h-60l386 750h60zM229 702q82 0 82 -110q0 -50 -16.5 -98t-54 -84t-89.5 -36q-82 0 -82 0BA903DA39" />
<glyph unicode="&#x2039;" horiz-adv-x="308" d="M224 449l42 -45l-175 -151l137 -140l-40 -44l-180 185z" />
<glyph unicode="&#x203a;" horiz-adv-x="311" d="M59 69l-42 45l175 151l-137 140l40 44l180 -185z" />
<glyph unicode="&#x20ac;" horiz-adv-x="611" d="M31 334h77q4 36 12 75h-75l11 40h74q16 61 40.5 111.5t61 95t89.5 69.5t117 25q72 0 117.5 -33t45.5 -102q0 -41 -17 -66t-51 -25q-31 0 -44 18q15 9 29 39.5t14 62.5q0 70 -73 70q-76 0 -130 -74.5t-82 -190.5h211l-11 -40h-208q-7 -37 -12 -75h206l-11 -40h-198 q-1 -17 -1 -48q0 -42 5.5 -71.5t21 -57.5t48 -42.5t81.5 -14.5q96 0 160 64v-40q-36 -43 -100.5 -71.5t-135.5 -28.5q-201 0 -201 253q0 36 2 57h-84z" />
<glyph unicode="&#x2122;" horiz-adv-x="483" d="M296 433h-18l80 218l30 3l-8 -175l73 175h34l-31 -221h-35l22 156l-65 -156h-32l7 154zM281 622q-8 0 -48 7l-41 -196h-33l43 201q-4 1 -12 1q-32 0 -47.5 -13t-15.5 -46q0 -17 6 -25q-27 0 -27 31q0 32 25.5 54t77.5 22q17 0 39.5 -3.5t34.5 -3.5q20 0 36 6 q0 -35 -38 -35z" />
<glyph unicode="&#x2212;" horiz-adv-x="471" d="M407 301l-15 -70h-351l16 70h350z" />
<glyph unicode="&#xe000;" horiz-adv-x="555" d="M0 555h555v-555h-555v555z" />
<glyph horiz-adv-x="535" d="M419 0h-109l80 380h-198q-54 -115 -87 -230t-33 -196q0 -40 9 -68q-113 0 -113 106q0 75 50 202.5t124 251t173 214t184 90.5q43 0 77 -14zM458 701q-52 -3 -118.5 -82t-128.5 -201h187z" />
<glyph horiz-adv-x="678" d="M139 464q0 -16 2 -29.5t4 -20t4.5 -13t3.5 -8.5q-97 0 -97 91q0 105 110.5 185.5t252.5 80.5q104 0 158.5 -46t54.5 -113q0 -46 -27 -89.5t-75 -70.5q56 -12 88 -57t32 -105q0 -39 -13 -87t-38.5 -96.5t-71.5 -80.5t-103 -32q-90 0 -139 65l-8 -38h-110l138 641l112 15 l-48 -226h18q66 0 115 53.5t49 112.5q0 50 -39.5 84t-111.5 34q-64 0 -122 -26.5t-98.5 -85t-40.5 -138.5zM418 394q-20 0 -58 -4l-63 -297q44 -44 97 -44q46 0 78 36.5t45 83.5t13 97q0 128 -112 128z" />
<glyph horiz-adv-x="581" d="M548 646q-43 0 -129 18l-54 -251h161l-14 -59h-160l-60 -284h232l-15 -70h-342l147 682q-7 1 -20 1q-159 00D6C396AE1" />
<glyph horiz-adv-x="702" d="M447 748l-19 -86q59 88 147 88q56 0 88.5 -38t32.5 -94q0 -46 -50 -248t-50 -255q0 -20 7 -32.5t17 -12.5q26 0 56 34t43 75h24q-63 -185 -175 -185q-87 0 -87 94q0 59 49 260t49 250q0 38 -16.5 58.5t-42.5 20.5q-32 0 -65 -30t-47 -80l-120 -567h-110l147 692 q-85 -22 -135.5 -80t-50.5 -143q0 -50 24 -76q-107 0 -107 92q0 68 53 130t134 98.5t163 36.5q15 0 41 -2z" />
<glyph horiz-adv-x="497" d="M353 500h101l-73 -340q-4 -20 -4 -43q0 -47 35 -47q16 0 32 6q-11 -45 -30.5 -63.5t-48.5 -18.5q-73 0 -80 98q-24 -43 -65 -70.5t-87 -27.5q-54 0 -91 39.5t-37 121.5q0 53 17 112t47.5 113t81 89.5t110.5 35.5q69 0 82 -53zM175 70q33 0 67 32.5t43 76.5l48 227 q-3 18 -16 31t-34 13q-51 0 -92 -50.5t-60 -113.5t-19 -117q0 -99 63 -99z" />
<glyph horiz-adv-x="846" d="M525 500h114l42 -228q114 128 117 187q-12 -2 -18 -2q-44 0 -44 51q0 49 49 49q60 0 60 -75q0 -52 -34.5 -108.5t-120.5 -151.5l8 -43q1 -5 3 -16.5t3 -17.5t3 -16.5t4 -16t5 -13.5t6.5 -12t8.5 -8.5t10.5 -6.5t12.5 -2q13 0 29 6q-13 -82 -79 -82q-43 0 -68 32t-43 106 q-37 -60 -98.5 -99t-114.5 -39q-40 0 -65.5 24t-29.5 74q-24 -43 -65 -70.5t-87 -27.5q-54 0 -91 39.5t-37 119.5q0 53 17 112.5t47.5 114t80.5 90t108 35.5q72 0 85 -53l10 48h101l-73 -340q-4 -16 -4 -33q0 -57 50 -57q38 0 85.5 33.5t70.5 80.5zM172 70q35 0 69 32t44 77 l48 228q-6 43 -54 43q-49 0 -89 -51t-59 -115t-19 -120q0 -94 60 -94z" />
<glyph horiz-adv-x="497" d="M353 500h101l-73 -340q-4 -20 -4 -43q0 -47 35 -47q16 0 32 6q-11 -45 -30.5 -63.5t-48.5 -18.5q-73 0 -80 98q-24 -43 -65 -70.5t-87 -27.5q-54 0 -91 39.5t-37 121.5q0 53 17 112t47.5 113t81 89.5t110.5 35.5q69 0 82 -53zM175 70q33 0 67 32.5t43 76.5l48 227 q-3 18 -16 31t-34 13q-51 0 -92 -50.5t-60 -113.5t-19 -117q0 -99 63 -99zM262 561l91 189h85l-121 -189h-55z" />
<glyph horiz-adv-x="769" d="M402 122q0 33 19.5 64.5t51.5 31.5q20 0 31.5 -13.5t11.5 -25.5q0 -23 -12.5 -36.5t-28.5 -13.5t-24 14q0 -74 65 -74q87 0 87 97q0 21 -2.5 45.5t-8 86t-10.5 141.5q-74 -107 -179 -136q-13 -119 -90.5 -214t-185.5 -95q-57 0 -87.5 25.5t-30.5 87.5q0 32 8 72l109 507 l102 14l-51 -237q45 39 94 39q57 0 94.5 -32.5t39.5 -122.5q46 14 95 56.5t78 107.5l105 20q6 -109 12 -188.5t9.5 -114.5t3.5 -61q0 -88 -50 -130.5t-110 -42.5q-71 0 -108.5 38.5t-37.5 89.5zM294 337q0 22 15 40q-14 73 -68 73q-31 0 -72 -34l-59 -263q-5 -23 -5 -38 q0 -52 50 -52q60 0 105 72t52 166q-18 12 -18 36z" />
<glyph horiz-adv-x="382" d="M319 117q-6 -45 -37 -74.5t-64 -39t-65 -9.5q-63 0 -105 40t-42 121q0 47 14 103t42.5 113.5t81.5 95.5t121 38q105 0 105 -95q0 -36 -14 -60t-39 -24q-22 0 -33 21q12 8 21 28t9 37q0 19 -11.5 32t-32.5 13q-44 0 -81 -49.5t-55.5 -114.5t-18.5 -123q0 -52 19.5 -76 t64.5 -24q57 0 120 47z" />
<glyph horiz-adv-x="293" d="M288 561h-22l-65 101l-162 -101h-34l201 167h21z" />
<glyph horiz-adv-x="496" d="M393 686l104 14l-116 -540q-4 -20 -4 -43q0 -47 35 -47q16 0 32 6q-11 -45 -30.5 -63.5t-48.5 -18.5q-73 0 -80 98q-24 -43 -65 -70.5t-87 -27.5q-54 0 -91 39.5t-37 121.5q0 53 17 112t47.5 113t81 89.5t110.5 35.5q69 0 82 -54zM175 70q32 0 66.5 32t43.5 77l48 227 q-3 18 -15.5 31t-34.5 13q-51 0 -92 -50.5t-60 -113.5t-19 -117q0 -99 63 -99z" />
<glyph horiz-adv-x="229" d="M85 500h101l-73 -340q-4 -20 -4 -43q0 -47 35 -47q16 0 32 6q-11 -45 -30.5 -63.5t-48.5 -18.5q-35 0 -61.5 28t-26.5 89q0 33 8 68z" />
<glyph horiz-adv-x="388" d="M368 402q0 -84 -66.5 -137t-183.5 -65q-1 -11 -1 -31q0 -52 20 -75.5t67 -23.5q68 0 119 48q-22 -124 -167 -124q-63 0 -105.5 39.5t-42.5 120.5q0 36 8.5 80t28 92.5t47.5 87.5t72.5 65t96.5 26q107 0 107 -103zM270 456q-52 0 -92 -65.5t-55 -151.5q84 13 134 59.5 t50 113.5q0 44 -37 44z" />
<glyph horiz-adv-x="739" d="M418 500h114l42 -228q114 128 117 187q-12 -2 -18 -2q-44 0 -44 51q0 49 49 49q60 0 60 -75q0 -52 -34.5 -108.5t-120.5 -151.5l8 -43q1 -5 3 -16.5t3 -17.5t3 -16.5t4 -16t5 -13.5t6.5 -12t8.5 -8.5t10.5 -6.5t12.5 -2q13 0 29 6q-13 -82 -79 -82q-44 0 -70 34t-43 113 q-62 -60 -146 -104t-167 -44q-73 0 -118 39.5t-45 121.5q0 36 8.5 80t28 92.5t47.5 87.5t72.5 65t96.5 26q107 0 107 -103q0 -83 -67 -136.5t-183 -65.5q-1 -8 -1 -21q0 -57 28 -83t86 -26q73 0 142.5 35t102.5 79zM270 456q-52 0 -92.5 -67t-54.5 -150q84 12 134 59t50 114 q0 44 -37 44z" />
<glyph horiz-adv-x="389" d="M369 402q0 -84 -66.5 -137t-183.5 -65q-1 -11 -1 -31q0 -52 20 -75.5t67 -23.5q68 0 119 48q-22 -124 -167 -124q-63 0 -105.5 39.5t-42.5 120.5q0 36 8.5 80t28 92.5t47.5 87.5t72.5 65t96.5 26q107 0 107 -103zM271 456q-52 0 -92 -65.5t-55 -151.5q84 13 134 59.5 t50 113.5q0 44 -37 44zM216 561l91 189h85l-121 -189h-55z" />
<glyph horiz-adv-x="687" d="M543 500h101l-73 -340q-4 -20 -4 -43q0 -47 35 -47q16 0 32 6q-11 -45 -30.5 -63.5t-48.5 -18.5q-73 0 -80 96q-27 -48 -62.5 -72t-71.5 -24q-46 0 -78 36.5t-32 97.5q0 24 6 51l60 286h-120l-115 -545q-21 -101 -52 -135.5t-84 -34.5q-49 0 -79.5 22t-30.5 68 q0 82 160 147l122 574q8 36 18 63.5t30 59t54 48.5t80 17q55 0 85 -32.5t30 -82.5q0 -18 -3 -34h-40q3 10 3 24q0 26 -13 44t-38 18q-49 0 -71.5 -33t-37.5 -105l-10 -48h221l-73 -340q-4 -16 -4 -33q0 -28 12.5 -42.5t32.5 -14.5q31 0 61 30t40 79zM-108 -198q26 0 41 29 t28 87l7 32q-54 -24 -83.5 -53t-29.5 -56q0 -17 10 -28t27 -11z" />
<glyph horiz-adv-x="468" d="M386 564q-23 0 -35.5 13t-12.5 31q0 17 11 31t27 17q-1 48 -59 48q-89 0 -122 -156l-10 -48h80l-7 -35h-81029C66EA22" />
<glyph horiz-adv-x="467" d="M195 548l-10 -48h80l-7 -35h-81l-115 -545q-21 -101 -52 -135.5t-84 -34.5q-49 0 -79.5 22t-30.5 68q0 82 160 147l122 574q8 36 18 63.5t30 59t54 48.5t80 17q22 0 42 -2t32.5 -4t30 -8t25.5 -9.5t28.5 -12.5t29.5 -13l-116 -540q-4 -20 -4 -43q0 -47 35 -47q16 0 32 6 q-11 -45 -30.5 -63.5t-48.5 -18.5q-35 0 -62 28t-27 89q0 29 9 68l107 502q-29 9 -59 9q-48 0 -70.5 -34.5t-38.5 -107.5zM-108 -198q26 0 41 29t28 87l7 32q-54 -24 -83.5 -53t-29.5 -56q0 -17 10 -28t27 -11z" />
<glyph horiz-adv-x="460" d="M84 -160q0 45 46 82.5t113 64.5l20 91q-59 -62 -130 -62q-54 0 -91 39.5t-37 121.5q0 49 17 104.5t47.5 106t81 84t110.5 33.5q69 0 82 -53l10 48h100l-123 -580q-21 -101 -52 -135.5t-84 -34.5q-49 0 -79.5 22t-30.5 68zM175 92q29 0 63 27.5t48 65.5l47 222 q-3 18 -16 30.5t-34 12.5q-51 0 -92 -46.5t-60 -104.5t-19 -108q0 -99 63 -99zM160 -198q26 0 41 29t28 87l7 32q-54 -24 -83.5 -53t-29.5 -56q0 -17 10 -28t27 -11z" />
<glyph horiz-adv-x="479" d="M360 123q0 -53 36 -53q14 0 31 7q-4 -47 -30.5 -65t-56.5 -18q-39 0 -62.5 29.5t-23.5 82.5q0 44 24 139t24 129q0 55 -44 55q-64 0 -111 -107l-69 -322h-100l147 686l103 14l-59 -275q59 80 136 80q103 0 103 -112q0 -47 -24 -141t-24 -129z" />
<glyph horiz-adv-x="229" d="M85 500h101l-73 -340q-4 -20 -4 -43q0 -47 35 -47q16 0 32 6q-11 -45 -30.5 -63.5t-48.5 -18.5q-35 0 -61.5 28t-26.5 89q0 33 8 68zM93 644q0 27 19.5 47t46.5 20t47 -20t20 -47t-20 -46.5t-47 -19.5q-28 0 -47 19t-19 47z" />
<glyph horiz-adv-x="578" d="M257 500h114l42 -228q114 128 117 187q-12 -2 -18 -2q-44 0 -44 51q0 49 49 49q60 0 60 -75q0 -52 -34.5 -108.5t-120.5 -151.5l8 -43q1 -5 3 -16.5t3 -17.5t3 -16.5t4 -16t5 -13.5t6.5 -12t8.5 -8.5t10.5 -6.5t12.5 -2q13 0 29 6q-13 -82 -79 -82q-43 0 -68 32t-43 106 q-38 -60 -100 -99t-116 -39q-101 0 -101 109q0 31 9 76l68 321h101l-73 -340q-4 -16 -4 -33q0 -57 50 -57q38 0 85.5 33.5t70.5 80.5zM93 644q0 27 19.5 47t46.5 20t47 -20t20 -47t-20 -46.5t-47 -19.5q-28 0 -47 19t-19 47z" />
<glyph horiz-adv-x="229" d="M85 500h101l-73 -340q-4 -20 -4 -43q0 -47 35 -47q16 0 32 6q-11 -45 -30.5 -63.5t-48.5 -18.5q-35 0 -61.5 28t-26.5 89q0 33 8 68zM119 561l91 189h85l-121 -189h-55z" />
<glyph horiz-adv-x="429" d="M53 -160q0 45 46.5 82.5t113.5 64.5l109 513h100l-123 -580q-21 -101 -52 -135.5t-84 -34.5q-49 0 -79.5 22t-30.5 68zM85 500h101l-73 -340q-4 -20 -4 -43q0 -47 35 -47q16 0 32 6q-11 -45 -30.5 -63.5t-48.5 -18.5q-35 0 -61.5 28t-26.5 89q0 33 8 68zM93 644 q0 27 19.5 47t46.5 20t47 -20t20 -47t-20 -46.5t-47 -19.5q-28 0 -47 19t-19 47zM330 644q0 27 19.5 47t46.5 20t47 -20t20 -47t-20 -46.5t-47 -19.5q-28 0 -47 19t-19 47zM129 -198q26 0 41 29t28 87l7 32q-54 -24 -83.5 -52.5t-29.5 -56.5q0 -17 10 -28t27 -11z" />
<glyph horiz-adv-x="192" d="M-184 -160q0 82 160 147l109 513h100l-123 -580q-21 -101 -52 -135.5t-84 -34.5q-49 0 -79.5 22t-30.5 68zM93 644q0 27 19.5 47t46.5 20t47 -20t20 -47t-20 -46.5t-47 -19.5q-28 0 -47 19t-19 47zM-108 -198q26 0 41 29t28 87l7 32q-54 -24 -83.5 -53t-29.5 -56 q0 -17 10 -28t27 -11z" />
<glyph horiz-adv-x="481" d="M125 686l103 14l-78 -362l206 162h97l-198 -137q12 2 19 2q98 0 98 -109q0 -30 -11 -74.5t-11 -64.5q0 -47 41 -47q20 0 36 7q-2 -39 -25.5 -61t-62.5 -22q-48 0 -71.5 31t-23.5 79q0 28 11 71t11 63q0 51 -42 51q-57 0 -101 -77l-45 -212h-100z" />
<glyph horiz-adv-x="457" d="M125 686l103 14l-80 -371q110 102 166.5 139.5t96.5 37.5q23 0 35.5 -14t12.5 -30q0 -22 -15 -34.5t-32 -12.5q-11 0 -28 5t-24 5q-52 0 -128 -66q21 6 39 6q101 0 101 -113q0 -25 -11 -70t-11 -63q0 -49 30 -49q47 0 94 109h37q-23 -60 -47.5 -99.5t-47.5 -56.5t-40 -23 t-36 -6q-49 0 -72.5 31t-23.5 82q0 23 11 68t11 59q0 55 -42 55q-57 0 -101 -77l-45 -212h-100z" />
<glyph horiz-adv-x="228" d="M125 686l104 14l-116 -540q-4 -20 -4 -43q0 -47 35 -47q16 0 32 6q-11 -45 -30.5 -63.5t-48.5 -18.5q-35 0 -62 28t-27 89q0 29 9 68z" />
<glyph horiz-adv-x="705" d="M586 123q0 -53 36 -53q14 0 31 7q-4 -47 -30.5 -65t-56.5 -18q-39 0 -62.5 29.5t-23.5 82.5q0 44 24 139t24 129q0 55 -44 55q-31 0 -53.5 -25t-47.5 -82l-69 -322h-101l71 334q5 23 5 45q0 50 -41 50q-30 0 -53 -25.5t-48 -81.5l-69 -322h-100l106 500h101l-14 -64 q53 69 124 69q88 0 101 -84q57 84 135 84q103 0 103 -112q0 -47 -24 -141t-24 -129z" />
<glyph horiz-adv-x="479" d="M360 123q0 -53 36 -53q14 0 31 7q-4 -47 -30.5 -65t-56.5 -18q-39 0 -62.5 29.5t-23.5 82.5q0 44 24 139t24 129q0 55 -44 55q-62 0 -111 -107l-69 -322h-100l106 500h101l-16 -75q59 80 136 80q103 0 103 -112q0 -47 -24 -141t-24 -129z" />
<glyph horiz-adv-x="468" d="M270 505q101 0 112 -131q3 -1 10 -1q39 0 69 50h29q-43 -94 -109 -122q-8 -134 -67 -220.5t-150 -86.5q-700F471D0AEE" />
<glyph horiz-adv-x="769" d="M402 122q0 33 19.5 64.5t51.5 31.5q20 0 31.5 -13.5t11.5 -25.5q0 -23 -12.5 -36.5t-28.5 -13.5t-24 14q0 042B9B1A73" />
<glyph horiz-adv-x="468" d="M270 505q101 0 112 -131q3 -1 10 -1q39 0 69 50h29q-43 -94 -109 -122q-8 -134 -67 -220.5t-150 -86.5q-70 0 -113 38.5t-43 119.5q0 38 7 81t26 92.5t47.5 88.5t75.5 65t106 26zM202 70q46 0 83 60t47 162q-40 2 -40 47q0 49 42 56q-9 55 -59 55q-47 0 -84.5 -50 t-55 -113t-17.5 -117q0 -53 19 -76.5t65 -23.5zM276 561l91 189h85l-121 -189h-55z" />
<glyph horiz-adv-x="769" d="M402 122q0 33 19.5 64.5t51.5 31.5q20 0 31.5 -13.5t11.5 -25.5q0 -23 -12.5 -36.5t-28.5 -13.5t-24 14q0 -74 65 -74q87 0 87 97q0 21 -2.5 45.5t-8 86t-10.5 141.5q-81 -120 -201 -141q-9 -133 -68 -218.5t-149 -85.5q-70 0 -113 38.5t-43 119.5q0 38 7 81t26 92.5 t47.5 88.5t75.5 65t106 26q113 0 113 -162q45 3 103.5 49t91.5 119l105 20q6 -109 12 -188.5t9.5 -114.5t3.5 -61q0 -88 -50 -130.5t-110 -42.5q-71 0 -108.5 38.5t-37.5 89.5zM202 70q46 0 83 61t47 164q-38 3 -38 42q0 18 11 34.5t29 22.5q-10 56 -59 56q-47 0 -84.5 -50 t-55 -113t-17.5 -117q0 -53 19 -76.5t65 -23.5zM226 561l91 189h85l-121 -189h-55z" />
<glyph horiz-adv-x="468" d="M360 119q0 -49 30 -49q47 0 94 109h37q-23 -60 -47.5 -99.5t-47.5 -56.5t-40 -23t-36 -6q-49 0 -72.5 31t-23.5 82q0 46 24 140t24 127q0 55 -44 55q-62 0 -111 -106l-116 -548l-106 -25l167 787h101l-24 -112q61 80 136 80q103 0 103 -113q0 -46 -24 -140t-24 -133z" />
<glyph horiz-adv-x="438" d="M92 537h101l-19 -89q49 56 121 56q53 0 82.5 -46t29.5 -115q0 -36 -7 -83q41 10 107 22l-8 -35q-46 -3 -106 -19q-23 -99 -76 -166.5t-112 -67.5q-81 0 -81 75q0 98 172 160q13 60 13 104q0 47 -17 77t-51 30q-61 0 -94 -119l-116 -546l-106 -25zM199 65q24 0 46.5 34.5 t38.5 87.5q-103 -52 -103 -98q0 -6 6 -15t12 -9z" />
<glyph horiz-adv-x="352" d="M161 511l105 20q6 -109 12 -188.5t9.5 -114.5t3.5 -61q0 -88 -50 -130.5t-110 -42.5q-71 0 -108.5 38.5t-37.5 89.5q0 33 15.5 57.5t37.5 35.5q67 118 123 296zM186 166q0 25 -7.5 95.5t-13.5 162.5q-25 -101 -80 -212q14 -11 14 -33q0 -23 -12.5 -36.5t-28.5 -13.5 t-24 14q0 -74 65 -74q87 0 87 97z" />
<glyph horiz-adv-x="238" d="M44 465l7 35h34l30 138l104 14l-33 -152h76l-7 -35h-77l-65 -305q-5 -23 -5 -43q0 -47 36 -47q16 0 32 6q-11 -45 -30.5 -63.5t-48.5 -18.5q-41 0 -64 34.5t-23 89.5q0 32 7 61l61 286h-34z" />
<glyph horiz-adv-x="466" d="M322 500h101l-73 -340q-4 -20 -4 -43q0 -47 35 -47q16 0 32 6q-11 -45 -30.5 -63.5t-48.5 -18.5q-73 0 -80 96q-27 -48 -62.5 -72t-71.5 -24q-46 0 -78 36.5t-32 97.5q0 24 6 51l68 321h101l-73 -340q-4 -16 -4 -33q0 -28 12.5 -42.5t32.5 -14.5q31 0 61 30t40 79z" />
<glyph horiz-adv-x="816" d="M494 500h114l42 -228q114 128 117 187q-12 -2 -18 -2q-44 0 -44 51q0 49 49 49q60 0 60 -75q0 -52 -34.5 -02E7479AB6" />
<glyph horiz-adv-x="466" d="M322 500h101l-73 -340q-4 -20 -4 -43q0 -47 35 -47q16 0 32 6q-11 -45 -30.5 -63.5t-48.5 -18.5q-73 0 -80 96q-27 -48 -62.5 -72t-71.5 -24q-46 0 -78 36.5t-32 97.5q0 24 6 51l68 321h101l-73 -340q-4 -16 -4 -33q0 -28 12.5 -42.5t32.5 -14.5q31 0 61 30t40 79z M227 561l91 189h85l-121 -189h-55z" />
<glyph horiz-adv-x="511" d="M327 386l16 -110q111 125 114 183q-12 -2 -18 -2q-44 0 -44 51q0 49 49 49q60 0 60 -75q0 -53 -34 -108.5t-119 -149.5l7 -46q9 -59 21.5 -83.5t41.5 -24.5q22 0 32 6q-13 -82 -81 -82q-46 0 -74.5 43t-42.5 136l-142 -173h-68l202 223l-16 117q-7 51 -16 70.5t-23 19.5 q-56 0 -140 -253h-37q8 18 25 64.5t28.5 75t32 68.5t39 63t44.5 40t55 17q43 0 61 -32t27 -87z" />
<glyph horiz-adv-x="429" d="M84 500h101l-73 -340q-4 -16 -4 -33q0 -28 12.5 -42.5t32.5 -14.5q31 0 61 30t40 79l68 321h100l-123 -580q-21 -101 -52 -135.5t-84 -34.5q-49 0 -79.5 22t-30.5 68q0 45 46.5 82.5t113.5 64.5l13 63q-47 -56 -106 -56q-46 0 -78 36.5t-32 97.5q0 24 6 51zM129 -198 q26 0 41 29t28 87l7 32q-54 -24 -83.5 -52.5t-29.5 -56.5q0 -17 10 -28t27 -11z" />
</font>
</defs>
</svg>
